<svg width="34" height="27" viewBox="0 0 34 27" fill="none" xmlns="http://www.w3.org/2000/svg">
  <path d="M13.0816 26.8805C12.9095 26.8815 12.739 26.8476 12.5797 26.7808C12.4204 26.7139 12.2755 26.6153 12.1533 26.4908L0.386727 14.3971C0.264186 14.2721 0.166923 14.1235 0.100548 13.9598C0.0341732 13.796 0 13.6204 0 13.443C0 13.2656 0.0341732 13.09 0.100548 12.9262C0.166923 12.7625 0.264186 12.6139 0.386727 12.4889L12.1533 0.395186C12.2752 0.269896 12.42 0.170512 12.5792 0.102706C12.7385 0.0348997 12.9092 2.64027e-09 13.0816 0C13.254 -2.64027e-09 13.4247 0.0348997 13.584 0.102706C13.7432 0.170512 13.8879 0.269896 14.0098 0.395186C14.1317 0.520475 14.2284 0.669215 14.2944 0.832913C14.3604 0.996612 14.3943 1.17206 14.3943 1.34925C14.3943 1.52643 14.3604 1.70188 14.2944 1.86558C14.2284 2.02928 14.1317 2.17802 14.0098 2.30331L3.15842 13.443L14.0098 24.5827C14.1324 24.7076 14.2296 24.8562 14.296 25.02C14.3624 25.1837 14.3966 25.3594 14.3966 25.5367C14.3966 25.7141 14.3624 25.8898 14.296 26.0535C14.2296 26.2173 14.1324 26.3659 14.0098 26.4908C13.8877 26.6153 13.7428 26.7139 13.5835 26.7808C13.4242 26.8476 13.2537 26.8815 13.0816 26.8805Z" fill="white" />
  <path d="M32.6928 14.7871H1.31521C0.968469 14.7871 0.635926 14.6455 0.390741 14.3935C0.145556 14.1415 0.0078125 13.7997 0.0078125 13.4434C0.0078125 13.087 0.145556 12.7452 0.390741 12.4932C0.635926 12.2412 0.968469 12.0996 1.31521 12.0996H32.6928C33.0396 12.0996 33.3721 12.2412 33.6173 12.4932C33.8625 12.7452 34.0002 13.087 34.0002 13.4434C34.0002 13.7997 33.8625 14.1415 33.6173 14.3935C33.3721 14.6455 33.0396 14.7871 32.6928 14.7871Z" fill="white" />
</svg>

