<svg width="29" height="29" viewBox="0 0 29 29" fill="none" xmlns="http://www.w3.org/2000/svg">
  <path d="M11.2252 14.6948L7.92361 11.3402H16.3557H16.5057C19.8917 11.3402 22.6406 14.1298 22.6406 17.576C22.6406 21.0223 19.8917 23.812 16.5057 23.812H16.3557H10.7074C9.87417 23.812 9.19871 24.4874 9.19871 25.3207C9.19871 26.1539 9.87417 26.8294 10.7074 26.8294H16.3557H16.5057H16.6557V26.8281C21.5704 26.7476 25.5358 22.7145 25.6139 17.726H25.615V17.576V17.426H25.6139C25.5358 12.4376 21.5704 8.40459 16.6557 8.32401V8.32279H16.5057H16.3557H7.76726L11.228 4.42182C11.8049 3.83261 11.8039 2.88077 11.2252 2.29273C10.6442 1.70242 9.70126 1.70242 9.12029 2.29274L9.12019 2.29264L9.11579 2.29751L3.28239 8.76791C2.70508 9.35708 2.70587 10.3093 3.28475 10.8975L9.12029 16.8267C9.70126 17.4171 10.6442 17.4171 11.2252 16.8267C11.8049 16.2377 11.8049 15.2838 11.2252 14.6948Z" fill="#C1C7D1" stroke="#C1C7D1" stroke-width="0.3" />
</svg>


