<svg width="71" height="57" viewBox="0 0 71 57" fill="none" xmlns="http://www.w3.org/2000/svg">
  <path d="M48.4078 15.0245H15.5584L24.4667 7.08847C25.222 6.35337 25.668 5.35123 25.7119 4.291C25.7558 3.23077 25.3942 2.19428 24.7024 1.39765C24.0106 0.601019 23.0421 0.105735 21.9987 0.0150689C20.9554 -0.0755975 19.9178 0.245352 19.1022 0.910996L2.09028 16.0499C1.65784 16.4364 1.3115 16.9117 1.07427 17.4442C0.837045 17.9768 0.714355 18.5544 0.714355 19.1386C0.714355 19.7229 0.837045 20.3005 1.07427 20.8331C1.3115 21.3656 1.65784 21.8409 2.09028 22.2274L19.1022 37.3745C19.9178 38.0402 20.9554 38.3611 21.9987 38.2705C23.0421 38.1798 24.0106 37.6845 24.7024 36.8879C25.3942 36.0913 25.7558 35.0548 25.7119 33.9945C25.668 32.9343 25.222 31.9322 24.4667 31.1971L15.5584 23.2611H48.4078C55.8816 23.2611 61.9613 29.2821 61.9613 36.6868C61.9613 44.0915 55.8653 48.7634 48.4078 48.7634H8.79184C7.71399 48.7634 6.68029 49.1973 5.91814 49.9696C5.15599 50.7419 4.72782 51.7894 4.72782 52.8817C4.72782 53.9739 5.15599 55.0214 5.91814 55.7938C6.68029 56.5661 7.71399 57 8.79184 57H48.4078C60.3642 57 70.0894 48.6299 70.0894 36.6868C70.0894 24.7437 60.3642 15.0245 48.4078 15.0245Z" fill="#1C2B3F" />
</svg>


