<svg width="128" height="145" viewBox="0 0 128 145" fill="none" xmlns="http://www.w3.org/2000/svg">
  <path d="M64.8347 142.123C80.9623 142.103 96.4236 135.687 107.827 124.282C119.23 112.877 125.643 97.4145 125.66 81.2868C125.66 80.4308 125.32 79.6099 124.715 79.0047C124.11 78.3994 123.289 78.0594 122.433 78.0594C121.577 78.0594 120.756 78.3994 120.151 79.0047C119.545 79.6099 119.205 80.4308 119.205 81.2868C119.205 91.671 116.232 101.838 110.638 110.586C105.043 119.334 97.0604 126.298 87.6339 130.653C78.2073 135.009 67.7308 136.574 57.4427 135.165C47.1547 133.756 37.4852 129.43 29.5774 122.7C21.6696 115.969 15.854 107.116 12.8183 97.1852C9.78247 87.2547 9.65334 76.6626 12.4462 66.6611C15.239 56.6595 20.8369 47.6667 28.5783 40.7455C36.3197 33.8244 45.8808 29.2644 56.1315 27.6046C58.803 27.2205 61.4924 26.9727 64.1892 26.8623C66.8679 26.7655 69.5682 26.8623 71.4078 26.8623H72.6987H73.4733L58.0464 40.4819C57.7285 40.7644 57.4694 41.1068 57.2839 41.4895C57.0983 41.8722 56.99 42.2877 56.965 42.7123C56.94 43.1368 56.9989 43.5621 57.1383 43.9639C57.2777 44.3657 57.4949 44.7362 57.7775 45.054C58.06 45.3719 58.4024 45.631 58.7851 45.8165C59.1678 46.0021 59.5833 46.1104 60.0078 46.1354C60.4324 46.1604 60.8577 46.1015 61.2595 45.9621C61.6613 45.8227 62.0317 45.6055 62.3496 45.323L83.4244 26.7655C83.7269 26.5056 83.9786 26.1919 84.1667 25.8403L84.2313 25.7005C84.5005 25.1387 84.6014 24.511 84.5217 23.8931C84.5107 23.7731 84.4891 23.6543 84.4572 23.5381C84.3 22.9199 83.963 22.3621 83.489 21.9352L62.2958 3.30241C61.9779 3.01986 61.6075 2.80268 61.2057 2.66328C60.8039 2.52388 60.3786 2.46499 59.954 2.48996C59.5295 2.51494 59.114 2.62329 58.7313 2.80884C58.3486 2.99438 58.0062 3.25349 57.7237 3.57136C57.4411 3.88923 57.2239 4.25964 57.0845 4.66144C56.9451 5.06324 56.8862 5.48856 56.9112 5.91312C56.9362 6.33768 57.0445 6.75317 57.2301 7.13586C57.4156 7.51854 57.6747 7.86094 57.9926 8.14349L71.978 20.4291H71.5261C69.6327 20.4291 66.7819 20.3215 63.9095 20.4291C60.949 20.5383 57.9968 20.8113 55.0664 21.2467C39.9803 23.6944 26.3681 31.7308 16.9372 43.7575C7.50626 55.7841 2.94756 70.9199 4.16774 86.1546C5.38792 101.389 12.2976 115.606 23.5225 125.979C34.7474 136.351 49.4652 142.118 64.7486 142.134L64.8347 142.123Z" fill="white" />
  <path d="M56.1276 104.072H46.4136V77.4768L46.5079 73.1071L46.6651 68.3287C45.0514 69.9425 43.9301 71.0008 43.3014 71.5038L38.02 75.7478L33.3359 69.9005L48.1426 58.1118H56.1276V104.072ZM99.4801 81.092C99.4801 89.1189 98.1597 95.0604 95.519 98.9166C92.8993 102.773 88.8544 104.701 83.3845 104.701C78.0821 104.701 74.0792 102.71 71.3756 98.728C68.693 94.746 67.3517 88.8674 67.3517 81.092C67.3517 72.9813 68.6616 67.0084 71.2813 63.1731C73.901 59.3169 77.9354 57.3887 83.3845 57.3887C88.6868 57.3887 92.6897 59.4007 95.3933 63.4246C98.1178 67.4485 99.4801 73.3376 99.4801 81.092ZM77.0028 81.092C77.0028 86.7297 77.4848 90.7745 78.4489 93.2266C79.4339 95.6577 81.0791 96.8733 83.3845 96.8733C85.6479 96.8733 87.2826 95.6367 88.2886 93.1637C89.2946 90.6907 89.7975 86.6668 89.7975 81.092C89.7975 75.4544 89.2841 71.4095 88.2571 68.9574C87.2512 66.4844 85.6269 65.2479 83.3845 65.2479C81.1001 65.2479 79.4653 66.4844 78.4803 68.9574C77.4953 71.4095 77.0028 75.4544 77.0028 81.092Z" fill="white" />
</svg>


