<svg width="99" height="83" viewBox="0 0 99 83" fill="none" xmlns="http://www.w3.org/2000/svg">
  <path d="M84.5703 19.5469C89.9507 23.7015 93.601 31.8019 93.601 41.1156C93.601 50.4292 90.1263 58.1327 84.9622 62.3704" stroke="white" stroke-width="6.3155" stroke-linecap="round" stroke-linejoin="round" />
  <path d="M71.4922 25.9141C75.3884 29.2082 77.9501 34.7882 77.9501 41.1161C77.9501 47.444 75.6065 52.5366 71.9931 55.875" stroke="white" stroke-width="6.3155" stroke-linecap="round" stroke-linejoin="round" />
  <path d="M46.0426 7.67368L46.0002 7.71601L45.9595 7.75991L30.1438 24.8066H13.2864C9.50298 24.8066 6.43209 27.87 6.43209 31.6573V50.4951C6.43209 54.2823 9.50299 57.3458 13.2864 57.3458H30.3093L45.9333 74.3671L45.974 74.4115L46.0163 74.4542C50.3196 78.7977 57.7421 75.761 57.7421 69.6338V12.5186C57.7421 6.40857 50.3562 3.36433 46.0426 7.67368Z" stroke="white" stroke-width="6.3155" stroke-miterlimit="10" />
</svg>


