<svg width="29" height="29" viewBox="0 0 29 29" fill="none" xmlns="http://www.w3.org/2000/svg">
  <path d="M7.93014 21.216C6.62214 21.216 5.44014 20.934 4.38414 20.37C3.34014 19.806 2.51814 19.032 1.91814 18.048C1.33014 17.052 1.03614 15.936 1.03614 14.7C1.03614 13.464 1.33014 12.354 1.91814 11.37C2.51814 10.374 3.34014 9.594 4.38414 9.03C5.44014 8.466 6.62214 8.184 7.93014 8.184C9.23814 8.184 10.4141 8.466 11.4581 9.03C12.5021 9.594 13.3241 10.374 13.9241 11.37C14.5241 12.354 14.8241 13.464 14.8241 14.7C14.8241 15.936 14.5241 17.052 13.9241 18.048C13.3241 19.032 12.5021 19.806 11.4581 20.37C10.4141 20.934 9.23814 21.216 7.93014 21.216ZM7.93014 18.732C8.67414 18.732 9.34614 18.564 9.94614 18.228C10.5461 17.88 11.0141 17.4 11.3501 16.788C11.6981 16.176 11.8721 15.48 11.8721 14.7C11.8721 13.92 11.6981 13.224 11.3501 12.612C11.0141 12 10.5461 11.526 9.94614 11.19C9.34614 10.842 8.67414 10.668 7.93014 10.668C7.18614 10.668 6.51414 10.842 5.91414 11.19C5.31414 11.526 4.84014 12 4.49214 12.612C4.15614 13.224 3.98814 13.92 3.98814 14.7C3.98814 15.48 4.15614 16.176 4.49214 16.788C4.84014 17.4 5.31414 17.88 5.91414 18.228C6.51414 18.564 7.18614 18.732 7.93014 18.732ZM21.4256 16.05L19.7336 17.814V21H16.8356V8.4H19.7336V14.286L25.3136 8.4H28.5536L23.3336 14.016L28.8596 21H25.4576L21.4256 16.05Z" fill="#C1C7D1" />
</svg>


