<svg width="127" height="145" viewBox="0 0 127 145" fill="none" xmlns="http://www.w3.org/2000/svg">
  <path d="M63.1646 142.123C47.0568 142.103 31.6146 135.687 20.2257 124.282C8.83674 112.877 2.43112 97.4145 2.41406 81.2868C2.41406 80.4308 2.75367 79.61 3.35818 79.0047C3.96268 78.3994 4.78257 78.0594 5.63747 78.0594C6.49237 78.0594 7.31226 78.3994 7.91677 79.0047C8.52127 79.61 8.86088 80.4308 8.86088 81.2868C8.86087 91.671 11.8303 101.838 17.4181 110.586C23.0059 119.334 30.9785 126.298 40.3935 130.653C49.8084 135.009 60.272 136.574 70.5474 135.165C80.8228 133.756 90.4803 129.43 98.3784 122.7C106.276 115.969 112.085 107.116 115.117 97.1852C118.149 87.2547 118.278 76.6626 115.489 66.6611C112.699 56.6595 107.108 47.6667 99.3763 40.7455C91.6444 33.8244 82.0951 29.2644 71.857 27.6046C69.1888 27.2205 66.5027 26.9727 63.8093 26.8623C61.1338 26.7655 58.4369 26.8623 56.5996 26.8623H55.3102H54.5366L69.9445 40.4819C70.262 40.7644 70.5208 41.1068 70.7061 41.4895C70.8914 41.8722 70.9996 42.2877 71.0246 42.7123C71.0495 43.1368 70.9907 43.5621 70.8514 43.9639C70.7122 44.3657 70.4953 44.7362 70.2131 45.054C69.9309 45.3719 69.5889 45.631 69.2067 45.8165C68.8245 46.0021 68.4095 46.1104 67.9855 46.1354C67.5615 46.1604 67.1367 46.1015 66.7353 45.9621C66.334 45.8227 65.9641 45.6055 65.6466 45.323L44.5977 26.7655C44.2957 26.5056 44.0443 26.1919 43.8564 25.8403V25.8403L43.7919 25.7005C43.523 25.1387 43.4223 24.511 43.5018 23.8931C43.5128 23.7731 43.5344 23.6543 43.5663 23.5381C43.7233 22.9199 44.0598 22.3621 44.5333 21.9352V21.9352L65.7003 3.30241C66.0178 3.01986 66.3878 2.80268 66.7891 2.66328C67.1904 2.52388 67.6152 2.46499 68.0392 2.48996C68.4633 2.51494 68.8782 2.62329 69.2604 2.80884C69.6427 2.99438 69.9846 3.25349 70.2668 3.57136C70.549 3.88923 70.7659 4.25964 70.9052 4.66144C71.0444 5.06324 71.1032 5.48856 71.0783 5.91312C71.0533 6.33768 70.9451 6.75317 70.7598 7.13586C70.5745 7.51854 70.3157 7.86094 69.9982 8.14349L56.0301 20.4291H56.4814C58.3724 20.4291 61.2198 20.3215 64.0886 20.4291C67.0455 20.5383 69.994 20.8113 72.9208 21.2467C87.9883 23.6944 101.584 31.7308 111.003 43.7575C120.422 55.7841 124.975 70.9199 123.757 86.1546C122.538 101.389 115.637 115.606 104.426 125.979C93.2147 136.351 78.5151 142.118 63.2505 142.134L63.1646 142.123Z" fill="white" />
  <path d="M52.413 104.072H42.6991V77.4768L42.7934 73.1071L42.9506 68.3287C41.3368 69.9425 40.2156 71.0008 39.5869 71.5038L34.3055 75.7478L29.6214 69.9005L44.4281 58.1118H52.413V104.072ZM95.7655 81.092C95.7655 89.1189 94.4452 95.0604 91.8045 98.9166C89.1848 102.773 85.1399 104.701 79.6699 104.701C74.3676 104.701 70.3647 102.71 67.6611 98.728C64.9785 94.746 63.6372 88.8674 63.6372 81.092C63.6372 72.9813 64.9471 67.0084 67.5668 63.1731C70.1865 59.3169 74.2209 57.3887 79.6699 57.3887C84.9723 57.3887 88.9752 59.4007 91.6788 63.4246C94.4033 67.4485 95.7655 73.3376 95.7655 81.092ZM73.2883 81.092C73.2883 86.7297 73.7703 90.7745 74.7344 93.2266C75.7194 95.6577 77.3646 96.8733 79.6699 96.8733C81.9334 96.8733 83.5681 95.6367 84.5741 93.1637C85.58 90.6907 86.083 86.6668 86.083 81.092C86.083 75.4544 85.5696 71.4095 84.5426 68.9574C83.5366 66.4844 81.9124 65.2479 79.6699 65.2479C77.3855 65.2479 75.7508 66.4844 74.7658 68.9574C73.7808 71.4095 73.2883 75.4544 73.2883 81.092Z" fill="white" />
</svg>


