<svg width="82" height="82" viewBox="0 0 82 82" fill="none" xmlns="http://www.w3.org/2000/svg">
  <path d="M30.0035 5.30493C30.225 5.82787 30.4229 6.31312 30.6208 6.79366C31.2051 8.20388 31.7878 9.61723 32.369 11.0337C32.5827 11.6427 32.9856 12.1673 33.5189 12.531C34.0522 12.8946 34.6878 13.0782 35.3329 13.0548H35.6722C36.2753 12.9936 38.6314 12.7297 40.9874 12.7297H41.2042C43.089 12.7297 44.9739 12.9323 46.0152 12.9842C46.1472 12.9842 46.2697 12.9842 46.3922 12.9842C48.0933 12.9842 49.0593 12.3434 49.7519 10.6757L51.9431 5.38031L58.4222 8.04213C57.6824 9.85593 56.9285 11.7074 56.1698 13.5542C55.4819 15.2172 55.6986 16.2584 57.1123 17.4692C57.5835 17.8696 59.3552 19.3066 60.9432 20.8942C62.1872 22.1333 64.7883 25.2897 65.3443 25.7043C65.7895 26.0544 66.3377 26.2481 66.904 26.2555C67.3053 26.2506 67.7013 26.1641 68.0679 26.0011C69.769 25.2709 71.4842 24.5878 73.1947 23.867L73.9958 23.5372C74.9005 25.7232 75.7817 27.8432 76.6911 30.0433C75.4754 30.5521 74.2832 31.0421 73.0958 31.5321L70.9894 32.4083C70.3166 32.6312 69.7438 33.0839 69.3715 33.687C68.9993 34.29 68.8514 35.0049 68.9538 35.7062C69.0056 36.3704 69.3496 39.004 69.3591 41.6093C69.3591 43.3241 69.0669 45.0673 69.0104 45.9907C68.8831 48.0306 69.4392 49.0058 71.3052 49.7596C73.0863 50.4945 74.8581 51.2483 76.5592 51.9597L73.8591 58.48C72.0874 57.7356 70.2025 56.93 68.313 56.1244C67.8582 55.9236 67.3681 55.8147 66.871 55.804C66.4178 55.8185 65.9735 55.9349 65.5714 56.1445C65.1692 56.3541 64.8194 56.6516 64.548 57.0148C63.3087 58.4282 62.1919 59.9169 60.8631 61.2549C59.7678 62.3046 58.6079 63.2849 57.3903 64.1899C56.1039 65.217 55.2604 66.6115 56.2311 68.6608C57.0416 70.3757 57.7013 72.1612 58.4505 73.975L51.9619 76.6604L51.0195 74.4367C50.5483 73.3155 50.0771 72.1895 49.6059 71.0682C48.9886 69.5842 48.0038 68.9388 46.4817 68.9388H46.0718C43.7534 69.099 41.4304 69.2497 39.112 69.2921H38.9801C37.8916 69.2921 36.8031 69.0424 35.7099 68.9671H35.3046C33.7826 68.9671 32.8967 69.6266 32.2747 71.1248L30.0318 76.6604L23.5526 73.975C24.2311 72.3308 24.8484 70.5877 25.6542 68.9388C26.7144 66.7669 26.0877 65.3159 24.4432 64.1051C21.8958 62.2203 19.6493 59.9599 17.7803 57.4011C16.998 56.3364 16.197 55.8511 15.2169 55.8511C14.5832 55.8732 13.9602 56.0205 13.3839 56.2846L8.00262 58.4847C7.09319 56.294 6.21673 54.174 5.3073 51.9738L8.2665 50.7489L11.0042 49.6135C12.5215 48.987 13.1765 47.9505 13.0399 46.2733C12.9268 44.86 12.7713 43.098 12.5687 41.2842C12.366 39.4704 12.8561 37.9345 12.9315 35.9182C12.9468 35.2657 12.8642 34.6146 12.6865 33.9866C12.5894 33.6489 12.413 33.3394 12.172 33.0837C11.931 32.828 11.6324 32.6336 11.3011 32.5167C9.30317 31.7158 7.31465 30.8819 5.35442 30.0763C6.26385 27.8997 7.14973 25.7703 8.07802 23.5419L12.6111 25.4264L13.4545 25.7797C13.9473 25.994 14.477 26.1108 15.0142 26.1236C15.5087 26.1087 15.9933 25.9818 16.4316 25.7525C16.8699 25.5232 17.2505 25.1974 17.5447 24.7998C18.2845 23.9376 19.7452 22.1945 20.6028 21.1722C21.4604 20.1498 23.1379 19.0851 24.8437 17.5681C26.182 16.395 26.4977 15.2125 25.8285 13.5825C25.1594 11.9524 24.495 10.3742 23.8259 8.74409L23.5526 8.04213C23.7599 7.92906 23.8824 7.84897 24.0238 7.79243C25.9888 6.97269 27.9584 6.16237 30.027 5.30493H30.0035ZM30.027 0.593756C29.4092 0.59276 28.7974 0.714464 28.227 0.951806L26.9972 1.46061L22.2144 3.43931C21.9391 3.55737 21.6715 3.69269 21.4133 3.84447L21.3143 3.901C20.2902 4.45635 19.5082 5.37134 19.1192 6.46934C18.7302 7.56733 18.7618 8.77048 19.208 9.84651L19.3824 10.2658L19.4955 10.5485L20.2447 12.3481L21.1588 14.5624C20.7489 14.8969 20.3342 15.222 19.929 15.5376C18.8644 16.3075 17.8836 17.187 17.0028 18.1617L16.5598 18.6894C15.9331 19.4385 15.1462 20.3948 14.5148 21.1251L14.4488 21.0968L11.0796 19.6834L9.91574 19.2123C9.33036 18.97 8.70212 18.8483 8.06859 18.8543C7.13857 18.8542 6.22932 19.1293 5.45537 19.6449C4.68142 20.1605 4.07737 20.8935 3.71931 21.7516L0.995711 28.2766C0.757242 28.8491 0.634154 29.463 0.633509 30.0831C0.632865 30.7032 0.754675 31.3173 0.991954 31.8903C1.22923 32.4632 1.57731 32.9837 2.01622 33.4219C2.45514 33.86 2.97625 34.2072 3.54968 34.4436L5.20363 35.1267C6.18846 35.5366 7.19685 35.9558 8.21467 36.3704C8.18168 36.7567 8.12985 37.1525 8.07802 37.5576C7.85418 38.9499 7.7988 40.364 7.91309 41.7694C8.06859 43.3006 8.1864 44.6385 8.27593 45.6656L7.3335 46.0472L6.46176 46.4099L5.55232 46.7868L3.50256 47.6348C2.93069 47.8717 2.4111 48.2189 1.97346 48.6565C1.53583 49.0942 1.18873 49.6138 0.951994 50.1856C0.715259 50.7574 0.593526 51.3702 0.59375 51.9891C0.593975 52.608 0.716152 53.2207 0.953302 53.7924L3.17742 59.1678L3.64863 60.2985C4.12708 61.452 5.04403 62.3685 6.19799 62.8464C7.35194 63.3243 8.64847 63.3246 9.80265 62.8472L11.9702 61.9521L14.5148 60.8968C16.4179 63.3725 18.6356 65.5897 21.1117 67.4925C20.6075 68.5902 20.1693 69.6643 19.7735 70.7102C19.5756 71.1813 19.3871 71.6901 19.1892 72.1707C18.7197 73.3196 18.7226 74.6073 19.1973 75.754C19.6719 76.9008 20.5801 77.814 21.7243 78.2952L22.6102 78.6862L28.2082 81.0418C28.785 81.2802 29.4029 81.4035 30.027 81.4046C30.9648 81.4036 31.881 81.1229 32.6584 80.5983C33.4357 80.0738 34.0388 79.3293 34.3905 78.4601L35.0926 76.7593L36.3224 73.7866H36.4779C37.3217 73.9168 38.1735 73.9892 39.0272 74.0033H39.2439C41.3597 73.9656 43.4189 73.8431 45.643 73.6924L46.2273 75.1057L46.6985 76.2317L47.0943 77.1739L47.6221 78.4459C48.1005 79.5995 49.0175 80.5159 50.1714 80.9939C51.3254 81.4718 52.6219 81.4721 53.7761 80.9947L57.1829 79.5813L60.2694 78.3046C60.8412 78.0678 61.3608 77.7206 61.7985 77.283C62.2361 76.8453 62.5832 76.3257 62.8199 75.7539C63.0567 75.1821 63.1784 74.5692 63.1782 73.9504C63.178 73.3315 63.0558 72.7187 62.8186 72.1471C62.5925 71.6053 62.3757 71.0635 62.1637 70.5265C61.7584 69.5135 61.339 68.4771 60.8725 67.4312L60.9574 67.3653C62.1178 66.4965 63.2197 65.5522 64.2558 64.5386C65.1983 63.5539 66.0606 62.5504 66.871 61.5752L67.4648 60.8685L70.4334 62.1217L72.0402 62.8001C72.6113 63.0401 73.2241 63.1651 73.8436 63.1681C74.4631 63.171 75.0771 63.0518 75.6504 62.8173C76.2237 62.5827 76.7452 62.2374 77.1849 61.8012C77.6247 61.365 77.9741 60.8463 78.2131 60.2749L79.4053 57.3964L80.9131 53.7547C81.3827 52.6058 81.3797 51.3181 80.9051 50.1713C80.4304 49.0245 79.5223 48.1113 78.378 47.6301L76.823 46.98C75.8194 46.556 74.7968 46.1273 73.7696 45.7033C73.7696 45.6043 73.7696 45.5007 73.8026 45.397C73.9688 44.1379 74.0585 42.8698 74.0712 41.5998C74.0712 39.607 73.8827 37.6424 73.7554 36.3846L74.2267 36.182L74.8816 35.9087L77.9115 34.6556L78.477 34.42C79.0524 34.1846 79.5755 33.8377 80.0162 33.3992C80.4569 32.9608 80.8065 32.4395 81.0447 31.8654C81.283 31.2912 81.4053 30.6757 81.4046 30.0541C81.4038 29.4325 81.28 28.8172 81.0404 28.2437L79.3817 24.2297L78.345 21.7328C77.8666 20.5793 76.9496 19.6628 75.7957 19.1849C74.6417 18.707 73.3452 18.7067 72.191 19.1841L71.3853 19.5138L69.8821 20.1357C69.0952 20.4608 68.2894 20.7906 67.4836 21.1298L66.7721 20.3242C65.8768 19.3065 64.9532 18.256 64.2605 17.5634C63.0213 16.3244 61.7207 15.2078 60.882 14.4964L62.1165 11.4719L62.7904 9.82295C63.2585 8.67111 63.2522 7.38095 62.7729 6.23371C62.2936 5.08647 61.3802 4.17516 60.2317 3.69842L59.5531 3.41575L53.7572 1.01305C52.6031 0.535372 51.3066 0.535372 50.1525 1.01305C49.5771 1.24828 49.054 1.595 48.6132 2.03324C48.1725 2.47148 47.8228 2.99257 47.5844 3.56651L46.9294 5.19186L45.6995 8.21644L45.2802 8.18817C44.2152 8.10808 42.7497 7.99502 41.2419 7.99502H40.9827C39.2015 7.99502 37.4628 8.15048 36.3507 8.24942L35.5072 6.27543L34.9748 4.994L34.3575 3.50055C34.0006 2.63989 33.3964 1.90435 32.6214 1.38695C31.8464 0.869555 30.9354 0.593522 30.0035 0.593756H30.027Z" fill="white" />
  <path d="M40.987 29.9927C43.55 29.9798 46.0371 30.8616 48.0194 32.4859C50.0018 34.1102 51.355 36.3752 51.8459 38.8903C52.3367 41.4053 51.9343 44.0128 50.7081 46.263C49.4819 48.5132 47.5087 50.2651 45.1289 51.2165C43.8208 51.7801 42.4113 52.0703 40.987 52.0692C38.0589 52.0692 35.2507 50.9063 33.1802 48.8362C31.1097 46.7661 29.9465 43.9585 29.9465 41.0309C29.9465 38.1034 31.1097 35.2958 33.1802 33.2257C35.2507 31.1556 38.0589 29.9927 40.987 29.9927ZM40.987 25.2815C36.8091 25.2815 32.8024 26.9408 29.8482 29.8944C26.894 32.848 25.2344 36.8539 25.2344 41.0309C25.2344 45.208 26.894 49.2139 29.8482 52.1675C32.8024 55.1211 36.8091 56.7804 40.987 56.7804C43.0403 56.7878 45.0735 56.3758 46.9619 55.5696C50.3516 54.2003 53.1579 51.6925 54.8979 48.4778C56.6379 45.2632 57.2028 41.5427 56.4953 37.9565C55.7879 34.3704 53.8524 31.143 51.0219 28.8296C48.1914 26.5162 44.6428 25.2615 40.987 25.2815Z" fill="white" />
</svg>


