<svg width="99" height="100" viewBox="0 0 99 100" fill="none" xmlns="http://www.w3.org/2000/svg">
  <path d="M84.5703 28.5469C89.9507 32.7015 93.601 40.8019 93.601 50.1156C93.601 59.4292 90.1263 67.1327 84.9622 71.3704" stroke="white" stroke-width="6.3155" stroke-linecap="round" stroke-linejoin="round" />
  <path d="M71.4922 34.9141C75.3884 38.2082 77.9501 43.7882 77.9501 50.1161C77.9501 56.444 75.6065 61.5366 71.9931 64.875" stroke="white" stroke-width="6.3155" stroke-linecap="round" stroke-linejoin="round" />
  <path d="M46.0426 16.6737L46.0002 16.716L45.9595 16.7599L30.1438 33.8066H13.2864C9.50298 33.8066 6.43209 36.87 6.43209 40.6573V59.4951C6.43209 63.2823 9.50299 66.3458 13.2864 66.3458H30.3093L45.9333 83.3671L45.974 83.4115L46.0163 83.4542C50.3196 87.7977 57.7421 84.761 57.7421 78.6338V21.5186C57.7421 15.4086 50.3562 12.3643 46.0426 16.6737Z" stroke="white" stroke-width="6.3155" stroke-miterlimit="10" />
  <path d="M95.9994 3.04263L3.60727 97.4997" stroke="white" stroke-width="6.3155" />
</svg>


