<svg width="47" height="39" viewBox="0 0 47 39" fill="none" xmlns="http://www.w3.org/2000/svg">
<path d="M33.7478 26.3095L32.1779 24.6759C32.8097 24.0215 33.3104 23.2433 33.651 22.3862C33.9917 21.5291 34.1655 20.6102 34.1625 19.6827C34.1586 17.814 33.4435 16.0229 32.1737 14.7016C30.9038 13.3802 29.1826 12.6361 27.3868 12.632C26.2107 12.6256 25.0537 12.9404 24.0311 13.5448C23.0084 14.1492 22.156 15.0221 21.5589 16.0764L19.6484 14.8898C20.4514 13.4996 21.5855 12.3485 22.9412 11.548C24.2968 10.7475 25.8281 10.3246 27.3868 10.3203C29.7724 10.3224 32.0598 11.3094 33.7467 13.0648C35.4336 14.8201 36.3821 17.2002 36.3841 19.6827C36.388 20.9138 36.1571 22.1336 35.7045 23.2712C35.252 24.4087 34.5869 25.4414 33.7478 26.3095V26.3095Z" fill="white"/>
<path d="M27.7358 6.09794C27.4412 6.09794 27.1586 5.97618 26.9503 5.75941C26.742 5.54265 26.625 5.24865 26.625 4.9421V1.35897C26.625 1.05242 26.742 0.75842 26.9503 0.541657C27.1586 0.324894 27.4412 0.203125 27.7358 0.203125C28.0304 0.203125 28.3129 0.324894 28.5212 0.541657C28.7295 0.75842 28.8465 1.05242 28.8465 1.35897V4.9421C28.8465 5.24865 28.7295 5.54265 28.5212 5.75941C28.3129 5.97618 28.0304 6.09794 27.7358 6.09794V6.09794Z" fill="white"/>
<path d="M44.9682 20.839H41.5248C41.2302 20.839 40.9477 20.7173 40.7394 20.5005C40.5311 20.2837 40.4141 19.9897 40.4141 19.6832C40.4141 19.3766 40.5311 19.0826 40.7394 18.8659C40.9477 18.6491 41.2302 18.5273 41.5248 18.5273H44.9682C45.2628 18.5273 45.5453 18.6491 45.7536 18.8659C45.962 19.0826 46.079 19.3766 46.079 19.6832C46.079 19.9897 45.962 20.2837 45.7536 20.5005C45.5453 20.7173 45.2628 20.839 44.9682 20.839Z" fill="white"/>
<path d="M39.0852 32.9077C38.7909 32.9066 38.5088 32.7847 38.3003 32.5686L36.5897 30.7809C36.4858 30.6742 36.4033 30.547 36.347 30.4068C36.2907 30.2666 36.2617 30.1161 36.2617 29.9641C36.2617 29.8122 36.2907 29.6618 36.347 29.5215C36.4033 29.3813 36.4858 29.2542 36.5897 29.1474C36.7989 28.9328 37.0809 28.8125 37.3746 28.8125C37.6684 28.8125 37.9503 28.9328 38.1596 29.1474L39.8702 30.935C39.974 31.0418 40.0565 31.169 40.1128 31.3092C40.1691 31.4494 40.1981 31.5999 40.1981 31.7519C40.1981 31.9038 40.1691 32.0542 40.1128 32.1944C40.0565 32.3346 39.974 32.4618 39.8702 32.5686C39.7673 32.6763 39.645 32.7617 39.5103 32.8199C39.3756 32.8781 39.2311 32.908 39.0852 32.9077V32.9077Z" fill="white"/>
<path d="M17.5897 10.396C17.2954 10.3949 17.0133 10.2731 16.8048 10.057L15.0942 8.27695C14.9901 8.16949 14.9074 8.04173 14.851 7.90088C14.7947 7.76003 14.7656 7.60893 14.7656 7.45634C14.7656 7.30376 14.7947 7.15265 14.851 7.0118C14.9074 6.87095 14.9901 6.7431 15.0942 6.63564C15.3034 6.42106 15.5853 6.30078 15.8791 6.30078C16.1729 6.30078 16.4548 6.42106 16.6641 6.63564L18.3746 8.4234C18.4785 8.53019 18.561 8.65737 18.6173 8.79758C18.6736 8.93779 18.7026 9.08819 18.7026 9.24015C18.7026 9.3921 18.6736 9.5426 18.6173 9.68281C18.561 9.82302 18.4785 9.9502 18.3746 10.057C18.2718 10.1647 18.1496 10.2501 18.0148 10.3083C17.8801 10.3665 17.7356 10.3963 17.5897 10.396V10.396Z" fill="white"/>
<path d="M37.3752 10.9508C37.2298 10.9525 37.0855 10.9241 36.9508 10.8672C36.816 10.8103 36.6935 10.7261 36.5903 10.6194C36.4862 10.512 36.4035 10.3841 36.3471 10.2432C36.2907 10.1024 36.2617 9.95138 36.2617 9.7988C36.2617 9.64621 36.2907 9.49511 36.3471 9.35426C36.4035 9.21341 36.4862 9.08555 36.5903 8.9781L39.0192 6.45063C39.1218 6.34253 39.244 6.25675 39.3788 6.19817C39.5135 6.13959 39.6581 6.10938 39.8041 6.10938C39.9501 6.10938 40.0947 6.13959 40.2295 6.19817C40.3642 6.25675 40.4864 6.34253 40.5891 6.45063C40.6929 6.55743 40.7754 6.68461 40.8317 6.82482C40.888 6.96503 40.917 7.11552 40.917 7.26748C40.917 7.41943 40.888 7.56983 40.8317 7.71004C40.7754 7.85025 40.6929 7.97743 40.5891 8.08422L38.1602 10.6194C37.95 10.832 37.6684 10.9509 37.3752 10.9508V10.9508Z" fill="white"/>
<path d="M16.5316 15.1433C18.5696 15.1346 20.5367 15.9211 22.0447 17.3476C23.5527 18.7741 24.4921 20.7371 24.6773 22.849C25.2117 22.7036 25.7615 22.6285 26.3139 22.6255C28.0323 22.6255 29.6804 23.3359 30.8955 24.6003C32.1107 25.8648 32.7934 27.5797 32.7934 29.3679C32.7934 31.1561 32.1107 32.8711 30.8955 34.1356C29.6804 35.4 28.0323 36.1103 26.3139 36.1103H9.08946C7.32189 36.1103 5.62672 35.3797 4.37686 34.0791C3.12699 32.7786 2.42482 31.0146 2.42482 29.1753C2.41821 27.438 3.03849 25.7614 4.16294 24.4772C5.28738 23.193 6.83409 22.3946 8.49706 22.2402C8.80661 20.253 9.78576 18.4453 11.2593 17.1408C12.7328 15.8362 14.6044 15.1199 16.539 15.1202L16.5316 15.1433ZM16.539 12.8085C14.3525 12.808 12.2218 13.527 10.4515 14.8626C8.68129 16.1981 7.36218 18.0818 6.68279 20.2445C4.81191 20.7815 3.16326 21.9451 1.99196 23.5554C0.820666 25.1656 0.192009 27.1327 0.203274 29.1522C0.203274 31.6046 1.13949 33.9565 2.80597 35.6906C4.47246 37.4247 6.7327 38.399 9.08946 38.399H26.2916C28.5987 38.3969 30.8107 37.4423 32.4421 35.7448C34.0734 34.0473 34.9907 31.7455 34.9927 29.3449C34.9891 26.9673 34.0885 24.6862 32.4846 22.9928C30.8808 21.2994 28.7021 20.3291 26.4175 20.2907C25.7539 18.1071 24.4365 16.2015 22.6579 14.8525C20.8792 13.5036 18.7326 12.7819 16.5316 12.7931L16.539 12.8085Z" fill="white"/>
</svg>


