<svg width="142" height="40" viewBox="0 0 142 40" fill="none" xmlns="http://www.w3.org/2000/svg">
<path d="M18.3041 16.0477H15.9377C15.8371 16.0549 15.7359 16.0425 15.6403 16.0113C15.5446 15.98 15.4564 15.9306 15.3806 15.8659C15.3192 15.8074 15.2709 15.7373 15.2387 15.6599C15.2064 15.5826 15.191 15.4996 15.1933 15.4161C15.1932 15.3365 15.2098 15.2578 15.242 15.1846C15.2742 15.1114 15.3213 15.0453 15.3806 14.9903C15.4557 14.9246 15.5439 14.8746 15.6397 14.8433C15.7356 14.8121 15.837 14.8002 15.9377 14.8085H28.8447V5.71729H13.167C7.7209 5.71729 3.86721 7.33137 1.60594 10.5595C0.565213 11.9885 0.00552624 13.6949 0.00366594 15.4448C-0.0553539 17.4874 0.599741 19.4892 1.86231 21.1244C3.96581 24.1421 7.55492 25.6509 12.6296 25.6509H14.9961C15.0967 25.6435 15.1979 25.6557 15.2936 25.687C15.3893 25.7182 15.4776 25.7677 15.5532 25.8327C15.6153 25.8906 15.6641 25.9606 15.6964 26.0382C15.7286 26.1157 15.7437 26.1989 15.7405 26.2825C15.7424 26.3623 15.7266 26.4416 15.6943 26.5151C15.662 26.5885 15.6139 26.6544 15.5532 26.7083C15.4782 26.7742 15.39 26.8244 15.2942 26.8557C15.1983 26.887 15.0968 26.8987 14.9961 26.8902H2.10388V36.0531H17.7717C23.2178 36.0531 27.0698 34.4374 29.3278 31.2061C30.3633 29.7754 30.9178 28.0691 30.9153 26.3208C30.9153 23.7497 30.2974 21.6843 29.0616 20.1244C26.9581 17.4066 23.3673 16.0477 18.2894 16.0477" fill="white"/>
<path d="M29.7962 14.8324H37.5216V36.01H50.8674V14.8324H58.647V5.73163H29.7962V14.8324Z" fill="white"/>
<path d="M119.958 0.554448L110.536 9.68869L117.33 16.2822C116.825 16.9239 116.182 17.4513 115.447 17.8277C114.926 18.1483 114.318 18.3085 113.702 18.2872C113.086 18.2658 112.491 18.0639 111.995 17.7081L106.804 12.6696C106.284 12.1236 105.643 11.7004 104.928 11.4325C104.214 11.1646 103.446 11.0591 102.683 11.1241C102.047 11.185 101.426 11.3466 100.844 11.6026C100.331 11.798 99.8456 12.0552 99.3991 12.3682C100.865 8.79871 100.193 5.70293 97.3827 3.08084C92.4526 -1.3244 87.3977 -1.00541 82.2178 4.0378L72.9196 13.0668V5.73164H59.6084V36.0053H72.9196V23.0575L89.815 39.4551L99.2364 30.3113L92.4428 23.7178C92.9488 23.0773 93.5912 22.5502 94.3261 22.1723C94.9007 21.8393 95.5662 21.684 96.234 21.7273C96.7904 21.7814 97.3224 21.9761 97.7771 22.2919L102.969 27.3304C103.488 27.8764 104.13 28.2996 104.844 28.5675C105.559 28.8354 106.327 28.9409 107.09 28.8759C107.725 28.8129 108.346 28.6514 108.929 28.3974C109.441 28.2001 109.926 27.943 110.374 27.6318C108.908 31.1949 109.58 34.2907 112.39 36.9192C117.32 41.3244 122.375 41.0054 127.555 35.9622L142 21.9426L119.958 0.554448ZM88.7649 13.995C88.6474 14.6538 88.3136 15.258 87.8134 15.7176L86.0386 17.4353L83.2334 14.7128L84.9885 13.0094C85.4656 12.5146 86.0922 12.1795 86.7781 12.0524C87.0498 11.9922 87.3328 11.9998 87.6005 12.0747C87.8683 12.1495 88.1122 12.2891 88.3092 12.4803C88.5063 12.6716 88.6501 12.9082 88.7272 13.1681C88.8043 13.428 88.8122 13.7027 88.7501 13.9663L88.7649 13.995ZM124.769 26.9667C124.293 27.462 123.666 27.7972 122.98 27.9237C122.708 27.9839 122.425 27.9762 122.157 27.9014C121.89 27.8266 121.646 27.687 121.449 27.4957C121.252 27.3045 121.108 27.0678 121.031 26.808C120.954 26.5481 120.946 26.2734 121.008 26.0097C121.124 25.352 121.458 24.7491 121.959 24.292L123.734 22.5695L126.539 25.292L124.769 26.9667Z" fill="white"/>
</svg>


