<svg width="174" height="174" viewBox="0 0 174 174" fill="none" xmlns="http://www.w3.org/2000/svg">
<path d="M86.929 1.29473e-06C69.7361 1.29473e-06 52.9293 5.0983 38.6339 14.6502C24.3385 24.2021 13.1966 37.7785 6.61712 53.6627C0.0376649 69.5469 -1.68382 87.0254 1.67036 103.888C5.02453 120.751 13.3037 136.24 25.461 148.397C37.6182 160.554 53.1075 168.834 69.97 172.188C86.8326 175.542 104.311 173.82 120.195 167.241C136.08 160.661 149.656 149.52 159.208 135.224C168.76 120.929 173.858 104.122 173.858 86.929C173.86 75.5128 171.613 64.208 167.245 53.6604C162.877 43.1128 156.474 33.529 148.402 25.4565C140.329 17.384 130.745 10.981 120.198 6.61306C109.65 2.24517 98.3453 -0.00196914 86.929 1.29473e-06ZM127.484 95.338L65.792 130.738C64.5098 131.449 63.0643 131.813 61.5983 131.794C60.1323 131.775 58.6966 131.374 57.4329 130.631C56.1693 129.888 55.1213 128.828 54.3927 127.556C53.664 126.283 53.2798 124.843 53.278 123.377V50.476C53.2813 49.0105 53.6664 47.5711 54.3954 46.2998C55.1245 45.0285 56.1722 43.9691 57.4354 43.226C58.6986 42.483 60.1336 42.082 61.599 42.0625C63.0644 42.043 64.5096 42.4058 65.792 43.115L127.484 80.621C128.791 81.3546 129.878 82.423 130.635 83.7162C131.393 85.0095 131.792 86.481 131.792 87.9795C131.792 89.478 131.393 90.9495 130.635 92.2428C129.878 93.536 128.791 94.6044 127.484 95.338Z" fill="white"/>
</svg>


