<svg width="20" height="19" viewBox="0 0 20 19" fill="none" xmlns="http://www.w3.org/2000/svg">
<path d="M8.20815 1.85201L0.301147 15.542C0.133546 15.8325 0.0453458 16.162 0.0454102 16.4974C0.0454746 16.8328 0.1338 17.1622 0.301514 17.4526C0.469227 17.7431 0.710427 17.9842 1.00087 18.1519C1.29131 18.3196 1.62077 18.408 1.95615 18.408H17.7701C18.1055 18.408 18.435 18.3196 18.7254 18.1519C19.0159 17.9842 19.2571 17.7431 19.4248 17.4526C19.5925 17.1622 19.6808 16.8328 19.6809 16.4974C19.6809 16.162 19.5927 15.8325 19.4251 15.542L11.5181 1.85201C11.3502 1.56174 11.1089 1.32074 10.8184 1.1532C10.5279 0.985655 10.1985 0.897461 9.86314 0.897461C9.5278 0.897461 9.19835 0.985655 8.90787 1.1532C8.61738 1.32074 8.37607 1.56174 8.20815 1.85201Z" fill="#FF0000"/>
<path d="M9.86421 16.2333C10.4441 16.2333 10.9142 15.7632 10.9142 15.1833C10.9142 14.6034 10.4441 14.1333 9.86421 14.1333C9.28431 14.1333 8.81421 14.6034 8.81421 15.1833C8.81421 15.7632 9.28431 16.2333 9.86421 16.2333Z" fill="white"/>
<path d="M11.2183 6.0542C11.2183 6.8022 11.2183 13.4302 9.86426 13.4302C8.51026 13.4302 8.51025 6.8022 8.51025 6.0542C8.51025 5.6951 8.65291 5.3507 8.90683 5.09677C9.16075 4.84285 9.50515 4.7002 9.86426 4.7002C10.2234 4.7002 10.5677 4.84285 10.8217 5.09677C11.0756 5.3507 11.2183 5.6951 11.2183 6.0542Z" fill="white"/>
</svg>


