<svg xmlns="http://www.w3.org/2000/svg" viewBox="0 0 400 400" xml:space="preserve"><path fill="#328BCB" d="M274.8 257.3s-55 26.9-64 32.5c-9 5.6-12.4 8.2-16.9 14.7-13.9 20.3-8.6 48 11.9 61.9 20.5 13.8 48.4 8.5 62.3-11.8 4.5-6.6 5.3-10.3 7.6-21.5s6.2-71.1 6.2-71.1c.4-4.7-2.8-6.8-7.1-4.7zM155.8 257.3s-55 26.9-64 32.5c-9 5.6-12.4 8.2-16.9 14.7-13.9 20.3-8.6 48 11.9 61.9 20.5 13.8 48.4 8.5 62.3-11.8 4.5-6.6 5.3-10.3 7.6-21.5s6.2-71.1 6.2-71.1c.3-4.7-2.8-6.8-7.1-4.7z"/><path fill="#A8A8A9" d="M89.1 52.2c16 14.7 26 35.9 26 59.3 0 44.5-36.1 80.7-80.7 80.7-5 0-9.9-.5-14.7-1.4 14.4 13.2 33.5 21.3 54.6 21.3 44.5 0 80.7-36.1 80.7-80.7.1-39.4-28.4-72.3-65.9-79.2z"/><path fill="#D8D9D9" d="M314.5 98.9c-5.6 0-11 .8-16.2 2.2-9.7-28.5-35.8-48.9-66.6-48.9-37.7 0-68.5 30.6-70.5 69.2-2.3-.3-4.6-.5-7-.5-29.3 0-53.1 24.7-53.1 55.1 0 30.4 23.8 55.1 53.1 55.1h160.3c35.2 0 63.7-29.6 63.7-66.1-.1-36.5-28.6-66.1-63.7-66.1z"/></svg>

