<svg xmlns="http://www.w3.org/2000/svg" width="56" height="56" viewBox="0 0 56 56">
  <path d="M11.138 0a12.349 12.349 0 0 1 3.995 9.106c0 6.837-5.542 12.379-12.379 12.379-.771 0-1.523-.074-2.255-.209a12.33 12.33 0 0 0 8.383 3.272c6.837 0 12.379-5.542 12.379-12.38C21.262 6.104 16.897 1.061 11.138 0z" fill="#A8A7A8" />
  <path d="M45.727 7.172c-.855 0-1.688.116-2.481.331C41.759 3.132 37.746 0 33.025 0c-5.784 0-10.51 4.702-10.818 10.621a8.014 8.014 0 0 0-1.08-.083c-4.501.002-8.148 3.786-8.148 8.455 0 4.67 3.647 8.455 8.148 8.455h24.6c5.398 0 9.773-4.538 9.773-10.139 0-5.598-4.375-10.137-9.773-10.137z" fill="#D8D9D9" />
</svg>


