<svg xmlns="http://www.w3.org/2000/svg" viewBox="0 0 400 400" xml:space="preserve"><path fill="#A7A6A7" d="M97 42.7c15.9 14.7 25.9 35.6 25.9 59 0 44.3-35.9 80.2-80.2 80.2-5 0-9.9-.5-14.6-1.4 14.3 13.2 33.3 21.2 54.3 21.2 44.3 0 80.2-35.9 80.2-80.2-.1-39.2-28.3-71.9-65.6-78.8z"/><path fill="#328BCB" d="M160.5 224.2c6.4.1 12.8.2 19.1.2 49.3 0 98.5-.1 147.8-.2 2.4 0 4.8-.4 7.3-.6 0 9.9-2.5 19.5-4 29.2-4.3 27-8.9 53.9-13.4 80.9-.5 2.9-.9 5.8-4.1 7.1-4.4 1.7-7.8-.3-8.9-5.6-2.8-13.2-5.3-26.5-8-39.7-1.4-6.9-2.8-13.9-5.2-20.8-3.1 9.6-6.2 19.1-9.3 28.7-.8 2.6-1.7 5.2-2.6 7.8-1 3-3 5-6.3 5s-5.3-2.2-6.3-5.1c-2.4-6.9-4.5-13.8-6.9-20.7-1.7-5-3.6-9.9-6.2-14.7-2.7 13.5-5.5 27-8.2 40.5-3.2 16.1-6.2 32.2-9.4 48.3-.6 3.3-1.2 6.8-4.8 8.3-4 1.6-7.9-1.1-8.6-6.2-2.2-15.9-4.3-31.9-6.4-47.9l-5.4-41.1c-.1-1.1-.2-2.1-1.6-3.1-2.3 5.3-4.5 10.6-6.7 15.9-3.6 8.7-7.3 17.4-10.9 26-1.4 3.3-2.9 6.7-7.4 6.1-4.3-.6-5.5-3.9-6.2-7.5l-11.1-55.8c-2-10-3.9-20-5.9-29.9-.4-1.8-.8-3.4-.4-5.1z"/><path fill="#D7D8D8" d="M323.7 89.2c-5.7 0-11.2.8-16.5 2.2-9.9-29.1-36.5-49.9-67.9-49.9-38.4 0-69.8 31.3-71.9 70.6-2.4-.3-4.7-.5-7.2-.5-29.9 0-54.2 25.2-54.2 56.2s24.2 56.2 54.1 56.2h163.5c35.9 0 64.9-30.2 64.9-67.4.2-37.2-28.9-67.4-64.8-67.4z"/></svg>

