<svg xmlns="http://www.w3.org/2000/svg" viewBox="0 0 400 400" xml:space="preserve"><path fill="#308BCB" d="M291.7 252.7s-54.3 26.5-63.1 32.1c-8.9 5.6-12.3 8.1-16.7 14.5-13.7 20.1-8.5 47.4 11.7 61 20.2 13.6 47.7 8.4 61.4-11.6 4.5-6.5 5.2-10.1 7.5-21.2 2.3-11 6.1-70.1 6.1-70.1.5-4.7-2.6-6.8-6.9-4.7zM161.7 279.5s-32.1 15.7-37.3 19c-5.3 3.3-7.2 4.8-9.8 8.6-8.1 11.8-5 28 6.9 36 11.9 8.1 28.2 5 36.3-6.9 2.7-3.9 3.1-6 4.4-12.5 1.3-6.5 3.6-41.4 3.6-41.4.3-2.8-1.6-4-4.1-2.8z"/><path fill="#A7A6A7" d="M89 40.3c16 14.7 26 35.9 26 59.3 0 44.5-36.1 80.7-80.7 80.7-5 0-9.9-.5-14.7-1.4 14.4 13.2 33.5 21.3 54.6 21.3 44.5 0 80.7-36.1 80.7-80.7 0-39.4-28.4-72.3-65.9-79.2z"/><path fill="#D7D8D8" d="M314.3 87c-5.6 0-11 .8-16.2 2.2-9.7-28.5-35.8-48.9-66.6-48.9-37.7 0-68.5 30.6-70.5 69.2-2.3-.3-4.6-.5-7-.5-29.3 0-53.1 24.7-53.1 55.1 0 30.4 23.8 55.1 53.1 55.1h160.3c35.2 0 63.7-29.6 63.7-66.1 0-36.5-28.5-66.1-63.7-66.1z"/></svg>

