<svg xmlns="http://www.w3.org/2000/svg" width="56" height="56" viewBox="0 0 56 56">
  <path d="M25.007 19.482c0 5.524 4.387 10.002 9.796 10.002 5.411 0 9.796-4.478 9.796-10.002S40.214 9.481 34.804 9.481c-5.409 0-9.797 4.477-9.797 10.001zm-2.691.037v-.072c0-.857-.686-1.557-1.524-1.557h-3.579c-.839 0-1.525.699-1.525 1.557v.072c0 .857.686 1.557 1.525 1.557h3.579c.839-.001 1.524-.7 1.524-1.557zm30.079-1.629h-3.578c-.839 0-1.525.699-1.525 1.557v.072c0 .857.687 1.557 1.525 1.557h3.578c.839 0 1.525-.699 1.525-1.557v-.072c0-.858-.687-1.557-1.525-1.557zM44.393 2.601l-.062-.037a1.513 1.513 0 0 0-2.083.57l-1.789 3.164c-.421.742-.169 1.699.557 2.125l.064.037a1.513 1.513 0 0 0 2.082-.568l1.788-3.165c.419-.743.169-1.698-.557-2.126zM28.592 30.542l-.062-.036a1.513 1.513 0 0 0-2.083.568l-1.79 3.165c-.417.74-.168 1.699.558 2.125l.062.037a1.513 1.513 0 0 0 2.083-.568l1.789-3.166c.418-.74.168-1.697-.557-2.125zm14.57.532a1.51 1.51 0 0 0-2.082-.568l-.064.036a1.577 1.577 0 0 0-.557 2.125l1.789 3.166c.42.74 1.355.998 2.083.568l.062-.037c.727-.426.977-1.385.558-2.125l-1.789-3.165zM26.446 7.892c.419.74 1.356.997 2.083.568l.062-.037c.727-.426.978-1.383.558-2.125l-1.79-3.164a1.51 1.51 0 0 0-2.082-.57l-.062.037a1.578 1.578 0 0 0-.557 2.126l1.788 3.165zm-2.997 3.058-3.1-1.827a1.512 1.512 0 0 0-2.082.571l-.036.063c-.419.739-.168 1.698.558 2.125l3.101 1.826a1.514 1.514 0 0 0 2.083-.568l.036-.063a1.582 1.582 0 0 0-.56-2.127zm27.368 16.133-3.099-1.828a1.513 1.513 0 0 0-2.082.57l-.036.063a1.58 1.58 0 0 0 .56 2.127l3.099 1.826a1.511 1.511 0 0 0 2.082-.569l.037-.063a1.582 1.582 0 0 0-.561-2.126zm-5.18-13.942a1.51 1.51 0 0 0 2.082.568l3.101-1.826c.726-.427.977-1.386.56-2.125l-.037-.063a1.514 1.514 0 0 0-2.084-.571l-3.099 1.827a1.58 1.58 0 0 0-.558 2.127l.035.063zM34.768 6.733h.071c.839 0 1.524-.699 1.524-1.555V1.524c0-.856-.684-1.556-1.524-1.556h-.071c-.839 0-1.525.699-1.525 1.556v3.654c.001.856.686 1.555 1.525 1.555zm.071 25.498h-.071c-.839 0-1.525.701-1.525 1.555v3.656c0 .855.687 1.555 1.525 1.555h.071c.839 0 1.524-.699 1.524-1.555v-3.656c0-.853-.683-1.555-1.524-1.555z" fill="#FAAD1C" />
  <path d="M25.551 17.769c-.493 0-.973.066-1.43.191-.855-2.519-3.167-4.323-5.886-4.323-3.333 0-6.055 2.709-6.233 6.118a4.893 4.893 0 0 0-.622-.048c-2.593.002-4.694 2.182-4.694 4.871s2.102 4.871 4.694 4.871h14.172c3.11 0 5.63-2.614 5.63-5.841 0-3.224-2.521-5.839-5.631-5.839z" fill="#D8D9D9" />
</svg>


