<svg xmlns="http://www.w3.org/2000/svg" viewBox="0 0 400 400" xml:space="preserve"><g fill="#328BCB"><path d="M174.2 285.6s-32.6 16-38 19.3c-5.3 3.3-7.4 4.9-10 8.7-8.2 12.1-5.1 28.5 7 36.7 12.1 8.2 28.7 5.1 36.9-7 2.7-3.9 3.1-6.1 4.5-12.7s3.7-42.2 3.7-42.2c.3-2.8-1.6-4.1-4.1-2.8zM274.2 285.6s-32.6 16-38 19.3c-5.3 3.3-7.4 4.9-10 8.7-8.2 12.1-5.1 28.5 7 36.7 12.1 8.2 28.7 5.1 36.9-7 2.7-3.9 3.1-6.1 4.5-12.7s3.7-42.2 3.7-42.2c.3-2.8-1.6-4.1-4.1-2.8z"/></g><path fill="#D8D9D9" d="M283.7 76.7c-6.2 0-12.3.8-18.1 2.4-10.8-31.9-40.1-54.7-74.5-54.7-42.2 0-76.6 34.3-78.8 77.4-2.6-.3-5.2-.6-7.9-.6-32.8 0-59.4 27.6-59.4 61.6s26.6 61.6 59.4 61.6h179.3c39.3 0 71.2-33.1 71.2-73.9 0-40.8-31.8-73.8-71.2-73.8z"/></svg>

