<svg xmlns="http://www.w3.org/2000/svg" viewBox="0 0 1900 1900" xml:space="preserve"><path fill="#2594E3" d="m805.7 1540.4 171.9 65.3-60.5 173.7-171.9-65.3 60.5-173.7zM1300.5 1309.7l171.9 65.3-60.5 173.7-171.9-65.3 60.5-173.7z"/><path fill="#D8D9D9" d="M1245.4 333c-26.4 0-50.2 3-73.7 8.9-41.3-129.8-162.2-221.3-300.9-221.3-171.1 0-309.5 138.7-318.4 312.5-11.9 0-20.8-3-32.4-3-132.8 0-238.8 112-238.8 250.7s106 250.8 238.8 250.8h725.4c159.2 0 289-132.8 289-297.9 0-167.9-129.5-300.7-289-300.7z"/><path fill="#2594E3" d="M520 985.5h-2.8l252.7 542 48.9-22.8-242.1-519.2H520zM1119.5 985.5l145.1 311.3 49-22.9-134.5-288.4zM1587.7 1065.2l-66.2-26.4 53.1-47.7c5.3-5.3 5.3-10.7 0-16l-21.1-21.1c-5.3-5.3-10.7-5.3-16 0l-47.7 42.4-13.3-60.8c0-5.3-8-10.7-13.3-8l-29.1 5.3c-5.3 0-10.7 8-8 13.3l13.3 63.5-60.8-23.8c-5.3-2.7-13.3 0-16 5.3l-10.7 26.4c-2.7 5.3 0 13.3 5.3 13.3l66.2 26.4-53.1 47.7c-5.3 5.3-5.3 10.7 0 16l21.1 21.1c5.3 5.3 10.7 5.3 16 0l47.7-45.1 13.3 63.5c0 5.3 8 10.7 13.3 8l29.1-5.3c5.3 0 10.7-8 8-13.3l-13.3-63.5 60.8 23.8c5.3 2.7 13.3 0 16-5.3l10.7-26.4c2.7-5.3 0-10.6-5.3-13.3zM1154.3 1294.1l-93.9-37.6 72.9-68.1c7.1-7.1 7.1-16.6 0-23.4l-30.5-30.5c-7.1-7.1-16.6-7.1-23.4 0l-68.1 63.4-18.7-89.2c-2.4-9.5-9.5-14.2-18.7-11.8l-42.3 9.5c-9.5 2.4-14.2 9.5-11.8 18.7l18.7 89.2-86.8-32.9c-9.5-2.4-18.7 0-21.1 9.5l-16.3 40c-2.4 7.1 0 16.6 9.5 21.1l93.9 37.6-70.5 63.4c-7.1 7.1-7.1 16.6 0 23.4l30.5 30.5c7.1 7.1 16.3 7.1 23.4 0l68.1-63.4 18.7 89.2c2.4 9.5 9.5 14.2 18.7 11.8l42.3-7.1c9.5-2.4 14.2-9.5 11.8-18.7l-18.7-89.2 86.8 32.9c9.5 2.4 18.7 0 21.1-9.5l16.3-40c-.3-7-2.6-16.5-11.9-18.8z"/></svg>

