<svg xmlns="http://www.w3.org/2000/svg" viewBox="0 0 400 400" xml:space="preserve"><path fill="#A7A6A7" d="M78.1 49.7c16 14.7 26 35.9 26 59.3 0 44.5-36.1 80.7-80.7 80.7-5 0-9.9-.5-14.7-1.4 14.4 13.2 33.5 21.3 54.6 21.3 44.5 0 80.7-36.1 80.7-80.7.1-39.4-28.3-72.3-65.9-79.2z"/><path fill="#D7D8D8" d="M303.5 96.4c-5.6 0-11 .8-16.2 2.2-9.7-28.5-35.8-48.9-66.6-48.9-37.7 0-68.5 30.6-70.5 69.2-2.3-.3-4.6-.5-7-.5-29.3 0-53.1 24.7-53.1 55.1 0 30.4 23.8 55.1 53.1 55.1h160.3c35.2 0 63.7-29.6 63.7-66.1 0-36.5-28.5-66.1-63.7-66.1z"/><path fill="#318ACA" d="m267.4 310.6-19-7.4 14.8-13.9c1.3-1.2 1.4-3.3.1-4.5l-6-6.3c-1.2-1.3-3.3-1.3-4.6-.1l-13.5 12.7-3.6-18.1c-.3-1.7-2-2.9-3.8-2.5l-8.5 1.7c-1.7.3-2.9 2-2.6 3.8l3.6 18.1-17.3-6.7c-1.7-.6-3.5.2-4.2 1.8l-3.2 8c-.7 1.6.2 3.5 1.8 4.2l19 7.4-14.8 13.9c-1.3 1.2-1.4 3.3-.1 4.6l6 6.3c1.2 1.3 3.3 1.3 4.6.1l13.5-12.6 3.6 18.1c.3 1.7 2.1 2.9 3.8 2.5l8.5-1.7c1.7-.3 2.9-2 2.6-3.8l-3.6-18 17.3 6.7c1.7.6 3.5-.2 4.2-1.8l3.2-8c.7-2-.1-3.8-1.8-4.5zM351.9 266.4l-13.4-5.2 10.5-9.8c.9-.9 1-2.3.1-3.2l-4.2-4.4c-.9-.9-2.3-.9-3.2-.1l-9.5 8.9-2.5-12.8c-.2-1.2-1.4-2-2.7-1.8l-6 1.2c-1.2.2-2.1 1.4-1.8 2.7l2.5 12.8-12.2-4.7c-1.2-.4-2.5.1-3 1.3l-2.2 5.7c-.5 1.2.1 2.5 1.3 2.9l13.4 5.2-10.5 9.8c-.9.9-1 2.3-.1 3.2l4.2 4.4c.9.9 2.3.9 3.2.1l9.5-8.9 2.5 12.8c.2 1.2 1.5 2 2.7 1.8l6-1.2c1.2-.2 2-1.4 1.8-2.7l-2.5-12.7 12.2 4.7c1.2.5 2.5-.1 3-1.3l2.2-5.7c.4-1.2-.2-2.5-1.3-3zM131 235.4l55.2 120.1 9.2-4.3-52.7-114.8c-3.9.1-7.9-.3-11.7-1zM259 236.5l33.3 71.9 9.2-4.2-31.3-67.7z"/><circle fill="#318ACA" cx="305.9" cy="324.6" r="13.2"/><circle fill="#318ACA" cx="200.5" cy="371.6" r="13.2"/></svg>

