<svg xmlns="http://www.w3.org/2000/svg" viewBox="0 0 400 400" xml:space="preserve"><path fill="#F7AB1D" d="M166 157.6c0 44.3 35.2 80.3 78.6 80.3 43.4 0 78.6-35.9 78.6-80.3S288 77.3 244.6 77.3c-43.4 0-78.6 36-78.6 80.3zm219.7-12.8H357c-6.7 0-12.2 5.6-12.2 12.5v.6c0 6.9 5.5 12.5 12.2 12.5h28.7c6.7 0 12.2-5.6 12.2-12.5v-.6c.1-6.9-5.4-12.5-12.2-12.5zM321.5 22.1l-.5-.3c-5.8-3.4-13.4-1.4-16.7 4.6l-14.4 25.4c-3.4 6-1.3 13.6 4.5 17.1l.5.3c5.8 3.4 13.3 1.4 16.7-4.6L326 39.2c3.4-6 1.3-13.6-4.5-17.1zm-9.9 228.5c-3.4-5.9-10.9-8-16.7-4.6l-.5.3c-5.8 3.4-7.8 11.1-4.5 17.1l14.4 25.4c3.4 5.9 10.9 8 16.7 4.6l.5-.3c5.8-3.4 7.8-11.1 4.5-17.1l-14.4-25.4zm-134.1-186c3.4 5.9 10.9 8 16.7 4.6l.5-.3c5.8-3.4 7.9-11.1 4.5-17.1l-14.4-25.4c-3.4-6-10.9-8-16.7-4.6l-.5.3c-5.8 3.4-7.8 11.1-4.5 17.1l14.4 25.4zm195.6 154-24.9-14.7c-5.8-3.4-13.3-1.4-16.7 4.6l-.3.5c-3.4 6-1.4 13.6 4.5 17.1l24.9 14.7c5.8 3.4 13.4 1.4 16.7-4.6l.3-.5c3.3-6 1.3-13.7-4.5-17.1zm-41.6-111.9c3.4 5.9 10.9 8 16.7 4.6l24.9-14.7c5.8-3.4 7.8-11.1 4.5-17.1l-.3-.5c-3.4-6-10.9-8-16.7-4.6l-24.9 14.7c-5.8 3.5-7.8 11.1-4.5 17.1l.3.5zm-87.2-51.4h.6c6.7 0 12.2-5.6 12.2-12.5V13.5c0-6.9-5.5-12.5-12.2-12.5h-.6c-6.7 0-12.2 5.6-12.2 12.5v29.3c0 6.9 5.5 12.5 12.2 12.5z"/><path fill="#D7D8D8" d="M224.3 108.4c-5.4 0-10.8.7-15.8 2.1-9.5-27.9-35-47.8-65.1-47.8-36.9 0-67 30-68.9 67.7-2.3-.3-4.5-.5-6.9-.5-28.7 0-51.9 24.1-51.9 53.9s23.2 53.9 51.9 53.9h156.7c34.4 0 62.3-28.9 62.3-64.6 0-35.8-27.9-64.7-62.3-64.7z"/><path fill="#318ACA" d="m192.1 320.9-19-7.4 14.8-13.9c1.3-1.2 1.4-3.3.1-4.5l-6-6.3c-1.2-1.3-3.3-1.3-4.6-.1L164 301.3l-3.6-18.1c-.3-1.7-2-2.9-3.8-2.5l-8.5 1.7c-1.7.3-2.9 2-2.6 3.8l3.6 18.1-17.3-6.7c-1.7-.6-3.5.2-4.2 1.8l-3.2 8c-.7 1.6.2 3.5 1.8 4.2l19 7.4-14.8 13.9c-1.3 1.2-1.4 3.3-.1 4.6l6 6.3c1.2 1.3 3.3 1.3 4.6.1l13.5-12.6 3.6 18.1c.3 1.7 2.1 2.9 3.8 2.5l8.5-1.7c1.7-.3 2.9-2 2.6-3.8l-3.6-18 17.3 6.7c1.7.6 3.5-.2 4.2-1.8l3.2-8c.6-1.9-.3-3.8-1.9-4.4zM276.5 276.6l-13.4-5.2 10.5-9.8c.9-.9 1-2.3.1-3.2l-4.2-4.4c-.9-.9-2.3-.9-3.2-.1l-9.5 8.9-2.5-12.8c-.2-1.2-1.4-2-2.7-1.8l-6 1.2c-1.2.2-2.1 1.4-1.8 2.7l2.5 12.8-12.2-4.7c-1.2-.4-2.5.1-3 1.3l-2.2 5.7c-.5 1.2.1 2.5 1.3 2.9l13.4 5.2-10.5 9.8c-.9.9-1 2.3-.1 3.2l4.2 4.4c.9.9 2.3.9 3.2.1l9.5-8.9 2.5 12.8c.2 1.2 1.5 2 2.7 1.8l6-1.2c1.2-.2 2-1.4 1.8-2.7l-2.5-12.7 12.2 4.7c1.2.5 2.5-.1 3-1.3l2.2-5.7c.4-1.2-.2-2.5-1.3-3zM55.7 245.7l55.2 120.1 9.2-4.3-52.7-114.8c-4 0-7.9-.4-11.7-1zM183.6 246.7l33.3 72 9.2-4.3-31.3-67.7z"/><circle fill="#318ACA" cx="230.5" cy="334.9" r="13.2"/><circle fill="#318ACA" cx="125.1" cy="381.9" r="13.2"/></svg>

