<svg xmlns="http://www.w3.org/2000/svg" viewBox="0 0 56 56" xml:space="preserve"><path fill="#FAAD1C" d="M25 19.5c0 5.5 4.4 10 9.8 10s9.8-4.5 9.8-10-4.4-10-9.8-10S25 14 25 19.5zm27.4-1.6h-3.6c-.8 0-1.5.7-1.5 1.6v.1c0 .9.7 1.6 1.5 1.6h3.6c.8 0 1.5-.7 1.5-1.6v-.1c0-.9-.7-1.6-1.5-1.6zm-8-15.3c-.8-.5-1.7-.2-2.1.5l-1.8 3.2c-.5.7-.2 1.7.5 2.1h.1c.7.4 1.7.2 2.1-.6L45 4.7c.4-.7.1-1.7-.6-2.1zM28.6 30.5c-.8-.5-1.7-.2-2.1.5l-1.8 3.2c-.4.7-.2 1.7.6 2.1h.1c.7.4 1.7.2 2.1-.6l1.8-3.2c.3-.6 0-1.5-.7-2zm14.6.6c-.4-.7-1.4-1-2.1-.6H41c-.7.4-1 1.4-.6 2.1l1.8 3.2c.4.7 1.4 1 2.1.6h.1c.7-.4 1-1.4.6-2.1l-1.8-3.2zM26.4 7.9c.4.7 1.4 1 2.1.6h.1c.7-.4 1-1.4.6-2.1l-1.8-3.2c-.4-.7-1.4-1-2.1-.6h-.1c-.7.4-1 1.4-.6 2.1l1.8 3.2zm24.4 19.2-3.1-1.8c-.7-.4-1.7-.2-2.1.6v.1c-.4.7-.2 1.7.6 2.1l3.1 1.8c.7.4 1.7.2 2.1-.6v-.1c.4-.7.1-1.7-.6-2.1zm-5.2-14c.4.7 1.4 1 2.1.6l3.1-1.8c.7-.4 1-1.4.6-2.1v-.1c-.4-.7-1.4-1-2.1-.6l-3.1 1.8c-.8.5-1 1.4-.6 2.2zM34.8 6.7c.9 0 1.6-.7 1.6-1.6V1.5c0-.9-.7-1.6-1.5-1.6h-.1c-.8 0-1.5.7-1.5 1.6v3.7c-.1.8.6 1.5 1.5 1.5zm0 25.5c-.9 0-1.6.7-1.6 1.6v3.7c0 .9.7 1.6 1.5 1.6h.1c.8 0 1.5-.7 1.5-1.6v-3.7c.1-.9-.6-1.6-1.5-1.6z"/><path fill="#D8D9D9" d="M32.3 13.4c-.7 0-1.3.1-2 .3-1.2-3.5-4.4-6-8.1-6-4.6 0-8.3 3.7-8.6 8.4-.3 0-.6-.1-.9-.1-3.6 0-6.5 3-6.5 6.7s2.9 6.7 6.5 6.7h19.5c4.3 0 7.8-3.6 7.8-8.1 0-4.3-3.4-7.9-7.7-7.9z"/><path fill="#F8AD1D" d="m21.5 40.9-5.2.1 3.4-6.6c.1-.1 0-.2 0-.3-.1-.1-.2-.2-.3-.2l-5.7-.1c-.2 0-.3.1-.4.2L8.9 44.9c0 .1 0 .2.1.3.1.1.2.1.3.1h5.1l-2.1 7c0 .2 0 .3.2.4h.2c.1 0 .3-.1.3-.2l8.8-11.1c.1-.1.1-.2 0-.4 0 0-.2-.1-.3-.1z"/></svg>

