<svg xmlns="http://www.w3.org/2000/svg" viewBox="0 0 256 256" xml:space="preserve"><path fill="#D8D9D9" d="M60 135.9c0-4.9-3.8-8.7-8.2-8.7H32.3c-4.4 0-8.2 3.8-8.2 8.7v.5c0 4.9 3.8 8.7 8.2 8.7h19.6c4.3-.5 8.1-4.3 8.1-9.2zM223.7 127.2h-19.6c-4.4 0-8.2 3.8-8.2 8.7v.5c0 4.9 3.8 8.7 8.2 8.7h19.6c4.4 0 8.2-3.8 8.2-8.7v-.5c0-4.9-3.8-8.7-8.2-8.7zM180.2 44c-4.4-2.7-9.2-1.1-11.4 2.7L159 64.1c-2.2 3.8-1.1 9.2 3.3 11.4h.5c3.8 2.2 9.2 1.1 11.4-3.3l9.8-17.4c1.1-3.2 0-8.6-3.8-10.8zM82.3 72.8c2.2 3.8 7.6 5.4 11.4 3.3h.5c3.8-2.2 5.4-7.6 3.3-11.4l-9.8-17.4c-2.2-3.8-7.6-5.4-11.4-3.3h-.5c-3.8 2.2-5.4 7.6-3.3 11.4l9.8 17.4zM66 89.7l-16.9-9.8c-3.8-2.2-9.2-1.1-11.4 3.3v.5c-2.2 3.8-1.1 9.2 3.3 11.4l16.9 9.8c3.8 2.2 9.2 1.1 11.4-3.3v-.5c2.1-4.4.5-9.3-3.3-11.4zM186.7 101.1c2.2 3.8 7.6 5.4 11.4 3.3l16.9-9.8c3.8-2.2 5.4-7.6 3.3-11.4v-.5c-2.2-3.8-7.6-5.4-11.4-3.3L190 89.1c-4.4 2.7-6 7.6-3.3 12zM127.5 66.3c4.9 0 8.7-3.8 8.7-8.7V37.5c0-4.9-3.8-8.7-8.2-8.7h-.5c-4.4 0-8.2 3.8-8.2 8.7v20.1c0 4.9 3.8 8.7 8.2 8.7zM221 187c-12.5 0-19.6-5.4-24.5-9.2-4.4-3.3-6.5-4.9-12.5-4.9s-8.2 1.6-12.5 4.9c-4.9 3.8-12 9.2-24.5 9.2s-19.6-5.4-24.5-9.2c-4.4-3.3-6.5-4.9-12.5-4.9s-8.2 1.6-12.5 4.9c-4.9 3.8-12 9.2-24.5 9.2s-19.6-5.4-24.5-9.2c-4.4-3.3-6.5-4.9-12.5-4.9-5.4 0-9.8-4.4-9.8-9.8s4.4-9.8 9.8-9.8c12.5 0 19.6 5.4 24.5 9.2 4.4 3.3 6.5 4.9 12.5 4.9s8.2-1.6 12.5-4.9c4.9-3.8 12-9.2 24.5-9.2s19.6 5.4 24.5 9.2c4.4 3.3 6.5 4.9 12.5 4.9s8.2-1.6 12.5-4.9c4.9-3.8 12-9.2 24.5-9.2s19.6 5.4 24.5 9.2c4.4 3.3 6.5 4.9 12.5 4.9 5.4 0 9.8 4.4 9.8 9.8 0 5.5-4.4 9.8-9.8 9.8zM221 227.2c-12.5 0-19.6-5.4-24.5-9.2-4.4-3.3-6.5-4.9-12.5-4.9s-8.2 1.6-12.5 4.9c-4.9 3.8-12 9.2-24.5 9.2s-19.6-5.4-24.5-9.2c-4.4-3.3-6.5-4.9-12.5-4.9s-8.2 1.6-12.5 4.9c-4.9 3.8-12 9.2-24.5 9.2s-19.6-5.4-24.5-9.2c-4.4-3.3-6.5-4.9-12.5-4.9-5.4 0-9.8-4.4-9.8-9.8s4.4-9.8 9.8-9.8c12.5 0 19.6 5.4 24.5 9.2 4.4 3.3 6.5 4.9 12.5 4.9s8.2-1.6 12.5-4.9c4.9-3.8 12-9.2 24.5-9.2s19.6 5.4 24.5 9.2c4.4 3.3 6.5 4.9 12.5 4.9s8.2-1.6 12.5-4.9c4.9-3.8 12-9.2 24.5-9.2s19.6 5.4 24.5 9.2c4.4 3.3 6.5 4.9 12.5 4.9 5.4 0 9.8 4.4 9.8 9.8 0 5.5-4.4 9.8-9.8 9.8z"/><path fill="#D8D9D9" d="M79.6 153.3c5.4-4.4 15.2-11.4 31.5-11.4s26.1 7.1 31.5 11.4c3.3 2.7 3.3 2.7 5.4 2.7 1.6 0 1.6 0 5.4-2.7 5.4-3.8 13.6-10.3 27.7-11.4 0-2.2.5-3.8.5-6 0-29.9-23.9-54.4-53.3-54.4S75 106 75 135.9c0 6.5 1.1 13.1 3.3 18.5.2-.6.8-.6 1.3-1.1z"/></svg>

