<svg xmlns="http://www.w3.org/2000/svg" width="56" height="56" viewBox="0 0 56 56">
  <path d="M52.439 15.737h-3.578c-.839 0-1.525.699-1.525 1.557v.072c0 .857.687 1.557 1.525 1.557h3.578c.839 0 1.525-.699 1.525-1.557v-.072c.001-.857-.686-1.557-1.525-1.557zM44.438.448l-.062-.037a1.513 1.513 0 0 0-2.083.57l-1.789 3.164c-.421.742-.169 1.699.557 2.125l.064.037a1.513 1.513 0 0 0 2.082-.568l1.788-3.165a1.579 1.579 0 0 0-.557-2.126zM28.636 28.39l-.062-.036a1.513 1.513 0 0 0-2.083.568l-1.79 3.165c-.417.74-.168 1.699.558 2.125l.062.037a1.513 1.513 0 0 0 2.083-.568l1.789-3.166c.419-.741.169-1.698-.557-2.125zm14.571.532a1.51 1.51 0 0 0-2.082-.568l-.064.036a1.577 1.577 0 0 0-.557 2.125l1.789 3.166c.42.74 1.355.998 2.083.568l.062-.037c.727-.426.977-1.385.558-2.125l-1.789-3.165zm7.655-3.991-3.099-1.828a1.513 1.513 0 0 0-2.082.57l-.037.062a1.58 1.58 0 0 0 .56 2.127l3.099 1.826a1.511 1.511 0 0 0 2.082-.569l.037-.063c.418-.743.166-1.698-.56-2.125zm-5.18-13.943a1.51 1.51 0 0 0 2.082.568l3.101-1.826c.726-.427.977-1.386.56-2.125l-.037-.063a1.514 1.514 0 0 0-2.084-.571l-3.099 1.827a1.58 1.58 0 0 0-.558 2.127l.035.063zM34.884 30.079h-.071c-.839 0-1.525.701-1.525 1.555v3.656c0 .855.687 1.555 1.525 1.555h.071c.839 0 1.524-.699 1.524-1.555v-3.656c0-.854-.683-1.555-1.524-1.555z" fill="#FAAD1C" />
  <path d="M34.871 7.172c-.855 0-1.688.116-2.481.331C30.903 3.132 26.89 0 22.17 0c-5.785 0-10.51 4.702-10.819 10.621a8.014 8.014 0 0 0-1.08-.083c-4.501.002-8.148 3.786-8.148 8.455 0 4.67 3.647 8.455 8.148 8.455h24.6c5.398 0 9.773-4.538 9.773-10.139.001-5.598-4.374-10.137-9.773-10.137z" fill="#D8D9D9" />
</svg>


