<svg xmlns="http://www.w3.org/2000/svg" viewBox="0 0 256 256" xml:space="preserve"><path fill="#D0202B" d="M97.1 143H67.8c-.3 0-.6.1-1.1.2 0 5.6-.1 11.1 0 16.6 0 1.8-.5 2.9-2.1 4-10.8 7.3-15.5 20.4-12.1 33 3.4 12.2 14.4 21.3 27.1 22.2 13.6 1 26.3-7.3 30.9-20.1 4.6-13 .1-27.2-11.3-35-1.7-1.1-2.2-2.3-2.1-4.2.1-5.5 0-11 0-16.7z"/><path fill="#2594E3" d="M110.9 101.8v50.9c0 1.6.5 2.7 1.6 3.9 12.7 13.2 16.9 28.7 11.3 46.1-5.5 17.4-17.9 27.9-35.9 31.2-25.2 4.6-49.7-13.7-52.7-39.2-1.8-15 2.9-27.8 13.4-38.5.8-.8 1.4-2.3 1.4-3.5.1-33.6 0-67.2.1-100.8 0-15.8 11.7-28.6 27.5-30.3 15-1.6 29.1 8.5 32.5 23.6.5 2.4.8 4.9.8 7.3.1 16.5 0 32.9 0 49.3zM95.6 128c0-.6.1-1.1.1-1.6V52c0-8.8-7-15.5-15.7-15.3-8.3.2-14.7 6.9-14.7 15.5v73.6c0 .7.1 1.4.1 2.1 10.2.1 20 .1 30.2.1z"/><g fill="#2AA5E8"><path d="M245.1 109v-.6c0-.4-.1-.8-.2-1.2v-.2c-1.2-6.6-6.6-11.9-13.6-12.7h-.8c-3.7-.2-7.5.9-10.6 3.4-1.2 1-1.4 2.8-.4 4 1 1.2 2.8 1.4 4 .4 4.2-3.4 10.4-2.7 13.7 1.5 1 1.3 1.7 2.8 2 4.3v.1c0 .2.1.5.1.8V109.7c0 .3 0 .6-.1 1-.6 5-4.9 8.8-9.8 8.7H118.6c-1.6 0-2.9 1.3-2.9 2.9 0 1.6 1.3 2.9 2.9 2.9H229.8c3.3 0 6.4-1.1 8.9-3 .2-.1.4-.2.6-.4 3.8-3 5.8-7.5 5.8-12v-.8z"/><path d="M214.4 95.2v-.6c0-.4-.1-.8-.2-1.2v-.2c-1.2-6.6-6.6-11.9-13.6-12.7h-.8c-3.7-.2-7.5.9-10.6 3.4-1.2 1-1.4 2.8-.4 4 1 1.2 2.8 1.4 4 .4 4.2-3.4 10.4-2.7 13.7 1.5 1 1.3 1.7 2.8 2 4.3v.1c0 .2.1.5.1.8V95.9c0 .3 0 .6-.1 1-.6 5-4.9 8.8-9.8 8.7h-73c-1.6 0-2.9 1.3-2.9 2.9 0 1.6 1.3 2.9 2.9 2.9H199c3.3 0 6.4-1.1 8.9-3 .2-.1.4-.2.6-.4 3.8-3 5.8-7.5 5.8-12 .2-.2.1-.5.1-.8z"/><path d="M180.4 82.1v-.6c0-.4-.1-.8-.2-1.2v-.2c-1.2-6.6-6.6-11.9-13.6-12.7h-.8c-3.7-.2-7.5.9-10.6 3.4-1.2 1-1.4 2.8-.4 4 1 1.2 2.8 1.4 4 .4 4.2-3.4 10.4-2.7 13.7 1.5 1 1.3 1.7 2.8 2 4.3v.1c0 .2.1.5.1.8V82.8c0 .3 0 .6-.1 1-.6 5-4.9 8.8-9.8 8.7H133c-1.6 0-2.9 1.3-2.9 2.9 0 1.6 1.3 2.9 2.9 2.9h32.1c3.3 0 6.4-1.1 8.9-3 .2-.1.4-.2.6-.4 3.8-3 5.8-7.5 5.8-12v-.8zM214.4 147.6v.6c0 .4-.1.8-.2 1.2v.2c-1.2 6.6-6.6 11.9-13.6 12.7h-.8c-3.7.2-7.5-.9-10.6-3.4-1.2-1-1.4-2.8-.4-4 1-1.2 2.8-1.4 4-.4 4.2 3.4 10.4 2.7 13.7-1.5 1-1.3 1.7-2.8 2-4.3v-.1c0-.2.1-.5.1-.8V146.9c0-.3 0-.6-.1-1-.6-5-4.9-8.8-9.8-8.7h-73c-1.6 0-2.9-1.3-2.9-2.9 0-1.6 1.3-2.9 2.9-2.9H199c3.3 0 6.4 1.1 8.9 3 .2.1.4.2.6.4 3.8 3 5.8 7.5 5.8 12 .2.3.1.6.1.8z"/><path d="M180.4 160.8v.6c0 .4-.1.8-.2 1.2v.2c-1.2 6.6-6.6 11.9-13.6 12.7h-.8c-3.7.2-7.5-.9-10.6-3.4-1.2-1-1.4-2.8-.4-4 1-1.2 2.8-1.4 4-.4 4.2 3.4 10.4 2.7 13.7-1.5 1-1.3 1.7-2.8 2-4.3v-.1c0-.2.1-.5.1-.8V160.1c0-.3 0-.6-.1-1-.6-5-4.9-8.8-9.8-8.7H133c-1.6 0-2.9-1.3-2.9-2.9 0-1.6 1.3-2.9 2.9-2.9h32.1c3.3 0 6.4 1.1 8.9 3 .2.1.4.2.6.4 3.8 3 5.8 7.5 5.8 12v.8z"/></g></svg>

