<svg xmlns="http://www.w3.org/2000/svg" width="56" height="56" viewBox="0 0 56 56">
  <path d="M40.535 7.172c-.857 0-1.689.116-2.482.331C36.566 3.132 32.553 0 27.833 0c-5.785 0-10.51 4.702-10.819 10.621a8.014 8.014 0 0 0-1.08-.083c-4.501.002-8.148 3.786-8.148 8.455 0 4.669 3.647 8.455 8.147 8.455h24.6c5.398 0 9.773-4.537 9.773-10.138.003-5.599-4.374-10.138-9.771-10.138z" fill="#D8D9D9" />
  <path d="m35.805 39.289-6.783.184 4.398-8.598c.072-.139.057-.297-.041-.424s-.262-.205-.439-.209l-7.437-.109c-.22.018-.44.121-.515.309l-5.652 14.076a.397.397 0 0 0 .073.41.568.568 0 0 0 .433.189h.004l6.717-.043-2.763 9.084c-.064.215.061.436.3.525l.218.041a.568.568 0 0 0 .443-.201l11.504-14.531a.397.397 0 0 0 .023-.471.53.53 0 0 0-.483-.232z" fill="#F8AD1D" />
</svg>


