<svg xmlns="http://www.w3.org/2000/svg" width="56" height="56" viewBox="0 0 56 56">
  <path d="M11.138 0a12.349 12.349 0 0 1 3.995 9.106c0 6.837-5.542 12.379-12.379 12.379-.771 0-1.523-.074-2.255-.209a12.33 12.33 0 0 0 8.383 3.272c6.837 0 12.379-5.542 12.379-12.38C21.262 6.104 16.897 1.061 11.138 0z" fill="#A8A7A8" />
  <path d="M37.284 11.196c-.55 0-1.085.075-1.595.216-.956-2.856-3.535-4.902-6.57-4.902-3.718 0-6.756 3.072-6.954 6.94a5.07 5.07 0 0 0-.694-.055c-2.893.001-5.237 2.474-5.237 5.524 0 3.052 2.344 5.525 5.237 5.525h15.813c3.47 0 6.282-2.965 6.282-6.625 0-3.658-2.813-6.623-6.282-6.623z" style="fill:#d8d9d9" />
</svg>


