<svg xmlns="http://www.w3.org/2000/svg" viewBox="0 0 56 56" xml:space="preserve"><path style="fill:#2594e3" d="m275.4-190.3-27.3-10.9 21.9-19.7c2.2-2.2 2.2-4.4 0-6.6l-8.7-8.7c-2.2-2.2-4.4-2.2-6.6 0L235-218.7l-5.5-25.1c0-2.2-3.3-4.4-5.5-3.3l-12 2.2c-2.2 0-4.4 3.3-3.3 5.5l5.5 26.2-25.1-9.8c-2.2-1.1-5.5 0-6.6 2.2l-4.4 10.9c-1.1 2.2 0 5.5 2.2 5.5l27.3 10.9-21.9 19.7c-2.2 2.2-2.2 4.4 0 6.6l8.7 8.7c2.2 2.2 4.4 2.2 6.6 0l19.7-18.6 5.5 26.2c0 2.2 3.3 4.4 5.5 3.3l12-2.2c2.2 0 4.4-3.3 3.3-5.5l-5.5-26.2 25.1 9.8c2.2 1.1 5.5 0 6.6-2.2l4.4-10.9c1.1-2.2 0-4.4-2.2-5.5zM480.9-203.4l-43.7-17.5 33.9-31.7c3.3-3.3 3.3-7.7 0-10.9l-14.2-14.2c-3.3-3.3-7.7-3.3-10.9 0l-31.7 29.5-8.7-41.5c-1.1-4.4-4.4-6.6-8.7-5.5l-19.7 4.4c-4.4 1.1-6.6 4.4-5.5 8.7l8.7 41.5-40.4-15.3c-4.4-1.1-8.7 0-9.8 4.4l-7.6 18.6c-1.1 3.3 0 7.7 4.4 9.8l43.7 17.5-32.8 29.5c-3.3 3.3-3.3 7.7 0 10.9l14.2 14.2c3.3 3.3 7.6 3.3 10.9 0l31.7-29.5 8.7 41.5c1.1 4.4 4.4 6.6 8.7 5.5l19.7-3.3c4.4-1.1 6.6-4.4 5.5-8.7l-8.7-41.5 40.4 15.3c4.4 1.1 8.7 0 9.8-4.4l7.6-18.6c-.1-3.2-1.2-7.6-5.5-8.7z" transform="matrix(.08857 0 0 .08893 .047 57.54)"/><path style="fill:#d8d9d9" d="M444.8-567.3c-9.8 0-18.6 1.1-27.3 3.3-16.4-48.1-60.1-82-111.5-82-63.4 0-114.8 51.4-118 115.8-4.4 0-7.7-1.1-12-1.1-49.2 0-88.5 41.5-88.5 92.9 0 51.4 39.3 92.9 88.5 92.9h268.8c59 0 107.1-49.2 107.1-110.4 0-62.2-48.1-111.4-107.1-111.4z" transform="matrix(.08857 0 0 .08893 .047 57.54)"/></svg>

