<svg xmlns="http://www.w3.org/2000/svg" viewBox="0 0 400 400" xml:space="preserve"><path fill="#328BCB" d="M274.8 257.3s-55 26.9-64 32.5c-9 5.6-12.4 8.2-16.9 14.7-13.9 20.3-8.6 48 11.9 61.9 20.5 13.8 48.4 8.5 62.3-11.8 4.5-6.6 5.3-10.3 7.6-21.5s6.2-71.1 6.2-71.1c.4-4.7-2.8-6.8-7.1-4.7zM155.8 257.3s-55 26.9-64 32.5c-9 5.6-12.4 8.2-16.9 14.7-13.9 20.3-8.6 48 11.9 61.9 20.5 13.8 48.4 8.5 62.3-11.8 4.5-6.6 5.3-10.3 7.6-21.5s6.2-71.1 6.2-71.1c.3-4.7-2.8-6.8-7.1-4.7z"/><path fill="#D8D9D9" d="M283.1 76.4c-6.2 0-12.3.8-18 2.4-10.8-31.7-39.9-54.4-74.2-54.4-42 0-76.3 34.1-78.5 77.1-2.6-.3-5.2-.6-7.8-.6-32.7 0-59.1 27.5-59.1 61.4s26.5 61.4 59.1 61.4h178.5c39.2 0 70.9-32.9 70.9-73.6 0-40.7-31.8-73.7-70.9-73.7z"/></svg>

