<svg xmlns="http://www.w3.org/2000/svg" width="56" height="56" viewBox="0 0 56 56">
  <path d="M11.002.023a12.348 12.348 0 0 1 3.994 9.106c0 6.837-5.541 12.379-12.378 12.379-.771 0-1.523-.074-2.255-.209a12.33 12.33 0 0 0 8.383 3.272c6.836 0 12.379-5.542 12.379-12.38 0-6.063-4.365-11.107-10.123-12.168z" fill="#A8A7A8" />
  <path d="M45.727 7.172c-.857 0-1.689.116-2.482.331C41.758 3.132 37.744 0 33.025 0c-5.785 0-10.51 4.702-10.819 10.621a8.014 8.014 0 0 0-1.08-.083c-4.501.002-8.148 3.786-8.148 8.455 0 4.67 3.647 8.455 8.147 8.455h24.601c5.397 0 9.772-4.538 9.772-10.139.002-5.598-4.374-10.137-9.771-10.137z" fill="#D8D9D9" />
  <path d="m40.996 39.289-6.783.185 4.398-8.598a.387.387 0 0 0-.041-.424.573.573 0 0 0-.439-.21l-7.437-.108c-.22.018-.44.121-.515.308l-5.652 14.077c-.056.139-.027.292.073.41s.262.189.433.189h.004l6.717-.043-2.762 9.084c-.064.214.061.436.3.525l.218.04a.567.567 0 0 0 .443-.2l11.504-14.531a.397.397 0 0 0 .023-.472.535.535 0 0 0-.484-.232z" fill="#F8AD1D" />
  <path d="M45.727 7.195c-.857 0-1.689.116-2.482.331-1.486-4.371-5.5-7.503-10.219-7.503-5.785 0-10.51 4.702-10.819 10.621a8.014 8.014 0 0 0-1.08-.083c-4.501.002-8.148 3.786-8.148 8.455 0 4.67 3.647 8.455 8.147 8.455h24.601c5.397 0 9.772-4.538 9.772-10.139.001-5.598-4.375-10.137-9.772-10.137z" fill="#D8D9D9" />
  <path d="m40.996 39.312-6.783.185 4.398-8.598a.387.387 0 0 0-.041-.424.573.573 0 0 0-.439-.21l-7.437-.108c-.22.018-.44.121-.515.308l-5.652 14.077c-.056.139-.027.292.073.41s.262.189.433.189h.004l6.717-.043-2.762 9.084c-.064.214.061.436.3.525l.218.04a.567.567 0 0 0 .443-.2l11.504-14.531a.397.397 0 0 0 .023-.472.54.54 0 0 0-.484-.232z" fill="#F8AD1D" />
</svg>


