<svg xmlns="http://www.w3.org/2000/svg" viewBox="0 0 400 400" xml:space="preserve"><path fill="#83BF2E" d="M184.7 10.2s-90.2 161.5-102.9 191c-12.7 29.5-16.7 41.8-16.6 65.6.5 74.4 61.4 134 136 133.1 74.6-1 134.8-62.1 134.3-136.5-.2-24.3-4.6-34.6-18.1-66.5C303.9 165.2 210.3 9.8 210.3 9.8c-7.2-12.5-18.7-12.3-25.6.4z"/><g fill="#FFF"><path d="M117.3 228.1c.2-13.1 2.5-23.5 8.9-32.7 9.1-13.1 23.4-18.6 39.3-15.3 15.4 3.2 25.4 14.1 28.5 30.9 1.9 10.6 1.7 21.2-1.5 31.6-5.6 18.2-20.2 29.1-38.1 28.5-17.1-.6-31.3-13.1-35.4-31.2-1-4.6-1.3-9.2-1.7-11.8zm53.7-2.7c-1.3-6.2-2.2-12.4-4-18.4-1.4-4.8-5-7.8-10.4-7.8-5.1 0-8.3 3.1-10.1 7.5-5.2 12.2-5.2 24.5-.2 36.8 1.8 4.4 4.9 7.4 10.1 7.5 5.4.1 9-2.8 10.5-7.6 1.8-5.7 2.7-11.8 4.1-18zM213.8 284.8c1.1-11.6 4.4-22 10.8-31.2 8-11.5 19.5-16.4 33.2-15.4 14.5 1.1 25.3 8.3 30.8 21.9 6.5 16.2 5.9 32.7-1.6 48.4-6.8 14.5-18.8 21.8-34.9 21.3-16-.4-27-8.7-32.6-23.6-2.5-6.8-3.8-14.2-5.7-21.4zm55.1-1.4c-1.5-6.1-2.8-12.8-5-19.1-1.4-4.2-5.1-6.3-9.9-6.2-4.8.1-7.9 2.5-9.7 6.6-5.4 12.5-5.8 25.2-.5 37.8 2 4.7 5.2 7.5 10.6 7.5 5.5 0 9-3 10.4-7.8 1.8-5.8 2.6-11.9 4.1-18.8zM256.7 179.6c-1.7 3.7-2.5 5.7-3.5 7.5-25.5 45.6-51.1 91.2-76.5 136.8-2.4 4.3-5.2 7.2-10.6 6.4-1.9-.3-4 .1-6 .1-6.3-.1-7-1.1-4-6.6 9.9-17.9 20-35.7 30-53.6 15.6-27.9 31.2-55.8 46.7-83.7 2.9-5.2 6.1-8.4 12.6-7.1 3.1.7 6.6.2 11.3.2z"/></g></svg>

