<svg xmlns="http://www.w3.org/2000/svg" viewBox="0 0 256 256" xml:space="preserve"><path fill="#D8D9D9" d="M152.5 246.1s28.4-22.8 18.9-49.7c-9.5-26.8-29-39.1-85.1-69.6-25.2-13.7-68.6-81-7.1-123.3 0 0-175.8 73.1 6.3 183.2 0 0-41.8-45.1-38.6-66.8 0 0 26 31.4 66.2 46.2 40.2 14.9 59.1 54.3 39.4 80z"/><path fill="#D8D9D9" d="M141.2 253.1s35.4-39.4-30.3-78.8c.1 0 33.3 30.3 30.3 78.8zM125.2 140.1s-26.2-9.4-18.5-19c7.7-9.7 24.9-14.9 74.5-28.1 22.3-6 59.3-31.2 2.7-42.5 0 0 160.3 16.1-.2 63 0 0 36.2-17.5 32.7-24.8 0 0-22.5 12.1-58.2 19.2-35.7 7-51.5 24.4-33 32.2z"/><path fill="#D8D9D9" d="M189.7 84.5s17.2-10.4 8.7-19.6c-8.5-9.3-22.7-12.5-62.9-19.9-18.1-3.3-52.7-25.2-14.8-45 0 0-112.3 38.9 19.2 67.2 0 0-31.8-13.8-31.4-22 0 0 20.1 9.8 48.3 12.5 28.1 2.7 44 16 32.9 26.8z"/></svg>

