<svg xmlns="http://www.w3.org/2000/svg" viewBox="0 0 400 400" xml:space="preserve"><path fill="#318ACA" d="m265.4 335.1-33.2-12.9 25.9-24.3c2.3-2.1 2.4-5.7.2-7.9l-10.5-11c-2.1-2.2-5.7-2.3-8-.2l-23.6 22.1-6.2-31.6c-.6-3-3.6-5-6.6-4.4l-14.9 2.9c-3.1.6-5.1 3.5-4.5 6.6l6.2 31.6-30.2-11.7c-2.9-1.1-6.2.3-7.3 3.2l-5.6 14c-1.1 2.9.3 6.1 3.2 7.3l33.2 12.9-25.9 24.3c-2.3 2.1-2.4 5.7-.2 8l10.5 11c2.2 2.2 5.7 2.3 8 .2l23.6-22.1 6.2 31.6c.6 3 3.6 5 6.7 4.4l14.9-2.9c3-.6 5.1-3.5 4.5-6.6l-6.2-31.5 30.2 11.7c2.9 1.1 6.2-.3 7.3-3.2l5.6-14c1-3.1-.4-6.4-3.3-7.5z"/><path fill="#F7AB1D" d="M166 157.6c0 44.3 35.2 80.3 78.6 80.3 43.4 0 78.6-35.9 78.6-80.3S288 77.3 244.6 77.3c-43.4 0-78.6 36-78.6 80.3zm219.7-12.8H357c-6.7 0-12.2 5.6-12.2 12.5v.6c0 6.9 5.5 12.5 12.2 12.5h28.7c6.7 0 12.2-5.6 12.2-12.5v-.6c.1-6.9-5.4-12.5-12.2-12.5zM321.5 22.1l-.5-.3c-5.8-3.4-13.4-1.4-16.7 4.6l-14.4 25.4c-3.4 6-1.3 13.6 4.5 17.1l.5.3c5.8 3.4 13.3 1.4 16.7-4.6L326 39.2c3.4-6 1.3-13.6-4.5-17.1zm-9.9 228.5c-3.4-5.9-10.9-8-16.7-4.6l-.5.3c-5.8 3.4-7.8 11.1-4.5 17.1l14.4 25.4c3.4 5.9 10.9 8 16.7 4.6l.5-.3c5.8-3.4 7.8-11.1 4.5-17.1l-14.4-25.4zm-134.1-186c3.4 5.9 10.9 8 16.7 4.6l.5-.3c5.8-3.4 7.9-11.1 4.5-17.1l-14.4-25.4c-3.4-6-10.9-8-16.7-4.6l-.5.3c-5.8 3.4-7.8 11.1-4.5 17.1l14.4 25.4zm195.6 154-24.9-14.7c-5.8-3.4-13.3-1.4-16.7 4.6l-.3.5c-3.4 6-1.4 13.6 4.5 17.1l24.9 14.7c5.8 3.4 13.4 1.4 16.7-4.6l.3-.5c3.3-6 1.3-13.7-4.5-17.1zm-41.6-111.9c3.4 5.9 10.9 8 16.7 4.6l24.9-14.7c5.8-3.4 7.8-11.1 4.5-17.1l-.3-.5c-3.4-6-10.9-8-16.7-4.6l-24.9 14.7c-5.8 3.5-7.8 11.1-4.5 17.1l.3.5zm-87.2-51.4h.6c6.7 0 12.2-5.6 12.2-12.5V13.5c0-6.9-5.5-12.5-12.2-12.5h-.6c-6.7 0-12.2 5.6-12.2 12.5v29.3c0 6.9 5.5 12.5 12.2 12.5z"/><path fill="#D7D8D8" d="M224.3 108.4c-5.4 0-10.8.7-15.8 2.1-9.5-27.9-35-47.8-65.1-47.8-36.9 0-67 30-68.9 67.7-2.3-.3-4.5-.5-6.9-.5-28.7 0-51.9 24.1-51.9 53.9s23.2 53.9 51.9 53.9h156.7c34.4 0 62.3-28.9 62.3-64.6 0-35.8-27.9-64.7-62.3-64.7z"/><path fill="#318ACA" d="M104.2 301.6S67.1 319.7 61 323.5c-6.1 3.8-8.4 5.5-11.4 9.9-9.4 13.7-5.8 32.4 8 41.7 13.8 9.3 32.6 5.8 42-7.9 3.1-4.5 3.6-6.9 5.1-14.5 1.6-7.5 4.2-48 4.2-48 .3-3.2-1.9-4.6-4.7-3.1z"/></svg>

