<svg xmlns="http://www.w3.org/2000/svg" width="56" height="56" viewBox="0 0 56 56">
  <path d="M29.338 0a15.87 15.87 0 0 1 5.136 11.706c0 8.789-7.123 15.913-15.913 15.913-.991 0-1.958-.096-2.898-.27a15.846 15.846 0 0 0 10.776 4.207c8.788 0 15.913-7.124 15.913-15.913C42.352 7.847 36.74 1.362 29.338 0z" fill="#A8A7A8" />
  <path style="fill:#d8d9d9" d="M49.092 20.667c-.493 0-.973.066-1.43.19-.855-2.518-3.167-4.322-5.886-4.322-3.333 0-6.055 2.709-6.233 6.118a4.893 4.893 0 0 0-.622-.048c-2.593.002-4.694 2.182-4.694 4.87 0 2.69 2.102 4.872 4.694 4.872h14.172c3.11 0 5.63-2.614 5.63-5.841 0-3.224-2.521-5.84-5.631-5.84z" />
</svg>


