<svg xmlns="http://www.w3.org/2000/svg" viewBox="0 0 256 256" xml:space="preserve"><path fill="#D8D9D9" d="M75.8 154.5c.5-.4 1.2-.9 2.3-1.7 5.3-4.1 15.1-11.7 32-11.7 16.7 0 26.6 7.6 31.9 11.7 3.2 2.4 3.2 2.4 5.1 2.4 2 0 2 0 5-2.4 5.3-4.1 15.1-11.7 32-11.7h.1c10.5-10.6 18.4-24 22.4-39.5C217.4 60 196.4 17.6 158.8 0c12.8 19.9 17.6 44.9 11.2 69.6-12.2 46.9-60.1 75.1-107 62.9-5.3-1.4-10.3-3.2-15.1-5.5 6.9 11.1 16.5 20.5 27.9 27.5z"/><path fill="#D8D9D9" d="M221 187c-12.5 0-19.6-5.4-24.5-9.2-4.4-3.3-6.5-4.9-12.5-4.9s-8.2 1.6-12.5 4.9c-4.9 3.8-12 9.2-24.5 9.2s-19.6-5.4-24.5-9.2c-4.4-3.3-6.5-4.9-12.5-4.9s-8.2 1.6-12.5 4.9c-4.9 3.8-12 9.2-24.5 9.2s-19.6-5.4-24.5-9.2c-4.4-3.3-6.5-4.9-12.5-4.9-5.4 0-9.8-4.4-9.8-9.8s4.4-9.8 9.8-9.8c12.5 0 19.6 5.4 24.5 9.2 4.4 3.3 6.5 4.9 12.5 4.9s8.2-1.6 12.5-4.9c4.9-3.8 12-9.2 24.5-9.2s19.6 5.4 24.5 9.2c4.4 3.3 6.5 4.9 12.5 4.9s8.2-1.6 12.5-4.9c4.9-3.8 12-9.2 24.5-9.2s19.6 5.4 24.5 9.2c4.4 3.3 6.5 4.9 12.5 4.9 5.4 0 9.8 4.4 9.8 9.8 0 5.5-4.4 9.8-9.8 9.8zM221 227.2c-12.5 0-19.6-5.4-24.5-9.2-4.4-3.3-6.5-4.9-12.5-4.9s-8.2 1.6-12.5 4.9c-4.9 3.8-12 9.2-24.5 9.2s-19.6-5.4-24.5-9.2c-4.4-3.3-6.5-4.9-12.5-4.9s-8.2 1.6-12.5 4.9c-4.9 3.8-12 9.2-24.5 9.2s-19.6-5.4-24.5-9.2c-4.4-3.3-6.5-4.9-12.5-4.9-5.4 0-9.8-4.4-9.8-9.8s4.4-9.8 9.8-9.8c12.5 0 19.6 5.4 24.5 9.2 4.4 3.3 6.5 4.9 12.5 4.9s8.2-1.6 12.5-4.9c4.9-3.8 12-9.2 24.5-9.2s19.6 5.4 24.5 9.2c4.4 3.3 6.5 4.9 12.5 4.9s8.2-1.6 12.5-4.9c4.9-3.8 12-9.2 24.5-9.2s19.6 5.4 24.5 9.2c4.4 3.3 6.5 4.9 12.5 4.9 5.4 0 9.8 4.4 9.8 9.8 0 5.5-4.4 9.8-9.8 9.8z"/></svg>

