<svg xmlns="http://www.w3.org/2000/svg" viewBox="0 0 400 400" xml:space="preserve"><path fill="#D8D9D9" d="M270.9 55.9c-6.7 0-13.2.9-19.3 2.6C240 24.4 208.8 0 172 0c-45 0-81.8 36.6-84.2 82.7-2.8-.4-5.5-.6-8.4-.6-35 0-63.5 29.5-63.5 65.9 0 36.4 28.4 65.9 63.5 65.9H271c42 0 76.1-35.4 76.1-79 0-43.7-34.1-79-76.2-79z"/><path fill="#318ACA" d="m77.1 219.8 55.2 120.1 9.2-4.3-52.7-114.7c-4-.1-7.9-.4-11.7-1.1zM205.1 220.9l33.3 71.9 9.2-4.3-31.3-67.6z"/><path fill="#328BCB" d="M138.6 223.1s32.8 16.1 38.2 19.4c5.4 3.4 7.4 4.9 10.1 8.8 8.3 12.1 5.1 28.7-7.1 36.9s-28.9 5.1-37.2-7c-2.7-4-3.2-6.1-4.5-12.8-1.4-6.7-3.7-42.4-3.7-42.4-.2-3 1.7-4.2 4.2-2.9zM275.9 223.1s32.8 16.1 38.2 19.4c5.4 3.4 7.4 4.9 10.1 8.8 8.3 12.1 5.1 28.7-7.1 36.9s-28.9 5.1-37.2-7c-2.7-4-3.2-6.1-4.5-12.8-1.4-6.7-3.7-42.4-3.7-42.4-.2-3 1.7-4.2 4.2-2.9z"/><circle fill="#318ACA" cx="252" cy="309" r="13.2"/><circle fill="#318ACA" cx="146.6" cy="356" r="13.2"/></svg>

