<svg xmlns="http://www.w3.org/2000/svg" viewBox="-278 -368 56 56" xml:space="preserve"><path d="M-267.563-367.827c1.64 1.565 2.624 3.735 2.624 6.19 0 4.686-3.672 8.429-8.14 8.429-.52 0-.983-.068-1.511-.135 1.438 1.363 3.347 2.246 5.516 2.246 4.46 0 8.14-3.735 8.14-8.428 0-4.155-2.884-7.553-6.63-8.302z" style="fill:#a8a7a8"/><path d="M-239.463-361.207c-.796 0-1.511.092-2.218.277-1.243-4.045-4.882-6.897-9.058-6.897-5.15 0-9.318 4.324-9.586 9.74-.357 0-.625-.092-.975-.092-3.997 0-7.19 3.49-7.19 7.813 0 4.324 3.193 7.814 7.19 7.814h21.837c4.793 0 8.7-4.138 8.7-9.286 0-5.231-3.9-9.37-8.7-9.37z" style="fill:#d8d9d9"/><path d="M-111.2 42.5h-1.1l93.6 200.8 18.1-8.5-89.6-192.3h-21zM215.8 28l26.3 56.4 18.1-8.5-27.4-58.8c-5.4 4.1-11.1 7.7-17 10.9zM-.7 42.5l59.5 127.4 18.1-8.5L21.4 42.5zM110.9 42.5l53.8 115.3 18.1-8.4L133 42.5z" style="fill:#308bcb" transform="matrix(.08124 0 0 .08411 -252.266 -344.444)"/><g transform="matrix(.08124 0 0 .08411 -252.266 -344.444)"><circle cx="198.4" cy="209.4" r="50" style="fill:#308bcb"/><circle cx="15.1" cy="294.9" r="50" style="fill:#308bcb"/><circle cx="85.6" cy="206.8" r="30.6" style="fill:#308bcb"/><circle cx="268.9" cy="121.4" r="30.6" style="fill:#308bcb"/></g></svg>

