<svg xmlns="http://www.w3.org/2000/svg" width="56" height="56" viewBox="0 0 56 56">
  <path d="M39.389 32.101s-7.582 3.709-8.822 4.484c-1.242.776-1.713 1.134-2.327 2.028a6.112 6.112 0 0 0 1.637 8.524c2.822 1.904 6.666 1.177 8.584-1.624.625-.914.73-1.417 1.049-2.962.318-1.543.85-9.8.85-9.8.056-.657-.38-.95-.971-.65zM21.228 35.845s-4.479 2.192-5.213 2.65c-.734.458-1.011.67-1.374 1.198a3.612 3.612 0 0 0 .967 5.036 3.665 3.665 0 0 0 5.069-.96c.371-.539.432-.837.621-1.749.188-.911.502-5.788.502-5.788.033-.389-.225-.564-.572-.387z" fill="#308BCB" />
  <path d="M40.66 7.172c-.857 0-1.689.116-2.482.331C36.691 3.132 32.678 0 27.958 0c-5.785 0-10.51 4.702-10.819 10.621a8.014 8.014 0 0 0-1.08-.083c-4.501.002-8.149 3.786-8.149 8.455 0 4.67 3.647 8.455 8.148 8.455H40.66c5.396 0 9.771-4.538 9.771-10.139.003-5.598-4.372-10.137-9.771-10.137z" fill="#D8D9D9" />
</svg>


