<svg xmlns="http://www.w3.org/2000/svg" width="56" height="56" viewBox="0 0 56 56">
  <path d="M46.148 29.195c-2.298 0-3.555-.96-4.473-1.662-.753-.574-1.206-.922-2.288-.922-1.081 0-1.535.348-2.288.922-.918.702-2.172 1.662-4.47 1.662-2.297 0-3.554-.96-4.47-1.664-.751-.572-1.205-.92-2.286-.92-1.08 0-1.534.348-2.286.922-.917.702-2.174 1.662-4.471 1.662-2.296 0-3.553-.96-4.467-1.662-.753-.574-1.207-.922-2.287-.922a1.796 1.796 0 0 1 0-3.593c2.297 0 3.553.963 4.469 1.664.752.575 1.205.922 2.285.922 1.081 0 1.536-.347 2.288-.924.917-.701 2.173-1.662 4.469-1.662 2.298 0 3.553.961 4.47 1.662.75.577 1.205.924 2.286.924 1.08 0 1.534-.347 2.288-.924.918-.701 2.172-1.662 4.47-1.662s3.553.961 4.47 1.662c.754.577 1.209.924 2.291.924a1.796 1.796 0 0 1 0 3.591zM46.148 36.555c-2.298 0-3.555-.96-4.473-1.662-.753-.575-1.206-.924-2.288-.924-1.081 0-1.535.349-2.288.924-.918.702-2.172 1.662-4.47 1.662-2.297 0-3.554-.96-4.47-1.664-.751-.573-1.205-.922-2.286-.922-1.08 0-1.534.349-2.286.924-.917.702-2.174 1.662-4.471 1.662-2.296 0-3.553-.96-4.467-1.662-.753-.575-1.207-.924-2.287-.924a1.794 1.794 0 1 1 0-3.591c2.297 0 3.553.962 4.469 1.664.752.574 1.205.922 2.285.922 1.081 0 1.536-.348 2.288-.924.917-.701 2.173-1.662 4.469-1.662 2.298 0 3.553.961 4.47 1.662.75.576 1.205.924 2.286.924 1.08 0 1.534-.348 2.288-.924.918-.701 2.172-1.662 4.47-1.662s3.553.961 4.47 1.662c.754.576 1.209.924 2.291.924a1.795 1.795 0 0 1 0 3.591z" fill="#D8D9D9" />
  <path d="M12.364 19.903c3.353 0 5.312 1.498 6.364 2.304l.374.281h.033l.375-.281c1.054-.808 3.012-2.304 6.365-2.304 3.354 0 5.312 1.498 6.364 2.302l.376.283h.032l.377-.283c1.054-.806 3.013-2.302 6.365-2.302 3.355 0 5.313 1.498 6.365 2.302l.376.283h.019c.649 0 1.266.128 1.834.358a9.547 9.547 0 0 0 2.406-6.331c0-5.344-4.373-9.674-9.766-9.674a9.86 9.86 0 0 0-2.481.316C36.657 2.99 32.646 0 27.929 0c-5.781 0-10.503 4.487-10.813 10.135a8.311 8.311 0 0 0-1.078-.08c-4.497 0-8.143 3.612-8.143 8.07a7.93 7.93 0 0 0 .788 3.449 4.891 4.891 0 0 1 3.681-1.671z" fill="#D8DADA" />
</svg>


