<svg xmlns="http://www.w3.org/2000/svg" viewBox="0 0 400 400" xml:space="preserve"><path fill="#328BCB" d="M213.7 279.3s-55 26.9-64 32.5c-9 5.6-12.4 8.2-16.9 14.7-13.9 20.3-8.6 48 11.9 61.9 20.5 13.8 48.4 8.5 62.3-11.8 4.5-6.6 5.3-10.3 7.6-21.5s6.2-71.1 6.2-71.1c.4-4.7-2.8-6.8-7.1-4.7zM94.7 279.3s-55 26.9-64 32.5c-9 5.6-12.4 8.2-16.9 14.7-13.9 20.3-8.6 48 11.9 61.9 20.5 13.8 48.4 8.5 62.3-11.8 4.5-6.6 5.3-10.3 7.6-21.5s6.2-71.1 6.2-71.1c.3-4.7-2.9-6.8-7.1-4.7z"/><path fill="#F8AD1D" d="M173 146.2c0 40.5 32.2 73.3 71.8 73.3 39.7 0 71.8-32.8 71.8-73.3s-32.1-73.3-71.8-73.3c-39.6-.1-71.8 32.8-71.8 73.3zm200.8-11.7h-26.2c-6.1 0-11.2 5.1-11.2 11.4v.5c0 6.3 5 11.4 11.2 11.4h26.2c6.2 0 11.2-5.1 11.2-11.4v-.5c0-6.3-5-11.4-11.2-11.4zM315.2 22.4l-.5-.3c-5.3-3.1-12.2-1.3-15.3 4.2l-13.1 23.2c-3.1 5.4-1.2 12.5 4.1 15.6l.5.3c5.3 3.1 12.2 1.3 15.3-4.2L319.3 38c3-5.5 1.2-12.5-4.1-15.6zM199.3 227.3l-.5-.3c-5.3-3.1-12.2-1.3-15.3 4.2l-13.1 23.2c-3.1 5.4-1.2 12.5 4.1 15.6l.5.3c5.3 3.1 12.2 1.3 15.3-4.2l13.1-23.2c3.1-5.5 1.2-12.5-4.1-15.6zm106.8 3.9c-3.1-5.4-9.9-7.3-15.3-4.2l-.5.3c-5.3 3.1-7.2 10.2-4.1 15.6l13.1 23.2c3.1 5.4 9.9 7.3 15.3 4.2l.5-.3c5.3-3.1 7.2-10.2 4.1-15.6l-13.1-23.2zm-122.5-170c3.1 5.4 9.9 7.3 15.3 4.2l.5-.3c5.3-3.1 7.2-10.1 4.1-15.6l-13.1-23.2c-3.1-5.4-9.9-7.3-15.3-4.2l-.5.3c-5.3 3.1-7.2 10.1-4.1 15.6l13.1 23.2zm178.7 140.7-22.7-13.4c-5.3-3.1-12.2-1.3-15.3 4.2l-.3.5c-3.1 5.4-1.2 12.4 4.1 15.6l22.7 13.4c5.3 3.1 12.2 1.3 15.3-4.2l.3-.5c3-5.5 1.2-12.5-4.1-15.6zm-38-102.2c3.1 5.4 9.9 7.3 15.3 4.2l22.7-13.4c5.3-3.1 7.2-10.2 4.1-15.6l-.3-.5c-3.1-5.4-9.9-7.3-15.3-4.2l-22.7 13.4c-5.3 3.2-7.2 10.2-4.1 15.6l.3.5zm-79.7-47h.5c6.1 0 11.2-5.1 11.2-11.4V14.5c0-6.3-5-11.4-11.2-11.4h-.5c-6.1 0-11.2 5.1-11.2 11.4v26.8c0 6.3 5.1 11.4 11.2 11.4zm.5 186.9h-.5c-6.1 0-11.2 5.1-11.2 11.4v26.8c0 6.3 5 11.4 11.2 11.4h.5c6.1 0 11.2-5.1 11.2-11.4V251c0-6.2-5-11.4-11.2-11.4z"/><path fill="#D8D9D9" d="M226.4 101.2c-5 0-9.8.7-14.4 1.9-8.6-25.4-32-43.7-59.5-43.7-33.7 0-61.2 27.4-63 61.8-2.1-.3-4.1-.5-6.3-.5-26.2 0-47.4 22-47.4 49.2 0 27.2 21.2 49.2 47.4 49.2h143.2c31.4 0 56.9-26.4 56.9-59 0-32.5-25.5-58.9-56.9-58.9z"/></svg>

