<svg xmlns="http://www.w3.org/2000/svg" viewBox="0 0 56 56" xml:space="preserve"><path style="fill:#a8a7a8" d="M121.3-646c27.3 25.1 43.7 60.1 43.7 99.5C165-472.2 104.9-411 29.5-411c-8.7 0-16.4-1.1-25.1-2.2 24 21.9 55.7 36.1 91.8 36.1 74.3 0 135.5-60.1 135.5-135.5 1.1-66.7-47-121.4-110.4-133.4z" transform="matrix(.0892 0 0 .0892 .51 57.612)"/><path style="fill:#308bcb" d="M279.8-253.7s-54.6 25.1-63.4 29.5c-8.7 5.5-12 7.7-16.4 13.1-14.2 18.6-8.7 43.7 12 56.8 20.7 13.1 48.1 7.7 62.3-10.9 4.4-6.6 5.5-9.8 7.7-19.7 2.2-9.8 6.6-65.6 6.6-65.6-1.2-3.2-4.5-5.3-8.8-3.2z" transform="matrix(.0892 0 0 .0892 .51 57.612)"/><path style="fill:#2594e3" d="m532.2-203.4-43.7-17.5 33.9-31.7c3.3-3.3 3.3-7.7 0-10.9l-14.2-14.2c-3.3-3.3-7.7-3.3-10.9 0l-31.7 29.5-6.6-42.6c-1.1-4.4-4.4-6.6-8.7-5.5l-19.7 3.3c-4.4 1.1-6.6 4.4-5.5 8.7l8.7 41.5-40.4-15.2c-4.4-1.1-8.7 0-9.8 4.4l-7.7 18.6c-1.1 3.3 0 7.7 4.4 9.8l43.7 17.5-35 31.7c-3.3 3.3-3.3 7.7 0 10.9l14.2 14.2c3.3 3.3 7.6 3.3 10.9 0l31.7-29.5 8.7 41.5c1.1 4.4 4.4 6.6 8.7 5.5l19.7-3.3c4.4-1.1 6.6-4.4 5.5-8.7l-8.7-41.5 40.4 15.3c4.4 1.1 8.7 0 9.8-4.4l7.7-18.6c.1-3.3-2.1-6.6-5.4-8.8z" transform="matrix(.0892 0 0 .0892 .51 57.612)"/><path style="fill:#d8d9d9" d="M499.4-567.3c-9.8 0-18.6 1.1-27.3 3.3-15.3-48.1-60.1-82-111.5-82-63.4 0-114.7 51.4-118 115.8-4.4 0-7.7-1.1-12-1.1-49.2 0-88.5 41.5-88.5 92.9 0 51.4 39.3 92.9 88.5 92.9h268.8c59 0 107.1-49.2 107.1-110.4 0-62.2-48-111.4-107.1-111.4z" transform="matrix(.0892 0 0 .0892 .51 57.612)"/></svg>

