<svg xmlns="http://www.w3.org/2000/svg" viewBox="0 0 400 400" xml:space="preserve"><path fill="#F8AD1D" d="M173 143.1c0 40.5 32.2 73.3 71.8 73.3 39.7 0 71.8-32.8 71.8-73.3s-32.1-73.3-71.8-73.3c-39.6-.1-71.8 32.8-71.8 73.3zm200.8-11.7h-26.2c-6.1 0-11.2 5.1-11.2 11.4v.5c0 6.3 5 11.4 11.2 11.4h26.2c6.2 0 11.2-5.1 11.2-11.4v-.5c0-6.3-5-11.4-11.2-11.4zM315.2 19.3l-.5-.3c-5.3-3.1-12.2-1.3-15.3 4.2l-13.1 23.2c-3.1 5.4-1.2 12.5 4.1 15.6l.5.3c5.3 3.1 12.2 1.3 15.3-4.2l13.1-23.2c3-5.5 1.2-12.5-4.1-15.6zM183.6 58.1c3.1 5.4 9.9 7.3 15.3 4.2l.5-.3c5.3-3.1 7.2-10.1 4.1-15.6l-13.1-23.2c-3.1-5.4-9.9-7.3-15.3-4.2l-.5.3c-5.3 3.1-7.2 10.1-4.1 15.6l13.1 23.2zm178.7 140.7-22.7-13.4c-5.3-3.1-12.2-1.3-15.3 4.2l-.3.4c-3.1 5.4-1.2 12.4 4.1 15.6l22.7 13.4c5.3 3.1 12.2 1.3 15.3-4.2l.3-.5c3-5.4 1.2-12.4-4.1-15.5zm-38-102.2c3.1 5.4 9.9 7.3 15.3 4.2l22.7-13.4c5.3-3.1 7.2-10.2 4.1-15.6l-.3-.5c-3.1-5.4-9.9-7.3-15.3-4.2l-22.7 13.4c-5.3 3.2-7.2 10.2-4.1 15.6l.3.5zm-79.7-47h.5c6.1 0 11.2-5.1 11.2-11.4V11.4c0-6.3-5-11.4-11.2-11.4h-.5c-6.1 0-11.2 5.1-11.2 11.4v26.8c0 6.3 5.1 11.4 11.2 11.4z"/><path fill="#D8D9D9" d="M213.9 93.5c-5.2 0-10.2.7-15 2-9-26.4-33.2-45.4-61.8-45.4-35 0-63.6 28.4-65.4 64.2-2.1-.3-4.3-.5-6.5-.5-27.2 0-49.3 22.9-49.3 51.1 0 28.2 22.1 51.1 49.3 51.1H214c32.6 0 59.1-27.4 59.1-61.3-.1-33.7-26.6-61.2-59.2-61.2z"/><path fill="#318ACA" d="m63.1 227.6 55.2 120.1 9.2-4.3-52.7-114.8c-4 0-7.9-.4-11.7-1zM191.1 228.7l33.3 71.9 9.2-4.3-31.3-67.6z"/><path fill="#328BCB" d="M124.6 230.9s32.8 16.1 38.2 19.4c5.4 3.4 7.4 4.9 10.1 8.8 8.3 12.1 5.1 28.7-7.1 36.9s-28.9 5.1-37.2-7c-2.7-4-3.2-6.1-4.5-12.8-1.4-6.7-3.7-42.4-3.7-42.4-.2-3 1.7-4.2 4.2-2.9zM261.9 230.9s32.8 16.1 38.2 19.4c5.4 3.4 7.4 4.9 10.1 8.8 8.3 12.1 5.1 28.7-7.1 36.9s-28.9 5.1-37.2-7c-2.7-4-3.2-6.1-4.5-12.8-1.4-6.7-3.7-42.4-3.7-42.4-.2-3 1.7-4.2 4.2-2.9z"/><circle fill="#318ACA" cx="238" cy="316.8" r="13.2"/><circle fill="#318ACA" cx="132.6" cy="363.8" r="13.2"/></svg>

