<svg xmlns="http://www.w3.org/2000/svg" viewBox="0 0 400 400" xml:space="preserve"><g fill="#328BCB"><path d="M194.2 285.9S167.4 299 163 301.8c-4.4 2.7-6.1 4-8.2 7.2-6.8 9.9-4.2 23.4 5.8 30.2 10 6.7 23.6 4.2 30.4-5.8 2.2-3.2 2.6-5 3.7-10.5s3-34.7 3-34.7c.2-2.3-1.4-3.4-3.5-2.3zM276.5 285.9s-26.8 13.1-31.2 15.9c-4.4 2.7-6.1 4-8.2 7.2-6.8 9.9-4.2 23.4 5.8 30.2 10 6.7 23.6 4.2 30.4-5.8 2.2-3.2 2.6-5 3.7-10.5s3-34.7 3-34.7c.1-2.3-1.4-3.4-3.5-2.3z"/></g><path fill="#A8A8A9" d="M89.1 52.2c16 14.7 26 35.9 26 59.3 0 44.5-36.1 80.7-80.7 80.7-5 0-9.9-.5-14.7-1.4 14.4 13.2 33.5 21.3 54.6 21.3 44.5 0 80.7-36.1 80.7-80.7.1-39.4-28.4-72.3-65.9-79.2z"/><path fill="#D8D9D9" d="M314.5 98.9c-5.6 0-11 .8-16.2 2.2-9.7-28.5-35.8-48.9-66.6-48.9-37.7 0-68.5 30.6-70.5 69.2-2.3-.3-4.6-.5-7-.5-29.3 0-53.1 24.7-53.1 55.1 0 30.4 23.8 55.1 53.1 55.1h160.3c35.2 0 63.7-29.6 63.7-66.1-.1-36.5-28.6-66.1-63.7-66.1z"/></svg>

