<svg xmlns="http://www.w3.org/2000/svg" viewBox="0 0 400 400" xml:space="preserve"><path fill="#328BCB" d="M103.2 208.1c7 .1 14 .2 21 .2 54 0 108-.1 161.9-.2 2.7 0 5.3-.4 8-.6 0 10.9-2.7 21.4-4.4 32-4.7 29.6-9.7 59.1-14.7 88.6-.5 3.2-1 6.4-4.5 7.7-4.8 1.8-8.5-.3-9.8-6.1-3-14.5-5.8-29-8.7-43.5-1.5-7.6-3.1-15.2-5.7-22.8l-10.2 31.5c-.9 2.8-1.9 5.7-2.9 8.5-1.1 3.3-3.3 5.5-6.9 5.5-3.6 0-5.8-2.4-6.9-5.6-2.6-7.5-5-15.2-7.5-22.7-1.9-5.5-3.9-10.9-6.8-16.1l-9 44.4c-3.5 17.6-6.8 35.3-10.3 52.9-.7 3.6-1.4 7.5-5.3 9.1-4.4 1.8-8.6-1.2-9.4-6.8-2.4-17.5-4.7-35-7-52.4-2-15-4-30-5.9-45-.2-1.2-.2-2.3-1.7-3.4-2.5 5.9-4.9 11.6-7.3 17.4-4 9.5-7.9 19-12 28.5-1.5 3.6-3.2 7.3-8.1 6.7-4.7-.6-6-4.3-6.8-8.2-4.1-20.4-8.1-40.8-12.1-61.2-2.2-10.9-4.3-21.9-6.5-32.8-.6-2-.9-3.8-.5-5.6z"/><path fill="#D7D8D8" d="M282 60.2c-6.2 0-12.3.8-18.1 2.4C253.1 30.8 223.9 8 189.5 8c-42.1 0-76.5 34.2-78.8 77.3-2.6-.3-5.2-.6-7.9-.6-32.8 0-59.3 27.6-59.3 61.6s26.6 61.6 59.3 61.6H282c39.3 0 71.2-33.1 71.2-73.8 0-40.9-31.9-73.9-71.2-73.9z"/></svg>

