<svg xmlns="http://www.w3.org/2000/svg" width="56" height="56" viewBox="0 0 56 56">
  <path d="M41.676 11.238C40.415 4.833 34.775 0 28 0 16.583 0 7.329 9.254 7.329 20.669c0 1.535.181 3.027.498 4.468.952-4.312 3.261-7.101 6.441-8.86 1.075 6.357 6.442 11.239 13.023 11.573v.033l.354-.018.355.018c1.092 0 2.15-.139 3.172-.375 9.555-1.82 16.787-10.208 16.787-20.294 0-1.536-.18-3.028-.495-4.469-.888 4.019-2.941 6.718-5.788 8.493zm-9.885 2.703A3.793 3.793 0 1 1 28 10.146a3.794 3.794 0 0 1 3.791 3.795z" fill="#D8DADA" />
</svg>


