<svg xmlns="http://www.w3.org/2000/svg" viewBox="0 0 400 400" xml:space="preserve"><path fill="#F7AB1D" d="M181.2 146.2c0 40.5 32.2 73.3 71.8 73.3 39.7 0 71.8-32.8 71.8-73.3S292.7 72.8 253 72.8c-39.7 0-71.8 32.9-71.8 73.4zM382 134.5h-26.2c-6.1 0-11.2 5.1-11.2 11.4v.5c0 6.3 5 11.4 11.2 11.4H382c6.2 0 11.2-5.1 11.2-11.4v-.5c-.1-6.3-5.1-11.4-11.2-11.4zM323.3 22.4l-.5-.3c-5.3-3.1-12.2-1.3-15.3 4.2l-13.1 23.2c-3.1 5.4-1.2 12.5 4.1 15.6l.5.3c5.3 3.1 12.2 1.3 15.3-4.2L327.4 38c3.1-5.5 1.2-12.5-4.1-15.6zM191.7 61.2c3.1 5.4 9.9 7.3 15.3 4.2l.5-.3c5.3-3.1 7.2-10.1 4.1-15.6l-13.1-23.2c-3.1-5.4-9.9-7.3-15.3-4.2l-.5.3c-5.3 3.1-7.2 10.1-4.1 15.6l13.1 23.2zm178.7 140.7-22.7-13.4c-5.3-3.1-12.2-1.3-15.3 4.2l-.3.5c-3.1 5.4-1.2 12.4 4.1 15.6l22.7 13.4c5.3 3.1 12.2 1.3 15.3-4.2l.3-.5c3.1-5.5 1.2-12.5-4.1-15.6zm-38-102.2c3.1 5.4 9.9 7.3 15.3 4.2l22.7-13.4c5.3-3.1 7.2-10.2 4.1-15.6l-.3-.5c-3.1-5.4-9.9-7.3-15.3-4.2l-22.7 13.4c-5.3 3.2-7.2 10.2-4.1 15.6l.3.5zm-79.7-47h.5c6.1 0 11.2-5.1 11.2-11.4V14.5c0-6.3-5-11.4-11.2-11.4h-.5c-6.1 0-11.2 5.1-11.2 11.4v26.8c.1 6.3 5.1 11.4 11.2 11.4z"/><path fill="#D7D8D8" d="M234.5 101.2c-5 0-9.8.7-14.4 1.9-8.6-25.4-32-43.7-59.5-43.7-33.7 0-61.2 27.4-63 61.8-2.1-.3-4.1-.5-6.3-.5-26.2 0-47.4 22-47.4 49.2 0 27.2 21.2 49.2 47.4 49.2h143.2c31.4 0 56.9-26.4 56.9-59 0-32.5-25.5-58.9-56.9-58.9z"/><circle fill="#318ACA" cx="301.6" cy="273.8" r="13.2"/><circle fill="#318ACA" cx="257.6" cy="318.1" r="13.2"/><circle fill="#318ACA" cx="195" cy="324.5" r="13.2"/><circle fill="#318ACA" cx="151" cy="366.8" r="13.2"/><path fill="#318ACA" d="m210.6 232.5 32.2 69.6 10.4-4.9-30-64.7zM84.4 232.5c-.7 0-1.4 0-2.2-.1L137.1 351l10.4-4.8-52.6-113.7H84.4zM145.4 232.5l35.8 77.2 10.4-4.8-33.5-72.4zM272.3 227.1l14.3 30.9 10.4-4.8-13.7-29.7c-3.6 1.5-7.2 2.7-11 3.6z"/></svg>

