<svg xmlns="http://www.w3.org/2000/svg" width="56" height="56" viewBox="0 0 56 56">
  <path d="M25.008 19.482c0 5.524 4.387 10.002 9.797 10.002 5.411 0 9.795-4.478 9.795-10.002S40.215 9.481 34.805 9.481s-9.797 4.477-9.797 10.001zm27.388-1.592h-3.579c-.838 0-1.524.699-1.524 1.557v.072c0 .857.687 1.557 1.524 1.557h3.579c.839 0 1.524-.699 1.524-1.557v-.072c0-.858-.686-1.557-1.524-1.557zM44.394 2.601l-.062-.037a1.512 1.512 0 0 0-2.083.57l-1.79 3.164c-.42.742-.168 1.699.558 2.125l.063.037a1.513 1.513 0 0 0 2.082-.568l1.789-3.165c.419-.743.168-1.698-.557-2.126zM28.592 30.542l-.062-.036a1.513 1.513 0 0 0-2.083.568l-1.79 3.165c-.417.74-.168 1.699.558 2.125l.062.037a1.513 1.513 0 0 0 2.083-.568l1.788-3.166c.42-.74.17-1.697-.556-2.125zm14.57.532a1.51 1.51 0 0 0-2.082-.568l-.063.036a1.577 1.577 0 0 0-.558 2.125l1.79 3.166a1.51 1.51 0 0 0 2.083.568l.062-.037c.726-.426.977-1.385.558-2.125l-1.79-3.165zM26.447 7.892c.419.74 1.356.997 2.083.568l.062-.037c.727-.426.979-1.383.559-2.125l-1.79-3.164a1.51 1.51 0 0 0-2.083-.57l-.062.037a1.578 1.578 0 0 0-.557 2.126l1.788 3.165zm24.371 19.191-3.1-1.828a1.513 1.513 0 0 0-2.082.57l-.036.062a1.578 1.578 0 0 0 .56 2.127l3.098 1.826a1.511 1.511 0 0 0 2.082-.569l.037-.063a1.58 1.58 0 0 0-.559-2.125zm-5.181-13.942a1.51 1.51 0 0 0 2.082.568l3.102-1.826c.726-.427.977-1.386.559-2.125l-.037-.063a1.514 1.514 0 0 0-2.084-.571L46.16 10.95a1.58 1.58 0 0 0-.559 2.127l.036.064zM34.768 6.733h.072c.838 0 1.524-.699 1.524-1.555V1.524c0-.856-.685-1.556-1.524-1.556h-.072c-.838 0-1.524.699-1.524 1.556v3.654c0 .856.686 1.555 1.524 1.555zm.072 25.498h-.072c-.838 0-1.524.701-1.524 1.555v3.656c0 .855.687 1.555 1.524 1.555h.072c.838 0 1.524-.699 1.524-1.555v-3.656c0-.853-.684-1.555-1.524-1.555z" fill="#FAAD1C" />
  <path d="M32.282 13.352a7.48 7.48 0 0 0-1.971.263c-1.179-3.471-4.365-5.958-8.113-5.958-4.594 0-8.345 3.734-8.59 8.433a6.533 6.533 0 0 0-.857-.065c-3.573.002-6.47 3.006-6.47 6.713s2.896 6.713 6.469 6.713h19.532c4.286 0 7.76-3.604 7.76-8.05.001-4.446-3.474-8.049-7.76-8.049z" fill="#D8D9D9" />
</svg>


