<svg xmlns="http://www.w3.org/2000/svg" viewBox="-278 -368 56 56" xml:space="preserve"><path style="fill:#d8d9d9" d="M157.6-935.3c-9.8 0-18.6 1.1-27.3 3.3-15.3-48.1-60.1-82-111.5-82-63.4 0-114.7 51.4-118 115.8-4.4 0-7.7-1.1-12-1.1-49.2 0-88.5 41.5-88.5 92.9 0 51.4 39.3 92.9 88.5 92.9h268.8c59 0 107.1-49.2 107.1-110.4 0-62.2-48-111.4-107.1-111.4z" transform="translate(-253.694 -284.28) scale(.08244)"/><path style="fill:#308bcb" d="M-111.2 42.5h-1.1l93.6 200.8 18.1-8.5-89.6-192.3h-21zM215.8 28l26.3 56.4 18.1-8.5-27.4-58.8c-5.4 4.1-11.1 7.7-17 10.9zM-.7 42.5l59.5 127.4 18.1-8.5L21.4 42.5zM110.9 42.5l53.8 115.3 18.1-8.4L133 42.5z" transform="translate(-253.694 -344.956) scale(.08244)"/><g transform="translate(-253.694 -344.956) scale(.08244)"><circle style="fill:#308bcb" r="50" cy="209.4" cx="198.4"/><circle style="fill:#308bcb" r="50" cy="294.9" cx="15.1"/><circle style="fill:#308bcb" r="30.6" cy="206.8" cx="85.6"/><circle style="fill:#308bcb" r="30.6" cy="121.4" cx="268.9"/></g></svg>

