<svg xmlns="http://www.w3.org/2000/svg" viewBox="0 0 56 56" xml:space="preserve"><path style="fill:#a8a7a8" d="M121.3-646c27.3 25.1 43.7 60.1 43.7 99.5C165-472.2 104.9-411 29.5-411c-8.7 0-16.4-1.1-25.1-2.2 24 21.9 55.7 36.1 91.8 36.1 74.3 0 135.5-60.1 135.5-135.5 1.1-66.7-47-121.4-110.4-133.4z" transform="matrix(.08786 0 0 .08786 1.06 57.051)"/><path style="fill:#d8d9d9" d="M499.4-567.3c-9.8 0-18.6 1.1-27.3 3.3-15.3-47-60.1-82-111.5-82-63.4 0-114.7 51.4-118 115.8-4.4 0-7.7-1.1-12-1.1-49.2 0-88.5 41.5-88.5 92.9 0 51.4 39.3 92.9 88.5 92.9h268.8c59 0 107.1-49.2 107.1-110.4 0-62.2-48-111.4-107.1-111.4z" transform="matrix(.08786 0 0 .08786 1.06 57.051)"/><path style="fill:#d8d9d9" d="M499.4-567.3c-9.8 0-18.6 1.1-27.3 3.3-15.3-48.1-60.1-82-111.5-82-63.4 0-114.7 51.4-118 115.8-4.4 0-7.7-1.1-12-1.1-49.2 0-88.5 41.5-88.5 92.9 0 51.4 39.3 92.9 88.5 92.9h268.8c59 0 107.1-49.2 107.1-110.4 0-62.2-48-111.4-107.1-111.4z" transform="matrix(.08786 0 0 .08786 1.06 57.051)"/><path style="fill:#2594e3" d="m330-190.3-27.3-10.9 21.9-19.7c2.2-2.2 2.2-4.4 0-6.6l-8.7-8.7c-2.2-2.2-4.4-2.2-6.6 0l-19.7 17.5-5.5-25.1c0-2.2-3.3-4.4-5.5-3.3l-12 2.2c-2.2 0-4.4 3.3-3.3 5.5l5.5 26.2-25.1-9.8c-2.2-1.1-5.5 0-6.6 2.2l-4.4 10.9c-1.1 2.2 0 5.5 2.2 5.5l27.3 10.9-21.9 19.7c-2.2 2.2-2.2 4.4 0 6.6l8.7 8.7c2.2 2.2 4.4 2.2 6.6 0l19.7-18.6 5.5 26.2c0 2.2 3.3 4.4 5.5 3.3l12-2.2c2.2 0 4.4-3.3 3.3-5.5l-5.5-26.2 25.1 9.8c2.2 1.1 5.5 0 6.6-2.2l4.4-10.9c2.2-2.2 0-4.4-2.2-5.5zM535.5-203.4l-43.7-16.4 33.9-31.7c3.3-3.3 3.3-7.7 0-10.9l-14.2-14.2c-3.3-3.3-7.7-3.3-10.9 0l-31.7 29.5-8.7-41.5c-1.1-4.4-4.4-6.6-8.7-5.5l-19.7 3.3c-4.4 1.1-6.6 4.4-5.5 8.7l8.7 41.5-40.4-15.3c-4.4-1.1-8.7 0-9.8 4.4l-7.7 18.6c-1.1 3.3 0 7.6 4.4 9.8l43.7 17.5-31.7 29.5c-3.3 3.3-3.3 7.7 0 10.9l14.2 14.2c3.3 3.3 7.7 3.3 10.9 0l31.7-29.5L459-139c1.1 4.4 4.4 6.6 8.7 5.5l19.7-3.3c4.4-1.1 6.6-4.4 5.5-8.7l-8.7-41.5 40.4 15.3c4.4 1.1 8.7 0 9.8-4.4l7.7-18.6c0-3.2-2.2-6.5-6.6-8.7z" transform="matrix(.08786 0 0 .08786 1.06 57.051)"/><path style="fill:#d8d9d9" d="M499.4-567.3c-9.8 0-18.6 1.1-27.3 3.3-15.3-48.1-60.1-82-111.5-82-63.4 0-114.7 51.4-118 115.8-4.4 0-7.7-1.1-12-1.1-49.2 0-88.5 41.5-88.5 92.9 0 51.4 39.3 92.9 88.5 92.9h268.8c59 0 107.1-49.2 107.1-110.4 0-62.2-48-111.4-107.1-111.4z" transform="matrix(.08786 0 0 .08786 1.06 57.051)"/></svg>

