<svg xmlns="http://www.w3.org/2000/svg" viewBox="0 0 400 400" xml:space="preserve"><path fill="#318ACA" d="m213.5 295-19-7.4 14.8-13.9c1.3-1.2 1.4-3.3.1-4.5l-6-6.3c-1.2-1.3-3.3-1.3-4.6-.1l-13.5 12.7-3.6-18.1c-.3-1.7-2-2.9-3.8-2.5l-8.5 1.7c-1.7.3-2.9 2-2.6 3.8l3.6 18.1-17.3-6.7c-1.7-.6-3.5.2-4.2 1.8l-3.2 8c-.7 1.6.2 3.5 1.8 4.2l19 7.4-14.8 13.9c-1.3 1.2-1.4 3.3-.1 4.6l6 6.3c1.2 1.3 3.3 1.3 4.6.1l13.5-12.6 3.6 18.1c.3 1.7 2.1 2.9 3.8 2.5l8.5-1.7c1.7-.3 2.9-2 2.6-3.8l-3.6-18L208 309c1.7.6 3.5-.2 4.2-1.8l3.2-8c.6-1.7-.2-3.6-1.9-4.2zM297.9 250.8l-13.4-5.2 10.5-9.8c.9-.9 1-2.3.1-3.2l-4.2-4.4c-.9-.9-2.3-.9-3.2-.1l-9.5 8.9-2.5-12.8c-.2-1.2-1.4-2-2.7-1.8l-6 1.2c-1.2.2-2.1 1.4-1.8 2.7l2.5 12.8-12.2-4.7c-1.2-.4-2.5.1-3 1.3l-2.2 5.7c-.5 1.2.1 2.5 1.3 2.9l13.4 5.2-10.5 9.8c-.9.9-1 2.3-.1 3.2l4.2 4.4c.9.9 2.3.9 3.2.1l9.5-8.9 2.5 12.8c.2 1.2 1.5 2 2.7 1.8l6-1.2c1.2-.2 2-1.4 1.8-2.7l-2.5-12.7 12.2 4.7c1.2.5 2.5-.1 3-1.3l2.2-5.7c.5-1.3-.1-2.6-1.3-3zM77.1 219.8l55.2 120.1 9.2-4.3-52.7-114.7c-4-.1-7.9-.4-11.7-1.1zM205.1 220.9l33.3 71.9 9.2-4.3-31.3-67.6z"/><circle fill="#318ACA" cx="252" cy="309" r="13.2"/><circle fill="#318ACA" cx="146.6" cy="356" r="13.2"/><path fill="#D8D9D9" d="M270.9 55.9c-6.7 0-13.2.9-19.3 2.6C240 24.4 208.8 0 172 0c-45 0-81.8 36.6-84.2 82.7-2.8-.4-5.5-.6-8.4-.6-35 0-63.5 29.5-63.5 65.9 0 36.4 28.4 65.9 63.5 65.9H271c42 0 76.1-35.4 76.1-79 0-43.7-34.1-79-76.2-79z"/></svg>

