<svg xmlns="http://www.w3.org/2000/svg" viewBox="0 0 256 256" xml:space="preserve"><path fill="#D0202B" d="M105.3 99.5v50.9c0 1.6.5 2.7 1.6 3.9 12.7 13.2 16.9 28.7 11.3 46.1-5.5 17.4-17.9 27.9-35.9 31.2-25.2 4.6-49.7-13.7-52.7-39.2-1.8-15 2.9-27.8 13.4-38.5.8-.8 1.4-2.3 1.4-3.5.1-33.6 0-67.2.1-100.8C44.5 33.8 56.2 21 72 19.3c15-1.6 29.1 8.5 32.5 23.6.5 2.4.8 4.9.8 7.3.1 16.5 0 32.9 0 49.3zM90.1 141H60.8c-.3 0-.6.1-1.1.2 0 5.6-.1 11.1 0 16.6 0 1.8-.5 2.9-2.1 4-10.8 7.3-15.5 20.4-12.1 33 3.4 12.2 14.4 21.3 27.1 22.2 13.6 1 26.3-7.3 30.9-20.1 4.6-13 .1-27.2-11.3-35-1.7-1.1-2.2-2.3-2.1-4.2.1-5.5 0-11 0-16.7zm-.1-15.3c0-.6.1-1.1.1-1.6V49.7c0-8.8-7-15.5-15.7-15.3-8.3.2-14.7 6.9-14.7 15.5v73.6c0 .7.1 1.4.1 2.1 10.2.1 20 .1 30.2.1zM146.1 121.1c0 15.7 12.5 28.5 27.9 28.5s27.9-12.8 27.9-28.5-12.4-28.5-27.9-28.5-27.9 12.7-27.9 28.5zm-7.6.1v-.2c0-2.4-2-4.4-4.3-4.4H124c-2.4 0-4.3 2-4.3 4.4v.2c0 2.4 2 4.4 4.3 4.4h10.2c2.3 0 4.3-2 4.3-4.4zm85.7-4.7H214c-2.4 0-4.3 2-4.3 4.4v.2c0 2.4 2 4.4 4.3 4.4h10.2c2.4 0 4.3-2 4.3-4.4v-.1c0-2.5-1.9-4.5-4.3-4.5zM201.4 73l-.2-.1c-2.1-1.2-4.7-.5-5.9 1.6l-5.1 9c-1.2 2.1-.5 4.8 1.6 6.1l.2.1c2.1 1.2 4.7.5 5.9-1.6l5.1-9c1.2-2.2.4-4.9-1.6-6.1zm-45.1 79.6-.2-.1c-2.1-1.2-4.7-.5-5.9 1.6l-5.1 9c-1.2 2.1-.5 4.8 1.6 6.1l.2.1c2.1 1.2 4.7.5 5.9-1.6l5.1-9c1.2-2.2.5-4.9-1.6-6.1zm41.6 1.5c-1.2-2.1-3.9-2.8-5.9-1.6l-.2.1c-2.1 1.2-2.8 3.9-1.6 6.1l5.1 9c1.2 2.1 3.9 2.8 5.9 1.6l.2-.1c2.1-1.2 2.8-3.9 1.6-6.1l-5.1-9zM150.2 88c1.2 2.1 3.9 2.8 5.9 1.6l.2-.1c2.1-1.2 2.8-3.9 1.6-6.1l-5.1-9c-1.2-2.1-3.9-2.8-5.9-1.6l-.2.1c-2.1 1.2-2.8 3.9-1.6 6.1l5.1 9zm-8.5 8.7-8.8-5.2c-2.1-1.2-4.7-.5-5.9 1.6l-.1.2c-1.2 2.1-.5 4.8 1.6 6.1l8.8 5.2c2.1 1.2 4.7.5 5.9-1.6l.1-.2c1.2-2.1.5-4.8-1.6-6.1zm78 46-8.8-5.2c-2.1-1.2-4.7-.5-5.9 1.6l-.1.2c-1.2 2.1-.5 4.8 1.6 6.1l8.8 5.2c2.1 1.2 4.7.5 5.9-1.6l.1-.2c1.2-2.1.4-4.9-1.6-6.1zm-76.5-3.6c-1.2-2.1-3.9-2.8-5.9-1.6l-8.8 5.2c-2.1 1.2-2.8 3.9-1.6 6.1l.1.2c1.2 2.1 3.9 2.8 5.9 1.6l8.8-5.2c2.1-1.2 2.8-3.9 1.6-6.1l-.1-.2zm61.7-36.1c1.2 2.1 3.9 2.8 5.9 1.6l8.8-5.2c2.1-1.2 2.8-3.9 1.6-6.1l-.1-.2c-1.2-2.1-3.9-2.8-5.9-1.6l-8.8 5.2c-2.1 1.2-2.8 3.9-1.6 6.1l.1.2zm-31-18.3h.2c2.4 0 4.3-2 4.3-4.4V69.9c0-2.4-2-4.4-4.3-4.4h-.2c-2.4 0-4.3 2-4.3 4.4v10.4c0 2.4 1.9 4.4 4.3 4.4zm.2 72.7h-.2c-2.4 0-4.3 2-4.3 4.4v10.4c0 2.4 2 4.4 4.3 4.4h.2c2.4 0 4.3-2 4.3-4.4v-10.4c.1-2.4-1.9-4.4-4.3-4.4z"/></svg>

