<svg xmlns="http://www.w3.org/2000/svg" width="56" height="56" viewBox="0 0 56 56">
  <path d="M46.812 2.226a2.226 2.226 0 0 1-2.225 2.226H12.812a2.225 2.225 0 0 1 0-4.452h31.775c1.229 0 2.225.996 2.225 2.226zM38.969 7.803c0 1.23-.994 2.226-2.225 2.226H11.412a2.226 2.226 0 0 1 0-4.451h25.332c1.231 0 2.225.996 2.225 2.225zM44.1 13.381a2.226 2.226 0 0 1-2.227 2.226H19.249a2.226 2.226 0 1 1 0-4.451h22.626c1.229 0 2.225.996 2.225 2.225zM41.33 19.23a2.225 2.225 0 0 1-2.225 2.225H22.01a2.225 2.225 0 1 1 0-4.45h17.096a2.227 2.227 0 0 1 2.224 2.225zM30.064 31.217c0 1.23-.996 2.227-2.226 2.227h-2.122a2.225 2.225 0 0 1 0-4.452h2.122c1.23 0 2.226.996 2.226 2.225zM36.064 25.217c0 1.23-.996 2.227-2.225 2.227h-9.123a2.225 2.225 0 0 1 0-4.452h9.123c1.229 0 2.225.996 2.225 2.225z" fill="#D8D9D9" />
</svg>


