<svg xmlns="http://www.w3.org/2000/svg" width="56" height="56" viewBox="0 0 56 56">
  <path d="M18.168 19.483c0 5.524 4.387 10.001 9.796 10.001 5.412 0 9.795-4.477 9.795-10.001S33.375 9.482 27.965 9.482s-9.797 4.476-9.797 10.001zm-2.69.036v-.072c0-.857-.686-1.557-1.524-1.557h-3.579c-.839 0-1.525.699-1.525 1.557v.072c0 .857.686 1.557 1.525 1.557h3.579c.838 0 1.524-.7 1.524-1.557zm30.079-1.629h-3.579c-.839 0-1.524.699-1.524 1.557v.072c0 .857.686 1.557 1.524 1.557h3.579c.838 0 1.523-.699 1.523-1.557v-.072c0-.858-.685-1.557-1.523-1.557zM37.555 2.601l-.062-.037a1.51 1.51 0 0 0-2.082.57l-1.79 3.164c-.421.742-.169 1.699.558 2.125l.061.037a1.512 1.512 0 0 0 2.082-.568l1.789-3.165a1.58 1.58 0 0 0-.556-2.126zM21.752 30.543l-.062-.037a1.515 1.515 0 0 0-2.083.568l-1.79 3.166c-.417.74-.168 1.699.558 2.125l.062.037a1.513 1.513 0 0 0 2.083-.568l1.789-3.166c.42-.74.17-1.697-.557-2.125zm14.57.531a1.512 1.512 0 0 0-2.082-.568l-.062.037a1.577 1.577 0 0 0-.558 2.125l1.79 3.166a1.51 1.51 0 0 0 2.082.568l.062-.037c.725-.426.977-1.385.557-2.125l-1.789-3.166zM19.607 7.892c.419.74 1.356.997 2.083.568l.062-.037c.727-.426.978-1.383.558-2.125l-1.79-3.164a1.51 1.51 0 0 0-2.083-.57l-.062.037c-.725.428-.975 1.384-.556 2.126l1.788 3.165zm-2.997 3.059-3.1-1.827a1.512 1.512 0 0 0-2.082.571l-.036.063c-.419.739-.168 1.698.558 2.125l3.101 1.826a1.514 1.514 0 0 0 2.083-.568l.036-.063a1.582 1.582 0 0 0-.56-2.127zm27.369 16.132-3.099-1.828a1.514 1.514 0 0 0-2.083.57l-.035.062a1.578 1.578 0 0 0 .559 2.127l3.099 1.827a1.51 1.51 0 0 0 2.082-.57l.036-.062c.417-.743.167-1.698-.559-2.126zm-26.846-1.257a1.512 1.512 0 0 0-2.083-.57l-3.1 1.828a1.575 1.575 0 0 0-.558 2.125l.036.062a1.512 1.512 0 0 0 2.083.57l3.099-1.827a1.58 1.58 0 0 0 .559-2.127l-.036-.061zm21.664-12.685c.42.741 1.357.997 2.083.568l3.101-1.826c.727-.427.977-1.386.559-2.125l-.036-.063a1.514 1.514 0 0 0-2.084-.571l-3.099 1.827a1.58 1.58 0 0 0-.558 2.127l.034.063zM27.929 6.734H28c.839 0 1.525-.699 1.525-1.555V1.525c0-.856-.685-1.556-1.525-1.556h-.071c-.839 0-1.524.699-1.524 1.556v3.654c-.001.856.685 1.555 1.524 1.555zM28 32.232h-.071c-.839 0-1.524.701-1.524 1.555v3.656c0 .855.686 1.555 1.524 1.555H28c.839 0 1.525-.699 1.525-1.555v-3.656c0-.853-.684-1.555-1.525-1.555z" fill="#FAAD1C" />
</svg>


