<svg xmlns="http://www.w3.org/2000/svg" width="56" height="56" viewBox="0 0 56 56">
  <path d="M41.727 10.021H18.153a1.046 1.046 0 0 1 0-2.091h23.574c2.278 0 3.315-1.542 3.315-2.975 0-1.427-1.026-2.864-3.315-2.864a1.047 1.047 0 0 1 0-2.091c3.55 0 5.406 2.493 5.406 4.955 0 2.518-1.857 5.066-5.406 5.066zM41.727 25.788a1.046 1.046 0 0 1 0-2.09c2.289 0 3.315-1.438 3.315-2.864 0-1.433-1.037-2.975-3.315-2.975H18.153a1.046 1.046 0 0 1 0-2.091h23.574c3.55 0 5.406 2.548 5.406 5.065 0 2.463-1.857 4.955-5.406 4.955zM40.482 13.911H14.177a1.046 1.046 0 0 1 0-2.091h26.305a1.045 1.045 0 1 1 0 2.091z" fill="#D8D9D9" />
</svg>


