<svg xmlns="http://www.w3.org/2000/svg" viewBox="-278 -368 56 56" xml:space="preserve"><path d="M-240.701-361.386c-.808 0-1.534.09-2.25.272-1.262-3.966-4.955-6.76-9.193-6.76-5.227 0-9.456 4.237-9.728 9.546-.363 0-.635-.09-.99-.09-4.055 0-7.295 3.42-7.295 7.658s3.24 7.659 7.296 7.659h22.16c4.864 0 8.83-4.056 8.83-9.102 0-5.127-3.958-9.183-8.83-9.183z" style="fill:#d8d9d9"/><path d="M-111.2 42.5h-1.1l93.6 200.8 18.1-8.5-89.6-192.3h-21zM215.8 28l26.3 56.4 18.1-8.5-27.4-58.8c-5.4 4.1-11.1 7.7-17 10.9zM76.9 161.4 21.4 42.5H-.7l59.5 127.4zM182.8 149.4 133 42.5h-22.1l53.8 115.3z" style="fill:#308bcb" transform="translate(-253.694 -344.956) scale(.08244)"/><circle style="fill:#308bcb" r="50" cy="294.9" cx="15.1" transform="translate(-253.87 -334.102) scale(.03852)"/><circle transform="translate(-247.367 -340.29) scale(.03852)" cx="15.1" cy="294.9" r="50" style="fill:#308bcb"/><circle style="fill:#308bcb" r="50" cy="294.9" cx="15.1" transform="translate(-238.558 -341.128) scale(.03852)"/><circle transform="translate(-232.266 -347.316) scale(.03852)" cx="15.1" cy="294.9" r="50" style="fill:#308bcb"/></svg>

