<svg xmlns="http://www.w3.org/2000/svg" viewBox="0 0 400 400" xml:space="preserve"><path fill="#F7AB1D" d="M164.2 146.2c0 40.5 32.2 73.3 71.8 73.3 39.7 0 71.8-32.8 71.8-73.3S275.7 72.8 236 72.8c-39.7 0-71.8 32.9-71.8 73.4zM365 134.5h-26.2c-6.1 0-11.2 5.1-11.2 11.4v.5c0 6.3 5 11.4 11.2 11.4H365c6.2 0 11.2-5.1 11.2-11.4v-.5c-.1-6.3-5.1-11.4-11.2-11.4zM306.3 22.4l-.5-.3c-5.3-3.1-12.2-1.3-15.3 4.2l-13.1 23.2c-3.1 5.4-1.2 12.5 4.1 15.6l.5.3c5.3 3.1 12.2 1.3 15.3-4.2L310.4 38c3.1-5.5 1.2-12.5-4.1-15.6zm-9 208.8c-3.1-5.4-9.9-7.3-15.3-4.2l-.5.3c-5.3 3.1-7.2 10.2-4.1 15.6l13.1 23.2c3.1 5.4 9.9 7.3 15.3 4.2l.5-.3c5.3-3.1 7.2-10.2 4.1-15.6l-13.1-23.2zm-122.6-170c3.1 5.4 9.9 7.3 15.3 4.2l.5-.3c5.3-3.1 7.2-10.1 4.1-15.6l-13.1-23.2c-3.1-5.4-9.9-7.3-15.3-4.2l-.5.3c-5.3 3.1-7.2 10.1-4.1 15.6l13.1 23.2zm178.7 140.7-22.7-13.4c-5.3-3.1-12.2-1.3-15.3 4.2l-.3.5c-3.1 5.4-1.2 12.4 4.1 15.6l22.7 13.4c5.3 3.1 12.2 1.3 15.3-4.2l.3-.5c3.1-5.5 1.2-12.5-4.1-15.6zm-38-102.2c3.1 5.4 9.9 7.3 15.3 4.2l22.7-13.4c5.3-3.1 7.2-10.2 4.1-15.6l-.3-.5c-3.1-5.4-9.9-7.3-15.3-4.2l-22.7 13.4c-5.3 3.2-7.2 10.2-4.1 15.6l.3.5zm-79.7-47h.5c6.1 0 11.2-5.1 11.2-11.4V14.5c0-6.3-5-11.4-11.2-11.4h-.5c-6.1 0-11.2 5.1-11.2 11.4v26.8c.1 6.3 5.1 11.4 11.2 11.4zm.6 186.9h-.5c-6.1 0-11.2 5.1-11.2 11.4v26.8c0 6.3 5 11.4 11.2 11.4h.5c6.1 0 11.2-5.1 11.2-11.4V251c-.1-6.2-5.1-11.4-11.2-11.4z"/><path fill="#D7D8D8" d="M217.5 101.2c-5 0-9.8.7-14.4 1.9-8.6-25.4-32-43.7-59.5-43.7-33.7 0-61.2 27.4-63 61.8-2.1-.3-4.1-.5-6.3-.5-26.2 0-47.4 22-47.4 49.2 0 27.2 21.2 49.2 47.4 49.2h143.2c31.4 0 56.9-26.4 56.9-59 0-32.5-25.5-58.9-56.9-58.9z"/><path fill="#F8AD1D" d="m191.9 292.6-44.1 1.2 28.6-55.9c.5-.9.4-1.9-.3-2.8-.6-.8-1.7-1.3-2.9-1.4l-48.4-.7c-1.4.1-2.9.8-3.3 2l-36.8 91.6c-.4.9-.2 1.9.5 2.7.7.8 1.7 1.2 2.8 1.2l43.7-.3-18 59.1c-.4 1.4.4 2.8 2 3.4l1.4.3c1.1 0 2.2-.5 2.9-1.3l74.8-94.5c.7-.9.8-2.1.1-3.1-.5-1-1.8-1.6-3-1.5z"/></svg>

