<svg xmlns="http://www.w3.org/2000/svg" viewBox="0 0 256 256" xml:space="preserve"><g fill="#2594E3"><path d="M250.1 104.5c0-.4 0-.8-.1-1.2l-.3-2.4c0-.1 0-.3-.1-.4-2.2-12.4-12.4-22.5-25.6-23.9-.5-.1-1 0-1.4.1-7-.4-14.2 1.6-20.1 6.3-2.3 1.9-2.7 5.3-.8 7.6 1.9 2.3 5.3 2.7 7.6.8 7.9-6.4 19.6-5.1 25.9 2.8 2 2.5 3.2 5.3 3.8 8.2v.3c.1.5.1.9.2 1.4 0 .4 0 .8.1 1.3v.4c0 .6 0 1.2-.1 1.8-1 9.5-9.2 16.5-18.5 16.4H11.2c-3 0-5.4 2.4-5.4 5.4 0 3 2.4 5.4 5.4 5.4h210.1c6.2-.1 12-2.1 16.8-5.6.4-.2.8-.4 1.2-.7 7.1-5.7 10.9-14.1 10.9-22.6 0-.4 0-.9-.1-1.4z"/><path d="M192.3 78.5c0-.4 0-.8-.1-1.2l-.3-2.4c0-.1 0-.3-.1-.4-2.2-12.4-12.4-22.5-25.6-23.9-.5-.1-1 0-1.4.1-7-.4-14.2 1.6-20.1 6.3-2.3 1.9-2.7 5.3-.8 7.6 1.9 2.3 5.3 2.7 7.6.8 7.9-6.4 19.6-5.1 25.9 2.8 2 2.5 3.2 5.3 3.8 8.2v.3c.1.5.1.9.2 1.4 0 .4 0 .8.1 1.3v.4c0 .6 0 1.2-.1 1.8-1 9.5-9.2 16.5-18.5 16.4H25c-3 0-5.4 2.4-5.4 5.4 0 3 2.4 5.4 5.4 5.4h138.5c6.2-.1 12-2.1 16.8-5.6.4-.2.8-.4 1.2-.7 7.1-5.7 10.9-14.1 10.9-22.6 0-.4-.1-.9-.1-1.4z"/><path d="M127.9 53.6c0-.4 0-.8-.1-1.2l-.3-2.4c0-.1 0-.3-.1-.4-2.2-12.4-12.4-22.5-25.6-23.9-.5-.1-1 0-1.4.1-7-.4-14.2 1.6-20.1 6.3-2.3 1.9-2.7 5.3-.8 7.6 1.9 2.3 5.3 2.7 7.6.8 7.9-6.4 19.6-5.1 25.9 2.8 2 2.5 3.2 5.3 3.8 8.2v.3c.1.5.1.9.2 1.4 0 .4 0 .8.1 1.3v.4c0 .6 0 1.2-.1 1.8-1 9.5-9.2 16.5-18.5 16.4H38.7c-3 0-5.4 2.4-5.4 5.4 0 3 2.4 5.4 5.4 5.4H99.1c6.2-.1 12-2.1 16.8-5.6.4-.2.8-.4 1.2-.7C124.2 71.9 128 63.5 128 55c0-.3 0-.8-.1-1.4zM192.3 177.5c0 .4 0 .8-.1 1.2l-.3 2.4c0 .1 0 .3-.1.4-2.2 12.4-12.4 22.5-25.6 23.9-.5.1-1 0-1.4-.1-7 .4-14.2-1.6-20.1-6.3-2.3-1.9-2.7-5.3-.8-7.6 1.9-2.3 5.3-2.7 7.6-.8 7.9 6.4 19.6 5.1 25.9-2.8 2-2.5 3.2-5.3 3.8-8.2v-.3c.1-.5.1-.9.2-1.4 0-.4 0-.8.1-1.3v-.4c0-.6 0-1.2-.1-1.8-1-9.5-9.2-16.5-18.5-16.4H25c-3 0-5.4-2.4-5.4-5.4 0-3 2.4-5.4 5.4-5.4h138.5c6.2.1 12 2.1 16.8 5.6.4.2.8.4 1.2.7 7.1 5.7 10.9 14.1 10.9 22.6 0 .4-.1.9-.1 1.4z"/><path d="M127.9 202.4c0 .4 0 .8-.1 1.2l-.3 2.4c0 .1 0 .3-.1.4-2.2 12.4-12.4 22.5-25.6 23.9-.5.1-1 0-1.4-.1-7 .4-14.2-1.6-20.1-6.3-2.3-1.9-2.7-5.3-.8-7.6 1.9-2.3 5.3-2.7 7.6-.8 7.9 6.4 19.6 5.1 25.9-2.8 2-2.5 3.2-5.3 3.8-8.2v-.3c.1-.5.1-.9.2-1.4 0-.4 0-.8.1-1.3v-.4c0-.6 0-1.2-.1-1.8-1-9.5-9.2-16.5-18.5-16.4H38.7c-3 0-5.4-2.4-5.4-5.4 0-3 2.4-5.4 5.4-5.4H99.1c6.2.1 12 2.1 16.8 5.6.4.2.8.4 1.2.7 7.1 5.7 10.9 14.1 10.9 22.6 0 .3 0 .8-.1 1.4z"/></g></svg>

