<svg xmlns="http://www.w3.org/2000/svg" viewBox="-278 -368 56 56" xml:space="preserve"><path d="M-265.18-367.79c2.398 2.205 3.839 5.28 3.839 8.742 0 6.528-5.28 11.906-11.905 11.906-.765 0-1.441-.097-2.206-.194 2.109 1.925 4.894 3.172 8.066 3.172 6.528 0 11.905-5.28 11.905-11.905.097-5.86-4.13-10.667-9.7-11.721z" style="fill:#a8a7a8"/><path d="M-233.76-361.207c-.796 0-1.51.092-2.218.277-1.243-4.045-4.882-6.897-9.058-6.897-5.15 0-9.318 4.324-9.586 9.74-.357 0-.625-.092-.974-.092-3.997 0-7.19 3.49-7.19 7.813 0 4.324 3.193 7.814 7.19 7.814h21.836c4.793 0 8.7-4.138 8.7-9.286 0-5.231-3.899-9.37-8.7-9.37z" style="fill:#d8d9d9"/><path d="M-111.2 42.5h-1.1l93.6 200.8 18.1-8.5-89.6-192.3h-21zM215.8 28l26.3 56.4 18.1-8.5-27.4-58.8c-5.4 4.1-11.1 7.7-17 10.9zM-.7 42.5l59.5 127.4 18.1-8.5L21.4 42.5zM110.9 42.5l53.8 115.3 18.1-8.4L133 42.5z" style="fill:#308bcb" transform="matrix(.08124 0 0 .08411 -246.563 -344.444)"/><circle style="fill:#308bcb" r="1.926" cy="-321.963" cx="-246.183"/><circle cx="-239.829" cy="-328.15" r="1.926" style="fill:#308bcb"/><circle style="fill:#308bcb" r="1.926" cy="-329.064" cx="-231.094"/><circle cx="-224.876" cy="-335.399" r="1.926" style="fill:#308bcb"/></svg>

