<svg xmlns="http://www.w3.org/2000/svg" xmlns:xlink="http://www.w3.org/1999/xlink" viewBox="0 0 256 256" xml:space="preserve"><defs><path id="a" d="M0-.2h256.3v256.3H0z"/></defs><clipPath id="b"><use xlink:href="#a" overflow="visible"/></clipPath><g clip-path="url(#b)" fill="#A8A7A8"><path d="M208.4-.2h4.8c.3 1.6 1.3 1.6 2.5 1.1h-.1c1.2.5 2.3 1.1 3.7 1.7-2.4 2.8-4.7-.5-6.8.5.1-.7.2-1.2.2-1.9-1.2.5-2.2.9-3.1 1.4-1.8.9-1.9 3-.4 4.1-3.5 1.5-6.9 2.9-10.4 4.4-.1.1-.2.3-.3.4-1.3 2.1-.4 3.1 1.6 4 2.6 1.2 5.1 3.3 7.9 1.8 2.5-1.3 4.5-3.5 6.7-5.3-1.4-1.5-2.6-2.7-3.7-3.9 1.5.8 2.9 1.6 4.3 2.4 1.8-1.4 2.8-2.8.8-5.2 1.3.8 1.9 1.2 2.7 1.6l1.2-2.4c1.1.2 2 .4 2.9.7 1 .3 2 .7 3 1.1 1.4.5 3.4 4.2 2.8 5.5-.2.5-.8.9-1.3 1.1-.7.3-1.4.5-2.3.8-.5-1.2.3-2.1 1.6-3 .4-.3.8-1.2.6-1.7-.1-.4-1-.7-1.6-.9-.8-.3-1.6-.4-2.4-.7-.9-.3-1.8-.8-2.6-1.1-1.7 4.4-6.4 6.2-6.8 10.8-.9.4-1.8.8-2.7 1.3.1.1.1.3.2.4.7-.1 1.5-.3 2.2-.4.1 3.8 4.4 2.5 5.4 5.2 1.9-1.6 3.5-3 5.2-4.5-1.5-.9-2.9-1.6-4.3-2.4.1-.2.1-.5.2-.7 4.6 3 9.5 2.9 14.9 2.5-1.9-4.3-3.8-8.4-5.9-13.2 1.2.4 2 .4 2.3.8.6 1.1 1 2.4 1.5 3.6.9 1.8 1.9 3.5 2.9 5.5 1.1-.3 2.8-.2 3.6-1 1.8-2 4.1-1.5 6.1-1.9.5-.1 1.1-.2 1.9-.4-.7-.9-1.2-1.5-2-2.6 1.3.6 1.9.8 2.5 1.1.5-1.1.9-2.2 1.4-3.2.7.4 1.2.8 1.8 1.2.2-.1.5-.2.7-.3-.2-1.3-.4-2.7-.6-4-.2-1.4-.3-2.7-.5-4.1h3.7c.7 2.1 1.3 4.2 2.1 6.4-.7.1-1.4.3-2 .4v.5c1.2.3 2.4.6 4.3 1.1-.7-1.1-.9-1.4-1.3-2 3.2.8 4.9 2.3 4.9 5.4-.8-.3-1.5-.6-2.3-.9.1.2.3.5.4.7-.8.9-1.5 1.7-2.4 2.7-.2.8-.4 2-.6 3.2h.1c-1-.1-1.9-.2-3-.3-.5-1.7-.6-3.8 1.2-5.4-4.9-.6-8.2 1.3-9.3 6.3-1-1.2-2-2.5-3.1-3.6-.3-.3-1-.4-1.5-.3-1.3.4-2.5 1-3.8 1.4-1.6.5-2.2 2.7-.8 3.6 1.4.9 3.1 1.4 4.7 2.1 1 .4 2 .8 3.1 1.2 2.7 1.8 3.4 4.4 3.1 7.5-3.3-.8-4.8 0-5.7 3.3-.1.4-.3.9-.6 1.1-2.1 1.2-2.2 3.2-2 5.3-.3-1.2-.6-2.4-1-3.6-.5-1.3-1.1-3.7-1.9-3.7-2.7-.2-5.7-.3-7.4 2.8-.8 1.4-.6 3.2.8 4 1.8 1 3.4 2.2 5.2 3.2 1 .6 2.2.8 3.3 1.2.3-1.3.5-2.6.8-3.9.5 1.3.9 2.6 1.5 4.2.7.2 1.9.7 3.4 1.2.2-3.3 2.5-4.9 5.3-6-.5-.6-.8-.9-.6-.7.8-1.3 1.9-2.4 1.7-3-.7-1.9-1.9-3.6-2.9-5.3 1.8.1 3.5.2 5.3.2-.9.6-1.9 1.1-2.9 1.7.4.8.6 1.4 1.1 1.8.4.3 1.4.5 1.5.3.7-1.1 1.3-2.2 1.9-3.4-.5-.1-.9-.2-1.4-.3 2.3-1.9 4.4-1.8 6.4.3l-.1-.1c1.4 2.2 2.8 4.5 4 6.5.9-1.1 1.4-1.6 1.9-2.2l-.1.1c.6.7 1.1 1.5 1.9 2 .4.3 1.4.2 1.6-.1.5-.6.6-1.4 1.1-2.6-.5 0-1.4-.1-2.4-.2v-.9c1.6-2.3 1-3.5-2-4.1-1-.2-2-.2-2.8-.5-.8-.3-1.5-1-2.3-1.5.2-.4.4-.7.6-1.1.7.3 1.5.7 2.4 1.1 2.7-2.3 2.7-2.2 6.1-2.3.8 0 2-.4 2.4-1 .4-.5.2-2.1-.3-2.3-.8-.4-1.9-.3-2.9-.3-.7 0-1.4.2-2.1.3-.1-.2-.1-.5-.2-.7 2.5-1 5.1-2 7.6-2.9-1.3-3.4-2-3.6-4.9-2-.8.4-1.9.2-2.8.3.8-1.1 1.5-2.1 1.8-2.6 2.2.3 3.9.5 5.9.8v-4.3c2.7.3 5.4.6 8.3 1-2.5-1.8-1.1-3.5-.1-5.3-1.2 1.3-2.5 2.7-3.7 4-.1-.2-.1-.4-.2-.6-1.4.3-2.9.7-4.3 1-.1-.3-.2-.6-.5-1.3-.8.8-1.5 2-2.4 2.3-1.1.3-2.4-.2-3.6-.4-.1 0-.2 0-.3.1-1.3 2.3-3.6.7-5.4 1.3 1.1-.6 2.2-1.2 3.9-2.1-1.1-.9-2.4-1.9-3.6-3-.7-.6-1.4-1.3-2.1-2l5.7 2.1c1.3 1.1 2.6 2.3 3.9 3.5-.8-2.7 2-.9 2.5-2.3-.1-.5-.3-1.2-.6-2.3-1.7 2.5-3.9.9-5.9.7.1-.8.1-1.5.2-2 .8-.3 1.6-.6 2.4-.8-.2-.5-.4-1.4-.6-1.4-1-.1-2.9-.3-3 .1-.9 2.5-2.7 2.1-4.6 2-.9.1-2.5 1.5-2.3-.6.1-1.5.2-3.5 2.2-4.2h1.6c-.6.6-1.1 1.2-2 2.2 2.5.1 4.3-.5 5.7-2.2h30v45.5c-3.1.2-6.2.4-9.7.6 3.5.8 6.6 1 9.7-.1V48c-2.2-.2-4.3-.4-6.9-.6.8.7 1.3 1 1.2 1-.7 1.1-1.8 2.2-1.6 2.8.9 3.2 2.2 6.3 3.6 10.1 1.6-1.5 2.6-2.6 3.7-3.7v3.7c-1.8.5-3.7 1-5.3 1.4.1 1.1.3 1.9.2 2.7-.2 2.7 2.3 2.8 3.7 4v.1l-.1.1c.5.1 1 .1 1.4.2v6.9c-3.9-1.8-5.7-5.4-7.1-9.1-1.4-3.6-1.6-3.9-5.3-3.5-2.9.3-5.8.8-8.2-1.8-.3-.3-1.4 0-2.1 0 .1.8.2 1.7.3 2.5-3.1-2.1-6-1.7-8.8 1.2l.1-.1c-2.6.3-5.2.6-7.9.9.7 3.1 3.2 3.3 5.4 3.9.5.3 1.1.7 1.6 1-1 .8-2 1.7-3.1 2.7.7.6 1.4 1.5 2.2 1.9 1.5.8 3.1 1.3 4.7 2-1.7-.3-3.4-.9-5.2-.9-1.2 0-3 .2-2.2 2.6.2.7-.9 2.4-1.7 2.9-3.9 2.1-5.4 5.8-3.7 9.7-2.2.9-2.3 2.8-2.3 4.8 0 2.4-.2 4.8-2.8 6.4-.8-3.3-2.5-6.4 1-9 .3-.3.4-1.2.3-1.7-.3-1.9-.9-3.6-2.8-4.5h-.1c2.3.1 4-.6 4.8-3 .3-1.1.9-2.1 1.7-2.9 2.2-2.4 2.7-4.7 1.5-7.9-.9-2.4-1.9-2.8-4.1-1.9-.9.4-2 .3-2.9.4v-.7c2.1-.7 4.3-1.4 6.4-2.1-.1-1.5-.2-2.3-2.2-2.1-1.6.2-3.4-.5-5.1-1-.3-.1-.3-1.1-.5-1.9-3.5 2.5-7.1 5.1-10.8 7.6-.4.2-.7.4-1.1.6-1.1 1.7-4.2 1.7-4.2 4.1-6.5 1.8-10.4 6.9-14.6 11.8 2.7 0 5.5.4 8.1-.1 3.2-.5 6.2-1.6 9.2-2.8 1-.4 1.5-1.8 2.2-2.8.1 2.4-1.1 4-3.1 4.7-2.8 1-5.7 1.7-8.7 2.6v1.5c-2-.5-4-1.1-6.5-1.7.3 1.6.5 2.6.6 3.7.1.6.1 1.4-.2 1.7-2.3 2.4-2.4 3.1 0 5.1 1.9 1.6 3.5 3.2 3.8 5.9.1 1.1 1 2.6 3 2 .8-.2 1.9.5 2.9.8l-.1-.1c1.1.4 2.1.8 2.7 1.1-2.2.3-4.6.6-7.1.9 0 .4.1.9.1 1.3h4.1c-1.1.6-2 1.1-2.9 1.7.3 1.1.6 2.1.9 3.3.4-.7.6-1.3.8-1.3 3 .2 6.1.7 9.1.6 1.3 0 4 .6 3.2-2.6 1.6 1.2 3.3.8 4.9 0 .9.1 2.6.5 2.6.3.9-2.7 2.1-1 3.3-.4.6.3 1.3.4 1.9.7l.1.1c-1.3.4-2.7.8-4.1 1.2.1.1.4.5.5.7-.8.7-1.7 1.1-2 1.7-1.4 3.7 1.9 4.2 4 5.6-1.9-1.1-5.2.4-5.3-3.3-.1-2.4-2.4-4-4.9-3.7-.7.1-1.5.4-2.4.6.6.5 1 .8 1.4 1.1-4.7 3-9.9 2.1-14.8 2-.6 2.5 4.9 3.4 1.5 6 .8.3 1.9.6 2.9.9 0 .2-.1.4-.1.5h-2.5c.7.8 1.5 1.4 1.8 2.1.3.7 0 1.6 0 2.5 0 .7.2 1.3.3 2.1 3.3.2 6.7.3 10.2.5.3-4.3-4.8-7.3-2.7-11.6 2.1 6.1 4.3 12.2 6.5 18.4-1.7.3-5-1.8-6-3.3-.5-.8-1.4-1.8-2.3-1.9-1.9-.3-4-.1-6.5-.1.8 1.3 1.4 2.3 2.1 3.4-.8.7-1.4 5.5-.5 7 2.1 3.4 4.6-.1 6.9.4v-4.5c.8.9 1.8 1.5 2.1 2.4.8 1.8 1.8 3 3.9 3 .4 0 .7.7 1.1 1 1.2.9 2.7 2.7 3.7 2.5 2.7-.5 5.3-1.9 7.9-3 .8-.3 1.5-.6 2.3-.9v-.1c-3.1 2.2-6.1 4.4-9.1 6.5.2.1.6.3 1.3.7-1.3 1.1-2.4 2.1-3.8 3.3 0-1.5.3-2.6 0-2.8-3-1.9-6.2-3.7-9.3-5.5-.1-.1-.4 0-.5 0-3.2.5-6.3 1-9.4 1.5-.3 0-.5.5-.7.8 0 .1.4.5.6.6 1.7.7 1.9 1.3.8 2.8-.5.7-.9 1.5-1.3 2.3-1.5-.1-3.1-.3-4.7-.4.5-1.6.7-2.4 1-3.2-4.4-.5-8.4-.6-12.3-1.6-4.4-1.1-8.5-.4-12.5 1.2-1.6.7-3.1 1.6-4.6 2.5 0 .2 0 1-.2 1.1-1.9 1.2-3.7 2.3-5.7 3.3-4.3 2.1-8.7 3.9-12.8 6.3-2.7 1.6-4.9 3.9-7.4 5.9l.1-.1c-1.7 2.2-3.4 4.4-5.3 6.7.2.2.6.6 1 1.1-2.7 2-4.5 6.1-9.4 3.9 2.7 1.7 1.3 4.2 1.4 6.5 1.3-.8 2.1-1.2 3-1.7.6 1.6 1.2 3.1 1.8 4.6-2.3-2-4.8-2-7.3-.9-1.4.6-2.7 1.6-4.2 2-2.5.7-5.1 1.1-7.7 1.6-1.7-.9-3.3-2.1-5.1-2.8-2.7-1-5.7-2.4-8.5-1.2-2.9 1.2-5.7 2.9-8.9 3.4l.1.1c0-3.1 3.5-2.1 4.5-4-1-.1-2-.3-3.4-.4 2.6-1.3 4.7-2.3 6.8-3.3v-.8c-1.2-.2-2.5-.3-3.6-.6-3.2-1.1-6.4-2.2-9.6-3.5-1.1-.5-2.3-1.4-2.8-2.4-1.5-3-1.3-2.9-4.6-1.5-1.9.8-4.3 2-6 1.4-4.1-1.2-7.3-.5-10.3 2.1-.2.2-.5.4-.8.5-2.7.2-5.3.3-8.5.5v16.1c2.2-.2 4.5-.5 6.8-.7.5 0 1 .1 1.4.4.2.1.3.8.1 1-1.1 1-2.2 2.5-3.6 2.9-1.9.6-4.4 1.1-6.1.4-2.5-1.1-4.8 0-7.2-.5 0-.3.1-.8 0-.6-1.5.7-3 1.7-4.6 2.3-1.5.5-3.1.6-4.6 1.1-1.9.6-3.7 1.5-5.7 1.9-1.9.4-3 3.1-5.4 1.8-.7 2.8-2.6.6-3.8.9-1.1.2-2.4-.2-3.9-.4-.1-.3-.3-1-.6-1.6 2.2.1 4.6.9 6.4.2 3.7-1.5 7-3.8 10.4-5.8.6-.3 1.1-1.2 1.1-1.8 0-3.5-.3-7-.4-10.8-3 1.3-5.9 2.2-8.3 3.8-3.2 2.1-5.9 4.7-8.9 7.1-2.5 2.1-2.5 2-.2 4.3.7.7.9 1.9 1.3 2.8-.5.1-.9.2-1.4.3.3-2.8-2.5-2.5-3.8-3.6-.5.5-1.1.9-1.5 1.5-1.7 2.1-6.3 1.5-5.6 5.9l-6.9 5.4 4.2-8.1v-.3c-6.6.3-6.7.2-6.2-2.4-1.6.2-3.2.6-4.8.5-2.1 0-3.3.9-3.7 2.9-.7 3.5-1.5 7-2.3 10.7 1.1.4 2.6 1.9 3.7-.8.6.7.9 1.2 1.5 1.9-1.8.5-3.3.9-4.1 1.1-1.7 3.7-3.2 6.9-4.7 10-1.9-2.8-3.6 1-5.9.6.6-.9 1.4-1.6 2.3-1.9 3.9-1.2 6.1-4.4 5.9-9.2-1.1-.1-2.2-.2-3.3-.2 4-4 4.7-9.1 4.6-14.7-1.1.8-1.8 1.9-2.7 2.7-1.3 1.2-2.8 2.3-4.1 3.4-.2.1.1.8.2 1.3.8-.2 1.5-.4 2.1-.5-2 1.2-1.4 2.7-.4 4.5.6 1 .6 2.2.9 3.3-1.2-.9-2.3-1.8-3.6-2.7-.3.3-.8.7-1.2 1.1.9-2.2 1.9-4.1-.1-6.3-.4.6-.7 1.2-1.1 1.5-1.4 1.1-2.8 2.2-4.3 2.9-.5.2-1.5-1-2.3-1.1-.5-.1-1.6.7-1.6.9.7 2.4-1.1 3-2.7 3.9-1.7 1-3.3 2.1-4.8 3.3-.5.4-.5 1.4-.7 2.2-1.7-1.8-2.6.2-3.9.7.1-.5.2-1.1.5-2.3-4.2 4-9 6.5-10.6 12.9 2.8-3 5-5.4 7.3-7.8.9-1 1.9-1.9 2.9-2.9-1.8 2.2 1 2.9 1.5 4.3 1.1-.4 2.1-.8 3.2-1.2-1.7 2.4-1.6 3.1 1.1 4.4 1.9.9 2.5 2.4 1.6 4.1-.8 1.7-1.8 3.6-3.3 4.7-1.4 1.2-1.3 1.9-.6 3.2 1 2 1.7 4.1.3 6.3h-.5c-.9-3.9-1.7-7.8-2.6-11.4 2.3 1.5 2.3 1.5 4.1-1.2.4-.6 1-1.1 1.2-1.8.2-.6.3-1.6-.1-1.9-2.1-2-4.4-4-6.7-6-3.3 4-5.3 7.9-6 12.7-.2-.8-.4-1.5-.7-2.3l-2.1 1.2c-1.1.4-2.2.7-3.2 1.1-2.9 1-5.6 2.6-8.8.9-2.5-1.4-4-.1-4.1 2.5-.8-.5-1.4-.9-2-1.3v-12.3c3-1.8 4.3-5.7 2.5-7.7 2.4-2 2.6-5.2.8-6.8.6-.7 1.4-1.3 1.7-2 .7-2.4 1.2-4.8 1.7-7.2.3-1.5-.1-2.4-1.9-2.3-1.2.1-2.4-.1-3.6-.2v-.7c4.4-.5 8.2-2 10.8-5.9-1.5-.6-2.9-1.2-4.5-1.8 1.7-1.6 3.1-3 4.6-4.4-1.3-3.5-2.6-6.8-3.9-10.4 1.7-.9 3.5-1.8 5.2-2.7.2.1.5.2.7.4-.3 1-.3 2.2-.9 2.8-2.4 2.2-1.9 4.6-.9 7.1.9 2.4.4 5.6 3.5 6.8 3.2-2.2 4.6-5.3 4.2-9.2-.8.3-1.4.5-2.1.8-.1-.2-.2-.4-.4-.6 2.8-2.1 5.7-4.1 8.4-6.1-1-2.6-1.9-4.9-2.8-7.3-2.1.9-2.5 4.2-5.3 3.6.6-1 1.4-1.7 2.2-2.4 1.9-1.7 3.4-4 6.5-4.1 1.6-.1 2.2-1.3 1.2-2.9-.6-1.1-1.1-2.3-1.6-3.4 2.8-1.6 5.5-3.2 8.2-4.8-.4-1.2-.6-1.9-1-2.9.6.2 1 .2 1.1.4.5.8.9 1.7 1.3 2.6.7 1.4 3.8 2.4 4.5 1.3 1-1.7 1.5-3.7 2.2-5.6h-1.3c.1-.9.3-1.7.4-2.9-.6.5-.9.8-1.2 1.1-.1-.1-.2-.2-.3-.2 1.1-1.7 2.1-3.4 3.4-5.4-6.7.6-13-1.9-19.4.6-.9-1.5-1.8-3.1-2.6-4.4-5-1.3-7 3.5-10.7 4.6-.2.1-.3.6-.5.9-1.5 4.6-1.8 4.7-6.8 4.7.5-1.5.2-2.3-1.6-2.1-.7.1-1.4-.2-2.1-.3v-2.1c2.7 1.8 5 .9 7.4-.8 2.2-1.6 2.6-3.8 2.7-6.1 1.3-.5 2.6-1.1 4.3-1.7.4-2 .9-4.5 1.3-6.8-1.7-1.2-4.4.8-4.9-2.1 3-.8 3.5-1.5 2.6-3.8-1.4 1-3.4 1.4-2.5 3.9-1.4.1-2.7.1-4.4.2.1.7.1 1.4.4 2l3.3 8.4c-2.2-.1-4.8 1-6-2.5-1.5 1.3-2.9 2.3-4.2 3.4v-3.7c1.1-.3 2.5-.3 3.2-1 .5-.6.1-2 .1-3-1.4.1-2.3.2-3.3.3v-1.6c.5-.4 1.5-.8 1.5-1.1-.4-2.9-1-5.7-1.5-8.6v-2.7c2.1 1.1 1.5-.8 1.9-1.7.6-1.7.8-3.9 2-5.1 1.9-1.9 3-3.7 2.4-6.5-1 .4-1.9.7-3.3 1.3.6-.8 1-1.2 1.3-1.6-.1-.2-.2-.3-.3-.5l-3.9 2.4v-2.7c3.2-.4 6.3-.9 7.6-4.6 2.1 2.5 3.1 2.2 5.9-1.6-.8-.9-1.6-1.8-2.5-2.7 0 .2-.1.4-.1.6h-6.1c1-.2 2.1-.3 3.1-.6 2.4-.7 2.4-1.8.9-3.8-2.4-3.4-4.9-4.1-8.1-1.4-.2.1-.5.1-.8.1V88.9c.9.8 1.9 2.4 2.6 2.3 2-.3 4-1.1 5.7-2.2 1.6-1 2.9-2.4 4.5-3.8 0 0-.2-.6-.6-.8-3.6-1.5-7.2-2.9-10.8-4.3-.3-.1-1 .5-1.4.7v-4.3c1.3.8 2.6 1.8 4.1 2.2 1.7.5 3.6 1.6 5.4-.3.9-.9 2.1-1.5 3.1-2.2-.2-3.2-1.5-5.8-4.2-7.5 2.6.5 4.1 1.8 4.8 4.6.4 1.5 2.6 2.6 4 3.8.2.2.8-.1 1.2-.3.9-.6 1.8-1.2 2.6-1.9 1.1-1 1.4-2-.1-3-1.3-.8-2.5-1.7-3.7-2.6-4.4-3.3-4.4-3.3-8.8-.5-1.3-1.4-4.3-1.2-4-4.1 1.2 1 2.5 2 4.1 3.3 1.2-1.1 2.4-2.3 3.6-3.4-1.3-1.3-2.7-2.6-4.1-3.8-.2-.2-.6-.3-.7-.6-1.4-3.1-4.1-3.9-7.1-4v-1.6c2.3.4 4.9 0 6.8 2.6 1.6-2.5 3.5-4.3 4.1-6.5.8-3-.4-4.5-3.2-5.6-.4 1.5-.9 3-1.3 4.5-.3-.1-.7-.2-1-.3.2-1 .5-1.9.7-2.9-2.4-1.5-4.3-1.1-6 1.2V19.8c1.7-2 4.1-1.8 5.2.7 1 2.1 2.3 2 3.8 1.2 1.6-.8 3.2-1.9 4.7-2.9.2.1.5.2.7.4-.3 1.4-.5 2.8-.8 4.4.8-.2 1.6-.2 2.1-.6 1.9-1.2 4-2.3 5.5-3.9 1.5-1.5-1.8-6.2-4.3-6.3-1 0-2.1.3-3.1.7-1 .4-2.2 1.8-2.9 1.6-1.9-.5-2.3.5-3.1 1.6-.5.7-1.4 1.1-2.1 1.6-.1-.1-.1-.2-.2-.3 1.4-1.6 2.8-3.3 4.2-4.9.3-.3.6-.5 1-.8-1.1-.4-2.2-.8-3.4-1.2.1-.4.1-.7.2-1.1 2.3 1.2 4.4 2 4.1-1.5 1.2.8 2.2 1.4 3.1 2.1-.1-.3-.1-.5-.2-.8 2-1.4 3.9-2.9 5.9-4.3-.1.5-.3 1-.4 1.5.5-.1.9-.3 1.4-.4-1.4 1.1-2.7 2.2-4.1 3.2.9 1 2.2 1.2 3.8 0 1-.7 2.4-1.6 1-3.2l3.6.9c-.5-1.1-1-1.8-1.6-2.4-1.4-1.3-2.7-1.7-3.7.4-.5-.7-1-2-1.4-1.9-1.2.1-2.6.4-3.6 1.1-3.4 3-6.5 3.1-9.4.3-.1-.1-.1-.2-.2-.3.6-.2 1.5-.7 1.7-.5 1.9 1.9 4.5 1.6 6.2.7 1.9-1 3.1-3.3 4.6-5.1H-18c-.5.4-1.4 1.2-1.3 1.3 1.4 1.8-.6 2-1.3 2.8-.4.5-.8.9-1.5 1.7 5.1-.7 5.1-.7 5.1 2.5-1.9.7-3.7 1.2-5.4 2-.8.4-1.6 1.2-2 2-1.5 2.6.5 4.9.9 7.4l1.2-.4c2.5-.6 4.9-1.4 5.1-4.5.1-1.3-.1-2.6.2-3.8.4-1.6 1.2-3.1 1.9-4.6.2-.1.3-.2.5-.3-.2 2.4-.2 4.7-.6 7-.3 2 1.7 1.9 2.3 3 1.8-1.4 2.6.7 3.6 1.1 1-.4 1.8-.7 2.6-1.1l-.1-.1c.9.5 1.4 1.1 2.6-.1C-3 14.5-.8 13.9 1 13.9c3.7.1 4.1 0 4.3-4C3.2 9.2 1.1 8-1.1 8c-1.1 0-2 2.5-3.3 3.3-.8.5-2.3.1-3.5.1 0-.6 0-1.3.1-1.9.5-.1 1-.3 1.4-.4.5-.1 1-.1 1.4-.3 1-.7 2.8-1.5 2.8-2.3 0-1.1-1.4-2.2-2.1-3.3C-4.9 2-5.5.9-6.2-.2h1.1c.3 2.6 1.7 3.5 4.2 2.9 1.9-.4 3.9-.5 5.7-1C5.6 1.5 6.1.4 6.7-.2H19c-2.1 1.2-4.1 2.4-6.1 3.6.1.9.3 2.1.4 3.3-.1 0-.2 0-.4.1-.6-1.1-1.3-2.1-1.9-3.2-.2.2-.5.3-.7.5 1.8 2.4 3.7 4.9 5.5 7.3.7.9 1.2 1.8 2.3 3.3 1-.3 2.8-.9 4.6-1.4-.5 1.1-1.1 2.1-1.6 3.1 1.3.9 2.5 1.9 3.9 2.6 1.2.6 3.1 1.5 3.8 1 1.2-.8 2.5-2.7 2.4-4.1-.2-2.6 1.2-3.2 3.1-3.7-2.4-2.8-4.4-3.1-7.7-1.2-1.3.8-2.7 1.5-4.1 2.2 2.1-1.4 4-3.3 6.3-4.1 3-1.1 3.7-1.9 2.9-5.1-.4-1.4-.3-2.9-.5-4.3H59c0 1.9 4.1 4.7 5.4 3.5 1-.9 4.1-.6 2.6-3.5h3.2c-1.4 2.6-2 5.2.1 7.9 1.2-1.3 3.3 2 4.6-1.2-.8-.5-1.7-1-2.7-1.5.2-.5.4-1 .5-1.5 1.6 3.2 2.8 1 4.6.5-1-1.2-1.8-2.1-3-3.4 2.2.2 4.1.3 6 .4l.1.1c-.1 1-.3 2-.4 3.1.5-.1 1.1-.1 1.8-.2 0 .1.1.2.1.3-1 .5-2 1-3.2 1.5 1.1 1.4.4 4.7 3.8 2.7.3-.2 1.3.8 1.8 1.3 1.7 1.7 3.2 3.8 5.1 5.2 1 .7 2.8.3 4.2.5 0-1.2.1-2.5-.2-3.7-.4-1.6-1-3.2-1.7-5.2-.9-.3-2.4-.7-3.9-1.1.6-.4 1.1-.4 1.7-.4 1.2-.1 2.8.2 3.6-.4 1.3-1 1-2.5-.4-3.6-.3-.2-.3-.8-.4-1.2h12.8c.5 1.7 1.1.7 1.6 0h10.7c.7.4 1.4.9 1.4.9.6 1.3.7 2.3 1.3 2.9.4.4 1.7.6 2 .4.9-1 1.5-2.2 2.1-3.3-.5 1.4-1.2 2.8-1.5 4.2-.3 1.3-.5 2.9-.1 4 .6 1.5 1.7 2.8 2.8 4 1.9 2.1 2.7 1.9 4.8 0 1.3-1.2 2.8-2.1 4.5-3.4.9-2.9 1.9-6.3 2.9-9.6h1.1c-.2.7-.3 1.5-.5 2.2 5.2 1.4 7.4 1 6.9-2.2h2.1c-.3.8-.9 1.7-.7 2.5.2.8 1 2.1 1.6 2.1 4.1.3 7.6-1 9.9-4.6h2.1c-2.7 4.3-6.3 7.2-11.7 7.1-.7 0-1.8.8-2 1.4-.7 2.4-1.2 4.8-1.7 6.8 4.4 2.8 7.3-.1 9.8-1.8 2.5-1.7 3.9-5 5.8-7.6.1 0 .2.1.4.1-1 2.2-2 4.3-3.1 6.8 1.3-.2 2.2-.3 3.2-.4 1.5-.3 2.4.3 2.4 1.9-4.7-.9-8.7.6-12.8 3.5.7.8 1.3 1.7 2.1 2.1 2 .9 4.1 1.6 6.4 2.5.1-.3.9-1.2.9-2-.3-2.7 1.4-3.5 3.3-4.3-.6.8-1.2 1.7-1.7 2.4.7.9 1.4 1.8 2.2 2.7-.1.1-.2.2-.4.3-.6-.5-1.3-1-2.1-1.5-.4 1.2-.8 2.2-1.2 3.3.6.2 1.3.6 1.5.4 2.3-1.8 5-.4 7.4-.8 2.5-.4 5.5-.2 7.2-2.9.7-1.1 1.2-2.5 1.5-3.8.9-3.9.4-7.6-1.3-11.2-4.9 2.6-8.4 5.8-9.8 11.2.3.2 1 .6 1.6 1-.1.2-.3.3-.4.5l-4.5-1.5c.1-.6.1-1.3.2-1.9 2 .9 2.7-.5 3.2-2 .2-.6.1-1.5.5-1.9 2.6-2.4 5.3-4.8 8.1-7.3-.1-.7-.2-1.8-.3-3h2.7v1.7c2.7.9 5.1 2 7.6 2.5 1.9.4 4 1.5 5.9-.9 1-1.3 2.8-2.8 5.2-1.3 1.5.9 3.2.3 3.2-2h1.1c.2 1.9.2 3.8.6 5.6.2 1.2.9 1.4 2.4 1.1 3.8-.9 3.3-4.6 4.9-6.9zM92.6 33.5c-1.7-.6-3.5-1.4-4.9.6-.4.6-.9 1.1-1.3 1.7.8.2 1.5.5 2.3.7 0 1.8-.3 3.8.3 5.3.3.6 2.7.3 4.2.5l.3-1.2c-1.2-.6-2.4-1.2-3.9-1.9 1-.8 1.9-1.4 2.7-2.2.6-.5 1-1.2 1.5-1.9 2.9.3 5.9.6 8.8.9-2.1 1.7 1.1 2.4.9 3.8-4.2-1.3-10.6 3.2-9.1 7.7-1.1-.7-2.2-1.4-4-2.5-.4 4-.7 7.6-.9 10.6 1.8.2 3.7.3 5.7.6s3.7-.9 4-3c1.2.8 2.3 1.8 3.6 2.4.3.2 1.1-.6 1.8-.9-.5-.8-.9-1.3-1.4-2 .7-.4 1.3-.7 1.9-1-.2-.3-.3-.6-.5-.9l-5.4.9c.6-.4 1.1-1 1.7-1.1 2.8-.5 4.5-2.2 5.7-4.8-.4-.3-.9-.6-1.2-.7.6-1.2 1-2.3 1.5-3.2 1.2-2 .6-3.4-1.3-4.5-1-.6-2.1-.9-3.2-1.3-2.9-.3-5.8-.6-8.8-.9-.4-.5-.8-1-1.1-1.5l.1-.2zm181.9 4.4c-1.1-.7-2.1-1.4-3.2-2.1-.2.1-.5.2-.7.3.5 1.3.7 3 1.6 3.6.9.7 2.4 0 2.4-1.7 2.9-.6 3.2-.9 2-2.4.9.2 1.9.5 2.8.5.8 0 1.6-.4 2.4-.6-.5-.8-.8-2.2-1.5-2.4-2.7-1-5.5-1.6-8.3-2.3.7 1.6 1.3 3.5 3.6 3.8-.7.2-1.5.3-2.2.5.5 1.1.8 2 1.1 2.8zM64.9 185.5l.1-.1h-.1c0 .1.1.1.1.2-.4-.1-.7-.2-1.1-.4.7-1.6 1.4-3.1 2.1-4.7.8-.7 1.5-1.6 2.4-1.9 3-1 3.3-3.1 2.7-5.7-3.6 1.8-7.8 2.2-10.1.9h2.4c6.6-.3 6.9-.6 6.6-6.9.5 1.2.9 2.4 1.3 3.3 4.2-1.2 8.2-2.4 12.2-3.5-1.8.7-3.6 1.4-5.4 2.2-1.9.8-4.9 1.3-5.4 2.7-.9 2.6-.3 5.7-.3 9.5 5.7-2.4 10.9-4.4 16-6.8 2.3-1.1 2.7-6 .9-7.8-.3-.3-1.1-.1-1.6-.1v-11.5c-6.2-.3-11.9-.6-17.5-.9 0 0 0 .7-.1 1.4l-.3 2.4c-.2 3.1-1.7 4.4-4.9 4.5-.7 0-1.6.6-2.1 1.1-.7.9-1.2 2-1.8 3.1-.5-1.8-1-3.4-1.5-5.1 1.2-1.5 3.8-2.4 2.8-5.3.4 1.5.9 3.1 1.4 4.7 2.2.8 3.2-.1 3.5-2.7.2-1.7 1.5-3.4 1.4-5-.1-1.5-1.4-2.9-2.1-4.4.4 0 1-.2 1.1 0 2.1 3.6 5.4 4.7 9.2 4.6 4.3-.1 9.1 1.7 12.7-2.7-2.9-2.4-1.2-5.7-1.9-8.5-.1-.4-.4-1-.8-1.2-1.3-.8-2.6-1.5-4.4-2.6 2.3-.2 3.8-.2 5.4-.4 2.6-.4 4.7-4 3.2-5.4-2.6-2.3-2.6-5.4-3.2-8.5-.8.3-1.5.5-2.2.8 2.4-2 4.2-4 3-7.8-1.8.3-3.6.7-4.7.8-1.8-.9-3.1-1.5-4.3-2.2 1.8-.1 3.5.2 5.3.3 1.2.1 3.3-2.6 3.2-3.7-1.1-.2-2.1-.4-3.1-.6 2.8-.1 5.2-2.6 5.6-6.2-6-2.8-10.8.5-15.9 3.1.5.9 1 1.7 1.9 3.3-1.7-1.3-2.7-2.1-3.4-2.6-2.8 1.7-5.4 3.3-7.9 4.8-.4 1.2-.8 2.7-1.2 4.1-.2 0-.4-.1-.6-.1-.1-.9-.2-1.8-.2-2.7-3.8.3-7.5.5-11.2.7-.2 0-.4-.1-.5-.1-2.6.6-5.7.7-7.6 2.2-2.2 1.7-4.2 3.4-6.9 4.3-.6.2-1.1.9-1.6 1.5-1.8 2-2.7 5.4-6.5 4.4-1.7 4-1.7 4.1-.6 5.2-1.8 3.5-3.7 7-5.5 10.5-2.1-1.7-5.5-2.9-2-6.2.2-.2.1-.5.2-.8 1.1-2.9 2.3-5.7 3.2-8.1 1.4-.2 2.3-.4 3.3-.5 0-.3-.1-.5-.1-.8-.8-.4-1.5-.8-2.1-1 .5-.9 1-1.7 1.5-2.5-.2-.1-.4-.3-.5-.4-1.1.9-2.3 1.8-3.7 2.9.4-2.2.8-3.9 1.1-5.5-.2-.1-.5-.1-.7-.2-.3.9-.6 1.7-1 2.6-1.2.2-2.7.6-2.8 1.3-.7 3.9-4.7 4.8-6.5 7.7-.5.7-2 .8-1.6 2.3.4 1.5.9 2.8 2.8 2.9 1.1 0 2.2.6 3.3.9-1.5.2-3 .2-4.3-.3-2.1-.9-2.8.2-2.5 1.9.4 2.1 1.4 4.1 2.3 6.5-1.1 1-2.6 2.4-4 3.7-.2-.2-.4-.4-.7-.6.2-.8.4-1.6.6-2.3-1.7.2-3.1.5-4.5.7.7 1.1 1.4 2.2 2 3.1-1.9 1-3.6 2-5.8 3.1.5-1 .8-1.6 1.2-2.3-2.9.3-3.4 1.2-3.5 3.9-.1 3.4-.5 6.7-.8 9.9 2.7-.6 2.7-.6 3.8.8-4.5-.3-7.6 1.2-7.7 6.3-.3-3.1-.4-3.1-3.6-4.6-.7-.3-1.2-.9-1.6-1.1-1.4.9-2.8 1.6-4.1 2.5-1 .7-2.6 1-2.2 3.1.8 3.7 1.1 7.5 1.6 11.3-.5-.6-1.1-1.2-1.2-1.4-1.7 2.8-3.5 5.5-5.1 8.3-1.2 2.1-4.3 3.5-2.7 7.3.9-.5 1.9-.8 2.5-1.5.4-.5.1-1.5.1-2.6.9.5 1.7.9 2.5 1.3-1 1.3-1.8 2.3-2.7 3.3-2-.2-4.1-.6-4.6 2.2 2.9 1.6 3 1.6 4-1.4.1-.3.3-.6.5-.9.1 1.4.2 2.7.4 4.2-.6 0-2 .1-3.3.2 0 .3-.1.5-.1.8 2.1.5 4.1 1 6.3 1.5-.6 1-1.1 2.1-1.9 3.4 2.3 1.3 4.5 2.5 6.7 3.6.4.2 1.6.1 1.6-.1.6-2.6 2.1-1.7 3.6-1 2.2 1 3.6.2 4.6-2.1.3-.8 1.8-2 2.2-1.8 3.7 1.8 5.5-2 8.3-2.9-.9-.5-1.8-.7-2.4-.4-1.9.9-3.7 2.2-6.1 1.3 1.9-.7 3.7-1.6 5.6-2.1 1.6-.4 3.8.4 4.8-.4 2.5-2.1 4.7-4.7 6.6-7.4.6-.8.5-2.8-1.4-3.4.2-.7.3-1.5.7-2.3.4-.8 1-1.4 1.5-2.1-.2.6-.6 1.2-.5 1.7.3 1.6.7 3.2 1.4 4.5.2.4 2-.1 3.1-.3 2.1-.4 4.3-.9 6.5-1.4.4-3.4.9-6.8 1.3-10.2 2 .9 3.2-.2 4-3.3.4 1.3.9 2.9 1.4 4.3-2.5-1.1-4.6-.4-4.7 2-.1 2.9.2 5.8.4 8.9 2.1-.2 3.7-.4 5.3-.5 2-.1 3.9-1.6 6.2-.4.4.2 2.5-1.7 2.6-2.8.2-1.7-1.3-3.7-.8-5.2 1.4-4.3-.4-8-1.3-11.8-.8-3.4-2.1-6.5.6-9.6.2-.3 0-1 0-1.4-.4-.3-.7-.6-1.1-.9-.9 1.5-1.9 3-2.8 4.5l-.6-.6c.4-.7.6-1.6 1.2-2 1.8-1.3 1.3-2.6.7-4.4-.7-2-.8-4.2-1-6.3 0-.4.9-.9 1.8-1.8-1.8-.2-3.4-.3-4.9-.4v-.5c.9-.2 1.7-.5 2.6-.7l-.1.1c.9-.1 1.9-.1 2.8-.2.8 4.5 1.5 8.6 2.2 12.8.2-.1.4-.2.6-.4.7.7 2 1.3 2 2 .1 2.7-.2 5.4-.2 8.1 0 1.7.2 3.5.5 5.1.4 1.7 1.5 3.3 1.6 5 .3 3 .1 6 .1 9 2.2-1.1 4.1-1.9 5.9-2.8.1.2.3.5.4.7-1.2.6-2.4 1.2-3.5 1.9-.5.3-.9.9-1.3 1.4.5.2.9.5 1.4.7 2.8-.2 5.7-.2 8.5-.7.9-.1 1.7-1.3 2.1-1.5-.1-.9-.2-1.4-.2-1.8.5-.3 1.1-.7 1.6-1 .5.1.9.1 1.4.2-.3.7-.5 1.2-.8 1.8 1.1-.3 2.1-.3 2.7-.8.8-1.2 2.8-1.6 1.3-3.3zM283.2 12c-1.2.5-3.3.2-2.6 2.4.8 2.5 3.1.7 4.6 1.4.1-.3.3-.6.4-.8-.8-.5-1.7-.9-2.6-1.4 0-.5.1-1.1.2-1.6h3.2c-1.9-1.3-.1-1.8.2-2.8-.9.2-1.7.7-2.3 1.3-.5.3-.8.9-1.1 1.5zM51.3 49.9l-5.7-3.3c-.1.3-.3.6-.4.9 2.2.4 3.1 3.7 6.1 2.4 1.1 1.2 2.1 2.4 3.2 3.8 1.3-1.2 2.2-2 3.3-3-2.3-.3-4.4-.6-6.5-.8zm124.5 15c-.2.2-.4.5-.6.7-1.1-.8-2.3-1.5-3.4-2.4-3.4-2.8-6.4-1.9-7.8 2.2-1.4 4.1-3.1 8.1-4.8 12.2l4.5-13.8c.5-1.5-1.3-4.9-2.8-5-2-.2-6.1 2.4-7 4.2-1 1.9-2.1 3.9-3.6 5.5-1.1 1.2-1 1.9-.2 2.9-1.7-.9-2.8-.2-3.8 1.3.9 1 1.8 2.1 3.1 3.6.3-2.1.5-3.6.7-5.1 1.2.3 2.4.7 3.5.7 2-.1 4-.4 6-.7 0 .2 0 .4.1.6-2.9.5-5.9 1.1-8.8 1.6-1.1 5.5 0 6.9 5.5 6.9h.3c-.6.3-1.3.9-1.9.8-2.6-.4-3.8 1-4.5 3.4 3.2 1 6.3 2.2 9.5 3 3.5 1 7.1 1.7 10.8 2.5.5-1 .8-1.8 1.3-2.9-1.5-.6-2.9-1.5-4.1-1.4-3.1.3-4.6-1.3-6-3.6-1.6-2.7-2.5-3-5.2-1.7 1-1 1.9-2 2.9-3 1.6 1.9 3.2 3.9 4.9 5.8.4.5 1.2.7 1.8.9 2 .6 3.9 1.1 5.9 1.5.9.2 2.2.1 2.9-.5 1.1-1 1.7-2.5 2.7-3.6.9-1 2-1.8 3.1-2.7 0 .7-.1 1.3-.1 2.1h4c.7-3.2 1.6-6.4 2.2-9.6.2-1.3-.6-2.1-1.9-1.4-.8.4-1.4 1.3-2.1 1.9 1.6-2.3-1.3-2.8-1.7-4.4 2.4 1.8 3.9 1.6 6.1-1.6h-4.4c1.4-.4 2.8-.9 4.6-1.5-.7-.4-1.1-.8-1.6-1-2-.5-3.9-.8-5.9-1.2-.7-.1-1.5 0-2.3 0-1.1-1.1-2.2-2.2-3.4-3.2-.2-.2-1 .4-.8.3 1 1.5 1.9 2.9 2.8 4.2-.2.8-.4 1.1-.5 1.5zM-21.8 24.2c.4.2.7.4 1.1.7.8.7 1.5 1.4 2.2 2 .6-.9 1.2-1.9 1.8-2.8l-.6-.9c-1.5.4-3 .7-4.5 1 1.3-.7 2.7-1.5 4.1-2.3-1.7.2-3.4.3-5 .7-.4.1-.9.8-1 1.3-.1.4.4.9.7 1.3.4-.4.8-.7 1.2-1zm50.4 96c.7-.1 1.4 0 2.1-.2.7-.1 1.3-.4 2-.6-.3-.8-.4-1.6-.8-2.3-.6-1-1.4-2-2.1-3 .5.2 1.2.4 1.4.7 2.4 4.5 5.8 4.3 9.7 2.4.1-.1.3-.2.7-.5-.6-2.7-1.2-5.4-1.8-8.2 2 0 3.9.5 5.2-.2 1.2-.6 1.7-2.6 2.5-4 .2 0 .3.1.5.1-.3 1.4-.5 2.7-.8 4.5 3.1-.9 5.8-1.5 8.5-2.4.6-.2.9-1.4 1.4-2.2.3.9.6 1.8.8 2.2 2.1-.6 4.1-1.1 6-1.6-1-.2-2.1-.4-3.2-.7v-.7c2.8-.8 5.7-1.6 8.5-2.4-.1-.2-.1-.4-.2-.6-1 .4-1.9.7-2.9 1.1.1-.6.4-.9.7-1.2.5-.6 1-1.2 1.5-1.9-.8-.5-1.5-1.4-2.3-1.5-1-.2-2 .2-3.1.4-2.5.4-4 2.1-5.3 4-.3-1.3-.7-2.6-.9-3.4 4.3-.5 8.3-1.5 11.4-4.6-.2-.8-.4-1.4-.7-2.1-.2-.7-.5-1.3-.8-2-.8.3-1.8.5-2.2 1.1-1.1 1.6-2 3.4-3.1 5.3.1-.7.2-1.3.2-1.9.1-.6.2-1.2.2-1.8-2.7 0-5.2 1.7-6 3.7-.2.6-1 .9-1.5 1.3-.6-.7-1.1-1.3-1.7-2 1.4-1 2-1.9-.4-2.4.8-.5 1.5-.8 2.1-1.2.2.3 1.4.8 2.1.7 4.8-.2 7.3-2.1 7.3-5.1.9 0 2 .5 2.6 0 1.7-1.2 3.2-2.7 4.8-4.1-.5 2-.9 4.1-1.6 6.1-.7 1.8-1.2 3.3.9 4.2-1.3.8-2.5 1.6-3.6 2.4 1.2 1.4 2.1 2.6 3.2 3.9.8-1.1 1.4-2.2 2.3-3 .5-.5 1.5-.7 2.2-1 .5-.3.9-.6 1.3-1-.1 1.8-.5 3.4-2.1 4.5-1 .7-1.8 1.5-2.7 2.3 3.1-1 5.9-2.2 8.7-3.5 3-1.5 3.4-2.3 2.4-6.1-2 .8-4 1.7-6 2.5 1.6-1.1 3.3-2.2 4.9-3.3.6-.4 1.7-.9 1.7-1.4.2-2.6.1-5.2.1-7.8-5.9 1.4-7.7 2.2-8.6 4.2-.9-1.1-1.7-2.1-2.5-3.1 2 1.5 3.4.1 4.3-.4.2-3.9.4-7.1.6-10-2.6-.3-5.1-.4-7.6-.8-.5-.1-.9-1-1.4-1.6l-.1.2c.3-.3.7-.8 1-.7 2 .3 4 .6 5.9 1.1 2 .6 8.7-1.5 9.1-3.4.7-2.8.8-5.7 1-8.5 0-.6-.9-1.5-1.5-1.7-2.5-.7-5.2-1.3-7.8-1.9 3.1.1 6.2.3 9.7.4-.2-2.3-.5-4.5-.5-6.7 0-1.3.3-2.6.5-3.9.3-.8 0-1.8-.7-2.4-.8-.8-1.9-1.3-2.9-1.9-.7 1.4-1.2.4-1.9-.1-1.2-.9-2.4-.5-2.2.8.6 3.3-.9 5.8-3 8.5l-3.9-4.2c-4.5 3.7-8.4 7.7-11.2 12.5-.7.7-1.7 1.1-2.4 1.9-4.7 5.4-7.8 11.7-10.2 18.4-.6 1.7-1.5 3.3-2.2 4.9-1.5 1.3-3 2.7-5 4.4 1.6.1 2.6.4 3.6.3 2.1-.1 4.2-.6 6.3-.6 2 0 3.8-.1 5-2.2.5-.9 1.9-1.2 2.9-1.8.2.2.4.4.6.7-.5.6-1 1.1-1.4 1.8-.7 1.4-1.3 2.9-2 4.3-1.6-2-3.6-2-4.8-.1-1.4-1.8-3.4-1.3-5.4-.7-1.3.4-2.6.7-3.9.7-3.9-.1-3.9-.2-3.7 3.4 0 .1-.3.2 0 0-1.5-.3-2.7-.6-3.9-.9-.1.3-.2.6-.4.9 1.2 1.4 2.3 2.7 3.6 4.3.7-1.1 1.3-2.1 1.9-3 1.5.8 2.9 1.3 4.1 2.2 2.1 1.7 3.6.8 4.9-.9.9-1.2 1.6-2.5 2.4-3.8.3.3.6.5.8.8-.1-.9-.3-1.7-.4-2.6 1.1 1.6 2.1 3.2 3.2 4.7-1.3.4-3 .4-4 1.2-4.1 3.4-4.1 3.5-8.7.9-.5-.3-1.1-.6-1.7-1.1-.8 1.4-1.5 2.8-2.6 4.8-.5-.8-1-1.4-1.4-2h.5c.4 1.7.8 3.4 1.2 5.2 3.2-3.3 8.8-.6 11.2-4.4H52c-.2.1-.4.3-.6.4.4.7.9 1.4 1.3 2.1-1.8-.3-3.6-1.2-4.9-.7-4.1 1.5-8.8 1-12.2 4.7-1.2 1.3-3.6.5-3.2-.9.8-2.7-1.7-3.8-2.2-6.2-.7.7-1.4 1.4-1.4 1.5 1.9 2.2.4 3.5-1.1 4.8-.3.3-.3 1-.5 1.9 1.5-.9 2.6-1.7 4.1-2.6 0 .9.3 1.9-.1 2.3-1.3 1.5-2.9 2.8-4.7 4.4.5.3 1.2.6 1.7 1.1.6.4 1 1 1.6 1.5l-3.9 3.6c.9.8 1.7 1.6 2.5 2.3-1 .1-1.9.2-2.9.4.2.5.4 1.5.5 1.5 1.3-.2 2.5-.5 3.7-.8 0-.2-.1-.5-.1-.7-.2 0-.6-.1-1-.2zM7.8 22.1c-1-1.2-2-2.5-3.1-3.8-1.6 1.4-2.9 2.7-4 3.6 1.6.2 3 .4 4.5.5.9.1 1.8-.2 2.6-.3-.7.9-1.4 1.9-2.3 3 1 .1 1.9.1 3.3.2C7.7 26 7 26.5 6.3 27c4 2.5 4.9.1 5.8-5.2-1.6.1-3 .2-4.3.3zm220.6 6.3c1.3-.6 2.7-1.2 4.2-1.8-2.3-2.6 1.3-4 1.7-6.1-1.8.1-3.5.1-5 .3-.6.1-1.7.5-1.7.7.1.8.4 1.7.8 2.4.2.4.7.7 1.2 1-1.4.4-2.4.6-3.3.9.6 1.1 4.3-.9 2.1 2.6v4.1c.3.1.5.2.8.2.5-.5 1.1-.9 1.6-1.4-.4-.4-.9-.8-1.3-1.3s-.7-1.1-1.1-1.6zm-243.2.8c-1.4.4-2.8.7-4.2 1.1-.7.6-1.5 1-2 1.7-.8 1.3-2 2.8 0 4.1 1.7 1.1 3.4 2.1 5.2 3.2 1.4-2.1-.2-3.1-1.2-3.9.7-.4 1.7-.7 1.8-1.2.3-1.7.3-3.3.4-5zm54.3 25 1.8-3c-1.9-2.1-3.1.6-4.6.7.6-.8 1.3-1.6 1.9-2.3-.8-2.5-4.6-2.8-4.3-5.1-2-2.1-3.7-3.8-5.3-5.5-.4-.4-.9-.9-1.4-1-1.9-.6-3.9-1.3-5.8-1.6-1.7-.3-3.4-.3-5-.4.8 1.6 1.3 2.8 1.8 3.9 0 .4-.1.9-.1 1.3-1.4-.4-2.7-.7-4-1.1-.9.7-1.9 1.4-3.1 2.4.4-1.6.7-2.7.9-3.8-.2-.1-.5-.1-.7-.2-.8.5-1.5.9-2.5 1.6v-2.2c-1 1-1.9 1.8-2.9 2.7.7.4 1.2.7 1.6 1-.4 2-.8 4.1-1.2 6.1-.2 0-.3-.1-.5-.1-.1-1.7-.2-3.4-.4-5.1-2.1.5-3.8 1-5.7 1.4.3-.5.6-.9.8-1.2-.2-.1-.3-.3-.5-.4-.7.7-1.9 1.4-2.1 2.2-.5 3.4-.8 6.8-1.1 10.3.5-.2 1.3-.4 2.1-.7.2.6.2 1.5.6 1.8 3.8 2.2 7.1 4.9 9.8 8.4 1 1.3 2.4 2.6 4.2.9-1.3-1.9-2.6-3.7-3.9-5.6 2.5-2.8 2.2-5.6-.1-7.1-4.1.6-7.4 1.1-10.7 1.6 2.7-.8 5.4-1.7 8.3-2.6 0-.5-.1-1.2-.1-1.8 2.4 1.3 4.7.9 7 0 2.2-.9 4.7-1.5 6.4-3 1.5-1.3 2.2-3.7 3.6-6.3-.2 1.9-.1 3.3-.6 4.5-.9 2.1-.3 3.4 1.4 4.4-.9-.5-1.7-1-2.6-1.3-2-.7-3.8.5-4.1 2.8-2.7-1.8-4.7 1-7.6.7 1 1.5 1.7 2.5 2.2 3.1-.5 1.8-1.3 3.3-1.3 4.8.1 1.9.8 4 2.9 4.5 1.4.3 3.1-.2 4.5-.8 1.2-.4 2.5-1.1 3.3-2.1.8-1 1.3-2.5 1.5-3.8.1-.4-1.2-1.1-1.9-1.4-1.4-.6-2.9-.9-2.7-3 .1-.6-.5-1.3-.8-1.9.4.4.9.7 1.1 1.1 1.9 3.3 2.7 3.6 6.3 2.2-.3 1.1-.9 2.3-.9 3.4 0 2.2.3 4.4.7 6.5.4 2.5 1 4.9 1.4 6.9 3.3-.3 6.1-.4 8.8-.9 1.4-.2 2.8-1.1 4.1-1.7-.8-1.1-1.6-2.2-2.4-3.2-.2-.2-.5-.4-.9-.6-.4.6-.7 1.1-.8 1.2-.8-1.7-1.4-3.3-2.1-4.9 1.3.9 2.9 2.8 3.8 2.5 2.2-.6 4.1-2.2 6.3-3.6-2.1-1.9-3.6-3.6-5.4-4.9-1.2-1-2.6-1.5-4.3-.3-1.7 1.2-.9 2.4-.7 3.7.1.9.3 1.7.4 2.6-.9-2.4-1.8-4.7-2.6-7.1 2.5 1.4 3.7-1.3 5.5-1.8.9.6 1.8 1.4 2.7 2.2 2 1.6 4 3.1 5.8 4.9 2.1 2.1 2.8 2 3.9-.8.3-.7.6-1.4.8-1.8-1.4-.7-2.7-1.3-3.8-2.1-3.5-2.5-3.4-2.5-6.7-.2zM-21.2 117c.5 1.1 1 2.3 1.7 3.9 1.5-1.7 2.5-3 3.6-4.2-2.1-2.1-3.7-1.2-5.3.3 0-.5 0-1.1.1-1.6 1-1.6 2.3-1.4 3.7-.7.6.3 1.3.8 1.9.8 1.3 0 5.7-4.9 6-6.6-.5-.1-1.1-.3-2.3-.6 2.2-.5 4.1-.4 5.2-1.2.9-.8 1-2.6 1.4-4.1.6.8 1.1 1.6 1.7 2.3 1.8 2 2.5 1.8 3.8-.6 1-1.9 2.5-3.5 3.7-5.2.2.1-.1-.1-1.2-.8h3.9c-1.7 1.3-1.2 2.3.4 3.2 2.1 1.2 4.1 1.8 5.9-.9-.3 1.2-.5 2.2-1.1 2.7-.5.4-1.4.2-2.2.2-1.4-.6-2.8-1.4-4.3-1.8-.7-.2-2-.2-2.3.1-1.4 2.1-2.5 4.3-3.5 6.1-1.3-.1-2.6-.5-3.7-.2-1.3.3-2.7.9-3.6 1.9-2.1 2.2-3.8 4.7-5.8 7.1 1.4.9 3 1.9 4.6 2.9-1.8-.2-3.3-1.1-4.9-1.7-.7-.3-2-.2-2.4.2-.6.8-1.2 2.1-1 3 .4 1.9 1.3 3.8 1.9 5.6-.6-.1-1.1-.2-1.5-.3 0-.7.3-1.3.1-1.6-1.6-2-3.2-3.9-4.9-5.8-.2-.2-1.4-.1-1.6.1-1 1.8-2.3 2-4.2 1.3-1.5-.5-4 1.2-3.4 2.3 1.5 2.9-1 5.2-.9 7.8.1 2.2-.4 4.8.6 6.4 1.3 2.1 4.4 2.1 6.8 2.1.8 0 1.5-1.9 2.4-2.9.8-.9 1.8-1.7 2.8-2.5 1.6-1.3 3.3-2.6 4.9-3.9-.4-1.2-.7-2.2-1.1-3.2 1.6 1.6 3.3 2.9 5.7 1.4.9-.6 1.6-1.3 2.4-2-.9-.6-1.8-1.1-2.7-1.7-.1-.1-.1-.3-.2-.6 1.1.1 2.1.2 3.6.3 1.2-2.2 2.3-4.4 3.6-6.6.2-.4.6-.6 1-.9 1.1-1.1 2.6-2 3.1-3.2.5-1.2-.2-2.7-.3-4.1.1 0 .3.1.4.2.2.2.4.4.5.6 1.6 2.3 2.1 2.3 3.6-.1 1.1-1.8 1.8-3.7 2.8-5.5.2-.4 1-.6 1.5-.9.3 1.3.5 2.7.8 4-.8-1.3-1.6-1.1-2.3.1-.7 1.1-1.3 2.3-2.1 3.3-.8 1.1-1.9 1.9-2.9 2.9 2.6.6 4.9.8 7 1.6 2.1.8 4 2.1 6.2 3.4 1.2-1.8 2.4-3.6 3.7-5.5l-1.6-.8c-2.8-1.7-5.5-3.4-8.3-5.1 2.6 1.3 5.2 2.5 7.8 3.8 1.6.8 2.6.6 3.4-1.1.6-1.4 1.5-2.7 2.2-4.1-1.1-1.3-2.4-1.4-4-.3-.5.4-1.5.1-2.3.1v-.8c4-2.7 8-5.4 12.1-8.2-1.6-1.9-3.4-4-5.5-6.4-.6 3.4-1.8 0-2.4.4-.6.8-1 1.3-1.4 1.8-.1-.1-.2-.1-.4-.2.2-1 .5-2.1.6-2.9 1.1-.4 2-.6 2.8-.9 0-.1-.1-.3-.1-.4-2.3-.5-4.6-.9-7.4-1.5-5.2 4.5-8.5 5.5-16.6.9-.8-.4-1.9-.6-2.7-.4-2 .6-3.1.1-3.7-2.2-.4 2.8-.9 5.3-1.6 7.7-.7 2.4-.1 5.5-3.4 6.5 4.2 1.9 3.8-2.4 4.9-3.9.2 1.5-.2 3.8.7 4.4 2 1.4 2.6-1.2 3.7-2.2v.1c1.5-1 2.9-2 4.4-2.9.1.3.4.8.3.9-1.7 1.6-3.4 3.2-5.3 4.6-1 .7-2.6 1.5-3.5 1.1-4.8-1.6-6.6-1.2-9.1 2.7-.2.2-.3.5-.6.7-2.8 2-5.6 4-8.1 5.8 1.5 1.8 2.7 3.2 4 4.7-.6-.3-1.3-.5-1.9-.8-3.9-2-3.9-2-7.3 1-.1.1-.2.3-.3.4-.5 1-.9 1.9-1.4 3.1 1.1-.1 1.6-.3 1.9-.1 2 1.5 4.9 1 6.4-1 .5-.7.8-2.4 2.4-1.1zm238-39c-1.8-1.7-7.2-.9-8.6 1.3-.2.3-.3 1.1-.1 1.2 1.5 1.2 2.9 2.6 4.6 3.3 2 .9 2.9-.9 4.1-2.3.9-1.1 2.5-1.5.6-3 2.1 1.8 3.7 0 4.9-.3-1.3-.9-2.8-2-4.3-3.1 1.9 1.5 4 1.1 6.3 1 2.3-.1 2.4-1.6 3.1-3-1-.4-2.1-.8-3.1-1.2 2-1.7 4-3.5 6.9-2.2.2.1 1.1-.5 1.1-.8-.1-.5-.4-1.2-.8-1.4-1.5-.7-3-1.7-4.6-1.9-1.1-.1-2.4.8-3.6 1.3-.8-.8-1.6-1.6-2.4-2.3-1.1 0-2.1-.1-3.2-.1-.6.1-1.3 0-1.8.2-3.2 1.4-6.4.7-9.7.1-1.2-.2-2.5-.3-3.7-.5 0 .3-.1.6-.1.9 1.2.2 2.4.4 4 .7-2 .5-8.7-.3-10.3-.8-.3-.1-1 .9-1.3 1.5-.4.7-.2 1.8-.7 2.2-.4.3-1.4-.1-2.5-.3.4.9.9 1.7 1.1 2.6.4 2.7 1.8 3.4 4.4 2.4.7-.3 1.8 0 2.5.4 1.4.6 2.6 1.4 3.9 2 .7.3 1.7.3 2.2.9 1.4 1.7 2.4 1.5 3.9.1.8-.7 2.1-.8 3.2-1.2l1.5-.3c-.3-.3-.5-.6-.8-.9-.9.1-1.7.1-3.2.2 2-1.7 3.4-2.8 5-4.1-.4 1.7-.7 2.6-.9 3.6.9 0 1.9 0 2.8.1.3 0 .6.4 1 .7-1.9.6-2.6 1.4-1.4 3zM117 10.2c.9-.4 1.8-.7 3.1-1.3-1.5-1.8-2.8-3.4-4.1-5-2.7 3-2.8 3.3-1.7 5-.7.1-1.8-.1-2.1.3-1.2 1.5-2.3 3.3-3.4 4.9 4.6 2.4 9 2.3 14-.3-1.7-1.5-2.3-4.8-5.8-3.6zm89.9 97.1c-2.9.2-5.9.4-9.1.6.1.3.2 1.1.4 1.9-.9-.3-2-1.2-2.8-.9-3 .8-5.8 2-8.7 3.1-.2.1-.6.3-.6.4.5 2.2.8 4.4 1.6 6.4.3.7 1.9 1 3 1 1.1.1 2.2-.4 3.4-.6-.5-1.4-.8-2.4-1.2-3.4.8.5 1 1.3 1.5 1.8.6.6 1.4 1.2 2.1 1.2 1.2-.1 2.3-.6 3.5-1-1.2.6-2.4 1.4-3.7 1.9-1.2.5-1.7.9-.6 2-2.3-2.6-5-.1-7.7-1.1.3 1.8 1.2 3.8.5 4.6-1.8 2.4.2 3.8.8 5.7.4 1.4 1.8 2.7.5 4.6-.8-1.3-1.3-2.3-1.9-3.3-.3.1-.5.1-.8.2.7 2.5 1.5 5 2.2 7.6.2-.5.3-1 .8-2.2.6 2.7 1 4.6 1.4 6.5 1.2-.2 2.4-.8 3.2-.5 3.7 1.7 7.2 3.7 11.5 2.9.5-.1 1.1.1 1.6 0 .8-.3 1.4-.8 2.1-1.2-1.4-2.1 1-1.5 1.5-1.8 1.4-.7 3-1 4.5-1.3 1.8-.4 3.6-.6 5.4-1 .1.4.2.7.3 1.1-1.1.4-2.1 1-3.2 1.2-3.6.5-6.8 1.7-8.9 4.9.8.1 1.5 0 2.1.2 3.1.7 6.2 1.7 9.4 2.3 1.1.2 2.7 0 3.4-.7.6-.6.4-2.1.4-3.2 0-1.7-.8-3.7-.1-5 1.2-2.3-.1-3.6-.7-5.2v4.1c-1.8-1.5-3.1-2.6-4.4-3.7.1-.2.1-.4.2-.5 1 .3 2 .6 2.7.8 1.3-2.9.4-5.7-.5-8.7-.9-3.1-1.8-6.1-3.6-8.7.2-.6.5-1.2.9-2.1 1.1 1.2 2 3 2.8.9-1.2-1.8-2.3-3.5-3.3-5-2.2-1.2 1.1 2.7-1.4 1.4-.9-2.7-1.7-5.4-2.8-8-1.1-2.7-4.1-2.9-8.3-.8.7-3.4 4.6-1.1 6.1-3.5-.4-1.5-.9-3-1.4-4.7-2.9-.6-4.6.2-4.4 3.4-.2-1.6-.3-3.2-.5-4.6 3.1.7 6.2-.5 8.7 1.4.2-1.4.4-2.5.5-3.6-3.2-2.9-3.1-3.4-1.3-6.4-.6-.7-1.1-1.3-1.4-1.7-2 1.2-3.8 2.9-5.9 3.3-3.7.8-7.4.8-11.2-.6-2.6-.9-5.4-2.2-8.5-1.1-1.5.5-1.7 1.2-1.5 2.5.1.8.3 1.6.2 2.4-.1 1.9-.4 3.8-.5 5.7-.2 2.9-.3 5.8-.4 8.7v3.7c3.1-1.2 5.8-2.2 8.5-3.2-.2-.8-.5-1.4-.6-1.9 1 .4 2.1 1.3 2.5 1 1.1-.6 2.2-1.7 2.5-2.7.3-1-.3-3.1-1-3.3-1.9-.6-4-.5-6.7-.8-.2-1.3-.6-3.1-.9-4.8.2 0 .5-.1.7-.1.1 3.7 2.3 5.1 6 4.1.7-2.8 1.3-5.4 2-8 .3.1.6.2 1 .3-.5 1.3-1.1 2.5-1.5 3.8-.4 1.6-.8 3.4 1.6 3.9l-.1-.1v6c2.9.3 5.1.6 7.3.8.5.2.6.5.8.7zm26.8-81.6c.5.8.9 1.5 1.4 2.3-.3-.1-.5-.3-.8-.4-.8.9-1.5 1.9-2.7 3.4 4.7-.2 8.6.4 12.3-1.8 3.1-1.8 3.5-2.7.8-5.2-.8-.8-2.2-.9-3.4-1.3l-2.7-.9c-1-.3-2.6-1-2.8-.8-.8 1.4-1.4 3.1-2.1 4.7zM-9.1 35.5c.7-.1 1.4-.2 2.4-.3-4-3-5.5-3-6.9.2.9-.1 1.6-.1 2.4-.2-4.4 2-4.6 6.9-.6 11-.5 1.2-1.1 2.3-1.7 3.8 1.8.3 3.2.7 4.6.7.8 0 2-.5 2.2-1 1.1-3.4 1.5-6.9.2-10.9-1.1 1-1.9 1.6-2.8 2.3-1.5-2.9 2.6-2.6 2.6-4.6-.8-.3-1.6-.6-2.4-1zm169.7-2.1c2.4.3 4.9.7 7.3 1 .5.1 1.1 0 1.6-.1-.2-2.2 3.5-1.9 2.9-4.3 3.7-1.6 2.7-4.3 1.7-7.4-1.7.7-3.3 1.6-4.9 1.8-1.7.2-3.5-.4-5.3-.4-.6 0-1.4.8-1.6 1.4-.9 2.1-1.7 4.2-2.4 6.3-.2.5.5 1.2.7 1.7-.7 0-1.6-.1-2.5-.2-.5 1.8-1 3.5-1.4 5.3 1.4.4 2.6 1.1 3.8 1.1 2.2-.1 4.3-.6 6.5-1.1.5-.1 1-.9 1.1-1.5.1-.4-.5-1.1-1-1.3-2.2-.8-4.4-1.5-6.5-2.3zm111 24.5c3.6-.1 2.4-3.5 3.8-5.7-2.1 1.1-4.7-2.4-6.1 1.5V51c-2.4-1-4.7-2.1-7.6-3.4 1-.4 1.5-.6 2-.9-2 .2-3.5.7-5 1.4-.6.3-1.4.9-1.4 1.4 0 2 .2 4 .4 5.9 0 .3.2.7.4.8 2.7 1 4.6 2.8 4.8 6.2 1.4-.9 2.3-1.5 3.3-2.1 1.3-.4 2.9-.3 4.4-.4 1.1-.1 2.2-.6 1-2zm-77.9-32.4c-2-.7-4.1-1.4-6.4-2.2-.2 1.1-.4 2.4-.6 3.6 1.2.7 2.3 1.3 3.8 2.1 1-1.1 2.1-2.3 3.2-3.5-.9 1.2-1.8 2.5-2.8 3.7-1 1.2-2.1 2.2-3.1 3.3-1.8 2-.5 4.2.1 6.1.2.6 2.1 1 3.2 1.1 1.4.2 2.9 0 4.4 0h3.6c-.6-4.4 1.5-7.6 3.5-10.1-3.2-1.4-6-2.8-8.9-4.1zm-151.2 55c1-3 2.7-5.9 1.2-9.1.5-.3.9-.5 1.3-.8-.1-.2-.1-.4-.2-.5-3.4.8-6.8 1.7-10.3 2.5v5c-.5-1-.5-1.9-.8-2.8-.2-.6-.6-1.3-1.1-1.5-1.3-.4-5.5 2.5-5.7 3.2-1.9.6-3.3 1-5.1 1.6 1.7 2.4 2.9 4.3 4.4 6 .4.5 1.7.3 2.6.4 0 .9-.4 1.8 0 2.5.5 1.1 1.6 1.9 2.1 3 .9 1.8 2.2 1.9 3.4.7 3.3-2.9 7.1-5.5 8.2-10.2zm-61.1 4.2c1.6.5 1.3 1.5.8 2.7-.2.6-.1 1.3-.1 2-2.6 2.2-5.5 4.6-8.8 7.4 4.2 1.1 7.5 1.9 10.9 2.7 1.2-2.5 5-3.5 3.6-7.1-.7-.2-1.5-.5-2.3-.8 0-.2.1-.3.1-.5 1 0 2 .1 3.7.2-.7-1.3-1.2-2.3-1.8-3.3 1.8-1.3 3.6-2.6 5.5-4-2.6-1.9-5.5-1.1-8.3-1.7.5-.7.9-1.2 1.3-1.7-3.2-1.6-4.5-1.2-6.2 1.7.5.9 1.1 1.7 1.6 2.4-1.1-.3-2.3-.8-3.1-1.1-4.1 3.1-8.1 6.2-12 9.2 1.1 2.2 2.2 4.2 3.4 6.5 1.1-1.1 2.4-2.2 3.6-3.3 2-2 4.2-3.8 5.8-6.1 1-1.5 3.2-2.7 2.3-5.2zM100.3 2.5c-2.1-1.2-5.4.2-6.2 2.6-.3 1.1-.7 2.3-.6 3.3.2 1.3.9 2.7 1.7 3.7.3.4 1.9-.3 2.8-.7 1.3-.5 2.6-1.1 4.6-2-2.6 3.4-9.4 2.6-7.2 9.6 3.2-3.4 5.2-.1 7.5.7 2.4-4 4.6-7.7 6.9-11.4-.8-.6-1.6-1.2-2.7-2 1-.3 1.7-.5 2.5-.7-.1.6-.1 1-.1 1.5 3-.4 3.5-2.2 3.3-5.4-4.3 2.2-8.4 2.4-12.5.8zM54.8 39.9c4.3 2.9 8.1 2 11.5-1.6.1-.1.4.1.7.1l-1.2 3c.3.2.7.4 1 .6 2.8-2.4 5.6-4.9 8.8-7.6-.5-1.1-.9-3.3-1.6-3.4-1.8-.3-2.5-1.7-2.6-2.6-.3-1.8-1.1-2.8-2.5-3.6-.4-.2-.6-.9-.8-1.4-.5-1.1-.9-2.2-1.5-3.6-1.8 2.3-3.2 4.2-4.7 6.1.1.3.3.5.4.8h7.6v.9c-2.9.9-5.8.8-8.6-.1-1.6 4.1-2.7 8.6-7.1 10.7.1.7.4 1.3.6 1.7-1.2-.9-2.6-1-3.8 0-1.8 1.6-3.5 3.3-5.2 5 4.7 3 9 5.6 14.2 1.6-.5.8-1 1.6-1.4 2.4l.5.5c.5-.5 1.4-.9 1.6-1.5.4-1.6 1.3-2.2 2.9-2.9 1.2-.5 2.7-2.3 1.2-4.2-7.2 2.3-6.8 3-10-.9zm27-27.3c-1.8-1.4-3.6-2.9-5.3-4.4.7 2.3 1.4 4.2 2 6.1-1-.8-2-1.7-2.9-2.5-3.7 3.4-4 5.7-.3 9.1.5-.9 1-1.9 1.7-2.7 1.1-1.2 2.9-2.1 1.4-4.1.7-.2 1.3-.4 1.9-.5.3 1.2.5 2.4.6 2.8-1.9 1.6-3.4 2.9-5 4.3 1.1 2.5 2 4.8 2.9 7 1.2 2.8 3.7 3.5 5.9 1.7 1.4-1.1 2.9-2.2 4.2-3.5.6-.6.9-1.5 1.5-2.6.8-.6 1.9-1.6 3.1-2.5-.3 1.7-1.1 3-1.5 4.4-.2.6.2 1.9.6 2.1 2.4 1.1 5 1.4 8.1.2-1.9-.5-3.3-.8-4.9-1.2 2.2-.6 4.1-1 5.9-1.5-.1-.2-.1-.5-.2-.7-.5-.3-1.1-.5-1.4-.7.4-.6 1.2-1.5 1-1.7-.7-1.1-1.6-2.1-2.3-2.9-1.6 1-2.7 1.7-4.1 2.6.1-2.8-1.2-3.8-3.5-4.2-1.2-.2-2.6-.8-3.4-1.7-1.5-2-3.5-2.9-6-2.9zm141.9 19.9.1.1c-3.3-2.1-4-1.9-7.5 2.3 3.4 2.5 2 5.9 1.7 9.1-1.4-2.6 1.4-6.3-2.7-8.2-.6.6-1.4 1.1-1.9 1.7-2.6 3.3-5.4 6-10.1 5.4-.5-.1-1.6 1.2-1.7 2-.6 2.5 1 3.7 3.3 4.4-.6.2-1.2.1-1.6.3-.8.3-1.5.8-2.2 1.2.7.3 1.4.8 2.1.8 1.8.1 3.9-.7 5.3-.1 3.6 1.5 7 0 10.5.2-2.2-.7-4.3-1.4-6.5-2.1.1-.3.1-.6.2-.8 2-.1 4.1-.3 6-.4-.2-.5-.6-1.1-1-1.9h3.1c1.3-3.3 3.4-5.9 6.8-7.7-.3-.9-1.2-2.3-1-3.5.1-2.5-1.1-2.8-2.9-2.8zM-2.9 66c1.1-1.5 2.2-3.1 3.2-4.5l-3.7-3.7c-2 0-3.8 1.4-4.9 4.2-1.1 2.7-2.6 5.1-4.1 8 1.5.4 2.6.7 3.7.9 0 .3 0 .5-.1.8-1.1.1-2.2.2-3.8.3-.2.3-.6 1.2-1 1.9 1.7 1.6 3.3 3.2 5.4 5.3.1-2.6.3-4.8.4-7.2.5-.5 1.4-1.4 2.3-2.4 1-1.2 1.8-2.5 2.6-3.6.7.6 1.3 1.3 1.8 1.8-.8.2-2 .2-2.6.8-3.5 3.5-3.2 7.4.7 10.5.9.7 1.7 1.6 2.6 2.3 2.1 1.5 3.8 1.2 5-1.3-.4 2.2.5 2.4 2 2.5 4.5.3 7.2-2.4 9.7-5.4.2-.3 0-.9 0-1.4-1.7.4-2.1-1.4-3-2.2-1.8-1.5-3.3-3.4-5.2-5.4-.3.1-1.2.2-2.2.4 2.1-3 .7-3.1-3.6-6.1-1 .8-1.9 1.5-2.8 2.1-.7.6-1.6 1-2.4 1.4zm109.3 49.2c1.5.9 3 1.7 4.5 2.6.3-.2.5-.4.8-.5-.6-1.7-1.2-3.5-1.8-5.2.7.4 1.6.7 2.2 1.2 2.2 2 8.4 1 9.9-1.6.1-.2-.1-.5-.2-.9-1.3.5-2.5 1-3.7 1.5.1-.7.4-1 .7-1.2 1.7-1 4-1.7 2.5-4.5-.1-.3 1.1-1.2 1.9-2.1-.2 1.9-.3 3.4-.4 4.8.2.1.4.1.6.2.5-.5 1.1-1 1.9-1.8.1 1 .1 1.6.2 2.3 3.2-.1 6.5.6 8.6-2.6h-.1c.5 1.8-.2 2.6-2.1 2.8-1.9.2-3.9.6-5.7 1.1-.7.2-1.7 1.1-1.7 1.6.3 2.4.8 4.9 1.2 7 4-.1 5.8-2.9 7.3-5.9-.6 2.8-1.7 5.3-4.6 6.1-2.2.7-1.9 1.7-.5 2.8 1.2 1 2.6 1.7 4.1 2.7 1.1-.4 2.5-1 3.9-1.5.1.3.2.5.3.8-.7.3-1.6.4-2.1.9-.7.6-1.8 2-1.6 2.2 1.4 2 3.2 3.8 4.7 5.6 1.5-1.1 2.7-2.1 4-3 .1.1.2.3.3.4-1 1-2 2.1-3.4 3.6 1.8.5 3 .9 3.6 1.1.3 1 .3 1.7.7 2.2 1.1 1.4 2.5 2.6 3.5 4.1 1 1.5 1.9 1.2 3.1.3.8-.7 1.8-1.2 2.6-1.8.1.2.2.3.3.5-1.2 1-2.4 1.9-3.7 2.9 1.5 1.8 2.8 3.3 4.1 4.9 1 2.1 3.5 2.8 4 5.6.4 2.1 2.2 4.1 3.9 5.6 1.4 1.2 3.5 1.6 5.5 2.5 3.3-2.8 6.8-5.7 10.9-9.1-.2 1.6-.3 2.5-.4 3.3-2.2-.6-4 .4-5.1 3 2 1 1.9.7 4.6-.8 1.7-.9.3-1.5.5-2.3.9.2 1.9.9 2.6.6 2.6-1.1 5.2-2.4 7.7-3.7 1.8-.9 2.5-2.1 1.4-4-.8-1.4-1.6-2.9-2.2-4.5-1-2.7-2.9-5.7-2.3-8 1.1-4.3-4.1-7.3-1.6-11.4.1-.2-.5-.8-.5-1.2.1-2.5-1.9-5.1.6-7.4.2-.2-.6-1.5-1-2.2-.1.1-.3.2-.4.3-.2-1.4-.4-2.7-.7-4.2-2.6 1.6-4.8 2.9-6.8 4.1.1 5 4 6.3 7.7 7.8-5 .1-8.8-3.8-9.7-9.4 4.1.5 9.3-3.2 8.3-7.4-.4.9-.8 1.7-1.2 2.5-.2-.1-.4-.2-.5-.2.2-.9.3-1.8.6-3.3-2 .6-3.5 1-5.1 1.5-.1-.2-.2-.4-.2-.6 1.8-.7 3.6-1.5 5.3-2.2-.2 0-.6-.1-.5-.1v-4.3l.8-.2v-.5c-5.4-1.1-10.8-2.2-16.7-3.4-.4 1.8-.7 3.6-1.1 5.4l.1-.1c-.2 2.1-.3 4.1-.5 6.2-.1 2 1.1 2.2 2.6 1.9.7-.1 1.3-.4 2-.6-.1 0-.2-.1-.2-.2-.5.9-1 1.7.5 2.3 1.1.4 2.1 1 3.1 1.5.2.1.3.3.6.5-.8.4-1.4.7-2.1 1-.8-1.6-4.3-3.2-6.8-3-2.2.2-5.5 3.5-6.3 6.3 1.1 1.1 2.6 2.1 3 3.3 1.3 3.6 4.1 3.9 7.2 3.9-.6.4-1.5 1.2-2 .9-2-.9-4-2.1-5.9-3.2-1.3-.8-2.7-2.5-3.9-2.3-2.3.2-4.5 1.4-6.8 2.2-.5.2-1.6.4-1.7.3-1.6-2.9-6.1-4-5.5-8.2-1.4-.6-2.6-1.3-4.2-2 2.2 0 4.4.6 5.8-.2 1.2-.7 3.1-2.7 1.2-4.9.7.8 1.3 1.8 1.1 2.6-.2 1.1-.8 2.2-1.5 3.1-1.3 1.5-1.5 3.1-.2 4.3 1.7 1.5 2.1 5.3 5.8 3.6 1.4-.6 2.9-.9 4.3-1.5.7-.3 1.6-.7 1.9-1.3 1.3-2.1 2.3-4.3 3.6-6.7-.2-.1-.7-.4-1.2-.6 2.2 0 4.1.1 4.3-2.3.4-3.6.4-7.2.6-11.1-4.2-1.5-8.7-3-13.3-4.6-.2 1-.7 2.1-.5 3 .4 2-1 2.8-2.2 3.5-1.5.8-3.2 1.1-4.8 1.5-.5.1-1 .1-1.6.2 4.3-2.3 8.8-4.2 8-10.7-3.1-1.5-6.3-3.1-9.5-4.6-2 2.2-3.7 4.2-5.6 6-3.5 3.5-7.1 6.8-10.7 10.2-.4.4-.7 1-1.1 1.3-.9.7-1.8 1.5-2.8 1.9-1.4.5-3.1.4-4.2 1.2-.9.6-1.2 2.2-1.9 3.6h5.7c.4-.5.9-1.3 1.4-2 .1 0 .2.1.2.1-.4 1.1-.7 2.3-1.1 3.4-2.3-.6-4.5-1.5-6.2.8-.4-.9-.7-1.8-1.1-2.7-1.6.3-2.8.5-4.1.8-.3-1-.6-1.7-.9-2.7 1.1-.5 2.2-.9 3.5-1.5-.3 1-.4 1.4-.6 1.9.7-.1 1.1-.2 1.5-.3 1.9-.3 3.5-1.2 2.8-3.3-.3-.8-2.4-1.3-3.7-1.4-1.9-.1-3.9.4-5.8.5-.7 0-1.5-.4-2.6-.7-1.8 1.1-4.1 2.5-6.2 3.9-.3 1.9-.6 3.9-.8 5.9-.1.5.2 1.1.6 1.5.1.1.8-.2 1.3-.4 0 2.5.2 4.9-.1 7.3-.3 2.4-1.2 4.7-1.8 6.7 2.2 1.5 4.2 3 6.3 4.5-2.1-.3-2.7.6-2.5 2.7.1 1.9-.5 3.9-.7 5.7.4.8.8 1.7 1.2 2.6.4.8.5 2 1 2.3.8.3 1.9-.1 2.9-.3.3.6.7 1.5 1.2 2.6-2.3.1-4.5-2.7-6.4.1.1.3.5.5.5.8.1 4.4.2 8.7.1 13.1 0 1.2.1 2.8-.6 3.6-2.2 2.6.9 5.6-1.5 8 .3.1.6.1.9.2.4-.9.8-1.7 1.2-2.6.3.1.6.3.9.4-1.3 2.4-2.5 4.8-3.8 7.1.3.2.6.3.9.5.4-.6.7-1.2 1.2-1.8.4-.5.9-.8 1.3-1.2.1.1.2.2.2.3-.3.7-.6 1.3-1 2.1h1.7c.6-1.6 1.2-3.1 1.7-4.4 6 0 12 1.3 17.2-2.3-3.1-2.8-3.7-4.7-2.2-8.8.2 1.8.1 3 .5 4 .5 1.1 1.4 1.9 2.1 2.8 7.5-3.4 10-3.8 10.8-2.6 1.6.2 2.7.2 3.7.5 1.4.4 2.7 1.3 4.2 1.7 3.1.7 6.3 1.3 9.5 1.7.8.1 1.7-.4 2.5-.6-.7 1.5-1.4 3-2 4.5-1.6-.2-3-.5-4.4-.6-4-.5-8.1-.9-12.1-1.5-5.6-.9-10.3 2.2-15.4 3.3-.5.1-1.1 1.4-1 1.7 1.1 1.9 2.1 4.2 3.8 5.5 1.6 1.2 4 1.5 6.1 2.1.9.3 2.6.7 2.6.8-.5 2.2 1.4 1.1 2.1 1.5.2.1.4 0 .7 0-.1.8-.2 1.4-.3 2.2 2.4.4 4.3.6 5.3-2.3.3-.8 1.7-1.2 2.6-1.7-1.2 1.7-2.4 3.4-3.4 4.8 1.5.3 2.8.5 4.1.7 2.1.4 4.3.9 6.4 1.4 2.1.4 3.1-.8 3.5-2.7 3 1 7-.3 7.4-2.7.4-2.4.5-4.9.8-7.4-2.7 3-2.7 3-5.1 1.1 2.6 1 3.6-.2 4.3-2 .5-1.2.7-2.6 1.5-3.6 1.2-1.6.6-2.6-.9-3.4 1 .4 2.1.9 3 1.3l7.2-7.8c-2.8-2.3-5.5-4.6-8.2-6.8-1.5 1.4-3 2.8-4.4 4.1 1.1-1.7 2.3-3.5 3.4-5.2-.8-.9-1.6-1.8-2.3-2.8-1-1.4-1.6-3-2.8-4.2-1.3-1.4-2.8-3-4.6-3.6-2-.8-1.8-2.8-3-4-1.6-1.6-2.9-3.5-4.3-5.3v.1c-.6-.7-1.2-1.6-2-2.2-1.5-1.1-3.1-2.8-4.7-2.8-2.9-.1-5.8.8-8.7 1.4-1.2.3-2.4.7-3.4 1.4-1.8 1.1-3.5 2.5-5.3 3.7-.2-.2-.3-.4-.5-.6 1.2-1 2.5-2 3.7-3.1.5-.4 1.4-1.2 1.3-1.5-.9-2.8 1-1.9 2.3-1.9 1.9 0 3.7-.2 5.6-.4 2.2-.2 4.4-.5 6.2-.7-1.7-1.9-3.7-4.3-5.3-6.1-3 .5-5.8 1-8.5 1.4-.1-.3-.1-.6-.2-.9 2.6-.5 5.2-.9 7.8-1.4-.7-2-1.3-3.3-1.6-4.7-1.2-5.1-1.1-4.9-6.2-3.4-2.6.7-4.3 1.5-4.3 4.4 0 0-.3.1-.7.2.1-1.4.3-2.8.4-4.1-.3 0-.6-.1-.9-.1-.2 1.3-.5 2.7-.7 4-1-.3-1.7-.5-2.5-.8.4 1.6.8 3 1.1 4.6h-2.7c1 1.1 1.8 2.1 2.7 3.1-4.1-2.4-3.5-1.8-5.3 1.5-.5 1-.8 2.2-1.5 3.1-.9 1.1-1.9 2.6-3.1 2.8-1.6.3-2.5-1.2-2.7-2.9.7.2 1.4.5 2.3.8 1.1-1.9 2.1-3.9 3.3-5.7 1.5-2.1 2.2-3.9-1-4.9 1.9-2 3.2-3.9 4.5-5.8zM-34.9 59.9c0 .5 0 1.1.1 1.7.7-.2 1.3-.3 1.1-.3.4 1.3.3 2.7 1 3.3 2.3 2.3 4.8 4.5 7.4 6.6.5.4 1.7-.1 2.6-.1-.2.6-.4 1.3-.6 1.9.7.1 1.7.5 1.9.2.9-1 1.6-2.2 2.3-3.3-.1-.1-.3-.2-.4-.4-.5.2-1.1.5-1.6.7 3.6-2.3 5.2-6 7-9.6 1-2 1.9-4.1 2.8-6.1-2.4-1-5-2.8-7.7-3.2-3.3-.5-4.8-4.4-8.4-3.8-.1 0-.3-.9-.6-1.1-1-.6-2.5-1.6-3.2-1.3-1.4.7-2.5 2.1-3.6 3.3-.1.1.2.6.4.9l.6.6c-.9 1.6-1.5 3.5-2.7 4.7-1.2 1.2-2.4 2.2-1.5 3.7.5 1 2.1 1.2 3.1 1.6zm165 15.7c-2.1 1-3.6 3.8-7 2.4 4.7 0 8.2-5.3 8.5-8.8-1.6-1.1-2.9-.6-4.2.7-1.2 1.1-2.6 2-4.4 3.3.1-1.2.1-1.6.2-2.4-3.3 2.7-5.7 6-10.2 5.6.5-.5 1-1.4 1.6-1.5 2.7-.4 4.5-2.3 6.4-4 .8-.7 1.9-1.1 2.9-1.7 1.3-.8 2.6-1.6 3.8-2.3-1.8-2.2-3.4-3.9-4.5-5.8-1.3-2.3-2.5-3.2-5.1-2.1-1.4.6-2.3.4-3.1-.7.2-1.4.5-2.7.4-4.1-.1-2.7-.5-5.4-.8-8h-4.7c-.1-.2-.2-.6-.4-.9h-.8c-1 4.3-2.1 8.7-3.1 13 1.5.3 2.7.5 3.6.7.2-.4.4-1.1.5-1.1 1.7.1 3.5.3 5.2.4.2 1.8-1.1 2.1-2.4 2.1-2.3.1-3 1.2-2.8 3.4.1 1.9-.1 3.8-.2 5.8h-.9v-8.1c-4.7-1.1-9-2.1-13.5-3.1-.3.3-1 .9-1.6 1.5.3.2.7.4 1.5.8-1.8.8-3.2 1.3-4.5 1.9l2.1-5.1c-.2-.2-.3-.4-.5-.7-1.1.5-3.1.8-3.3 1.5-.4 1.5-.8 3.6 1.7 4.1 1.2.3 2.4.7 3.5 1-4.6.6-4.9 4-5.5 7.6-.5 3-1.4 6-2.5 8.8-.8 2.1-1.5 3.9.7 4.7-.6.8-1.2 1.3-1.4 2.1-.2.8 0 1.8-.1 2.6-.2 3.2.2 3.8 3 4 4.7.5 5.6 0 6.1-3.3.2-1.2.2-2.7 2.1-2-.5 1.7-1 3.3-1.5 5 2.6 0 5.1-.1 7.6 0 6.3.3 12.2-.2 16.5-5.6-.2.2-.5.4-.5.6-.3 1.5-2.7 2.7-.9 4.3.3.3 2.4-1.3 3.6-2.1 2.2-1.6 4-3.3 1.4-6.1-.4.3-.8.6-1.2.8.5-.8 1.1-1.5 1.7-2.4 1.3 1.4 2.2 2.3 3.3 3.5 1.1-1.8 1.6-3.5 2.8-4.5 2.4-1.9 2.9-3.6.9-5.8 1 .3 2.4 1.3 3 .9 1.8-1 3.4-2.6 5.5-4.3-2.2-1-3.7-1.6-5.3-2.3-1.1 2-2.1 3.9-3.2 5.7zM42.1 10c.8-.3 1.6-.7 2.4-1-1.6-3.4-3.8-1.4-5.7-1.2 1.1.7.3 4 3.1 2.3-.7.7-1.4 1.3-2.3 2.2 2.9 1-.4 1.8.3 2.6 1.5 1.6 3 3.2 4.5 4.7-1.2.5-2 .7-2.7 1 .7.5 1.4 1.2 2.2 1.5 1.6.5 3.3.8 5 1.2-.1.3-.1.5-.2.8-1.7-.3-3.6-.4-5.2-1.1-2.1-.9-3.5-.5-4.6 1.2-2.7-2.2 1.2-2.7.8-4.7-.5-.3-1.3-.8-1.8-1.1-2.3 4.5-4.6 8.9-6.6 12.7 1.5 1.9 2.7 3.4 3.9 4.8 2.3 2.9 4.6 5.7 7 8.5.4.4 1.8.6 2.2.3 1.4-1.1 2.7-2.5 3.9-3.9.2-.2-.2-.8-.3-1.2 7.2-1.4 12.7-8.5 10.5-15.4.8.4 1.6.7 2.4 1.1 1-1.9 2-3.7 3.1-5.7-.4-.2-1.3-.6-1.4-.5-1.4 1.7-2.7 3.4-4 5.1.2 2.3-1.4 1.3-2 .8-1.9-1.6-3.8-1.7-6-.8 2.3-1.9 4.6-3.7 7.1-5.8-.9 1.6-1.7 2.6-2.1 3.8-.1.4.9 1.1 1.3 1.5 1.4-1.9 2.5-3.4 3.6-5 .4-.6.9-1.5.7-2-.2-.7-1.1-1.2-1.7-1.7l-.5.5c.3.7.5 1.5.9 2.5-1.1-.1-1.8-.2-2.8-.3.4-1 .8-1.7.9-2.5.1-.5.1-1.4-.2-1.6-.4-.2-1.5-.2-1.7.1-1.9 2.8-4.9-.6-6.8 2 .3-1.2.5-1.8.6-2.3l-3.3-.3c.1-.8.2-1.7.3-2.6-1.9-.2-3.4-.3-4.8-.5zm-52.5 207.6c-.7-.2-1.3-.4-2-.5-.1.5-.2.9-.3 1.5-4.5-4.4-4.5-4.4-6.6-2.6-.3-.4-.5-.9-.6-1-3 1.1-3.9 5.4-7.6 3.7 4-.8 5.9-4 8.2-6.5-2.2-3.3-4-2.3-5.9-.3-.6.6-1.4 1.1-2 1.6-.1-.1-.2-.3-.3-.4.5-1 1.1-2 1.6-2.9-.6.5-1.2 1-1.7 1.5-1.2-1.8-2.4-3.5-3.6-5.3.1-.2.3-.3.4-.5v1.3c-.2 0-.4.1-.7.1-.4-1.5-.7-3-1.1-4.5-.4 1.3-.5 2.4-1.1 3.2-1.1 1.7-2.2 3.3-2.6 5.4-.8 4-2 8-3.2 11.9-1.3 3.9-.9 8.3-3.8 11.7-.2.2-.1.6-.1 1 1.7-1.1 3.3-2 4.8-3 .1.2.3.4.4.5-1.1.9-2 1.9-3.2 2.6-2.6 1.4-2.9 4-3.6 6.4-.1.4.4 1.4.8 1.6 2.6 1.2 5.4 1.9 8.2 1.1 2.1-.6 4.1-1.7 6.2-2.6-.1-.3-.2-.5-.4-.8-2.4.8-4.8 1.6-7.2 2.5-.1-.3-.2-.6-.2-.8.4 0 .9 0 1.2-.1 2.9-1.3 6.8-1.6 6.2-6.3 0-.3.4-.8.7-1 1.6-1.4 3.3-2.8 4.9-4.2 1.9-1.6 3.6-3.3 5.6-4.8 2.2-1.7 5.8-2 6-5.9 0-.5 1.6-1 2.1-1.2 0-1.1.2-1.8.5-2.4 1.8.3 3.8.9 4.9-1.5 2.5 1.9 3.3 1.6 4.4-1.8.3.6.6 1.1.8 1.7 4.8-2.3 6.5-5.1 6.2-9.8-1.9 1.4-3.7 3-5.8 4.1-2.1 1.2-4.5 2-6.8 2.9-1.5.6-2.3 1.3-1.2 2.8-1 .5-1.8 1.1-2.5 1.6zm-1.3-87.2c-3.2 2.6-5.9 4.8-8.5 6.9.7.6 1.3 1.1 1.8 1.6-.1.1-.1.3-.2.4-.6-.2-1.2-.3-2.5-.7-.3 2.2-.6 4.3-.7 6.4 0 .4 1.1 1.2 1.4 1.1 3.7-1.5 7.3.4 10.9.4 3.1 0 3.8-.2 4.2-3.3.3-2.4 1.4-4.7 2.1-7.1.3.1.5.2.8.2-.7 2.8-1.5 5.6-2.2 8.4-.5 2.4 0 2.9 2.4 2.5 1.4-.2 2.8-.5 4.1-.9 1.8-.6 3.5-1.4 5.4-1.9 2.9-.9 1.9-3.1 1.9-5 0-.8.2-1.6.3-2.5-.2-.1-.4-.1-.6-.2-.8 2.1-1.6 4.1-2.6 6.9-.3-1.4-.5-2.1-.6-2.6-2.8-.4-5.1 2.8-7.5 1.2 2.3-.8 5.3-1.1 7.3-2.7 1.9-1.6 2.6-4.5 3.8-6.8-7-2-14.1-5.1-21-2.3zM129 65.2c2.3 1.9 5.3 3.7 9 4.1 1.4.2 2.8 1.8 4.3.1 1.1-1.2 2.7-2.3 3-3.7.6-2.9.4-5.9.6-8.7h-5c.5-.8.8-1.2 1.4-2.1-1.2.3-1.8.5-2 .6-1.6-2.6-2.9-4.9-5.8-3.8-1.8 2.4-3.5 4.6-5.5 7.1-.2-1.2-.3-1.9-.5-2.9-1.6.6-3.1 1-4.4 1.7-.4.2-.8 1.3-.5 1.7.9 1.5 2.1 3 3.4 4.8.8-1.6 1.5-2.8 2.1-4 .1 0 .2.1.3.1 0 1.7-.2 3.2-.4 5zM-5.5 127.5c4.9 1 9.5 1.8 14 2.8 1.9.4 3.3.5 4.5-1.5 1.1-2 2.7-3.7 4-5.5l.3.9c.2-.2.4-.3.6-.5-.7-.8-1.4-1.6-2.1-2.3-1.3-1.3-2.4-3-4-3.6-2.5-1-5.3-1.2-7.9-1.9-2.9-.8-5.8 1.3-6 4.8 2.4-.6 4.7-1.2 7-1.8-.4.4-.9 1.4-1.7 1.8-1.3.6-2.9.6-4.3 1.2-3 1.3-5 2.5-4.4 5.6zm194.3-98c-3-3.1-7.1-1-10.4-2.1-.6 1.1-1.2 2-1.7 3-1.2 2.1-2.4 4.1-3.5 6.2-.3.6.7 4.8 1.5 5.6 2.5 2.4 5.2 4.7 7.7 6.9 5.9-5.1 6-5.8 3-12.9-3.5-.7-6.8-1.3-10.1-2 0-.3.1-.6.1-1 1 0 2 0 3 .2 1.8.4 3.6 1 5.4 1.3.7.1 1.8-.3 2.2-.8 1.1-1.3 1.9-2.9 2.8-4.4zm32.1-.4c-1.7-3.7-4.3-5.9-8-6.9-2.1-.6-4.6.3-5.4 2.1-1.3 2.9-2.7 5.7-4 8.6-1.2 2.7-2.3 5.5-1.5 8.2 6.6 1.8 9.5-3.2 13.3-6.9-.6-.5-1.1-1-1.6-1.4-.5-.4-1.1-.8-1.6-1.1.1-.3.1-.5.2-.8 4.1 4.4 5.8-.7 8.6-1.8zM62.7 206.5c1-1.2 1.6-2.7 2.6-3 2.2-.7 4.6-.8 7-1 3.7-.3 5.1-2.2 4.6-6-.4-2.5-.5-5-.7-7.5-2.5.5-5 1-7.4 1.6-1.6.4-3.3.9-4.8 1.5-.6.2-1.4 1-1.4 1.6-.2 3.8-.3 7.7-.4 11.5-.1.3.3.8.5 1.3zm-32.9-11.2c-2.5.5-4.9 1.4-7.3 1.5-3.4.2-6.7.3-8.4 4-.1.2-.2.3 0 0 .8 2.3 1.4 4.3 2 6.1.2-.3.4-1 .8-1.7 3.6 3.4 8 2.6 12.8 2.8.1-4.5.1-8.8.1-12.7zM185.9 47.5c-3.1 3.7-3.2 4.1-1.1 6.6 1.3 1.5 2.9 2.6 5.6 1.6-1.4-.5-2.2-.9-3.7-1.5 4.8-1.5 9.6.5 13.3-3.4-2.5-2.5-5 .3-8.1-.4 2.5-.9 4.4-1.5 6.3-2.3.4-.2.9-.7.9-1.1.1-2.1 0-4.2 0-6.3h-10.5c-.4 2.3-.7 4.3-1.1 6.7.9.7 2.1 1.6 3.4 2.5-.1.2-.2.3-.3.5-1.6-.8-3-1.8-4.7-2.9zm-53.2-14.6c3-1.4 7.3-1.4 6.2-6.3.6-.4 1.3-.9 2.1-1.5-3.9-1.5-7.5-3.1-11.2-4.2-1.2-.3-2.8.8-4.2 1.3.1.3.1.5.2.8.7.2 1.5.4 2.3.6-.5 4.3-.9 8.5-1.4 13.1 3.8-1 7.8-2 11.8-3-1.7-2.4-3.7.2-5.8-.8zm-11 13.1c-.1-.2-.1-.4-.2-.6-1.3.4-2.6.7-3.8 1.2-.7.3-1.7 1-1.7 1.5.1 3.4.5 6.8.9 10.6 5-1.9 9.4-3.6 14.4-5.5-1.1.9-1.7 1.5-2.3 2l.5.5c.8-.8 2.2-1.5 2.4-2.4.3-1.5 0-3.1-.3-4.6 0-.2-1.6-.1-2.4-.2-3.2-.3-6.3-.7-10.2-1.1 1.4-.8 2.1-1.1 2.7-1.4zm-104-28.7c-1.7 2.7-3.4 5.4-5 8.1-.1.2.2 1 .5 1.3 1.8 1.7 3.9 2.7 6.4 3.3 4 .9 5.9.4 7.3-2.7.6-1.3 1-2.6 1.5-4.1-3.4-1.8-6.8-3.7-10.7-5.9zm125.1 7.4c-.2 2.7-.4 4.8-.7 7.6 2.3-.6 4.2-1.1 5.8-1.5-.3 4.3-4.7 1.4-7 3.1 2.4 1.6 5.8.7 7.1 3.8.2.5 1.6.7 2.4.6 1.5-.1 3-.4 4.8-.7.4-1.2 1.1-2.7 1.4-4.3.7-2.9-1.1-6.1-3-5.5-2.7.8-5 .2-7.3-1.3-.8-.5-1.8-.9-3.5-1.8zM-42.3 130.2c.2 1.3.5 2.6.7 3.8.3 2.3 1.4 3.1 3.4 2.1 1.6-.8 3.1-1.9 4.6-3.1 1.1-.9.5-2.7-.9-3.1-.9-.3-1.8-.6-2.7-.8 1.5-.4 3.7 1.8 4.1-1.1.6-3.6.5-7.3.7-11.4-4.3 2.3-7.6 5.4-9.3 8.8-.4.9-.4 2-.4 3 0 .2 1.3.6 1.6.4.7-.5 1.1-1.3 1.7-1.9 1.3 1.3.4 2.4-3.5 3.3zM193.2 8.6c-.4.4-.7.9-1.1 1.4-2.1 2.4-4 4.3-7.8 3.5-3.9-.8-4-.4-5.1 3.3-.1.3-.1.7-.1 1.1 3.2 1 6.3 2.3 9.5 2.9 1.7.3 3.9-.1 5.3-1 1.2-.8 1.7-2.8 2.2-4.4 1-3.9.3-5.6-2.9-6.8zM.5 24.9c-1.1-.7-1.9-1.2-2.6-1.7-1.8-1.2-3.3-1.7-4.4.9-.3.9-1.3 1.6-2.2 1.9-.5.2-1.3-.3-1.9-.5.1-.2.2-.5.3-.7 2.4 1 2.4-1.4 3.5-2.4-5.1-1.5-9 .3-9.3 4.5 1.4-.2 2.8-.3 4.3-.5 2.7.5 5.6 1 8.6 1.6-3.1.6-6.8-1.2-9.7 2.6 2.2.6 4.1 1.1 6 1.7.3.5.7 1.5 1.3 1.9.4.2 1.3-.6 2-1 .7-.3 1.3-.7 2-1 2.3-.8 4.7-3.6 4.7-5.5h-5.6c0-.2 0-.3-.1-.5 1-.4 1.8-.7 3.1-1.3zm232.4 24.8c-.2 1.9-.4 3.1-.4 4.4 0 .8.5 1.6.8 2.3.7 1.7 2.1 2.3 3.9 2.4.5 0 .9.6 1.4.8 1.4.7 2.8 1.8 4.3 1.9 1.2.1 2.5-.9 3.7-1.4.2-.1.3-.7.2-.9-1.7-2.6-3-5.9-5.5-7.6-2.1-1.6-5.6-1.3-8.4-1.9zM-17 100.2c-3-.6-6.1-1.3-9.3-1.8-.6-.1-1.4.3-1.9.8-1.7 1.9-3.2 3.8-4.7 5.8-.3.4-.5 1.3-.3 1.6 1.3 1.8 2.8 3.5 4.4 5.5 2.4-2.8 4-4.9 5.8-6.7 1.7-1.8 3.8-3.4 6-5.2zm41.2-39.4c-3.4 2.1-6.8 4.3-10.5 6.6.9 1.2 1.6 2.4 2.7 3.3 1.3 1.1 2.7 2.3 4.3 2.6 1.3.3 3-.4 4.3-1 .5-.2 1.2-1.2 1.1-1.8-.5-3.1-1.2-6.2-1.9-9.7zm252-2.5c1.6.6 3.4 1.5 5.2 1.8 2.5.4 5 .3 7.5.3.3 0 1.1-1.7.8-2.1-.9-1.3-2.1-2.4-3.4-3.4-1.3-1-3.1-1.6-4.1-2.8-1.5-1.8-2.7-.9-4.1-.3-1.7.7-1.9 2.1-1.9 3.6v2.9zm-81.5-35.1c1 .5 2 1 3 1.3 2.3.6 4.6 1.6 6.8 1.5.9-.1 1.7-2.6 2.6-3.9.7-1 1.5-2 2.3-2.9 0-.2.1-.5.1-.7-4.6 1.1-8.3-.8-11.5-3-1.3 2.9-2.3 5.4-3.3 7.7zm6.8 61.5c-.8-3-1.4-5.5-2.3-7.9-.3-.7-1.8-1.4-2.7-1.3-2.7.3-5.4 1-8 1.5 0 .3 0 .6-.1.9.6.3 1.2.5 1.7.7-.5 2-1 4.1-1.5 6.3 1.8-2.6 3.7-1.6 6-.9 2.2.7 4.7.5 6.9.7zm-21.6-72.4c1.7 0 3.3-.2 4.7.1 2.2.5 3.9-.3 5.5-1.6 2-1.6 2.1-3.3-.2-4.1-3.8-1.4-7.8-2.4-12-3.6.7 3.2 1.3 6.1 2 9.2zm-37 2.1c-2.7-1.2-4.9-2.4-7.2-3-1.1-.3-2.7.4-3.9 1.1-.8.5-1.4 1.6-2.1 2.4 3.2 3.6 6.7 6.2 11.5 6.3.7-2.3 1.2-4.7 1.7-6.8zm9 12.8c1-.2 1.7-.1 2.2-.4 1.2-.7 2.6-1.3 3.2-2.3.3-.5-.9-2.2-1.7-2.9-.8-.6-2.1-.5-3.2-.8-.6-.2-1.6-.3-1.7-.7-1-2.7-3.5-2.5-5.3-2.2-.7.1-1.2 2.8-1.4 4.4-.1.6 1 1.9 1.4 1.9 2.1-.2 3.8 4.2 6.1.6 0 0 .1.1.3.1 0 .7 0 1.4.1 2.3zm78.5 23.6c.8-1.6 1.2-3.2 2.1-3.9 1.1-.7 2.8-.5 4.3-.8-1.5-2.9-6.2-5.9-8-5.3-2.4.8-5.1 5.3-4.6 7.7.7.1 1.4.2 2.4.4-.7.7-1.1 1.2-1.8 1.9h5.6zM115.5 17.1c-2.4-.5-5.7-2.3-7.1-1.4-2.4 1.6-3.6 4.9-5.8 8.2 3.5 0 6.1.3 8.7-.1 3.6-.4 4-1.3 4.2-6.7zM31.9 205.4c2.7-1.5 4.8-2.7 7-3.9.2-.1.5-.5.4-.6-.5-1.5.6-1.4 1.5-1.7 2-.9 3.2-3.5 2.6-4.9-3.4.6-6.8 1.2-10.1 2-.8.2-1.9 1.3-1.9 2-.1 2.1.3 4.2.5 7.1zm-53.6-161c.4.7.5 1.4.9 1.6 1.1.6 2.3.9 3.3 1.6 2.5 1.6 2.8 1.6 4.1-1.3-.8-1.1-2.1-2.1-2.3-3.2-.7-4.1-4.3-4.8-6.9-6.7-1.1 2.3-2.1 4.2-3.1 6.3 1.6.7 3 1.3 4 1.7zm201.3 38.4c-2.4 2.9-5 6-7.7 9.2 2.9.3 5.1.7 7.3.6 1.1 0 2.7-.4 3.1-1.2 1-2.1 1.5-4.5 2.2-6.8-1.7-.6-3.2-1.1-4.9-1.8zm-51.5-65.3c-.6-.2-1.6-.2-2.3-.7-1.2-.7-1.7-2.5-3.7-1.4-1.3.7-2.9.8-4.3 1.3-.4.2-.9.7-1 1.2-.5 1.9-.9 3.9-1.4 5.8 1.3.2 2.3.6 3.4.6 1 0 2.3 0 3-.6 2.2-1.9 4.3-4.1 6.3-6.2zm122.1 28.2c0-.2 0-.4.1-.6-.6-.1-1.3-.5-1.8-.3-2 .8-3 3.9-2.1 5.8 1.7 3.5 4.7 4.9 10.2 4.5-.3-1.4-1.3-3-.8-3.9 1.3-2.8-.5-2.7-2.2-3-1.9-.3-3.8-.8-5.6-1.2.1-.3.1-.6.2-.9.6-.2 1.3-.3 2-.4zM124.6 24.1c-3.3 2.9-6.3 5.7-6.4 10 1.2.3 2.5.6 3.8 1 1.7.5 2.9.4 3.7-1.6 1.1-2.5 1.6-4.8 0-7.3l.8-.8c-.5-.4-1.2-.8-1.9-1.3zm21.3 49.1c-2.7 2.4-5.2 4.6-7.8 6.9 3.7-1.9 5.7 1.6 8.6 2.4.8.2 1.6 1.8 2.7.7 1-1 2.6-2.1 1-4-1.5-1.8-2.9-3.8-4.5-6zm-2.8-60.7c.6-2.1 1.2-3.9 1.7-5.6.6-2-.3-3.1-2.4-3.3-2.5-.2-4.5.1-5.3 3-.2.7-.9 1.3-1.4 1.8 1.2 3.8 4.6 3.3 7.4 4.1zm123.2 28.7c-1.6-2.3-3.7-2.8-6.9-1.7-3.3 1.1-5.1.5-6.8-2.4-.2 2.4 0 2.7 3 3.7v2.1c-.9.2-1.9.5-2.9.7-.1.2-.1.5-.2.7.7.3 1.4.9 2.1 1 4.4.4 8.1-1.6 11.7-4.1zm-38.5 22.4c2-2 3.9-1.8 5.6.5 1.8 2.5 3.8 3.2 5.9 1.8 1.2-.8 2.2-1.8 3.4-2.9-4-.7-7.8-1.5-11.6-2.2-3.5-.7-7-1.3-10.6-2-.1.2-.1.4-.2.6 1.2.7 2.5 1.5 4.2 2.5.2-.1 1.2-.3 2.5-.6-.5.6-.7 1-1.1 1.4.7.4 1.3.7 1.9.9zM119.4 28.2c-5.9-2.6-8.3-2-10.2 2.1-.6 1.3-.4 1.7.9 2.6 2.3 1.5 4.6 0 6.7.8 1-1.5 1.8-2.9-.2-4 .8-.5 1.6-.9 2.8-1.5zm149 15.8c-.4 1.7-1.9 3.1-.2 4.7 2.7 2.4 5.7 2.7 9.2 2.2l-.7-1.4c1-.1 1.7-.2 2.5-.3-.2-2.9-2.2-1.8-3.6-1.9-1.9-.2-4.1.5-4.8-2.4-.2-.8-1.3-1.7-2.2-1.9-.8-.2-1.8.6-2.8.9.1.3.2.5.3.8.8-.3 1.4-.5 2.3-.7zM211 84.5c-1.5-1.1-3.1-1.7-3.5-2.8-1.2-3.6-3.9-4.6-7.2-5.1-.1 6.5 4.4 10.1 10.7 7.9zM-1.7 3.8c.6 4.1 6.4 5.6 11.1 3C7.9 2 7.9 2 3.8 2.8c-1.8.3-3.7.7-5.5 1zm-33.2 100.4c1.1-1.3 3-2.6 2.9-3.5-.4-2.4-1.8-4.7-2.9-7.3-1.4 1-2.3 1.6-3.1 2.3-.6.6-1.1 1.3-1.7 1.9.7.5 1.5.9 2.2 1.4-.5 1.2-.5 1.2 2.6 5.2zm118-29.8c-4.3-1.9-6.7-.4-6.7 4.1 0 1.1 1.1 3.3 1.6 3.3 1.7-.1 3.9-.1 4.3-2.5.3-1.7.5-3.3.8-4.9zM200.6 8.2c-.4-1.1-.7-2-1.1-3-.3-.7-.5-1.8-1-2-2.3-.7-4.7-1.2-6.7.5-.4.4-.4 2.1-.3 2.1 2.7 1 4.7 5.2 8.4 2.2.1 0 .4.1.7.2zM186.1 23c-2.2-.8-4.2-1.4-6.3-2.1-1.6-.6-2.6.2-2.5 1.9.1 1.1 0 2.1 0 3.3 2.3.3 4.5.7 6.7.8.5 0 1.3-.9 1.6-1.5.4-.7.4-1.6.5-2.4zM-25.6 141.8c-1.7-.7-2.8-1.2-4.2-1.7-.6 2.6-1.1 4.9-1.6 7.4 3.2-.3 6.2-.3 8-3.5-1.6-.2-1.8-1.3-.5-3.4-1.3.8-1.7 1.2-1.7 1.2zm72.9-79.2c-1.2-1-2.1-1.7-2.8-2.4-2.1 1.3-4.1 2.4-5.9 3.5 1.2 1.5 2.2 2.7 3.4 4.3 1.9-1.9 3.6-3.6 5.3-5.4zm-75.6 18.5c-2.2-4.1-4.7-4.5-7.5-1.2-.3.4-.4 1.6-.1 2 2.4 2.2 5.3 1.9 7.6-.8zm281.8-21.9c.3 2.1.5 3.6.7 5 3.6.7 3.5-1.2 2.8-3.5 1.4.4 2.7.8 3.9 1.1l.3-.9c-3-1.5-5.4-4.3-10.1-3.9 1.4 1.2 2.1 1.8 2.4 2.2zm-193 50.4c3.7 3.1 6.5.1 10-.9-.5-1.1-.9-2-1.4-3.1-1.8 1.7-5.6-1-6.1 3.5-.6.1-1.5.3-2.5.5zm157.6-50.2c.1-.3.2-.6.2-1-.7-.1-1.4-.4-2.1-.3-3.9.5-7.9 1.5-11.8 1.3-2.1-.1-3.4.2-4.8 1.6 6.4.7 12.4-.9 18.5-1.6zM13.8 14.2c-2.5 1.1-3.3 3.4-4.4 5.6.9.4 2.1.8 3.2 1.3 5.4-4.7 5.4-5 1.2-6.9zM4.6 34.7c-2.5 1.6-6.7.3-8 4.7 1-.1 1.6-.1 2.4-.2-.3.8-.6 1.4-.9 2.2 7.4-3.9 7.4-3.9 6.5-6.7zm4 173.6c2.2-.1 4-.2 6.3-.3-.6-2-1.1-3.9-1.8-5.9-5.7 3.5-5.8 3.7-4.5 6.2zM-40.3 24.7l2.7 2.7c-.3.4-.6.8-1.1 1.4 2.4.5 4.4 2.3 6.3.4-.4-1.1-.8-2.1-1.2-3.2-1 .1-2.2.1-3.4.2-1.1-3-2.8-3.5-6.8-1.8 1.6.1 2.8.3 3.5.3zm2.6 92.8c2-1.9 3.8-3.4 5.5-5 .5-.4 1.2-1 1.2-1.4-.1-.5-.7-1.3-1.2-1.5-.5-.2-1.3.2-1.8.6-.9.6-1.7 1.5-2.5 2.2-1.6 1.3-2.1 2.7-1.2 5.1zm193.1 58c3.2.7 5.6.2 6.4-3.2.4.5.7.9 1.3 1.6.4-1.1.6-1.8.8-2.3-1.3-.7-2.3-1.2-3.3-1.7-1.6 1.7-3.3 3.6-5.2 5.6zm44.7-28.1c-1.7-1.6-6.1-2.8-7.4-1.9.8 4.9 3.8 4.9 7.4 1.9zM94.2 94.5c2.3 2.2 14 1.4 15.9-.8-5.2.3-10.4.6-15.9.8zm64.6-70.3c-2.6 2.5-2.1 4.9.2 7.5.8-2.1 1.6-4.2 2.4-6.4-1.1-.4-1.9-.7-2.6-1.1zM85.3 93.9c0 .4 0 .9.1 1.3.3 3.4 1.1 3.9 4.1 2.5.5-.2 1.2-.1 1.7-.2.7-.2 1.3-.6 2.4-1-3-1.6-6.5 1-8.3-2.6zm85.8-43c-.6-.5-1.3-1.7-2.1-1.8-3.3-.1-6.7.1-10 .3-.3 0-.5.8-.4.6 4.2.3 8.3.6 12.5.9zM88.2 178.1l-.3-.6c-4.2 1.5-8.4 3-12.5 4.6 1.8 0 3.7-1 5.3-.7 3.4.5 5.2-1.7 7.5-3.3zM-.9 82.9c2.5 2.9 6 3.2 10.8 1.2-3.6-.4-7-.8-10.8-1.2zm75.5-33.8c.6-2.9 1.1-5 1.8-8-2 1.9-3.5 3.1-5 4.6.9 1 1.7 1.8 3.2 3.4zm207.9-11.4c2.1 2 4.9 2.2 7 .1-2-.7-3.9-1.4-5.8-2.1-.4.7-.8 1.3-1.2 2zm-56.2-15.5c-2.4-.1-4.8-.4-6 3.1 2.3-.2 4.4-.4 6-.5v-2.6zm62.8-1.7c0-.2 0-.4-.1-.5.6-.2 1.1-.4 1.8-.6-2-3-2.9.1-3.9.4l1.8 3.6c1-.7 2.5-1.7 4.3-2.9h-3.9zM-7.7 152.4v-1.3h-10.1v.9c3.4.1 6.7.3 10.1.4zm85.2-80c4.2 1.3 6.7 1.4 5.8-3.2-1.8 1-3.5 1.9-5.8 3.2zM63.9 5.7c.1.3.2.7.3 1 1.4.2 2.8.3 4.2.4-.3-1.4-.5-2.7-.9-4.8-1.6 1.5-2.6 2.5-3.6 3.4zM-30.2 37c1.1 1.6 2 2.8 3.3 4.6.4-2.1.7-3.6 1.1-5.9-2.1.7-3.4 1.1-4.4 1.3zm41.8 48c2.3-.9 4.3-1.7 6.3-2.6.4-.2.5-1.1.7-1.7-.6-.1-1.4-.4-1.9-.2-1.7.9-3.3 2-4.9 3.1-.2.1-.1.7-.2 1.4zm132.2-38c3.3.2 6.5.3 9.6.5-2.3-2.2-8.1-2.2-9.6-.5zm87.8 5.9-.6-.3c-2.1.3-4.2.6-6.5.9 1.2.7 2 1.4 3 1.7.9.3 2 .2 3 .3-.1-.6-.3-1.3-.2-1.9.1-.3.9-.5 1.3-.7zM73.3 11.1c0-.3 0-.6.1-1-2.4-.2-4.9-.5-7.3-.7 0 .3 0 .6-.1.9 2.2 2.4 4.9.3 7.3.8zm170 37.2-3.6-.6c-.9-.2-1.7-.4-2.5-.6-.1.3-.2.6-.2.9.8.3 1.9.4 2.4 1 1.9 2.9 2.9 1.4 3.9-.7zm-108.7-5.7c0 .5.1.9.1 1.4 2.7-1.8 5-.6 7.3.4-1-1.3-1.9-2.7-2.9-4-.2.2-.4.3-.6.5.5.2 1 .4 1.6.6-2.1.4-3.8.8-5.5 1.1zM-6.6 78.3c-.2.2-.3.4-.5.6 1.6 1.4 3.3 2.9 5.1 4.5.4-2.1-1.6-4.1-4.6-5.1zm-28.7-44.4c1.1.7 2.2 1.5 3.3 2 .4.2 1.1 0 1.7-.1-.2-.5-.2-1.1-.5-1.5-1.4-1.4-3-1.8-4.5-.4zm-3.4 5.3c1.5 1.2 2.6 2.1 4 3.2.6-3.3-.5-4.3-4-3.2zm156.4 2.2c2.2 2.5 5.6 3.2 7.1 2.1-2.3-.7-4.7-1.4-7.1-2.1zm161-20.2c-2.1 1.3-2 2.9-1.5 4.5 1.4-.2 2.5-.3 4.4-.6-1.4-.7-2.1-1.1-3-1.5.1-.6.1-1.3.1-2.4zm-167.8 157c2 2.7 2.5 6.8 6.4 7.9-2.2-2.8-4.3-5.4-6.4-7.9zM97.3 57c5.3 2.5 5.3 2.5 6.2-.6-2 .3-3.8.4-6.2.6zm-83-22.8c-3.5-1.3-6.1-1-8 1 2.7-.3 5.3-.7 8-1zM116.7 99c-1.9-2.7-3.1-2.9-5.8-1.1 1.9.3 3.7.7 5.8 1.1zM6.9 16.2c4.2-2.9 4.2-2.9 4.6-2.8-1.5 1-3.1 1.9-4.6 2.8zM-26.2 1.9v.9c1.1.2 2.2.5 3.3.7.1-.8.2-1.7.3-3-1.6.6-2.6 1-3.6 1.4zm195.1 53.6c-.2.6-.4 1-.6 1.5.9-.2 1.6-.3 2.9-.6-1.5-1.2-2.6-2.1-4-3.1-.3 1-.6 1.7-.9 2.7 1-.2 1.7-.3 2.6-.5zm0 4c-1.3-.7-2.5-1.4-3.9-2.2v3.6c1.5-.4 2.7-.9 3.9-1.4zm-66.3-30.3c1.1-.4 1.9-.6 2.7-.9 0-.2-.1-.4-.1-.5-.6-.2-1.2-.3-1.9-.5.6-.6 1-1.1 1.4-1.5-.3-.2-.6-.4-.8-.6-1.2.6-1.4 1.9-1.3 4zm-145.9 4.9c.4-.5 1.2-1.1 1.1-1.3-.4-.8-1-1.8-1.7-2.1-.6-.3-1.5.3-3 .7 1.9.6 4.3-.3 3.6 2.7zM66.6 13.5c.7 2 .7 2 5.1 0h-5.1zm108.7 40.9c-1.4-.8-2.6-1.5-4-2.3 1.2 3.5 2.3 4.1 4 2.3z"/><path d="M295.6 223.4c-1.1-.1-2.3-.5-3.4-.3-1 .1-2 .8-2.8 1.1-2-.9-4.1-1.9-6.3-2.8-1.4-.6-2.8-1-4.1-1.7-2.2-1.1-4.4-2.4-6.6-3.4-.7-.3-1.7-.2-2.5 0-1.8.5-3.5 1.1-5.4 1.7 3.4 7.3 8.7 13 15.8 17.6-1.1 1.4-2.1 2.7-3 4-.1-.1-.3-.2-.4-.3.7-1 1.3-1.9 2.2-3.3-6.7-4.4-12-10-15.9-17.7-3.1 3.7-6 7.1-8.8 10.4 8 7.2 17.1 13.9 24.6 22.8-7.8-2.5-12.3-8.4-17.7-13.4-2.2-2.1-4.5-4.1-7.4-5.4-2.6-1.2-4.6-3.5-6.9-5.3-4.3-3.3-4.3-3.2-8.8.3.4-.1.7-.2 1.2-.4v2.2c-7.3.5-14.5 1-21.9 1.5-.4 3.3 1.3 6.3 3.9 9.3 1.2 1.4 2.2 3.3 2.4 5.1.4 3.1 1.8 4.6 4.8 5.3 3.4.8 6.5 2.3 8.5 5.5-3.8-2.7-7.8-4.8-13.1-5.4.9 2.2 1.7 3.9 2.5 5.6h-3.7c-.4-1.4-.6-2.8-1.2-4.1-.7-1.5-1.7-2.8-2.6-4.4 1.6-1.9 1.4-3.3-1.1-5.3 1.1.1 2.2.1 3.3.2 0-.2.1-.3.1-.5-.5-.1-1.1-.2-1.5-.4-.7-.4-1.2-.9-2-1.5-.4.3-.9.8-1.5 1.3-.8-2.7-1.7-5.4-2.3-8.1-.2-1 .8-2.2.5-3.1-1.2-3.5-2.6-6.9-4-10.2-.2-.4-1.2-.6-1.8-.6-3.5.2-7 .7-10.4.8-3.1.1-6.3-.2-9.4-.6-1.5-.2-3.1-.7-4.5-1.3-2.7-1.1-5.5-2.3-8.1-3.7-3.3-1.9-7.3-2.1-10.1-4.9-.3-.3-.8-.7-1.1-.6-2.4.6-3.6-1.4-5.2-2.4l.1.1c-1.4-1.3-2.8-2.7-4-3.8 1.4-1.4 2.6-2.7 3.8-4 2 2.1 4.2 4.4 6.4 6.7 1.1-.6 1.8-.9 2-1 1.1 1 1.9 2 2.9 2.6.5.3 1.4-.4 2.2-.6-.9 2.1.4 2.7 2.4 3.2 2.3.5 4.4 1.6 7 2.5.3-1.7.5-2.9.8-4.7 0 1.4-.2 2.4 0 3.4.2.8.9 2.2 1.1 2.2 3-.5 5.7 2.9 8.8.8.1-.1.5 0 .7.1 1.6.5 3.1 1.4 4.7 1.6 3 .3 6 .1 9 .3 2.6.1 2-2.2 3-3.3-2.1-.3-2.1-.3.1-4H205c3.1-1.6 5.5-2.6 7.8-4 2.3-1.3 1.3-3.8 1.2-5.5-.1-1.4-1.9-2.2-3.7-2.5-2.3-.3-4.5-1.4-6.8-2.1-1.2-.8-2.5-1.7-3.7-2.5-2.5-1.5-4.7-3.1-6.5-5.7-2.1-3.2-4.9-6-7.6-8.9-.6-.6-1.9-1.3-2.6-1.1-2.3.9-3-.7-3.9-2.1-.8-1.2-1.6-2.5-2.8-4.4 1.2.5 2.1.6 2.2.9.6 2.6 3.2 2.7 4.8 4 2.4 2 4.9 3.8 7.5 5.7.4.3 1.1.1 1.7.2v-.1c.9 3.8 2.8 6.9 6.4 8.6 4.8 2.4 9.8 4.5 14.8 6.5 1.3.5 2.1.9 2 2.5 0 .7.6 1.5 1.3 2l-1.2-7.8c-.4-2.6-1.7-4-4.5-4.7-2.2-.6-4.4-2.2-6.1-3.8-2-1.8-2.7-4.3-2.1-6.7 1.5 2.2 2.8 5 5 6.8 2.2 1.8 5.2 2.4 7.8 3.6.7-.9 1.3-1.7 1.8-2.3.5 2.8.9 5.4 1.6 8 1.2 4.7 2.4 5.3 7.2 3.8 3.2-1 6.5-1.8 9.7-2.6 1.2-.3 2.5-.1 3.7-.3 2.3-.3 4.6-.7 7.1-.8-1.6.7-3.2 1.7-4.9 2-1.7.4-3.6.1-5.2.1 1.9 1.1 3.8 2.2 5.8 3.1.9.4 2.1.8 3 .6 2.7-.8 5.4-2 8.2-3-.7-.6-1.6-1.4-2.5-2.2.2-.2.5-.4.7-.7 2 2.1 4 4.2 6.5 7-1.4-.5-2.2-.7-3-1.1-1-.5-2.1-1.6-2.8-1.4-2.3.6-4.8 1.2-6.5 2.7-1.6 1.4-2.4 1.7-4.2.6-1.1-.7-2.7-.7-4.1-1.2-1.2-.5-2.4-1.1-3.2-1.5-.7.9-1.2 2.2-2 2.4-3.5.8-7.2 1.2-10.7 2-1.2.3-2.2 1.1-3.6 1.9-.1-.1-.6-.5-1.8-1.4.7 1.6 1 2.4 1.6 3.6-1.3.8-2.6 1.7-3.6 2.3-.1 1.1.3 2.8-.2 3.2-1.4 1.1-1.2 1.7-.1 2.7.5.5.5 1.4.7 2.1.7 1.8 1.2 3.9 4.1 2.8.4 2.2.7 4.4 1.3 6.5.2.6 1.2 1.1 1.9 1.2.8.2 1.8-.1 2.8-.2-.3-1.8-.7-3.7-1.1-5.7.2-.1.3-.1.5-.2.4.9 1 1.7 1.1 2.6.2 2.9 1.8 3.1 4.3 3.1 3.5.1 6.5-1.4 9.6-2.6.6-.2 1.2-1.3 1.2-2.1.2-4.9.2-9.8.3-14.7 0-.7.7-1.5 1.1-2.2.4.1.8.2 1.2.2 0 3.4.2 6.8-.1 10.1-.2 2.8 1.5 3.8 3.5 4.7 2.8 1.2 4.9 3 7 5.8 1.2-1.1 2.7-2.1 3.8-3.5.8-1.1 1.1-2.6 1.8-4.4.9 0 2 .1 2.7-2.1.5-1.8 2.8-3.1 4.5-4.5.3-.2 1.4.5 2.1.8 1 .4 1.9.8 3 1.2-.1-.9-.1-1.3-.2-1.6.5.1 1.1.1 1.4.4.6.5.9 1.5 1.6 1.8 4.4 1.9 9 3.6 13.3 5.6 2.4 1.1 4.4.4 6.6 0 .6-.1 1.3 0 2 0-.9 1.4-.9 2.1-.9 2.8zM265.1 121.2c1.5-.1 3.2-.7 4.4-.1 1.3.5 2.1 2.3 3.4 3.1 2.2 1.3 4.5 2.3 6.9 3.5.5-2.1 1.1-4.4 1.7-6.5 1.2-1 2.5-2.1 4-3.3-2.3-1.9-4.4-3.6-6.4-5.3.1-.2.2-.3.4-.5 1.5 1.1 2.9 2.3 4.4 3.4 1.3 1 2.4.8 3.6-.4 2.5-2.5 5.4-4.8 8.1-7.2v3.2c-1.1.5-2.2 1-3.2 1.4.9 2.7-2.9 6.7-6.3 6.8-.5 3.6-.9 7.2-1.5 11.5 2.2.2 4.6.7 7 .5 1.4-.1 2.7-1.3 4-2v1.1c-1.7.9-3.4 1.7-5 2.5.3 1.2.7 2.2.9 3.2.7 2.9 2.3 4.7 4.1 4.5v12.8c-1.8-.5-3.7-1.1-5.5-1.6-2.4-.7-4.8-2.1-7.1-1.9-3.6.4-7.1 1.9-10.6 2.9 1.1 1.2 2.4 2.1 2.7 3.1.7 2.6.9 5.3 1.3 7.9 1.4.1 2.5.3 3.7.4v.3c-1.3.2-2.6.3-4.1.5.5 2.1.9 4 1.3 5.6.9.3 1.9.3 2.2.7 1.4 2.3 2.7 4.7 3.9 7.1 2 3.9 4.1 7.5 9.5 6.5.9-.2 1.9.3 2.8.5v3.2c-1.1 1.4-2.2 2.9-3.2 4.2.9 1.1 2 2.5 3.2 3.9v4.3l-4.5-4.2c-.1-.1-.2-.3-.4-.4-5.4-.8-4.6-6.4-7.1-9.4-2.1-2.5-3.2-5.7-5.3-8.1-.7-.8-3.2-.7-4.6-.1-2.1.8-2.7.7-3.1-1.3 2.6-.3 5.2-.6 7.7-.9.1-.3.2-.7.3-1-1.3-.9-2.4-2.3-3.8-2.8-3.2-1.2-6.6-1.9-9.9-2.9l.1.1c.5-.5 1.1-1.5 1.5-1.4 2.5.3 5.1.8 7.6 1.3.3.1.6.6 1 1-.4-5-.8-9.8-1.1-14.6-2 0-3.7-.1-5.5 0-.4 0-.9.5-1.2.9-1.6 2.3-3.2 4.6-5 7 .5.6 1.4 1.7 2.2 2.7-.2.2-.4.4-.6.7-4-2.9-8.7-5-11.2-10.2 2.1 1.1 3.9 2.2 5.8 3 .7.3 2 .2 2.6-.2 1.5-1.2 2.8-2.7 4-4.2.3-.3 0-1.1.1-1.7.6-3.2 3-1.4 4.7-1.5 1.7-3 2.1-5.5-1.5-7.3.7.4 1.4.8 2.1 1.3 2 1.2 3.3.5 3.4-1.8 0-.5.7-.9 1.1-1.4l-.1-.1c0 1.6.5 2.8 2.3 2.9.3 0 .6 0 .8.2 2.8 1.5 2.8 1.5 3.4-1.8.1-.5.4-.9.9-2 .3 1.4.4 2.2.6 3.1 3.6 1.5 7.3 3 11 4.6.9-6.8-2.9-11.3-4.9-16.3-1.8.4-3.7.9-5.6 1.3.3-.6.6-1.1 1-1.7-.1-.1-.3-.4-.3-.4-2.1 1.4-1.7-4.7-4.8-1.5-1.7 1.7-4-.5-5.9-1.3-1.6-.7-2.7-.6-3.8 1.1-.5.9-2 1.2-3 1.7-.5.2-1 .4-1.5.7-.2-.6-.5-1.3-.7-1.9.4-.1 1-.4 1.3-.2 2.4 1.5 2.9-.3 3.9-2.2-2.4.1-4.2.3-5.1 2.4-1.5-1.1-3.1-2.1-4.6-3.2 1.7 1 3.4 2.3 4.5-.9.2-.6 1.6-.8 2.5-1.1l3-.9c-1.8-1.9-3.3-3.4-4.9-4.9zm25.7 70.3c1.6-1.9 2.8-3.4 4.3-5.3H288c.9 1.8 1.7 3.4 2.8 5.3zM271.2 69.3c-.3.2-.9.6-.9.7 1.5 2.6 2.8 5.6 4.8 7.7 1.9 2 4.8 3.1 7.2 4.6l-.1-.1c4.5 2.7 8.9 5.3 13.4 8v2.7c-2-1.1-4-2.3-6.1-3.2-1-.4-2.7-.6-3.5-.1-3.4 2-6.5 4.3-9.8 6.6l.1-.1c-2.1-1.1-3.5.3-5 1.4-1.7 1.3-2.9 2.1-4.6-.6-1.1-1.7-4-2.3-6.2-3.3l-3.2-1.6c1.7 0 3.2.4 4.1-.1 1.1-.7 1.7-2.1 3.1-2.9-.6 1.1-1.2 2.2-1.9 3.4 2.1 1.5 4.3 3 6.5 4.5.1.1.4.1.5 0 2.9-2.7 7.7-1.1 10.3-4.8 1.4-2 4.1-3.2 6.4-4.8-4.3-1.4-8.3-2.9-12.4-4-1.2-.3-2.8.7-4.3 1.1-.3-1.3-.5-2.5-.7-3.4 1.1.1 2.1.2 3.6.3-1-2.5-1.9-4-4.2-2.4.4-.9 1.3-1.8 1.2-2.5-.3-1.8-3.8-4.2-5.7-4.3-.5-.3-1.1-.7-1.6-1-1.6-1.7-1.5-2.8.5-3.8.7-.3 1.4-.7 2-1.1l-.1.1c.7-.2 1.4-.5 2.1-.7.4.7.7 1.3 1 1.9h-1.6c1.4 1.7 2.8 3 5.1 1.8z"/><path d="M194.5 256.6c-1.8-1-3.6-2.1-5.5-2.9-.7-.3-1.8-.1-2.5.2-1.6.6-3.1 1.5-4.6 2.3-.5-2.2-.9-4-1.2-5.9.2-.1.5-.1.7-.2.4 1 .7 2 1.4 3.7.5-1.2 1.2-2.2 1-2.4-1.3-1.4-2.8-2.7-4.3-4.1.1-.1.8-.7 1.5-1.4-1-1.1-1.9-2.1-2.8-3 .2-.2.3-.5.5-.7.6.4 1.5.7 1.9 1.3.9 1.5 1.5 3.2 2.2 4.8.4.8 1 1.6 1.7 2.7 2.8-3.3 4.8 0 7.1.5 3.5.7 7.2 1.4 10.1 4.2 1.5 1.5 2.7-.3 3-2.1 4 .8 7.7.2 11.3-1.7.6-.3 1.6.3 2.4.4-.5.8-.8 2.1-1.5 2.4-2.2.9-4.5 1.4-6.8 2.1-5.3-.2-10.4-.2-15.6-.2zM67.1 256.6c-.6-.8-1.2-1.5-1.8-2.4-1.3.3-2.6.7-4.5 1.2 2.7-2.2 5.1-3.9 7.2-5.8.6-.5 1-1.6 1.1-2.4 0-1.4-.3-2.8-.5-4.2-.4-2.5-.8-4.9 1.5-6.8H70c.3.7.8 1.4.9 2.1.1 1.5 0 3 0 4.4.2 3.9.2 3.9 2.5 5.2-2.2 1.8-4.6 3.8-7.1 5.8.7 1 1.3 2 1.9 3-.3-.1-.7-.1-1.1-.1zM280.6 256.6c-.6-1-1.2-2.1-1.8-3.1.1-.2.3-.4.4-.6.9.4 1.8.9 2.8 1.4 0-.4-.1-.9-.1-1.2 1.4-.6 2.8-1.2 4.2-1.9.1 0 .1-.1.2-.2.6-.2 6.7 1.8 7.1 2.4-1.4.4-2.7 1.2-4.1 1.2-1.8 0-1.5.9-1.3 2h-7.4zM295.6 183.3c-6.1-3.1-10.2-8.2-13.6-13.9 1.1 1.1 2.2 2.1 3.3 3.1.4.4.9 1 1.2.9 3.6-.7 4.5 2.5 6.4 4.3.8.8 1.7 1.5 2.6 2.3.1 1.2.1 2.2.1 3.3zM-46.8 178c1.7 3.1 3.5 6.2 5.1 9.3.3.5 0 1.6-.4 2.1-.3.3-1.3-.2-2-.2-.9 0-1.8 0-2.7.1V178zM295.6 243.2c-.6-.5-1.2-.9-1.8-1.4-.4-.4-.8-.9-1.2-1.2-5-2.8-8.8-6.7-10.7-12.2-.6-1.8-.9-3.4.8-5.1-.8 4 1.6 5.8 4.5 7.8-.7 0-1.5.1-2.7.2 1.1 1.5 1.8 3.1 3.1 4.1 2.6 1.9 5.4 3.5 8.1 5.2-.1.9-.1 1.7-.1 2.6zM257.1 256.6c-1.1-2.1-2.3-4.2-3.3-6.4-1.3-2.9-2.5-5.9-3.8-8.8-.7-1.4-1.3-3-2.4-4-2.6-2.7-2.7-3.4.7-6.3-.2 1.1-.6 1.9-.4 2.7.2 1.1.6 2.2 1 3.2.6 1.2 1.4 2.2 1.9 3.4 1.9 4 3.6 8.1 5.5 12.1.3.7 1.1 1.2 1.4 1.9.3.7.3 1.5.4 2.2h-1zM89.6 256.6c4.1-2.1 4.2-2.4 3.4-7.1-.3-1.8-.5-3.7-.6-5.5 0-.8.4-1.7 1.1-2.5.3 2.2.9 4.4 1 6.6.1 2.2 1.1 2.2 2.7 1.9 1-.2 1.9-.3 3 .1-1.6.6-3.3 1.1-5.3 1.8v4.7h-5.3zM151.7 242.1c-.2 3.9-2.3 6.9-4.9 9.6-1.7 1.8-3.9 3.3-5.8 4.9h-1.6c2.2-2.3 4.5-4.6 6.6-7 2-2.4 3.8-5 5.7-7.5zM-31.9 256.6c2.2-3.2 4-6.6 3.2-10.8 1.9 1.2 3.6 2.4 1.4 5-.6.7-.2 2.2-.5 3.2-.2.9-.6 1.7-.9 2.6h-3.2zM-9.4 256.6c1-2 1.4-4 .8-6.3-.4-1.5-.3-3.2-.3-4.9.3 0 .5-.1.8-.1.1.8.1 1.7.2 2.5.1.9.1 1.9.1 2.3 1.4.7 2.3 1.1 3.2 1.6l.1-.1c-.7 1.7-1.4 3.3-2.2 5h-2.7zM295.6 253.9c-.9.3-1.8 1-2.2-.5.1-1.8.2-3.6.4-5.3.2-1.4-.7-3.4 1.7-3.7.1 3.1.1 6.3.1 9.5zM-43.6 256.6c.6-2 1.2-4.1 1.9-6.3h3.1c-1.3 2.4-2.4 4.3-3.4 6.3h-1.6zM-46.8 59.7c2.5 1 3.9 2.8 4.3 5.4-1.4.2-2.9.3-4.3.5v-5.9zM-41.5-.2c.1.8-1.2 2.1.7 2.2-.1.9-.3 1.7-.4 2.6.1.1.1.2.2.3.7 1.9-.4 2.4-2.2 2.4.2-2.6.4-5 .7-7.5h1zM80.5 1.1c-.7-.4-1.4-.9-2.1-1.3h10.7c-2.4.7-4.8 1.4-7.2 2-.5 0-1-.5-1.4-.7-.1-.1 0 0 0 0zM-46.8 48.5c1.1-.7 2.1-1.4 3.2-2.1.3.2.5.3.8.5-.7 1.3-1.4 2.6-2 3.9-.7-.4-1.3-.8-2-1.2v-1.1zM265.1 256.6c-1.8-.5-3.6-1-5.5-1.6 2.1-.8 4.2-1.5 6.2-2.3-.4.5-1 1.1-1.5 1.7.9.8 1.7 1.5 2.4 2.1-.5.1-1 .1-1.6.1zM274.8 256.6c-2-1.7-4-3.3-5.9-4.9 1.4-1 4.8 1.2 6.9 4.9h-1zM295.6 70.9v-.5.5zM258.8 111c-.2.8-.3 1.5-.5 2.1 3.3.4 4.1 6.7 8.9 3.8-.2-.7-.3-1.4-.5-2.1.1-.1.2-.1.3-.2.5.6 1 1.3 1.3 1.8-.7 2.1-3.8 2.2-3.2 4.9-.8-.3-1.6-.8-2.4-.9-.8-.1-1.8 0-2.6.2-.4.1-.9 1.2-.7 1.5.3.6 1 1.3 1.7 1.5 1.7.4 3.5.5 5.2 1.3-2.3-.1-4.7-.2-7.1-.3-.4-2.3-1.6-3.2-3.7-4-1.5-.5-2.4-2.9-3.5-4.5l-.1-.1c.2-.6.7-1.4.5-1.8-1.2-2.3-2.5-4.6-3.8-6.8 2.9 1.8 3.7 5.4 5.8 7.2 1.1-.7 2.1-1.4 3.2-2.1-1.1-.6-1.8-1-3-1.7 1.9.1 3 .1 4.2.2zm1.3 8.2c1-2.4.3-3.7-2.1-3.9-.5 0-1.5.3-1.6.7-.2.5.2 1.5.6 1.8 1 .6 2.1.9 3.1 1.4zM68 58.1c-2.4 4-2.4 8.2-.7 12.5l.1-.2c-2.2 1.9-4.4 3.8-6.5 5.6 1.3 1.6 2.6 3.2 4 4.9-2-1.4-3.9-2.9-5.9-4.3-.2-.1-.7.3-1.1.4.9-1 1.8-2 2.8-2.9 1.1-1 2.4-1.8 3.8-2.9-3.7-1.7-7.3-3.4-10.8-5 .1-.3.2-.6.4-.9.8.3 1.5.7 2.3 1 2.4.9 4.7 1.9 7.2 2.6.4.1 1.5-1.2 1.7-1.9.4-2.3.4-4.7.8-7.1.2-.7 1.2-1.2 1.9-1.8zM259.8 30.3c-.8-1-1.4-2.2-2.3-3-2.7-2.5-3.1-4-1.5-6.5.5 3.4 2 5.8 4.5 8.2 2.2 2.2 4.1 4.1 7.3 3.8v.9c-.7.3-1.5.6-2.2.9l.1-.1c-.9-.4-1.8-.5-2.6-1.1-1.2-1-2.3-2.1-3.4-3.2l.1.1zM238.3 108.9c-1.1.5-2.2 1-3.4 1.6.2.8.5 1.9.8 3-1.3-2.2-2.9-4-5.9-2.9-.4.1-1-.2-1.5-.3l.1.1c-.1-.1-.3-.2-.4-.3v-1c2.8-.4 5.6-.8 8.4-1.1.7.3 1.3.6 1.9.9zM164.8 107.8c-.7-1-1.5-2-2.2-3 .2-.1.4-.3.6-.4.4.6.9 1.1 1.4 1.7 2-1.8 4-3.6 6-5.5l.5.5c-1 1.2-2 2.3-3.2 3.7 1.3.4 2.1.6 3 .9 0 .3-.1.6-.1.9-1.2-.1-2.4-.3-3.3-.3-1.1.5-2 .9-3 1.3.2.1.2.2.3.2zM58.8 188.1c-.5.1-1.1.2-2.2.3 1.6-1.3 2.8-2.2 4-3.1-.1-.2-.2-.4-.3-.5-.8.1-1.6.2-2.4.2 2.7-1.5 5.4-3 8.1-4.4-.7 1.6-1.4 3.1-2.1 4.7-1.2.6-2.3 1.3-3.5 1.9-.5.2-1.1.5-1.6.9zM-7.8 9.5c-2.9 1.1-2.8-2.4-4.6-3.1-.4-.1-.6-.6-.9-1v.1c1 .5 2 1.1 3.1 1.4 1.1.3 2.2.5 3.4.5.8 0 1.5-.3 2.3-.5L-6.3 9c-.5.2-1 .3-1.5.5zM180.9 66.1v1.1c-1.3.2-2.7.7-3.1-1.4-.1-.4-1.3-.6-2-.9.2-.4.3-.8.5-1.2l1.5-1.5c.2.5.5 1.3.7 1.3 2-.2 2.5.9 2.4 2.6zM220.8 64.7c.2.3.5.6.5.7-1.6 1-3 1.8-4.5 2.7 1.2-1-2.7-3 .7-3.5 1.1.1 2.2.1 3.3.1zM-14.8 29.2c-.4.6-.8 1.7-1.1 1.7-2.4-.2-3.4.4-2.3 2.9 0 .1-.2.2-1.2.3.1-1.3.2-2.5.4-3.8 1.4-.4 2.8-.7 4.2-1.1zM236.9 73.3c1-.3 2-.6 3.3-1v4.1c-.2.1-.3.1-.5.2-.4-.8-.7-1.7-1.1-2.5-.9-.1-2.1 2.4-2.9-.2.5-.2.9-.4 1.2-.6zM92.6 33.7c-.5.9-1.1 1.9-1.3 2.4-1.2.2-1.9.4-2.6.5-1.3-1.4-.6-2.2.9-2.6 1-.3 2-.3 3.1-.5l-.1.2z"/><path d="M-13.3 5.5s.1-.1 0 0c-.4.1-.9.2-1.3.3-.2.1-.3.2-.5.3l-.6-.8c1.3-1.2 2.4-2.4 3.6-3.3.6-.5 1.5-.7 2.3-1-.1.4 0 1-.2 1.2-1.1 1.2-2.2 2.2-3.3 3.3zM175.8 64.9c.2.3.7.6.6.8-.7 2.4-1.5 4.8-2.7 7 .5-2.4 1-4.7 1.6-7.1.1-.2.3-.4.5-.7zM166.6 174.5c.1.1.3.1.4.2-.1 0-.2 0-.2-.1s0-.1-.1-.2l-.1.1zM294.2 69.5v.2l.1-.1zM223.7 32.5l.1.1-.1-.1zM244.4 163.9c1-1.5 2.1-3 3-4.2 5 5.3 9.7 10.3 14.4 15.4-1.4 1.8-3 .8-3.7-.3-3.3-5.1-9.5-6.4-13.7-10.9zM182.8 194c-.2 1.3-.5 2.6-.7 4-3.4-1.5-5.9 1.2-8.6 2.6-3.2 1.7-4.3 1.7-4.8-1.9-.8-6-3.2-11.4-6.4-16.4.9.6 2.1 1 2.6 1.9 2.7 4.5 4.4 9.3 4.7 14.5.2 2.3.9 2.5 3 1.4 2.7-1.5 5.6-2.7 8.8-4.1.3-.5.8-1.2 1.4-2zM215.8 185.4c3.5-3.6.9-7.3.7-11.1.4.8 1 1.6 1.1 2.4.3 2.3 2.5 2.1 3.1 1.4 1.3-1.5 2.7-.8 4-.8 2.1 0 4.3.1 6.4 0 2.1-.2 4.1-.7 7.1-1.3-2.2 1-3.9 2.2-5.6 2.4-3.1.5-6.4.4-9.5.6-2.3.1-4.1 2.2-4.6 4.4-.2 1-1.2 1.7-1.9 2.6-.3-.2-.6-.4-.8-.6zM267.7 140.7c-1.9 2.1-3.5 3.1-6.6 1.1-3.3-2.2-7.6-2.8-11.3-4.1v2.6h-.5c-.2-1.1-.5-2.3-.8-3.9 1.3.2 2.3.3 3.3.6 2.3.6 4.6 1.3 6.9 2 1.5.5 2.9.8 2.7-2.2.2.2.5.4.7.6.2 1.3.2 2.6.7 3.7.2.5 1.5.9 2.2.8.9-.1 1.8-.7 2.7-1.2zM279.8 199.2c0-.4-.3-1.1-.1-1.2 1.4-.9 1-1.8.1-2.8-.2-.2-.1-.8.3-1.3.6.8 1.1 1.6 1.7 2.5.1 0 .2-.1.2-.1-.2-.5-.3-1-.5-1.6.9.1 1.7.1 2.5.2v11.2h.1c-.4.1-.8.2-1 .2-.2-1.5-.1-3.9-.5-4-2.9-.5-.9-2.5-1.4-3.9-.5.3-1 .5-1.4.8zM262.4 133.6c.9.1 1.9.2 2.8.2.5-.2 1-.4 1.5-.7 0 .4.2 1.2 0 1.3-1.6.7-3.2 1.5-4.9 1.9-.5.1-1.2-.7-1.9-1.1.4-.3.8-.5 1.3-.8.5-.2.8-.5 1.2-.8zM236.6 165c-.5.6-.9 1.7-1.4 1.7-1.7 0-3.5-.2-5.2-.5-1.6-.3-4.4-5.1-4.2-6.7 1.8 4.4 6.7 6.9 10.8 5.5zM263 210.5c-2.3-3-4.6-5.9-7-8.9-.2.2-.4.4-.6.5 2.9 2.4 5.7 4.9 8.6 7.3-.3.4-.6.7-1 1.1zM203.1 195c-1.3 2.3-2.6 4.5-3.9 6.8.7.9 1.5 1.8 2.2 2.8-.2.1-.3.3-.5.4-.7-1-1.4-1.9-2.3-3.1-1.7 1.5-2.9 2.6-4.1 3.6.4-.7.7-1.6 1.2-2.2 2.1-2.6 4.3-5.2 6.5-7.8.2-.2.6-.3.9-.5zM284.1 206.1c1.7 1.5 3.4 2.9 5.2 4.4 1.6 1.3 3.3 2.6 4.6 4.3-2.9-1.9-6-3.7-8.8-5.8-.7-.5-.7-1.9-1-2.9.1 0 0 0 0 0zM275.1 143.3c.8-3.3 1.5-6.8 2.2-10.2.4.1.7.2 1.1.3-.6 3-1.2 6.1-2 9.1 0 .3-.8.6-1.3.8zM261.1 181.6c-.9 1.7-.9 1.7-6.3 1.6.8-1.1 1.5-2 2-2.6 1.7.4 3 .7 4.3 1zM265 169.8c-.3 2.3-.6 4.6-1 7.4-2.4-2-2-3.7 1-7.4.1.1 0 0 0 0zM257.3 149.3c.2-1.3.4-2.6.6-3.8.3 0 .7-.1 1-.1-1.1 3.8 2 4.4 3.7 6.4-1.4-.8-2.9-1.7-4.4-2.5-.2-.2-.6-.1-.9 0-.1 0 0 0 0 0z"/><path d="M186.2 195.6c-1.2-.5-2.4-1.1-3.5-1.6.5-3.1 1-6.2 1.5-9.2.4.1.7.1 1.1.2-.4 1.2-.7 2.4-1.1 3.6-1.3 4.3-1.3 4.3 2 7zM262.4 133.6l-1.2.9c-1.2-.5-2.4-.8-3.5-1.4-.7-.3-1.2-1-1.8-1.5 2.2.3 4.4.6 6.8 1 .1.1-.1.6-.3 1zM273.8 141.1c-2.8-1-5.6-1.9-8.4-2.9l.3-.9c2.8 1 5.6 2.1 8.3 3.1 0 .2-.1.5-.2.7zM226.9 216.9c-2.4-2.1-4.9-4.2-7.3-6.3.2-.2.3-.4.5-.6 2.5 2.1 4.9 4.1 7.4 6.2-.2.2-.4.4-.6.7zM216.6 166.6c-.4-.2-.9-.5-1.7-1 1.5-1.6 2.8-3 4.1-4.4.2.1.3.2.5.4-.5.7-1.1 1.3-1.5 2.1-.6.7-.9 1.6-1.4 2.9zM236.7 165c.7-1.4 1.8-1.3 3.1-.8 1.2.5 2.4.7 3.7 1.1 0 .3-.1.5-.1.8-2.3-.3-4.5-.7-6.7-1.1-.1 0 0 0 0 0zM279.8 199.2l-3 1.5c-1.4.7-2.8 1.5-4.4 1.8 1.3-1 2.6-2.1 4-2.9 1-.6 2.1-2.2 3.4-.4zM192.1 181.3c2.5-.3 4.9-.6 7.1-.9-1.9 2.1-4.8 2.5-7.1.9zM70 236.2s.1 0 0 0c-4.1.5-8.1.6-12.5-1.2l1.6-.8c0-.2-.1-.3-.1-.5-1 .2-2 .5-3 .8-.5-1.4-1.5-1.6-3-.8-1.8.9-3.7 1.5-5.3-.8-.2-.3-1.9-.1-2.6.4-1.2.8-2.4 1.9-3.2 3.1-1.1 1.7-1.8 3.6-3.2 5.4.4-1.7.7-3.4 1.3-5 .5-1.1 1.5-1.9 2.3-2.9.3-1.3.6-2.5.9-3.8l-.1.1c2.1.6 4.1 1.5 6.2 1.7 1.6.2 3.4-.4 5.1-.6v-3.2c.3 3.4 3.3 4 5.5 5.1 1.8.8 3.9.9 5.8 1.4 1.3.3 2.1 0 2.3-1.4.5-3.5 1-7 1.4-10.3 1 1.2-1.3 4 2.3 4.5-3.3 1.5-1.8 4.6-3.2 7.5H79c-1.5.9-2.3 1.4-3.5 2.1 3.3-.7 7 .7 9.2-4 .5 1 .9 1.7 1.5 2.9 1.2-1.8 2.6-3.1 3.1-4.6.7-2.1-.1-4-3-4.5l.6-.6c1 .4 2.1.7 3.4 1.2.2-.9.5-1.7.6-2.5.2-1.6.5-3 2.4-3.5.6-.2 1.6-.8 1.6-1.3.1-3.2 2.4-2.5 4-2.1 2.3.5 3.6-.4 4.9-2.2.6-.9 1.8-1.9 2.8-2 2.8-.4 4.8-1.4 5.1-4.5.8 2.6-.8 4-2.9 5.3.4 1 .9 2.1 1.5 3.6-.9-.6-1.6-.9-1.9-1.3-1.6-2.1-2.7-2.4-4.3.1-2 3-4.4 3-7.3 2.2-.3.7-.5 1.6-1 2-3.5 2.5-3.8 6.4-4.6 10.1-.5 2.6-3.8 5.5-6.8 5.9-.9.1-1.7.7-2.6 1.1-.3.1-.6.3-.9.3-2.2 0-4.3 0-6.5-.2-.8-.1-1.6-.8-2.4-1.1-.5-.7-1.3-.9-2-1.1zM-4.5 251.6s-.1.1 0 0c1.2-1.4 2.4-3.2 4.8-3.1.3 0 .6.4 1 .7 4.2-2.2 4.7-3 6.4-9.5 3.5-1.7 6.6-3.2 10-4.8.2-.9.2-2.4.7-3.6.6-1.2 1.8-2.1 2.5-2.9-.1-1.7-.3-3.4-.4-5.1 3.9 3.1 3.7 7.9-.5 10.4.3.6.6 1.3 1 2.2 2.6-.8 5.3-1.6 8.2-2.4-.1-2 4.3-3.3 2.4-6.8 1.4-.9 1.7-2.2 0-3.7 7.1 1 10.1-3.6 12.1-8.7v8.4h-.8c-.3-.8-.5-1.6-.8-2.4-.3 0-.7-.1-.8 0-1.9 2.2-4 4.1-7 4.8-.2.1-.5.6-.5.9-.3 2.1-.5 4.3-.7 6.4-2.3 2.4-5.6 2.6-8.5 3.8-2.9 1.2-6 2.1-9 3.1-2.8.9-6.1 1.7-7.5 5.5-1.1 3.1-3.4 5.9-7 7.7.3-.6.5-1.1 1-2.1-2.7.8-4.9 1.5-7.3 2.2.4-.3.5-.7.7-1zM138.9 205.5c-.6 1.2-1.3 2.3-1.6 2.9l5.2 5.2c1.1-.7 2.2-1.4 3.5-2.2-.3-.9-.6-1.7-1-2.9 1.1.3 1.9.5 2.7.8.5.2 1.1.7 1.2 1.1 0 .6-.3 1.4-.7 1.7-1.8 1.2-3.8 2.2-5.5 3.1-1.7-.9-3.5-1.8-5.5-2.8.4-.3 1.1-.6 1.7-1-.2-.3-.6-.8-.6-.8-2 1.2-4.6 0-6.4 2.3-3.3 4.2-7.5 7.5-12.7 8.6-.6 3.5-1.1 6.9-1.7 10.2-.5 2.9-1.3 5.7-1.5 8.6-.1 1.4.8 2.9 1.3 4.4l.1-.1c-5 1.5-9.6-1.8-14.5-.5-.1-.3-.1-.6-.2-1 .7-.4 1.6-1.2 2.2-1.1 2.3.3 4.7.8 6.9 1.6 2.1.7 2.8.3 2.9-1.9.2-3.1.7-6.1 1.1-9.2.3-2.2.9-4.4 1.2-6.6.1-.4-.7-1-1.1-1.6 2.4-.4 2.2-2.1 1.7-3.8-.2-.8-.7-1.7-.7-2.5-.1-4.3-.1-4.3-3.8-5 0-.1 0-.2.1-.2.9-.2 1.9-.5 3.4-.9.6 2.5 1.1 5 1.7 7.7 1.7-.4 3.9-.4 5.3-1.4 2.7-1.9 5-4.3 7.4-6.6 2-1.9 4-4 6.1-5.9.4-.2 1.2-.1 1.8-.2zM160.6 240c-.3.3-.7.5-1.2 1 1 .6 1.7 1.3 2.6 1.6.9.3 2.4.7 2.8.2 2.7-2.9 7.1-1.1 9.9-3.7.1-.1.8.3 1.1.4-2.1 1-4.1 1.9-6.2 2.9.4.5.7.9 1 1.5-.5.3-.9.7-1.2.6-3.7-1.3-8 .7-11.7-2-1.4-1-4-.2-6-.3-.1-1.7-.2-3.5-.3-4.9 2.8 3.6 3.2 3.7 4.4 2.2 1.9.2 3.3.4 4.8.5zM117.4 244.7l-.1.1c1.7.5 3.5 1.5 5.2 1.5 2.4-.1 4.8-1.1 7.3-1.7 2.5.9 4.9 1.8 7.4 2.8.8.3 1.3 1.1 1.8 1.9-5.1-2.8-10.3-3.3-15.8-1.6-1.2.4-2.6.1-3.6.1-1.7 2.6-3.3 5.2-4.9 7.7-.3-.1-.5-.2-.8-.3.3-.7.4-1.6.8-2.1 2.4-2.4 3.3-5.2 2.7-8.4zM117.4 197.7l-.6 2.7c-.2 0-.4-.1-.6-.1-.4-.9-.8-1.7-1.5-3.3-2 1.4-3.9 2.6-5.8 3.8-1.4.9-2.9 1.7-4.4 2.4-.4.2-1.2-.5-1.7-1.1 4.2-.9 4.9-1.6 6.2-6.8.5.7 1 1.3 1.4 1.9 2-.6 4-2 5.8.4.1.3.8.1 1.2.1 0 .1 0 0 0 0z"/><path d="M92.7 231.1c1 .7 2 1.4 2.9 2.1-.1 2.4-3.2 4-2.2 6.9H82.3V239c1.7 0 3.4.1 5.1 0 1.6-.1 3.8 0 4.5-.9 2.7-3.6 2.5-4.5.8-7zM101.8 199.4c-1.8 1.6-3.5 3.4-5.4 4.9-1 .7-2.3 1-3.5 1.3-.3.1-1.3-1.2-1.1-1.5.4-.8 1.1-1.6 1.8-1.9 1-.4 2.2-.2 3.3-.4.5-.1 1.4-.5 1.5-.8.6-2.7 2.1-1.9 3.4-1.6zM111.2 221.5c.5.8 1.2 1.8 2.2 3.3-1.1.4-2.3.9-3.5 1.5-2.5 1.2-4.9 2.5-7.3 3.9-.5.3-.5 1.6-.5 2.4-.1.8 0 1.6-.2 2.3-1.3-3.8-1.1-4.6 2.2-6.9 1.6-1.1 3.6-1.6 5.1-2.8 1.1-.8 1.4-2.4 2-3.7zM81.1 216.9c-2.8-1.8-3.2-8.8-.1-11.1.1 4 .1 7.6.1 11.1zM128.7 242.5c-1.1-1.2-.2-1.8.7-2.5 2.7-1.9 5.4-3.7 8.1-5.7.7-.5 1-1.6 1.6-2.5.3.2.9.5 1.5.8-1.6 1.3-3.3 2.6-4.9 4-2.4 1.9-4.7 3.9-7 5.9zM155.4 225.1c.6.4 1.1.7 1.7 1.1.8.5 1.5 1.3 2.4 1.5 2.7.8 5.5 1.3 8.5 2-.9.8-1.6 1.4-2.3 2.1-.4-.7-.6-1.9-1.2-2.1-2.5-.7-5-1-7.5-1.5-.5-.7-1-1.9-1.6-3.1zM57.3 221c-1.7 1.1-3.3 2.3-5 3.2-2.2 1.2-4.6 2.1-6.9 3.2-.1-.3-.3-.6-.4-.9 4.1-1.9 8.2-3.7 12.3-5.5zM81.1 217c1.2 0 1.8.4 2.2 1.8.3 1.3 1.3 2.4 1.9 3.6.4.8.4 1.7.6 2.6l-.9.3c-1.2-2.8-2.5-5.6-3.8-8.3 0-.1 0 0 0 0zM154.2 228.4c1 1 1.9 2.1 2.8 2.9-.6 1.3-1.2 2.4-2 4.2-.4-2.7-.7-4.6-1-6.6 0-.1.1-.3.2-.5zM106.7 212.3c-.6-.7-1.1-1-1.1-1.3.2-2.1.4-4.2.7-6.3.1-.3.5-.7.9-.9.1-.1.7.3.7.5 0 .3-.4.6-.5.9-.2 2.2-.4 4.4-.7 7.1zM57.3 221c1.2-.4 2.5-.8 3.5-1.1-.2 1-.8 2.5-.5 3.8.2.8 1.9 1.2 2.7 1.7-.9 0-2.1.1-3.7.2-.1-1.2-.2-2.4-.3-3.7-.3-.2-1-.5-1.7-.9z"/><path d="M152.7 225.4c.1-1.1.3-2.1.4-3.2 1 1.2 1.7 2 2.3 2.8.1.7.3 1.3.4 2.2h-3.3c.2-.6.4-1.2.5-1.7 0 0-.1-.1-.1-.2 0 0-.1 0-.2.1zM106.4 193.8c-.3-3.2-.6-6.5-1-9.7 1.7 3.1 2.5 6.3 1 9.7zM139.9 198.3c-.2 2.3-.4 4.5-.6 6.8-.4-1.1.4-3-1.9-2.6-.1-.5-.4-1.2-.2-1.4.9-1.1 1.8-2 2.7-2.8zM140.4 232.6c.2-.5.3-1.4.7-1.5 2.2-.9 4.4-1.5 6.6-2.3-2.4 1.2-4.9 2.5-7.3 3.8zM82.5 197.6c.7-3.5 1.5-6.9 2.2-10.4.2 0 .4.1.6.1-.7 3.5-1.4 6.9-2.1 10.4-.2 0-.5 0-.7-.1zM20.6 223.5c-.3-.6-.6-1.1-1-1.7 1.6-.7 3.2-1.4 4.7-2.1-1.2 1.2-2.4 2.5-3.7 3.8zM93.7 213.2c.4-2.3.8-4.4 1.3-7 .8 5 .3 7.1-1.3 7zM43.5 230c-1.8-2.1-1.4-3.7 1.9-6.2-.7 2.2-1.4 4.3-1.9 6.2-.1.1 0 0 0 0zM92.1 197.6c-.9-2.1-1.9-4.3-2.8-6.4.3-.1.7-.3 1-.4.8 2.2 1.6 4.4 2.4 6.7-.3 0-.5.1-.6.1zM159.6 207.3c.5.8.9 1.7 1.4 2.6-1.9 3.3-5.2 4.5-8.4 6.1-1.2.6-2.3 1.5-3.4 2.3V216c-.5.2-.9.3-1.3.4 0-.2 0-.5.1-.6 1.8-1.5 2.9-3.8 5.8-4 1.4-.1 2.6-2.2 3.9-3.3.6-.5 1.4-.8 1.9-1.2.1.1 0 0 0 0zM216.2 242c-1.9-.5-4-.8-5.8-1.6-4.6-2.2-9.1-4.9-14.7-3.9 0-.2.1-.4.1-.7 1.3-.1 2.5-.2 3.9-.2-.3-1.9-.7-3.7-1-5.5.1 0 .2 0 .4-.1.1.4.1.9.2 1.3.6 2.7 1.6 4.5 4.8 5.5 4.2 1.1 8.1 3.4 12.1 5.2zM146.9 224.1l-3-3c-.2-.2-.4-.7-.7-.7-3.1-.7-1.4-2.4-1-4.3 1.1 2.6 1.7 5.2 4.8 5.2.1.8 0 1.6-.1 2.8zM173.1 249.7c2.6-.9 4.5-2.3 5.7.8-.4.5-.9 1.2-1.4 1.8-1.4-.7-2.6-1.5-4.3-2.6zM138.5 227.4l-8.7-3c3.3-.4 6.4 0 8.7 3zM238.3 108.9c-.6-.3-1.3-.6-1.9-1-.6-.6-1.1-1.2-1.8-1.9.3-.1.7-.3.8-.2 3 2.4 6.6 1.1 10 1.7.6.1 1.4-.7 2.1-1 .2 3.4-1.3 6.3-3.2 8.9-.6-.5-1.2-.9-1.3-.9.4-1.5 1-2.7.9-3.9-.1-1.6-1.5-2-3-1.7-.8.1-1.7 0-2.6 0zM258.7 111.1c.5-.7.9-1.3 1.4-2 .7-1.1 1.5-2.1 2.2-3.2-.2-.3-.4-.7-.6-1-2.7.6-5.5 1.2-8.2 1.6-1 .1-2-.5-3-.8 1.6-.2 3.2-.4 4.8-.7.9-.1 1.8-.5 2.6-.4 4.8.7 7-1 9.3-6 0 .6.3 1.5 0 1.9-2.1 3.4-4.4 6.7-6.7 10-.4.5-1.3.4-1.8.6zM248.2 88.9c-4.1-2.7-8.1-5.5-13.7-6.1 4.2-2 6.8.7 9.7 1.9 1.9.7 3.6 1.8 5.5 2.8-.4.4-1 .9-1.5 1.4zM241.3 71.1c2.5-.3 5.1 2.1 5.6 5-1.8-1.6-3.6-3.2-5.6-5zM275.7 108.2c-2.9-1.6-4.2-4.6-4.2-8 1.4 2.6 2.9 5.5 4.2 8zM276.2 96.2c.9.6 2 1 2.8 1.7 1.6 1.7 3 3.6 4.1 5.8-2.3-2.5-4.5-5.1-6.9-7.5.1-.1 0 0 0 0zM269.9 115c2.7-1.3 5.5-2.7 8.2-4 .1.3.3.5.4.8-2.8 1.3-5.5 2.6-8.3 3.9-.1-.3-.2-.5-.3-.7zM224.8 101.1c1.7.3 3.5.7 5.4 1.1-.3.3-1 1.3-1.4 1.2-1.5-.4-2.9-1.1-4.3-1.8.1-.2.2-.3.3-.5zM246.1 70c1-.1 2.1-.2 3.1-.2v1c-1.1.3-2.3 1.5-3.1-.8.1 0 .2-.1.2-.1l-.2.1zM-28.8 169.7c-1.8 1-3.5 2-5.5 3.1.7 1.2 1.3 2.1 1.9 3.1-1.7 2.1-2.8 2.1-6.6-.4 3.1-2.6 5.3-6.4 9.8-6.5.1.2.3.5.4.7zM-17.8 160.1c-.9-1.2-1.9-2.6-2.9-4.1.2-.2.4-.3.6-.5 1.6 1.9 3.1 3.8 5 6-3.5 2.2-6.8 4.2-10 6.2-.2-.3-.4-.5-.6-.8 2.5-2.1 5.1-4.4 7.9-6.8zM-39.9 164.8c-.3-1-.6-1.8-.8-2.6l.6-.3c.6 1.1 1.1 2.2 1.9 3.6-2.3 1.2-4.4 2.3-6.5 3.4-.2-.3-.4-.6-.5-.9 1.6-1.1 3.4-2.1 5.3-3.2zM-15.6 157.7h4.8c-1.8 2.6-3.3 2-4.9.9 0-.3.1-.6.1-.9zM28.1 242.9c.6-2.4 1.1-4.5 1.8-7.4.2 1.5.7 2.6.5 3.5-.2 1.1-1 2.1-1.5 3.2 4.4 1 4.9 4.2 5 7.6 2-.8 3.7-1.5 5.6-2.2-.2-.9-.4-1.8-.6-2.8 1.2 2.5 2.3 2.6 4.7 1.2 2-1.2 4.7-1.3 7.4-1.5-.6.5-1.2 1.2-1.9 1.4-5.9 1.4-11.7 3-16.4 7.3-.8.7-1.9 1.1-3.1 1.5 2-1.7 3.6-3.4 3.4-6.4-.2-3.1-2.1-4.4-4.9-5.4zM25.4 245.1c-1 2.4-2 4.9-2.9 7.1-1-1.5-1-1.5 2.9-7.1zM232.7 1.9c1.2 1.1 2.3 2 4 .5.6-.5 1.7-.3 2.5-.5-2.2 1.2-4.4 2.5-6.7 3.8.1-1.7.2-2.7.2-3.8zM282.3 82.3c1.3-4.1 4.3-6.3 7.8-8l.6.6c-.6.4-1.2.8-1.8 1.3-1.7 1.6-3.3 3.3-5 4.9-.4.5-1.1.8-1.6 1.2 0-.1 0 0 0 0zM-32 16.8c.9-.6 1.6-1.1 2.9-2.1.7 1.6 1.4 3.2 2.1 4.7-1.8-1-3.4-1.8-5-2.6zM.9 181.3c.5 4.9-2.7 3-4.9 3.1-.3.8-.5 1.5-.8 2.3.7.5 1.3.9 2 1.3 0 .1-.1.2-.1.4-.8-.1-1.5-.2-2.7-.4-.2 2.4-2.6 4.5-.8 7-.6.4-1.7.7-1.7 1.1 0 1.7-1.8 3.5 0 4.8-.8.5-1.8 1.1-3 1.8-.2-.9-.3-2-.5-3.2-1-.1-2-.2-3.1-.3 0-.2-.1-.4-.1-.5 1.4-.4 2.8-.7 4.6-1.2-1-4.3-1.9-8.6-2.9-13.1 3.6 2 3.9 1.9 4.8-1.8.4-1.6.8-3.2 1.6-4.1 1.3-.6 2.7-1.2 3.9-1.9 2.4-1.4 4.8-2.9 7.1-4.5.5-.3.8-1 1.2-1.5 2.5.6 5.4 1.2 8.6 2-3.4.3-6.7-.1-9.5.9-2.8.9-5.2 3.1-7.5 5.3H.9c1 .9 2.5 2.2 3.9 3.5 0 .1-.1.3-.1.4-1.1-.5-2.2-.9-3.8-1.4zm-5.2-1.7v3.3c4.2 1.3 4.2 1.3 4.2-2.6-1.4-.2-2.8-.4-4.2-.7zM70.6 132.7c3.4 2.2 4.8-1.8 7.6-2.5-.6-.1-1.2-.2-1.7-.3 0-.3-.1-.6-.1-.8.8 0 1.6-.3 2.3-.1 3.2 1.2 6 .6 7.9-1.7 1 2.7-.1 4.4-2.9 5-2.4.5-3.4 2.3-2.6 4.9-1.8.2-3.6.5-5.4.6-1.6.1-2 .8-2 2.4.1 2.1-.4 4.1-.7 6.8-2.1-1.8-3.4-2.8-.7-4.3.6-.4.7-1.7.9-2.6.2-1.2.2-2.4.3-3.6 1.6-.2 3.6 1.5 4.4-.9-2.6-1.2-5-2.1-7.3-2.9-.1-.1 0 0 0 0zM36 148.6c-2.4-.1-4.4 1.7-5.2 4.8-1-.1-2.1-.2-3.2-.3-.1-.2-.3-.4-.4-.7.7-.6 1.4-1.1 2.1-1.7 1-.8 1.9-1.6 2.9-2.5 1.5-.5 3-1 4.5-1.6 0-.2-.1-.5-.1-.7-1.5-.2-2.9-.4-5.1-.8.3 1.3.5 2.2.8 3.1-1.9.1-4.1-.8-5.3 1.8-.2.5-1.8.4-3 .6.9-1.7 1.5-2.8 2.3-4.5.5 0 1.6.1 2.8 0 .5-.1 1.2-.4 1.4-.8.2-.4-.1-1.3-.4-1.6-.9-.8-2-1.4-3-2 .3-.4.6-.9.9-1.3 3 5 7.6 3 11.6 3.1 2.7.1 3.2 1.4 4 3.1-2.3 1.9-5.6-.5-7.6 2-.1.1 0 0 0 0z"/><path d="M66.7 148.5c-1.6 1.5-3.3 3.1-4.9 4.6-.5-.4-1.3-1.4-1.5-1.3-1.1.6-2.4 1.3-2.8 2.3-1.1 2.4-.6 5.4-3.2 7.1-.2.1-.5.2-1.1.2 2-2.9 3.7-5.7 1.6-9.1 2.9-.9 5.5-1.9 8.1-2.5 2.1-.5 2.4-1.6 2.2-3.4-.4-3.1-.8-6.1-3.7-8l-.1.1c1.4.6 2.8 1.2 4.1 1.9 1.8 1 2.5.7 2.9-1.5.4-2.1 1.6-4.1 2.4-6.2 0 0-.1 0-.1-.1.5 1.2.9 2.5 1.4 3.8-2.7 0-2.9 2.1-2.8 4.3 0 1.1.5 2.3-1.5 2.3-1.4 0-1.9 3.4-1 5.5zM25.1 164.3c.7.4 1.4.7 2.1 1.1-1.2.9-2 1.4-2.6 2.1-1.6 1.7-3.1 3.5-5.9 3.1-.6-.1-1.8 1.2-1.9 2-.7 4.7-3.5 8-6.8 11.1-1.3 1.2-2.1 3-3.1 4.4-1.5 2.1-3.1 4.1-5 5.8 3.8-4.4 5.4-10.3 10-14.4 2.6-2.2 3.4-6.5 5.1-10.2 3.6.6 6.5-1.2 8.1-5zM64.4 119.6c.1.4.4 1 .3 1.2-2 2.4-4.3 4.3-7.7 4.4-.2 0-.5.2-.9.5.2 1.1.4 2.3.7 3.7 1.4-.3 2.5-.6 4.2-1.1-1.6 1.6-4.8.4-3.9 4-1.5-1-2.4-1.6-3.6-2.5.9-.4 1.5-.6 1.7-.7-.8-2.4-1.6-4.8-2.5-7.2-.2-.7-.6-1.3-1-1.9-.5-.7-1.2-1.4-1.7-2.1 2.4-1.3 2.9-1.2 4 1.8.6 1.6.9 3.3 1.4 5 .7-.3 1.5-.8 2.3-1 2.1-.4 3.9-1.1 4.9-3.2.2-.4 1.2-.5 1.8-.9zM18 151c.8.5 1.4.9 2.1 1.3-2.1 3.4-4.9 5.5-8.6 5.2-.7 2-1.3 3.8-2.1 5.6-.1.2-1.5-.3-2.7-.6 2.3-1 2.6-2.1 2.2-6.6 2.4-.3 4.8-.7 7.2-1 0-.2 0-.4.1-.6-1.3-.4-2.5-.8-4.1-1.2 1.9-1.6 5.3 2.2 5.9-2.1zM39.5 131.9c-.2 1.7-.4 3.3-.7 5.1 3.9.8 5.4-3.3 8.8-4.5-.4.9-.8 1.7-1.2 2.4l2.4 3.9c-.1.2-.3.4-.4.5-1.1-.9-2.2-1.8-2.8-2.3-4.5 1-8.6 1.9-12.7 2.8-.1-.3-.2-.5-.2-.8 1.5-.5 3-.9 4.9-1.5.3-1.7.6-3.6 1-5.6h.9zM25.1 164.3c-1.1-1-2.1-1.9-3.3-3-.3.1-.9.4-1.5.7.3-1.6.6-3 .9-4.6.8.4 1.5.9 2.1 1.2 1.6-1.6 3.2-3.1 4.7-4.6.2.2.5.4.7.5-1.3 2-2.7 4.1-4.1 6.3.8-.1 1.5-.2 2.6-.3-.8 1.5-1.4 2.6-2.1 3.8zM61 167.3c-1 2.1-1.7 4.3-3 6.1-1.9 2.5-4.2 4.7-5.9 6.5-2.1-.8-3.4-1.3-4.8-1.8v-.3h4l.3-2.1h.4c.2.5.3 1.1.5 1.8 2-2.4 3.9-4.8 5.9-7.3-.9-.2-1.3-.4-2.5-.7 2.3-1.1 3.9-1.8 5.1-2.2zM80.5 119.4c-1.4.1-2.8.3-4.3.4-1.4.1-2.2.4-1.8 2.3.4 2.2.1 4.5.1 7.5-.9-1-1.3-1.6-1.8-2.1l-3.2.8c1.4-1.6 2.6-2.6 3.1-3.8.5-1.3.4-2.9.6-5 1.9-.4 4.4-1 6.9-1.6.2.6.3 1 .4 1.5zM61.2 138.4c-.8.3-2.3.5-2.3.8-.1 2.5-2.3 3.2-3.8 4.5-.8.7-1.3 1.7-2 2.6 0-.7-.4-2.4.1-2.7 3.8-2.2 5.3-5.4 5.4-9.8.9 1.6 1.7 3.2 2.6 4.6 0 .1 0 0 0 0zM46.4 169.3c.9-.2 1.8-.4 3.5-.8-1-1.1-1.7-1.9-2.5-2.7.8-1.5 1.8-3.3 2.8-5.1 1.1.8 1 .8.4 3.2-.3 1.3-.4 2.6-.4 3.9 0 1.4.2 2.7.2 4.2-.9-1.7-1.5-3.6-4.3-1.6.1-.4.2-.7.3-1.1zM26.5 181.8c-.9.1-1.8 0-2.6.4-1.9.8-3.7 1.7-5.5 2.6.9-.7 1.7-1.7 2.7-2.1 3.2-1.5 4.7-3.7 4.8-7.3.1-2.8 1.8-5.1 4.4-6.3l-.1-.1c-.5.9-.9 1.8-1.5 2.6-1.7 1.9-2.5 3.9-2 6.5.2 1-.1 2.4-.2 3.7zM50.1 139c2.5 2.1 2.3 1.9.6 3.8-1.3 1.5-1.6 3.7-2.6 5.5-.3.7-1.1 1.1-2.2 2 1.6-4.2 2.9-7.6 4.2-11.3zM35.9 156.8c-.6 1.9-1.2 3.9-1.8 5.7-1.9-2.8-4 1.9-6.5-.1 1-.5 1.8-1.1 2.6-1.3 1.9-.4 3.7-.7 3.5-3.3 0-.3 1.5-.7 2.2-1zM53.2 181.7c0 1.3.5 3.2-.1 3.8-1.5 1.3-3.5 1.9-5.4 2.5 1.2-2.3 5-2.8 4-6.6.6.1 1.1.2 1.5.3zM58.1 184.9c-1.8 1.9-3.5 4-5.6 5.6-1.1.9-2.7 1.1-4.1 1.7.5-.6 1-1.5 1.7-1.8 1.3-.6 2-1.4 2.8-2.7.9-1.4 3.4-1.9 5.2-2.8zM9.6 164.4c-1.3 2.8-4.1 2.8-6.6 3.1 1.7-2.1 4.5-1.9 6.6-3.1zM64.5 119.7c1.2-.1 2.4-.1 3.6-.2.7 0 1.4 0 2-.3.2-.1 0-1 0-1.6h2.1c-.4.8-.6 1.7-1.1 2.1-.6.5-1.6 1-2.4.9-1.4-.1-2.8-.6-4.2-.9zM30.3 168.9c-.7-.5-1.3-1.1-1.9-1.6 2.4-.3 4.6-.6 6.8-.9 0 .1.1.3.1.4-1.7.7-3.4 1.4-5 2.1-.1 0 0 0 0 0zM53.3 181.7c0-.2-.1-.5-.1-.5 1.9-1.2 3.8-2.4 5.5-3.4-2.5 4.8-2.5 4.8-5.4 3.9zM152.5 148.8c3.9-1.4 7.8-2.9 11.8-4.3.6-.2 1.4 0 2.1.1 2.4-4.6 14.4-11.4 16.8-9.2-3.8 2-7.6 3.9-11.5 6 .6 1.1 1 1.8 1.4 2.5l-.5.5c-.5-.9-.9-1.8-1.4-2.8-1.3 1-2.1 1.5-2.7 2.1-3.3 3.3-7.8 3.5-12 4.3-1.4.2-2.7.5-4 .8-.1 0 0 0 0 0zM134.1 107.4c-.3-.7-.7-1.4-1-2.1-.6-1.3-1-2.9-3.1-2.7-.5 0-1-.4-2-.8 1.7-.6 2.3-.9 3.6-1.3.5.3 1.6 1 2.7 1.7 1.1-.6 2.1-1.2 3.1-1.8.1.2.3.4.4.6-1.3.9-2.6 1.9-3.9 2.7.1 1.1.1 2.3.2 3.7-.1-.1 0 0 0 0zM153.7 121.3c-2.1 1.5-4 2.8-5.9 4.1.4.6.8 1 1.5 2-2.3-.9-3.9-1.6-5.5-2.2l.3-.6c2.2.9 5.5-.6 7.1-3.2.9-1.7 1.6-1.6 2.5-.1zM160.7 100.4c1.7-.5 3.4-.9 5-1.5 1.9-.8 6.4.1 7.2 1.6-3-.4-6-1.2-9 .2-.9.5-2.3 1.9-3.2-.3zM155.9 103.2c-3.5 3.2-7.4 2.8-10-1 3.1 2.8 6.5 2.1 10 1zM136 95.8c-1.2-1.6-2.3-3.2-3.7-5.1 2.2 1.2 4.2 2.3 6.7 3.7-.6.4-1.1.6-1.5.9-.4.2-.9.4-1.5.5zM127.5 100c-2.8.3-4.7 1.5-4.8 4.7-.4-.2-.7-.4-1.1-.6.2-1 .1-2.4.7-2.9 1.4-1 3.2-1.6 4.8-2.4.1.5.2.9.4 1.2zM185.8 147.9h-11.2v-.8h11.2c-.1.3-.1.6 0 .8z"/><path d="M136 95.8c.5-.2 1.1-.3 1.6-.5.7-.3 1.4-.6 2.3-1.1-1 2-4.9 3.2-6.8 2.5l.2-.2c.9-.2 1.8-.4 2.7-.7z"/><path d="M133.3 96.6c0 .1-.1.1-.2.2.1.3.2.7.2 1 0 .1-.1.3-.2.5-1.1-.5-2.2-1-3.5-1.6 0-.4.1-1.4.1-2.7 1.3 1 2.5 1.8 3.6 2.6zM138.1 89.5c.9.2 1.8.6 2.6.5.9-.1 1.7-.7 2.7-1.1-.8 2.7-2.8 3.1-5.3.6zM143.3 123.4c-2.3-.9-3.5-.2-3.5 2.2-1.7-2.4-1.7-2.4 3.1-4.3.1.5.2 1.1.4 2.1zM112.4 160.9c-2.6 1.4-4.6.9-6.9-.6-1.9-1.3-4.2-2.5-7-.6 1.6-2.1 1.6-2.1 5.9-.7 2 .7 3.9 1.4 6.1 2.3.2-1.1.3-1.7.4-2.2.8-3.4-1.7-5.8-5.2-4.9-1.5.4-3 1-4.5 1.2 3.2-1.3 6.3-4.7 9.9-.2.5-1.1.7-1.9 1.3-3.3v9zM137.3 136.8c-3.1 2.8-6.2 5.7-9.6 8.8.9.5 1.7 1 2.6 1.5-.6.4-1.2.7-1.9 1.1-.6-2.3-1.8-1.9-3.4-.8-.8.5-1.7.8-2.6 1.2-.1-.2-.2-.5-.3-.7 3.5-2.6 7-5.1 10.6-7.8-.4-.8-.8-1.5-1.1-2.2.2 0 .5-.1.5 0 1.1.9 2 1.2 3-.3.3-.6 1.4-.6 2.2-.8zM131.6 161c1-3.1 3.4-4.3 6.4-3.3.7.2 1.6-.1 2.3-.4 1.1-.6 2.2-1.5 3.3-2.1-3.5 4.2-4.1 4.4-7.8 2.6-1.3 1-2.7 2.1-4.2 3.2zM210 122.4c.7-2.8 3.2-1.9 5-2.3 1.2-.2 2.4 0 3.7.1-1.8.6-3.6 1.2-5.4 1.7-1.2.2-2.3.3-3.3.5zM196.3 122.8c4.6-.2 9.2-.4 13.7-.6-1.3.3-2.7 1-4 1-3.2.1-6.4-.2-9.7-.4zM212.9 136.5c-4.6 2-5.2 1.5-5-4.7.3 1.3.6 2.6 1 4.3 1.2.1 2.4.2 4 .4zM113.2 76.3c-6.5 2.7-11 8-16.7 11.8-.4-1.4-.9-2.9-1.4-4.5 2 2.2 3.5.5 5.1-.7 3.3-2.4 6.6-4.7 9.8-7.1 1.4-.9 2.3-.7 3.2.5zM93.3 71.7c.4 3.1.9 6.3 1.2 8.7-1.8-1.2-4-2.8-6.3-4.3l.3-.6c1.1.3 2.1.7 3.9 1.2.2-1.7.5-3.4.9-5zM111.6 64.1c2.7-2.4 5.4-2.9 6.8-1.4-2.3.5-4.6 1-6.8 1.4zM-31.4 215.9c1.2-.3 2.2-.5 3.2-.7-.6 5.3-5.7 10.5-10 10.1 1.7-1.3 3.3-2.7 5-3.9 2-1.5 2.4-3.4 1.8-5.5zM-34.5 228.5c2-3.2 4.2-6.3 8-7.7-2.2 3.1-4.1 6.4-8 7.7zM-34.5 228.5c-.4 2.1-.7 4.3-1 6.6-2.4-1.1-2.7-2.5-1.3-4.3.7-.8 1.5-1.5 2.3-2.3zM-24.5 223.2c.2 2.1.3 4.2.5 6.3h-1v-6.3h.5zM46.3 31.8c2.5-1.7 4.4-3.1 6.4-4.5.1.2.3.4.4.7-1 2.3-4 4.2-6.8 3.8zM145.3 189.2c-3.6-1.4-7.2-2.9-10.8-4.3-1.4-2.8-2.9-5.6-4.3-8.4l.4-.4c1 1.6 2.3 3 3 4.7 1.5 3.5 5.2 5.5 8.2 4.6 1.2 1.4 2.4 2.6 3.5 3.8zM57.8 77.3c-.6.7-1.5 1.3-.1 2.2 1.4.9 2.7 1.9 4.1 2.9-.3.3-.7.8-.9.7-.6-.3-1.1-.8-1.7-1.3-2.9-2.3-3.4-2.1-4.5 1.9-.4-.6-.6-1-.9-1.5-2.2.8-4.4 1.9-6.7 2.4-.9.2-2-.6-3.1-.9 3.4-1 6.9-1.7 10-3.3 1.4-.5 1.9-2.8 3.8-3.1zM6.7 96.1c-1.8-.4-3.6-.7-5.4-1.1 1.2-3.2 4.3-1.5 6.2-2.3-.2 1.1-.5 2.3-.8 3.4zM-3.1 97.8c-1.7-2.5-1.4-6.5.7-8.4-.2 2.9-.5 5.7-.7 8.4 0 .1 0 0 0 0z"/><path d="M6.6 98.8V96c1.9-.2 3.8-.4 6.1-.6-2.2 1.3-4.1 2.3-6.1 3.4zM199.2 99.8c2.1-1.9 4.3-3.9 6.6-6 .6.6 1.1 1.2 1.6 1.7-2.9 1.5-5.5 2.9-8.2 4.3 0-.1 0 0 0 0zM-17.3 140.8c3.6.4 7.1.7 10.7 1.1 0 .3 0 .6-.1.8-3.6-.3-7.1-.6-10.7-.9 0-.3 0-.7.1-1zM117.8 81.5c-.1-.4-.2-.8-.2-1.2h5.5c-.2 1.8-1.3 2.1-5.3 1.2z"/><path d="M117.8 81.4c.1 3.7-1.2 6.7-3 7.1.9-2.2 2-4.6 3-7.1 0 .1 0 0 0 0zM25.9 53.9c.3-1.1.5-2.2.8-3.3 1.1-1.1 2.3-2.1 3.4-3.2.9-.9 1.6-2 2.5-3 .2.1.4.3.6.4-1.8 2.3-3.5 4.6-5.1 6.6 1.2.8 2.2 1.5 3.2 2.2-1.8-.8-3.7-1.3-5.4.3zM18.6 39.7c.9-.6 1.8-1.4 2.8-1.9.6-.3 1.4-.4 2.1-.3.3 0 .6 1.2.4 1.5-.3.5-1 .9-1.6.9-1.2.1-2.4-.1-3.7-.2zM-34.9 59.9c5.6-2.5 11.1-5.1 16.7-7.6-2.7 2.5-3.3 5.6-2.1 9.2-.3 0-.5-.1-.8-.1-.3-1.7-.5-3.4-.9-5.7-2.6.9-5.2 1.9-7.7 2.7-1.7.7-3.5 1.1-5.2 1.5zM-31.1 53.6c.9-4.6 2.4-5.6 5.4-4-1.7 1.2-3.4 2.5-5.4 4zM181.4 76.8c-.3.7-.6 1.5-.9 2.2-1-1.1-1.9-2.3-3-3.3-.8-.7-1.8-1.2-2.5-2.4 2.2 1.2 4.3 2.4 6.4 3.5zM100.6 114.1c-2 .1-4 .3-6.4.4.3-.9.6-1.7.7-2.1 2.1.3 3.9.6 5.6.9.1.3.1.5.1.8zM257.4 17.3c.3.4.5.7.5.6 1.6-.7 2.9-1.2 4.2-1.8 1 1.5-.8 4.5 2.9 4.4 1.7-.1 2.4 2.9 4.7 2 .3-.1.8.2 1.2.8-1.6.1-3.2.3-4.9.4-.2-.5-.6-1.1-.9-1.7-.2 0-.4.1-.5.1.1.8.2 1.5.2 1.8-1.6.2-3.2.3-5.5.5-.9-1.5-2.2-3.5-3.6-5.7.5-.5 1.1-1 1.7-1.4 0-.1 0 0 0 0zM262.7 12.1c2.2.3 4.1 1 4.1 3.8-2.4-.6-4.8-1.2-7.1-1.7.7-.6 1.9-1.4 3-2.1zM244.7 22.3l2.7-3.6c1.4-.4 2.8-.8 4.9-1.3-1.8 3.4-5.7 2.7-7.6 4.9zM-19.7 129.5c-3.5 1.4-7 2.8-10.5 4.3-.1-.3-.2-.5-.3-.8l10.5-4.2c.1.3.2.5.3.7zM100.3 2.5c.3.6.6 1.1 1 1.7-1.9.6-3.7 1.1-5.6 1.7 0-.1-.1-.2-.1-.3 1.6-1.1 3.2-2.1 4.7-3.1.1 0 0 0 0 0zM156.1 63.3c.6-.1 1.2-.1 1.9-.2-.1-.7-.2-1.3-.4-2.3 1.3.1 2.5.2 3.8.3.1.3.1.7.2 1-1.7.7-3.5 1.4-5.2 2.1l-.3-.9zM42.6 80.6c-3.8.2-7.6.3-11.2.5-.6 1.2-1.1 2.3-1.7 3.5V81c-1.2-.4-2.4-.8-4-1.3 4.6 0 8.6-.1 12.6 0 1.4.2 2.9.6 4.3.9zM271.7 57.9c-1.5-.4-3.1-.9-4.6-1.3-2.4-.5-4.8-.9-7.2-1.5-.7-.2-1.4-.8-2.1-1.3l.3-.9c4.6 1.1 9.3 2.3 14.2 3.5l-.6 1.5c-.1 0 0 0 0 0zM99.3 51.6v1.7c-1.6-2-3.3-4-4.9-6h3.5c-.3.4-.7 1-1.2 1.9.7.7 1.7 1.6 2.6 2.4zM-6.7 15.8c-.2-.9-.5-1.7-.8-2.9.8 0 1.8-.1 3-.2-.8 1.3.4 3.6-2.2 3.1-.1 0 0 0 0 0zM202 115.8c1.4.3 2.2 3.2 4.1 1 .5-.6.9-1.5.9-2.3.1-2.4-.1-4.8-.2-7.3h5.9c0 .2.1.4.1.7-1.7.3-3.4.6-5.6 1 .2 2.1.5 4.3.8 6.7 3.5-.1 6.6-.2 9.6-.3-1.8 1.1-3.5 1.9-5.9 1.2-1.4-.4-3.5.2-4.9 1.1-2.6 1.5-3.7 1.3-4.8-1.8zM233.7 25.7c2.1.2 4.1.4 6.3.5-1.4 1.9-2.4 2-4 .8-.7-.5-1.5-.9-2.3-1.3 0-.1 0 0 0 0z"/></g></svg>

