<svg xmlns="http://www.w3.org/2000/svg" viewBox="0 0 256 256" xml:space="preserve"><g fill="#D8D9D9"><path d="M49.6 37.4h-8c-4.3 0-7.7 3.6-7.7 7.9v.4c0 4.4 3.5 7.9 7.7 7.9h8c4.3 0 7.7-3.6 7.7-7.9v-.4c0-4.3-3.5-7.9-7.7-7.9zM87.2 37.4h-8c-4.3 0-7.7 3.6-7.7 7.9v.4c0 4.4 3.5 7.9 7.7 7.9h8c4.3 0 7.7-3.6 7.7-7.9v-.4c0-4.3-3.5-7.9-7.7-7.9zM124.9 37.4h-8c-4.3 0-7.7 3.6-7.7 7.9v.4c0 4.4 3.5 7.9 7.7 7.9h8c4.3 0 7.7-3.6 7.7-7.9v-.4c0-4.3-3.5-7.9-7.7-7.9zM162.6 37.4h-8c-4.3 0-7.7 3.6-7.7 7.9v.4c0 4.4 3.5 7.9 7.7 7.9h8c4.3 0 7.7-3.6 7.7-7.9v-.4c0-4.3-3.5-7.9-7.7-7.9zM200.2 37.4h-8c-4.3 0-7.7 3.6-7.7 7.9v.4c0 4.4 3.5 7.9 7.7 7.9h8c4.3 0 7.7-3.6 7.7-7.9v-.4c0-4.3-3.5-7.9-7.7-7.9zM237.9 37.4h-8c-4.3 0-7.7 3.6-7.7 7.9v.4c0 4.4 3.5 7.9 7.7 7.9h8c4.3 0 7.7-3.6 7.7-7.9v-.4c0-4.3-3.4-7.9-7.7-7.9z"/></g><g fill="#D8D9D9"><path d="M26.1 65.2h-8c-4.3 0-7.7 3.6-7.7 7.9v.4c0 4.4 3.5 7.9 7.7 7.9h8c4.3 0 7.7-3.6 7.7-7.9v-.4c0-4.4-3.5-7.9-7.7-7.9zM63.8 65.2h-8c-4.3 0-7.7 3.6-7.7 7.9v.4c0 4.4 3.5 7.9 7.7 7.9h8c4.3 0 7.7-3.6 7.7-7.9v-.4c0-4.4-3.5-7.9-7.7-7.9zM101.4 65.2h-8c-4.3 0-7.7 3.6-7.7 7.9v.4c0 4.4 3.5 7.9 7.7 7.9h8c4.3 0 7.7-3.6 7.7-7.9v-.4c0-4.4-3.5-7.9-7.7-7.9zM139.1 65.2h-8c-4.3 0-7.7 3.6-7.7 7.9v.4c0 4.4 3.5 7.9 7.7 7.9h8c4.3 0 7.7-3.6 7.7-7.9v-.4c0-4.4-3.5-7.9-7.7-7.9zM176.7 65.2h-8c-4.3 0-7.7 3.6-7.7 7.9v.4c0 4.4 3.5 7.9 7.7 7.9h8c4.3 0 7.7-3.6 7.7-7.9v-.4c0-4.4-3.5-7.9-7.7-7.9zM214.4 65.2h-8c-4.3 0-7.7 3.6-7.7 7.9v.4c0 4.4 3.5 7.9 7.7 7.9h8c4.3 0 7.7-3.6 7.7-7.9v-.4c0-4.4-3.5-7.9-7.7-7.9z"/></g><g fill="#D8D9D9"><path d="M49.6 93h-8c-4.3 0-7.7 3.6-7.7 7.9v.4c0 4.4 3.5 7.9 7.7 7.9h8c4.3 0 7.7-3.6 7.7-7.9v-.4c0-4.4-3.5-7.9-7.7-7.9zM87.2 93h-8c-4.3 0-7.7 3.6-7.7 7.9v.4c0 4.4 3.5 7.9 7.7 7.9h8c4.3 0 7.7-3.6 7.7-7.9v-.4c0-4.4-3.5-7.9-7.7-7.9zM124.9 93h-8c-4.3 0-7.7 3.6-7.7 7.9v.4c0 4.4 3.5 7.9 7.7 7.9h8c4.3 0 7.7-3.6 7.7-7.9v-.4c0-4.4-3.5-7.9-7.7-7.9zM162.6 93h-8c-4.3 0-7.7 3.6-7.7 7.9v.4c0 4.4 3.5 7.9 7.7 7.9h8c4.3 0 7.7-3.6 7.7-7.9v-.4c0-4.4-3.5-7.9-7.7-7.9zM200.2 93h-8c-4.3 0-7.7 3.6-7.7 7.9v.4c0 4.4 3.5 7.9 7.7 7.9h8c4.3 0 7.7-3.6 7.7-7.9v-.4c0-4.4-3.5-7.9-7.7-7.9zM237.9 93h-8c-4.3 0-7.7 3.6-7.7 7.9v.4c0 4.4 3.5 7.9 7.7 7.9h8c4.3 0 7.7-3.6 7.7-7.9v-.4c0-4.4-3.4-7.9-7.7-7.9z"/></g><g fill="#D8D9D9"><path d="M26.1 120.8h-8c-4.3 0-7.7 3.6-7.7 7.9v.4c0 4.4 3.5 7.9 7.7 7.9h8c4.3 0 7.7-3.6 7.7-7.9v-.4c0-4.3-3.5-7.9-7.7-7.9zM63.8 120.8h-8c-4.3 0-7.7 3.6-7.7 7.9v.4c0 4.4 3.5 7.9 7.7 7.9h8c4.3 0 7.7-3.6 7.7-7.9v-.4c0-4.3-3.5-7.9-7.7-7.9zM101.4 120.8h-8c-4.3 0-7.7 3.6-7.7 7.9v.4c0 4.4 3.5 7.9 7.7 7.9h8c4.3 0 7.7-3.6 7.7-7.9v-.4c0-4.3-3.5-7.9-7.7-7.9zM139.1 120.8h-8c-4.3 0-7.7 3.6-7.7 7.9v.4c0 4.4 3.5 7.9 7.7 7.9h8c4.3 0 7.7-3.6 7.7-7.9v-.4c0-4.3-3.5-7.9-7.7-7.9zM176.7 120.8h-8c-4.3 0-7.7 3.6-7.7 7.9v.4c0 4.4 3.5 7.9 7.7 7.9h8c4.3 0 7.7-3.6 7.7-7.9v-.4c0-4.3-3.5-7.9-7.7-7.9zM214.4 120.8h-8c-4.3 0-7.7 3.6-7.7 7.9v.4c0 4.4 3.5 7.9 7.7 7.9h8c4.3 0 7.7-3.6 7.7-7.9v-.4c0-4.3-3.5-7.9-7.7-7.9z"/></g><g fill="#D8D9D9"><path d="M49.6 148.5h-8c-4.3 0-7.7 3.6-7.7 7.9v.4c0 4.4 3.5 7.9 7.7 7.9h8c4.3 0 7.7-3.6 7.7-7.9v-.4c0-4.3-3.5-7.9-7.7-7.9zM87.2 148.5h-8c-4.3 0-7.7 3.6-7.7 7.9v.4c0 4.4 3.5 7.9 7.7 7.9h8c4.3 0 7.7-3.6 7.7-7.9v-.4c0-4.3-3.5-7.9-7.7-7.9zM124.9 148.5h-8c-4.3 0-7.7 3.6-7.7 7.9v.4c0 4.4 3.5 7.9 7.7 7.9h8c4.3 0 7.7-3.6 7.7-7.9v-.4c0-4.3-3.5-7.9-7.7-7.9zM162.6 148.5h-8c-4.3 0-7.7 3.6-7.7 7.9v.4c0 4.4 3.5 7.9 7.7 7.9h8c4.3 0 7.7-3.6 7.7-7.9v-.4c0-4.3-3.5-7.9-7.7-7.9zM200.2 148.5h-8c-4.3 0-7.7 3.6-7.7 7.9v.4c0 4.4 3.5 7.9 7.7 7.9h8c4.3 0 7.7-3.6 7.7-7.9v-.4c0-4.3-3.5-7.9-7.7-7.9zM237.9 148.5h-8c-4.3 0-7.7 3.6-7.7 7.9v.4c0 4.4 3.5 7.9 7.7 7.9h8c4.3 0 7.7-3.6 7.7-7.9v-.4c0-4.3-3.4-7.9-7.7-7.9z"/></g><g fill="#D8D9D9"><path d="M26.1 176.4h-8c-4.3 0-7.7 3.6-7.7 7.9v.4c0 4.4 3.5 7.9 7.7 7.9h8c4.3 0 7.7-3.6 7.7-7.9v-.4c0-4.4-3.5-7.9-7.7-7.9zM63.8 176.4h-8c-4.3 0-7.7 3.6-7.7 7.9v.4c0 4.4 3.5 7.9 7.7 7.9h8c4.3 0 7.7-3.6 7.7-7.9v-.4c0-4.4-3.5-7.9-7.7-7.9zM101.4 176.4h-8c-4.3 0-7.7 3.6-7.7 7.9v.4c0 4.4 3.5 7.9 7.7 7.9h8c4.3 0 7.7-3.6 7.7-7.9v-.4c0-4.4-3.5-7.9-7.7-7.9zM139.1 176.4h-8c-4.3 0-7.7 3.6-7.7 7.9v.4c0 4.4 3.5 7.9 7.7 7.9h8c4.3 0 7.7-3.6 7.7-7.9v-.4c0-4.4-3.5-7.9-7.7-7.9zM176.7 176.4h-8c-4.3 0-7.7 3.6-7.7 7.9v.4c0 4.4 3.5 7.9 7.7 7.9h8c4.3 0 7.7-3.6 7.7-7.9v-.4c0-4.4-3.5-7.9-7.7-7.9zM214.4 176.4h-8c-4.3 0-7.7 3.6-7.7 7.9v.4c0 4.4 3.5 7.9 7.7 7.9h8c4.3 0 7.7-3.6 7.7-7.9v-.4c0-4.4-3.5-7.9-7.7-7.9z"/></g><g fill="#D8D9D9"><path d="M49.6 204.2h-8c-4.3 0-7.7 3.6-7.7 7.9v.4c0 4.4 3.5 7.9 7.7 7.9h8c4.3 0 7.7-3.6 7.7-7.9v-.4c0-4.4-3.5-7.9-7.7-7.9zM87.2 204.2h-8c-4.3 0-7.7 3.6-7.7 7.9v.4c0 4.4 3.5 7.9 7.7 7.9h8c4.3 0 7.7-3.6 7.7-7.9v-.4c0-4.4-3.5-7.9-7.7-7.9zM124.9 204.2h-8c-4.3 0-7.7 3.6-7.7 7.9v.4c0 4.4 3.5 7.9 7.7 7.9h8c4.3 0 7.7-3.6 7.7-7.9v-.4c0-4.4-3.5-7.9-7.7-7.9zM162.6 204.2h-8c-4.3 0-7.7 3.6-7.7 7.9v.4c0 4.4 3.5 7.9 7.7 7.9h8c4.3 0 7.7-3.6 7.7-7.9v-.4c0-4.4-3.5-7.9-7.7-7.9zM200.2 204.2h-8c-4.3 0-7.7 3.6-7.7 7.9v.4c0 4.4 3.5 7.9 7.7 7.9h8c4.3 0 7.7-3.6 7.7-7.9v-.4c0-4.4-3.5-7.9-7.7-7.9zM237.9 204.2h-8c-4.3 0-7.7 3.6-7.7 7.9v.4c0 4.4 3.5 7.9 7.7 7.9h8c4.3 0 7.7-3.6 7.7-7.9v-.4c0-4.4-3.4-7.9-7.7-7.9z"/></g></svg>

