<svg xmlns="http://www.w3.org/2000/svg" viewBox="0 0 400 400" xml:space="preserve"><path fill="#308BCB" d="M221.7 252.7s-54.3 26.5-63.1 32.1c-8.9 5.6-12.3 8.1-16.7 14.5-13.7 20.1-8.5 47.4 11.7 61 20.2 13.6 47.7 8.4 61.4-11.6 4.5-6.5 5.2-10.1 7.5-21.2 2.3-11 6.1-70.1 6.1-70.1.5-4.7-2.6-6.8-6.9-4.7zM91.7 279.5s-32.1 15.7-37.3 19c-5.3 3.3-7.2 4.8-9.8 8.6-8.1 11.8-5 28 6.9 36 11.9 8.1 28.2 5 36.3-6.9 2.7-3.9 3.1-6 4.4-12.5 1.3-6.5 3.6-41.4 3.6-41.4.3-2.8-1.6-4-4.1-2.8z"/><path fill="#F7AB1D" d="M182.9 146.1c0 40.5 32.2 73.3 71.8 73.3 39.7 0 71.8-32.8 71.8-73.3s-32.1-73.3-71.8-73.3c-39.6-.1-71.8 32.8-71.8 73.3zm200.8-11.7h-26.2c-6.1 0-11.2 5.1-11.2 11.4v.5c0 6.3 5 11.4 11.2 11.4h26.2c6.2 0 11.2-5.1 11.2-11.4v-.5c0-6.3-5-11.4-11.2-11.4zM325.1 22.3l-.5-.3c-5.3-3.1-12.2-1.3-15.3 4.2l-13.1 23.2c-3.1 5.4-1.2 12.5 4.1 15.6l.5.3c5.3 3.1 12.2 1.3 15.3-4.2l13.1-23.2c3-5.5 1.2-12.5-4.1-15.6zM316 231c-3.1-5.4-9.9-7.3-15.3-4.2l-.5.3c-5.3 3.1-7.2 10.2-4.1 15.6l13.1 23.2c3.1 5.4 9.9 7.3 15.3 4.2l.5-.3c5.3-3.1 7.2-10.2 4.1-15.6L316 231zM193.5 61.1c3.1 5.4 9.9 7.3 15.3 4.2l.5-.3c5.3-3.1 7.2-10.1 4.1-15.6l-13.1-23.2c-3.1-5.4-9.9-7.3-15.3-4.2l-.5.3c-5.3 3.1-7.2 10.1-4.1 15.6l13.1 23.2zm178.7 140.7-22.7-13.4c-5.3-3.1-12.2-1.3-15.3 4.2l-.3.5c-3.1 5.4-1.2 12.4 4.1 15.6l22.7 13.4c5.3 3.1 12.2 1.3 15.3-4.2l.3-.5c3-5.5 1.2-12.5-4.1-15.6zm-38-102.2c3.1 5.4 9.9 7.3 15.3 4.2l22.7-13.4c5.3-3.1 7.2-10.2 4.1-15.6l-.3-.5c-3.1-5.4-9.9-7.3-15.3-4.2L338 83.5c-5.3 3.2-7.2 10.2-4.1 15.6l.3.5zm-79.7-47h.5c6.1 0 11.2-5.1 11.2-11.4V14.4c0-6.3-5-11.4-11.2-11.4h-.5c-6.1 0-11.2 5.1-11.2 11.4v26.8c0 6.3 5 11.4 11.2 11.4zm.5 186.9h-.5c-6.1 0-11.2 5.1-11.2 11.4v26.8c0 6.3 5 11.4 11.2 11.4h.5c6.1 0 11.2-5.1 11.2-11.4v-26.8c0-6.2-5-11.4-11.2-11.4z"/><path fill="#D7D8D8" d="M236.3 101.1c-5 0-9.8.7-14.4 1.9-8.6-25.4-32-43.7-59.5-43.7-33.7 0-61.2 27.4-63 61.8-2.1-.3-4.1-.5-6.3-.5-26.2 0-47.4 22-47.4 49.2 0 27.2 21.2 49.2 47.4 49.2h143.2c31.4 0 56.9-26.4 56.9-59 0-32.5-25.5-58.9-56.9-58.9z"/></svg>

