<svg width="186" height="247" viewBox="0 0 186 247" fill="none" xmlns="http://www.w3.org/2000/svg">
<path d="M39.1692 125.968C39.1692 125.968 7.62918 126.898 28.0192 178.778C48.3992 230.658 50.2492 215.128 51.1792 243.848H127.719C128.529 196.368 133.189 195.698 139.469 174.598C142.989 162.768 146.149 151.118 147.459 141.888C149.299 128.948 146.429 123.138 139.659 122.408C132.869 121.668 126.449 127.298 126.719 141.278C126.979 126.678 127.629 111.678 115.919 111.218C105.779 110.818 101.019 121.028 101.019 135.488C101.019 121.328 101.479 106.478 88.9492 105.808C77.7892 105.808 73.8892 115.798 73.8892 130.338V64.9577C73.8892 49.4977 64.7792 48.8477 60.7892 48.8477C56.7992 48.8477 49.7092 51.4177 49.7092 64.0577V150.068" fill="url(#paint0_linear_495_26493)"/>
<path d="M39.1692 125.968C39.1692 125.968 7.62918 126.898 28.0192 178.778C48.3992 230.658 50.2492 215.128 51.1792 243.848H127.719C128.529 196.368 133.189 195.698 139.469 174.598C142.989 162.768 146.149 151.118 147.459 141.888C149.299 128.948 146.429 123.138 139.659 122.408C132.869 121.668 126.449 127.298 126.719 141.278C126.979 126.678 127.629 111.678 115.919 111.218C105.779 110.818 101.019 121.028 101.019 135.488C101.019 121.328 101.479 106.478 88.9492 105.808C77.7892 105.808 73.8892 115.798 73.8892 130.338V64.9577C73.8892 49.4977 64.7792 48.8477 60.7892 48.8477C56.7992 48.8477 49.7092 51.4177 49.7092 64.0577V150.068" stroke="#809DD3" stroke-width="4.99" stroke-linecap="round" stroke-linejoin="round"/>
<path d="M94.4688 61.0977H119.719" stroke="white" stroke-width="4.99" stroke-linecap="round" stroke-linejoin="round"/>
<path d="M2.48828 61.0977H27.7383" stroke="white" stroke-width="4.99" stroke-linecap="round" stroke-linejoin="round"/>
<path d="M84.6992 37.5102L102.549 19.6602" stroke="white" stroke-width="4.99" stroke-linecap="round" stroke-linejoin="round"/>
<path d="M61.0977 27.7383V2.48828" stroke="white" stroke-width="4.99" stroke-linecap="round" stroke-linejoin="round"/>
<path d="M37.5102 37.5102L19.6602 19.6602" stroke="white" stroke-width="4.99" stroke-linecap="round" stroke-linejoin="round"/>
<path d="M147.46 80.577L140.3 69.707H147.18L151.49 76.787L155.84 69.707H162.72L155.48 80.577L163.05 91.927H156.15L151.48 84.317L146.79 91.927H139.91L147.44 80.577H147.46Z" fill="white"/>
<path d="M185.21 91.927H164.9V87.657L172.19 80.277C174.35 78.067 175.76 76.527 176.42 75.677C177.08 74.827 177.56 74.027 177.85 73.297C178.14 72.567 178.29 71.817 178.29 71.027C178.29 69.857 177.97 68.997 177.33 68.427C176.69 67.857 175.83 67.577 174.76 67.577C173.63 67.577 172.54 67.837 171.48 68.357C170.42 68.877 169.31 69.607 168.16 70.567L164.82 66.607C166.25 65.387 167.44 64.527 168.38 64.027C169.32 63.527 170.35 63.137 171.46 62.867C172.57 62.597 173.82 62.457 175.2 62.457C177.02 62.457 178.62 62.787 180.01 63.447C181.4 64.107 182.48 65.037 183.25 66.227C184.02 67.417 184.4 68.787 184.4 70.317C184.4 71.657 184.16 72.907 183.69 74.087C183.22 75.267 182.49 76.467 181.5 77.697C180.51 78.927 178.77 80.687 176.28 82.967L172.54 86.487V86.767H185.2V91.937L185.21 91.927Z" fill="white"/>
<defs>
<linearGradient id="paint0_linear_495_26493" x1="84.5792" y1="243.848" x2="84.5792" y2="48.8477" gradientUnits="userSpaceOnUse">
<stop offset="0.75" stop-color="white" stop-opacity="0"/>
<stop offset="1" stop-color="white"/>
</linearGradient>
</defs>
</svg>


