<svg width="215" height="247" viewBox="0 -20 215 247" fill="none" xmlns="http://www.w3.org/2000/svg">
<path d="M18.7983 59.0394L2.48828 45.2494L18.2583 30.8594" stroke="white" stroke-width="4.99" stroke-linecap="round" stroke-linejoin="round"/>
<path d="M2.48828 45.2498L79.7783 44.3398" stroke="white" stroke-width="4.99" stroke-linecap="round" stroke-linejoin="round"/>
<path d="M84.5793 107.038C84.5793 107.038 53.0393 107.968 73.4293 159.848C93.8193 211.728 95.6593 196.198 96.5893 224.918H173.129C173.939 177.438 178.599 176.768 184.879 155.668C188.399 143.838 191.559 132.188 192.869 122.958C194.709 110.018 191.839 104.208 185.069 103.478C178.279 102.738 171.859 108.368 172.129 122.348C172.389 107.748 173.039 92.748 161.329 92.288C151.189 91.888 146.429 102.098 146.429 116.558C146.429 102.398 146.889 87.548 134.359 86.878C123.199 86.878 119.299 96.868 119.299 111.408V46.028C119.299 30.568 110.189 29.918 106.199 29.918C102.209 29.918 95.1193 32.488 95.1193 45.128V131.138" fill="url(#paint0_linear_495_26461)"/>
<path d="M84.5793 107.038C84.5793 107.038 53.0393 107.968 73.4293 159.848C93.8193 211.728 95.6593 196.198 96.5893 224.918H173.129C173.939 177.438 178.599 176.768 184.879 155.668C188.399 143.838 191.559 132.188 192.869 122.958C194.709 110.018 191.839 104.208 185.069 103.478C178.279 102.738 171.859 108.368 172.129 122.348C172.389 107.748 173.039 92.748 161.329 92.288C151.189 91.888 146.429 102.098 146.429 116.558C146.429 102.398 146.889 87.548 134.359 86.878C123.199 86.878 119.299 96.868 119.299 111.408V46.028C119.299 30.568 110.189 29.918 106.199 29.918C102.209 29.918 95.1193 32.488 95.1193 45.128V131.138" stroke="#809DD3" stroke-width="4.99" stroke-linecap="round" stroke-linejoin="round"/>
<path d="M106.508 2.48828V13.3783" stroke="white" stroke-width="4.99" stroke-linecap="round" stroke-linejoin="round"/>
<path d="M126.867 21.8172L134.567 14.1172" stroke="white" stroke-width="4.99" stroke-linecap="round" stroke-linejoin="round"/>
<path d="M106.887 2.48828V13.3783" stroke="white" stroke-width="4.99" stroke-linecap="round" stroke-linejoin="round"/>
<path d="M86.5281 21.8172L78.8281 14.1172" stroke="white" stroke-width="4.99" stroke-linecap="round" stroke-linejoin="round"/>
<path d="M195.547 59.0394L211.857 45.2494L196.097 30.8594" stroke="white" stroke-width="4.99" stroke-linecap="round" stroke-linejoin="round"/>
<path d="M211.856 45.2498L134.566 44.3398" stroke="white" stroke-width="4.99" stroke-linecap="round" stroke-linejoin="round"/>
<defs>
<linearGradient id="paint0_linear_495_26461" x1="129.989" y1="224.908" x2="129.989" y2="29.918" gradientUnits="userSpaceOnUse">
<stop offset="0.75" stop-color="white" stop-opacity="0"/>
<stop offset="1" stop-color="white"/>
</linearGradient>
</defs>
</svg>


