<svg width="152" height="247" viewBox="0 -20 152 247" fill="none" xmlns="http://www.w3.org/2000/svg">
<path d="M132.898 60.0394L149.208 46.2494L133.438 31.8594" stroke="white" stroke-width="4.99" stroke-linecap="round" stroke-linejoin="round"/>
<path d="M149.212 46.2498L71.9219 45.3398" stroke="white" stroke-width="4.99" stroke-linecap="round" stroke-linejoin="round"/>
<path d="M20.5129 108.038C20.5129 108.038 -11.0271 108.968 9.36292 160.848C29.7429 212.728 31.5929 197.198 32.5229 225.918H109.053C109.863 178.438 114.523 177.768 120.803 156.668C124.323 144.838 127.483 133.188 128.793 123.958C130.633 111.018 127.763 105.208 120.993 104.478C114.203 103.738 107.783 109.368 108.053 123.348C108.313 108.748 108.963 93.748 97.2529 93.288C87.1129 92.888 82.3529 103.098 82.3529 117.558C82.3529 103.398 82.8129 88.548 70.2829 87.878C59.1229 87.878 55.2229 97.868 55.2229 112.408V47.028C55.2229 31.568 46.1129 30.918 42.1229 30.918C38.1329 30.918 31.0429 33.488 31.0429 46.128V132.138" fill="url(#paint0_linear_495_26402)"/>
<path d="M20.5129 108.038C20.5129 108.038 -11.0271 108.968 9.36292 160.848C29.7429 212.728 31.5929 197.198 32.5229 225.918H109.053C109.863 178.438 114.523 177.768 120.803 156.668C124.323 144.838 127.483 133.188 128.793 123.958C130.633 111.018 127.763 105.208 120.993 104.478C114.203 103.738 107.783 109.368 108.053 123.348C108.313 108.748 108.963 93.748 97.2529 93.288C87.1129 92.888 82.3529 103.098 82.3529 117.558C82.3529 103.398 82.8129 88.548 70.2829 87.878C59.1229 87.878 55.2229 97.868 55.2229 112.408V47.028C55.2229 31.568 46.1129 30.918 42.1229 30.918C38.1329 30.918 31.0429 33.488 31.0429 46.128V132.138" stroke="#809DD3" stroke-width="4.99" stroke-linecap="round" stroke-linejoin="round"/>
<path d="M42.4453 3.48828V14.3783" stroke="white" stroke-width="4.99" stroke-linecap="round" stroke-linejoin="round"/>
<path d="M22.0828 22.8172L14.3828 15.1172" stroke="white" stroke-width="4.99" stroke-linecap="round" stroke-linejoin="round"/>
<path d="M2.76562 43.168H13.6556" stroke="white" stroke-width="4.99" stroke-linecap="round" stroke-linejoin="round"/>
<defs>
<linearGradient id="paint0_linear_495_26402" x1="65.9229" y1="225.908" x2="65.9229" y2="30.918" gradientUnits="userSpaceOnUse">
<stop offset="0.75" stop-color="white" stop-opacity="0"/>
<stop offset="1" stop-color="white"/>
</linearGradient>
</defs>
</svg>


