<svg width="152" height="248" viewBox="0 0 152 248" fill="none" xmlns="http://www.w3.org/2000/svg">
<path d="M40.1692 126.968C40.1692 126.968 8.62918 127.898 29.0192 179.778C49.3992 231.658 51.2492 216.128 52.1792 244.848H128.719C129.529 197.368 134.189 196.698 140.469 175.598C143.989 163.768 147.149 152.118 148.459 142.888C150.299 129.948 147.429 124.138 140.659 123.408C133.869 122.668 127.449 128.298 127.719 142.278C127.979 127.678 128.629 112.678 116.919 112.218C106.779 111.818 102.019 122.028 102.019 136.488C102.019 122.328 102.479 107.478 89.9492 106.808C78.7892 106.808 74.8892 116.798 74.8892 131.338V65.9577C74.8892 50.4977 65.7792 49.8477 61.7892 49.8477C57.7992 49.8477 50.7092 52.4177 50.7092 65.0577V151.068" fill="url(#paint0_linear_569_42460)"/>
<path d="M40.1692 126.968C40.1692 126.968 8.62918 127.898 29.0192 179.778C49.3992 231.658 51.2492 216.128 52.1792 244.848H128.719C129.529 197.368 134.189 196.698 140.469 175.598C143.989 163.768 147.149 152.118 148.459 142.888C150.299 129.948 147.429 124.138 140.659 123.408C133.869 122.668 127.449 128.298 127.719 142.278C127.979 127.678 128.629 112.678 116.919 112.218C106.779 111.818 102.019 122.028 102.019 136.488C102.019 122.328 102.479 107.478 89.9492 106.808C78.7892 106.808 74.8892 116.798 74.8892 131.338V65.9577C74.8892 50.4977 65.7792 49.8477 61.7892 49.8477C57.7992 49.8477 50.7092 52.4177 50.7092 65.0577V151.068" stroke="#809DD3" stroke-width="4.99" stroke-linecap="round" stroke-linejoin="round"/>
<path d="M95.4688 62.0977H120.719" stroke="white" stroke-width="4.99" stroke-linecap="round" stroke-linejoin="round"/>
<path d="M3.48828 62.0977H28.7383" stroke="white" stroke-width="4.99" stroke-linecap="round" stroke-linejoin="round"/>
<path d="M85.6992 38.5102L103.549 20.6602" stroke="white" stroke-width="4.99" stroke-linecap="round" stroke-linejoin="round"/>
<path d="M62.0977 28.7383V3.48828" stroke="white" stroke-width="4.99" stroke-linecap="round" stroke-linejoin="round"/>
<path d="M38.5102 38.5102L20.6602 20.6602" stroke="white" stroke-width="4.99" stroke-linecap="round" stroke-linejoin="round"/>
<defs>
<linearGradient id="paint0_linear_569_42460" x1="85.5792" y1="244.848" x2="85.5792" y2="49.8477" gradientUnits="userSpaceOnUse">
<stop offset="0.75" stop-color="white" stop-opacity="0"/>
<stop offset="1" stop-color="white"/>
</linearGradient>
</defs>
</svg>


