<svg width="86" height="86" viewBox="0 0 86 86" fill="none" xmlns="http://www.w3.org/2000/svg">
<g filter="url(#filter0_d)">
<path d="M43.5793 61.3562C53.602 61.3562 61.727 53.2232 61.727 43.1906C61.727 33.1579 53.602 25.0249 43.5793 25.0249C33.5566 25.0249 25.4316 33.1579 25.4316 43.1906C25.4316 53.2232 33.5566 61.3562 43.5793 61.3562Z" fill="url(#paint0_radial)"/>
<path d="M43.5844 20.898C43.1691 20.898 42.7708 20.7329 42.4772 20.4389C42.1835 20.145 42.0186 19.7463 42.0186 19.3306V2.48318C42.0401 2.08264 42.2142 1.7056 42.5051 1.42969C42.796 1.15378 43.1814 1 43.5822 1C43.9829 1 44.3684 1.15378 44.6592 1.42969C44.9501 1.7056 45.1242 2.08264 45.1458 2.48318V19.3306C45.1464 19.5362 45.1064 19.7399 45.0282 19.9301C44.95 20.1202 44.8351 20.293 44.6901 20.4387C44.545 20.5843 44.3727 20.6998 44.183 20.7786C43.9932 20.8574 43.7898 20.898 43.5844 20.898Z" fill="url(#paint1_radial)"/>
<path d="M43.5844 86C43.1691 86 42.7708 85.8348 42.4772 85.5409C42.1835 85.247 42.0186 84.8483 42.0186 84.4326V67.5942C42.0401 67.1937 42.2142 66.8166 42.5051 66.5407C42.796 66.2648 43.1814 66.111 43.5822 66.111C43.9829 66.111 44.3684 66.2648 44.6592 66.5407C44.9501 66.8166 45.1242 67.1937 45.1458 67.5942V84.4416C45.1446 84.8553 44.9795 85.2517 44.6869 85.5438C44.3942 85.8359 43.9977 86 43.5844 86Z" fill="url(#paint2_radial)"/>
<path d="M26.5403 27.965C26.3355 27.9659 26.1326 27.9263 25.9431 27.8486C25.7536 27.7709 25.5813 27.6565 25.4361 27.512L13.5337 15.5978C13.2575 15.3006 13.1072 14.9078 13.1145 14.5019C13.1218 14.096 13.2861 13.7089 13.5729 13.4218C13.8596 13.1348 14.2464 12.9703 14.6519 12.963C15.0574 12.9557 15.4498 13.1061 15.7467 13.3826L27.6446 25.2967C27.8624 25.5159 28.0105 25.7947 28.0705 26.0979C28.1304 26.4012 28.0994 26.7154 27.9814 27.0011C27.8633 27.2868 27.6636 27.5311 27.4071 27.7035C27.1507 27.8758 26.8491 27.9683 26.5403 27.9695V27.965Z" fill="url(#paint3_radial)"/>
<path d="M72.5255 73.9952C72.3207 73.9964 72.1177 73.9569 71.9282 73.8792C71.7386 73.8014 71.5664 73.6869 71.4213 73.5422L59.5235 61.6326C59.23 61.3394 59.0649 60.9416 59.0645 60.5266C59.064 60.1116 59.2283 59.7134 59.5212 59.4197C59.8141 59.1259 60.2115 58.9606 60.6261 58.9602C61.0407 58.9598 61.4385 59.1242 61.7319 59.4174L73.6343 71.3315C73.853 71.5504 74.0019 71.8293 74.062 72.133C74.1222 72.4366 74.0909 72.7513 73.9721 73.0371C73.8533 73.3229 73.6524 73.567 73.3949 73.7384C73.1373 73.9098 72.8348 74.0007 72.5255 73.9998V73.9952Z" fill="url(#paint4_radial)"/>
<path d="M19.4808 45.0253H2.65001C2.4376 45.0367 2.22509 45.0047 2.02544 44.9312C1.82579 44.8578 1.6432 44.7443 1.48879 44.5979C1.33439 44.4514 1.21142 44.275 1.12738 44.0794C1.04334 43.8838 1 43.6731 1 43.4601C1 43.2472 1.04334 43.0365 1.12738 42.8409C1.21142 42.6453 1.33439 42.4689 1.48879 42.3224C1.6432 42.176 1.82579 42.0625 2.02544 41.989C2.22509 41.9156 2.4376 41.8836 2.65001 41.895H19.4808C19.8809 41.9166 20.2576 42.0909 20.5332 42.382C20.8088 42.6732 20.9625 43.059 20.9625 43.4601C20.9625 43.8613 20.8088 44.2471 20.5332 44.5383C20.2576 44.8294 19.8809 45.0037 19.4808 45.0253Z" fill="url(#paint5_radial)"/>
<path d="M84.5179 45.0253H67.6871C67.4747 45.0367 67.2622 45.0047 67.0625 44.9312C66.8629 44.8578 66.6803 44.7443 66.5259 44.5979C66.3715 44.4514 66.2485 44.275 66.1645 44.0794C66.0805 43.8838 66.0371 43.6731 66.0371 43.4601C66.0371 43.2472 66.0805 43.0365 66.1645 42.8409C66.2485 42.6453 66.3715 42.4689 66.5259 42.3224C66.6803 42.176 66.8629 42.0625 67.0625 41.989C67.2622 41.9156 67.4747 41.8836 67.6871 41.895H84.5179C84.918 41.9166 85.2947 42.0909 85.5703 42.382C85.8459 42.6732 85.9996 43.059 85.9996 43.4601C85.9996 43.8613 85.8459 44.2471 85.5703 44.5383C85.2947 44.8294 84.918 45.0037 84.5179 45.0253Z" fill="url(#paint6_radial)"/>
<path d="M14.6379 73.9953C14.3291 73.9953 14.0271 73.9037 13.7703 73.732C13.5134 73.5603 13.3133 73.3161 13.195 73.0305C13.0768 72.7449 13.0459 72.4306 13.1062 72.1273C13.1665 71.8241 13.3153 71.5456 13.5337 71.327L25.4361 59.4129C25.5814 59.2677 25.7538 59.1526 25.9436 59.0742C26.1333 58.9957 26.3366 58.9555 26.5419 58.9557C26.7472 58.9559 26.9504 58.9966 27.14 59.0754C27.3296 59.1542 27.5018 59.2697 27.6468 59.4151C27.7918 59.5606 27.9068 59.7332 27.9852 59.9231C28.0635 60.1131 28.1038 60.3166 28.1035 60.5221C28.1033 60.7276 28.0627 60.931 27.9839 61.1208C27.9052 61.3106 27.7899 61.4829 27.6446 61.6281L15.7467 73.5377C15.6015 73.6838 15.4286 73.7994 15.2383 73.878C15.0479 73.9565 14.8438 73.9964 14.6379 73.9953Z" fill="url(#paint7_radial)"/>
<path d="M60.6273 27.9649C60.3185 27.9637 60.0169 27.8712 59.7605 27.6988C59.5041 27.5265 59.3043 27.2822 59.1862 26.9965C59.0682 26.7108 59.0372 26.3966 59.0971 26.0933C59.1571 25.7901 59.3053 25.5113 59.5231 25.2921L71.4209 13.378C71.5642 13.2238 71.7371 13.1001 71.9292 13.0143C72.1213 12.9285 72.3287 12.8823 72.5391 12.8785C72.7494 12.8747 72.9584 12.9134 73.1535 12.9922C73.3485 13.071 73.5258 13.1884 73.6745 13.3373C73.8233 13.4862 73.9405 13.6636 74.0193 13.8589C74.0981 14.0542 74.1367 14.2633 74.1329 14.4739C74.1291 14.6845 74.083 14.8921 73.9972 15.0844C73.9115 15.2767 73.7879 15.4498 73.6339 15.5932L61.7315 27.5074C61.5865 27.6525 61.4144 27.7676 61.2249 27.8461C61.0354 27.9246 60.8324 27.9649 60.6273 27.9649Z" fill="url(#paint8_radial)"/>
</g>
<defs>
<filter id="filter0_d" x="0" y="0" width="86" height="86" filterUnits="userSpaceOnUse" color-interpolation-filters="sRGB">
<feFlood flood-opacity="0" result="BackgroundImageFix"/>
<feColorMatrix in="SourceAlpha" type="matrix" values="0 0 0 0 0 0 0 0 0 0 0 0 0 0 0 0 0 0 127 0" result="hardAlpha"/>
<feOffset dx="-0.5" dy="-0.5"/>
<feGaussianBlur stdDeviation="0.25"/>
<feComposite in2="hardAlpha" operator="out"/>
<feColorMatrix type="matrix" values="0 0 0 0 0 0 0 0 0 0 0 0 0 0 0 0 0 0 0.75 0"/>
<feBlend mode="multiply" in2="BackgroundImageFix" result="effect1_dropShadow"/>
<feBlend mode="normal" in="SourceGraphic" in2="effect1_dropShadow" result="shape"/>
</filter>
<radialGradient id="paint0_radial" cx="0" cy="0" r="1" gradientUnits="userSpaceOnUse" gradientTransform="translate(44.7605 33.9718) scale(24.7279 24.7524)">
<stop offset="0.24" stop-color="#FFD41D"/>
<stop offset="1" stop-color="#FF931E"/>
</radialGradient>
<radialGradient id="paint1_radial" cx="0" cy="0" r="1" gradientUnits="userSpaceOnUse" gradientTransform="translate(252.136 3206.37) scale(630.477 4011.64)">
<stop offset="0.24" stop-color="#FFD41D"/>
<stop offset="1" stop-color="#FF931E"/>
</radialGradient>
<radialGradient id="paint2_radial" cx="0" cy="0" r="1" gradientUnits="userSpaceOnUse" gradientTransform="translate(252.135 3270.02) scale(630.474 4009.81)">
<stop offset="0.24" stop-color="#FFD41D"/>
<stop offset="1" stop-color="#FF931E"/>
</radialGradient>
<radialGradient id="paint3_radial" cx="0" cy="0" r="1" gradientUnits="userSpaceOnUse" gradientTransform="translate(1020.02 2430.4) scale(3021.32 3025.51)">
<stop offset="0.24" stop-color="#FFD41D"/>
<stop offset="1" stop-color="#FF931E"/>
</radialGradient>
<radialGradient id="paint4_radial" cx="0" cy="0" r="1" gradientUnits="userSpaceOnUse" gradientTransform="translate(1068.75 2481.68) scale(3029.67 3032.12)">
<stop offset="0.24" stop-color="#FFD41D"/>
<stop offset="1" stop-color="#FF931E"/>
</radialGradient>
<radialGradient id="paint5_radial" cx="0" cy="0" r="1" gradientUnits="userSpaceOnUse" gradientTransform="translate(1342.28 546.882) scale(4024.63 632.012)">
<stop offset="0.24" stop-color="#FFD41D"/>
<stop offset="1" stop-color="#FF931E"/>
</radialGradient>
<radialGradient id="paint6_radial" cx="0" cy="0" r="1" gradientUnits="userSpaceOnUse" gradientTransform="translate(1407.32 546.882) scale(4024.63 632.012)">
<stop offset="0.24" stop-color="#FFD41D"/>
<stop offset="1" stop-color="#FF931E"/>
</radialGradient>
<radialGradient id="paint7_radial" cx="0" cy="0" r="1" gradientUnits="userSpaceOnUse" gradientTransform="translate(1022.77 2481.68) scale(3029.67 3032.13)">
<stop offset="0.24" stop-color="#FFD41D"/>
<stop offset="1" stop-color="#FF931E"/>
</radialGradient>
<radialGradient id="paint8_radial" cx="0" cy="0" r="1" gradientUnits="userSpaceOnUse" gradientTransform="translate(1071.34 2443.19) scale(3037.41 3041.62)">
<stop offset="0.24" stop-color="#FFD41D"/>
<stop offset="1" stop-color="#FF931E"/>
</radialGradient>
</defs>
</svg>


